<svg width="32" height="488" viewBox="0 0 32 488" fill="none" xmlns="http://www.w3.org/2000/svg">
<path d="M16 4L16 480" stroke="url(#paint0_linear_1659_3391)" stroke-width="8"/>
<circle cx="16" cy="8" r="8" transform="rotate(-90 16 8)" fill="url(#paint1_linear_1659_3391)"/>
<g clip-path="url(#clip0_1659_3391)">
<path d="M17.9088 484.37L30.5646 458.892C31.225 457.562 30.2579 456.002 28.7734 456.002L27.6073 456.002C26.8402 456.002 26.1408 456.441 25.8068 457.131L17.415 474.482C17.1253 475.081 16.5184 475.461 15.8529 475.461C14.8945 475.461 14.1176 476.238 14.1176 477.197L14.1176 483.48C14.1176 485.593 16.9687 486.262 17.9088 484.37Z" fill="url(#paint2_linear_1659_3391)"/>
<path d="M14.0912 484.37L1.43543 458.892C0.775027 457.562 1.74214 456.002 3.22662 456.002L4.39273 456.002C5.15977 456.002 5.85923 456.441 6.1932 457.131L14.585 474.482C14.8747 475.081 15.4816 475.461 16.1471 475.461C17.1055 475.461 17.8824 476.238 17.8824 477.197L17.8824 483.48C17.8824 485.593 15.0313 486.262 14.0912 484.37Z" fill="url(#paint3_linear_1659_3391)"/>
</g>
<defs>
<linearGradient id="paint0_linear_1659_3391" x1="15" y1="4" x2="43.8394" y2="5.69273" gradientUnits="userSpaceOnUse">
<stop stop-color="#0071BC"/>
<stop offset="1" stop-color="#00C0F3"/>
</linearGradient>
<linearGradient id="paint1_linear_1659_3391" x1="8" y1="16" x2="24.5515" y2="15.4076" gradientUnits="userSpaceOnUse">
<stop stop-color="#0071BC"/>
<stop offset="1" stop-color="#00C0F3"/>
</linearGradient>
<linearGradient id="paint2_linear_1659_3391" x1="14.1176" y1="456.002" x2="16.7906" y2="493.098" gradientUnits="userSpaceOnUse">
<stop stop-color="#00C0F3"/>
<stop offset="1" stop-color="#0071BC"/>
</linearGradient>
<linearGradient id="paint3_linear_1659_3391" x1="17.8824" y1="456.002" x2="15.2094" y2="493.098" gradientUnits="userSpaceOnUse">
<stop stop-color="#00C0F3"/>
<stop offset="1" stop-color="#0071BC"/>
</linearGradient>
<clipPath id="clip0_1659_3391">
<rect width="32" height="32" fill="white" transform="translate(32 456) rotate(90)"/>
</clipPath>
</defs>
</svg>
