<svg width="488" height="32" viewBox="0 0 488 32" fill="none" xmlns="http://www.w3.org/2000/svg">
<path d="M4 16H480" stroke="url(#paint0_linear_1659_3390)" stroke-width="8"/>
<circle cx="8" cy="16" r="8" transform="rotate(180 8 16)" fill="url(#paint1_linear_1659_3390)"/>
<g clip-path="url(#clip0_1659_3390)">
<path d="M484.37 14.0912L458.892 1.43543C457.562 0.775027 456.002 1.74214 456.002 3.22662V4.39273C456.002 5.15977 456.441 5.85923 457.131 6.1932L474.482 14.585C475.081 14.8747 475.461 15.4816 475.461 16.1471C475.461 17.1055 476.238 17.8824 477.197 17.8824H483.48C485.593 17.8824 486.262 15.0313 484.37 14.0912Z" fill="url(#paint2_linear_1659_3390)"/>
<path d="M484.37 17.9088L458.892 30.5646C457.562 31.225 456.002 30.2579 456.002 28.7734V27.6073C456.002 26.8402 456.441 26.1408 457.131 25.8068L474.482 17.415C475.081 17.1253 475.461 16.5184 475.461 15.8529C475.461 14.8945 476.238 14.1176 477.197 14.1176H483.48C485.593 14.1176 486.262 16.9687 484.37 17.9088Z" fill="url(#paint3_linear_1659_3390)"/>
</g>
<defs>
<linearGradient id="paint0_linear_1659_3390" x1="4" y1="17" x2="5.69273" y2="-11.8394" gradientUnits="userSpaceOnUse">
<stop stop-color="#0071BC"/>
<stop offset="1" stop-color="#00C0F3"/>
</linearGradient>
<linearGradient id="paint1_linear_1659_3390" x1="-5.02307e-07" y1="24" x2="16.5515" y2="23.4076" gradientUnits="userSpaceOnUse">
<stop stop-color="#0071BC"/>
<stop offset="1" stop-color="#00C0F3"/>
</linearGradient>
<linearGradient id="paint2_linear_1659_3390" x1="456.002" y1="17.8824" x2="493.098" y2="15.2094" gradientUnits="userSpaceOnUse">
<stop stop-color="#00C0F3"/>
<stop offset="1" stop-color="#0071BC"/>
</linearGradient>
<linearGradient id="paint3_linear_1659_3390" x1="456.002" y1="14.1176" x2="493.098" y2="16.7906" gradientUnits="userSpaceOnUse">
<stop stop-color="#00C0F3"/>
<stop offset="1" stop-color="#0071BC"/>
</linearGradient>
<clipPath id="clip0_1659_3390">
<rect width="32" height="32" fill="white" transform="translate(456)"/>
</clipPath>
</defs>
</svg>
