<svg width="24" height="16" viewBox="0 0 24 16" fill="none" xmlns="http://www.w3.org/2000/svg">
<g clip-path="url(#clip0_2372_2753)">
<path d="M19.5547 6.83205C20.0142 6.5257 20.1384 5.90483 19.8321 5.4453C19.5257 4.98577 18.9048 4.8616 18.4453 5.16795L19.5547 6.83205ZM12 10.6667L11.4453 11.4987C11.7812 11.7226 12.2188 11.7226 12.5547 11.4987L12 10.6667ZM5.5547 5.16795C5.09517 4.8616 4.4743 4.98577 4.16795 5.4453C3.8616 5.90483 3.98577 6.5257 4.4453 6.83205L5.5547 5.16795ZM18.4453 5.16795L11.4453 9.83462L12.5547 11.4987L19.5547 6.83205L18.4453 5.16795ZM12.5547 9.83462L5.5547 5.16795L4.4453 6.83205L11.4453 11.4987L12.5547 9.83462Z" fill="#121616"/>
</g>
<defs>
<clipPath id="clip0_2372_2753">
<rect width="16" height="24" fill="white" transform="translate(24) rotate(90)"/>
</clipPath>
</defs>
</svg>
