<svg width="32" height="32" viewBox="0 0 32 32" fill="none" xmlns="http://www.w3.org/2000/svg">
<path d="M12.7071 5.95989C12.3166 5.56936 11.6834 5.56936 11.2929 5.95989C10.9024 6.35041 10.9024 6.98357 11.2929 7.3741L12.7071 5.95989ZM21.3333 16.0003L22.0404 16.7074C22.431 16.3169 22.431 15.6837 22.0404 15.2932L21.3333 16.0003ZM11.2929 24.6266C10.9024 25.0171 10.9024 25.6502 11.2929 26.0408C11.6834 26.4313 12.3166 26.4313 12.7071 26.0408L11.2929 24.6266ZM11.2929 7.3741L20.6262 16.7074L22.0404 15.2932L12.7071 5.95989L11.2929 7.3741ZM20.6262 15.2932L11.2929 24.6266L12.7071 26.0408L22.0404 16.7074L20.6262 15.2932Z" fill="#FEFEFE"/>
</svg>
