<svg width="1614" height="826" viewBox="0 0 1614 826" fill="none" xmlns="http://www.w3.org/2000/svg">
<path d="M1242.26 2.09737C1088.46 -13.0549 951.753 55.1302 868.208 166.878L630.867 530.532C585.297 613.869 494.158 666.902 391.626 657.431C277.702 647.961 182.766 555.154 169.474 441.512C152.386 293.778 268.209 168.772 414.411 168.772C497.955 168.772 570.107 210.441 613.778 272.944L617.576 278.626L638.462 308.93C646.057 318.4 661.246 318.4 668.841 308.93L746.69 189.606C750.487 183.924 750.487 174.454 746.69 168.772C665.044 58.9182 528.335 -7.37291 378.335 5.88527C184.664 19.1434 9.98099 199.076 0.487292 392.267C-10.9051 630.915 178.968 826 414.411 826C556.816 826 682.132 754.027 758.082 644.173L759.98 640.385L763.778 634.703L807.449 568.412L813.145 558.942C824.538 587.352 837.828 613.869 853.018 638.491L858.715 646.067C932.765 754.027 1058.08 826 1200.49 826C1266.94 826 1327.7 810.848 1382.76 784.332C1392.26 780.544 1396.06 767.285 1390.36 757.815L1316.31 644.173C1310.61 636.597 1303.02 634.703 1293.52 638.491C1265.04 649.855 1232.77 657.432 1198.59 657.432C1105.55 657.432 1023.9 604.399 982.132 528.638C959.347 486.969 949.854 439.618 953.651 388.479C965.044 274.838 1056.18 182.03 1170.11 168.772C1318.21 153.62 1443.52 267.262 1443.52 413.102C1443.52 443.406 1437.83 469.923 1428.33 496.439C1426.44 502.121 1426.44 507.803 1430.23 511.591L1513.78 640.386C1521.37 651.75 1536.56 651.75 1544.16 640.386C1597.32 560.836 1623.9 464.241 1610.61 358.175C1587.83 170.666 1432.13 21.0377 1242.26 2.09737Z" fill="#F8F8F8"/>
</svg>
