<svg width="322" height="325" viewBox="0 0 322 325" fill="none" xmlns="http://www.w3.org/2000/svg">
<path d="M4 214.592H255.122M4 214.592V88.7614C4 74.8271 12.0325 69.7601 25.9837 69.3378H235.675C248.78 69.3378 255.122 74.8271 255.122 88.7614V214.592M4 214.592V237.394C4 250.484 12.0325 256.818 25.561 256.818H103.35M255.122 214.592V237.394C255.122 250.484 248.78 256.818 235.252 256.818H156.618M103.35 256.818V288.064M103.35 256.818H156.618M103.35 288.064H93.626C86.439 288.064 77.561 297.776 77.561 304.532V317C77.561 319.209 79.3518 321 81.561 321H177.138C179.347 321 181.138 319.209 181.138 317V304.532C181.138 297.776 174.374 288.487 167.61 288.064H156.618M103.35 288.064H156.618M156.618 288.064V256.818M199.74 234.438H205.236M220.033 234.438H225.106M65.7236 181.657H192.976M65.7236 181.657V98.0509M65.7236 181.657L115.61 140.698M192.976 181.657V98.0509M192.976 181.657L142.244 140.698M192.976 98.0509H65.7236M192.976 98.0509L142.244 140.698M65.7236 98.0509L115.61 140.698M115.61 140.698L126.638 149.304C128.103 150.447 130.161 150.431 131.608 149.265L142.244 140.698M316 6L256.391 26.2001C252.745 27.4355 252.777 32.6032 256.438 33.7927L280.065 41.4692M316 6L295.696 65.0602C294.457 68.6628 289.36 68.6585 288.128 65.0537L280.065 41.4692M316 6L280.065 41.4692M275.415 85.8056V90.0281M275.415 107.34V127.609C275.415 154.633 229.333 150.832 229.333 127.609V111.34C229.333 109.131 227.542 107.34 225.333 107.34H208.195" stroke="#FEFEFE" stroke-width="7"/>
</svg>
