<svg width="28" height="28" viewBox="0 0 28 28" fill="none" xmlns="http://www.w3.org/2000/svg">
<path d="M24.9097 15.7421C24.9855 15.136 25.0613 14.6057 25.0613 13.9997C25.0613 7.93907 20.137 2.93907 14.0007 2.93907C13.3946 2.93907 12.8643 3.01483 12.2582 3.09058C11.2734 2.56028 10.2128 2.33301 9.15217 2.33301C5.36429 2.33301 2.33398 5.36331 2.33398 9.15119C2.33398 10.2118 2.56126 11.2724 3.09156 12.2573C3.0158 12.8633 2.94005 13.3936 2.94005 13.9997C2.94005 20.0603 7.86429 25.0603 14.0007 25.0603C14.6067 25.0603 15.137 24.9845 15.7431 24.9088C16.7279 25.3633 17.7885 25.6663 18.8491 25.6663C22.637 25.6663 25.6673 22.636 25.6673 18.8482C25.6673 17.7876 25.3643 16.7269 24.9097 15.7421ZM18.6219 18.0148C18.3946 18.4694 18.0916 18.8482 17.637 19.1512C17.1825 19.4542 16.7279 19.6815 16.1219 19.833C15.5158 19.9845 14.834 20.0603 14.0764 20.0603C12.4855 20.0603 11.1976 19.6815 10.2885 18.9997C9.75823 18.5451 9.30368 18.0148 9.07641 17.333C8.77338 16.7269 9.30368 15.9694 10.0613 15.9694H10.2885C10.7431 15.9694 11.1976 16.2724 11.3491 16.6512C11.5007 17.03 11.7279 17.333 12.031 17.5603C12.4855 17.9391 13.1673 18.0906 14.0007 18.0906C14.7582 18.0906 15.3643 17.9391 15.8188 17.7118C16.2734 17.4845 16.5007 17.03 16.5007 16.5754C16.5007 16.3482 16.4249 16.1966 16.3491 16.0451C16.2734 15.8936 16.0461 15.7421 15.8946 15.6663C15.6673 15.5148 15.44 15.4391 15.0613 15.3633C14.7582 15.2876 14.3794 15.136 13.9249 15.0603L13.4703 14.9088C12.94 14.7573 12.334 14.6057 11.8794 14.4542C11.3491 14.3027 10.8946 14.0754 10.5158 13.8482C10.137 13.6209 9.83399 13.3179 9.60671 12.8633C9.37944 12.4845 9.30368 11.9542 9.30368 11.3482C9.30368 10.7421 9.4552 10.2118 9.68247 9.75725C9.90974 9.30271 10.2885 8.92392 10.6673 8.69664C11.1219 8.39361 11.5764 8.16634 12.1825 8.09058C12.7128 7.93907 13.3188 7.86331 14.0007 7.86331C14.7582 7.86331 15.3643 7.93907 15.9703 8.09058C16.5764 8.2421 17.031 8.46937 17.4855 8.84816C17.94 9.15119 18.2431 9.52998 18.4703 10.0603C18.8491 10.7421 18.3188 11.6512 17.4855 11.6512H17.2582C16.8037 11.6512 16.4249 11.4239 16.1976 11.0451C16.0461 10.8179 15.8946 10.5906 15.6673 10.3633C15.2885 10.0603 14.6825 9.90877 14.0007 9.90877C13.3188 9.90877 12.7885 10.0603 12.4097 10.2876C12.031 10.5148 11.8794 10.8936 11.8794 11.2724C11.8794 11.4997 11.9552 11.6512 12.031 11.8027C12.1067 11.9542 12.2582 12.1057 12.4855 12.1815C12.7128 12.2573 12.94 12.4088 13.2431 12.4845C13.5461 12.5603 13.9249 12.636 14.3794 12.7876C14.834 12.8633 15.2128 13.0148 15.6673 13.0906C16.0461 13.1663 16.4249 13.3179 16.8037 13.3936C17.1825 13.5451 17.4855 13.6966 17.7885 13.8482C18.0916 13.9997 18.3188 14.2269 18.5461 14.4542C18.7734 14.6815 18.9249 14.9845 19.0007 15.2876C19.1522 15.5906 19.1522 16.0451 19.1522 16.4997C19.0007 17.03 18.8491 17.5603 18.6219 18.0148Z" fill="#FEFFFF"/>
</svg>
