<svg width="40" height="40" viewBox="0 0 40 40" fill="none" xmlns="http://www.w3.org/2000/svg">
<circle cx="20" cy="20" r="20" fill="#00A921"/>
<path fill-rule="evenodd" clip-rule="evenodd" d="M15.7861 15.4986C15.7857 18.2597 15.7702 19.05 15.7132 19.248C15.5159 19.9321 14.9966 20.5039 14.2893 20.8156C13.9063 20.9845 13.8169 21.0034 13.3264 21.0202C12.8807 21.0354 12.7254 21.0198 12.4434 20.9315C11.6231 20.6745 11.033 20.131 10.7609 19.3818C10.6529 19.0844 10.6497 18.9751 10.6497 15.5629V12.0502H9.32484H8L8.00189 15.624C8.00335 18.4041 8.02001 19.2814 8.07695 19.574C8.37615 21.1114 9.44072 22.4447 10.92 23.1348C13.5381 24.3562 16.6851 23.409 18.0136 20.9999C18.4674 20.1772 18.5979 19.6552 18.6461 18.4705L18.6798 17.6429L18.9188 18.0692C19.2479 18.6566 19.7902 19.5018 20.2232 20.1022L20.586 20.6054L19.7365 24.2654C19.2693 26.2784 18.8966 27.9424 18.9083 27.9631C18.9379 28.0156 21.614 28.0105 21.649 27.9579C21.6647 27.9343 21.9379 26.7159 22.256 25.2503L22.8345 22.5857L23.0029 22.6822C24.5204 23.5522 26.594 23.8191 28.1957 23.3507C30.5629 22.6584 32.1216 20.533 31.9926 18.1735C31.8723 15.9732 30.2558 14.141 27.9075 13.5432C27.2814 13.3838 25.8924 13.3864 25.25 13.5481C23.4754 13.9947 22.1344 15.2203 21.4365 17.0335L21.2655 17.4776L20.8959 16.9082C20.0804 15.652 19.3077 14.112 18.804 12.7398L18.5324 12H17.1596H15.7868L15.7861 15.4986ZM27.0884 16.0142C28.1226 16.1637 29.067 16.9772 29.3012 17.9202C29.3726 18.2077 29.3726 18.7333 29.3012 19.0208C29.0913 19.8661 28.2792 20.6687 27.3706 20.929C26.6316 21.1407 25.5937 21.0157 24.6813 20.6052C24.1089 20.3476 23.4987 19.9475 23.5369 19.855C23.5515 19.8197 23.6271 19.5446 23.7049 19.2436C24.0071 18.0743 24.0718 17.879 24.3019 17.4389C24.7019 16.6739 25.3115 16.1924 26.0746 16.0386C26.4953 15.9539 26.6463 15.9502 27.0884 16.0142Z" fill="#FEFFFF"/>
</svg>
