<svg width="296" height="645" viewBox="0 0 296 645" fill="none" xmlns="http://www.w3.org/2000/svg">
<path opacity="0.15" d="M50.6922 183.161C32.1392 184.107 14.9114 191.777 2.2114 204.701C1.43835 205.541 0.665314 206.277 0.00268555 207.117V68.9469C0.00268555 45.2005 13.3653 23.4504 35.894 10.6316C59.4166 -2.92281 88.3505 -3.55325 113.309 8.9504C130.647 17.6714 140.697 31.541 145.997 41.4179C130.757 41.4179 116.511 47.7222 108.56 52.0302C94.8662 59.3853 79.847 71.6788 77.8592 81.0302C77.4175 83.1317 77.8592 85.2332 79.074 87.0194C80.2888 88.8056 82.1662 89.9614 84.3748 90.3817L84.927 90.4868C85.3688 90.4868 85.8105 90.4868 86.2523 90.4868C90.007 90.3817 93.3201 87.7549 94.0931 84.2875C94.9766 81.9759 102.817 73.2549 116.732 65.7947C125.346 61.1715 142.022 54.0266 156.378 58.8599L157.262 59.1751H157.593C177.803 64.8491 191.276 73.9904 197.57 86.494C203.755 98.6825 203.313 114.233 196.135 132.831C153.286 133.356 124.021 151.429 109.002 186.733C102.817 201.654 100.057 217.204 100.719 233.175C100.83 237.378 104.474 240.741 109.002 240.741H109.223C113.75 240.636 117.395 236.958 117.284 232.65C116.732 218.886 119.162 205.436 124.352 192.617C137.494 161.726 161.9 147.751 201.325 148.697C211.264 149.538 236.002 153.635 254.665 172.759C274.985 193.563 281.501 224.875 271.451 254.295C270.568 256.817 271.12 259.444 272.777 261.545C290.998 283.926 303.036 321.542 290.557 349.596C280.176 372.817 254.886 386.687 215.461 390.784C210.933 391.205 207.62 395.092 208.062 399.505C208.504 403.813 212.7 406.966 217.228 406.545C245.499 403.603 267.917 395.828 284.041 383.219C290.336 391.94 297.735 407.281 295.637 428.926C293.097 455.299 274.654 478.835 247.597 490.078C243.732 491.654 241.744 495.752 242.959 499.535C246.051 508.781 250.137 526.959 243.07 546.502C228.934 585.589 183.324 595.991 181.337 596.412C179.238 596.832 177.361 598.093 176.146 599.879C157.924 627.513 126.009 644.64 92.6575 644.64C82.6079 644.64 72.7792 643.064 63.2818 639.912C35.6731 630.665 16.5679 610.807 6.62878 580.756C4.53052 574.241 2.87399 567.517 1.76965 560.792C3.53662 543.875 9.94183 527.694 20.4331 513.825C38.434 490.183 63.0609 480.937 76.0922 477.469C80.5096 476.314 83.0497 472.006 81.8349 467.803C81.2827 465.806 79.847 464.125 77.9697 463.074C76.0923 462.024 73.7731 461.814 71.6749 462.339C56.5453 466.332 28.0531 477.049 7.0705 504.683C4.53052 508.046 2.10095 511.513 0.00268555 515.19V248.936C0.886169 222.248 23.5253 200.288 51.5757 198.922C53.7844 198.817 55.7722 197.871 57.3183 196.295C58.754 194.719 59.527 192.722 59.4166 190.621C59.0853 186.313 55.2201 182.951 50.6922 183.161ZM79.847 417.683C81.3931 419.259 83.381 420.1 85.5896 420.205C94.9766 420.52 118.831 423.357 138.046 441.955C159.029 462.339 160.575 490.393 160.244 501.321C155.164 503.002 150.304 505.209 145.666 507.73C106.351 529.585 101.05 572.875 100.388 581.281C100.057 585.589 103.48 589.372 108.008 589.687H108.229H108.671C112.977 589.687 116.622 586.43 116.953 582.332C117.064 580.546 120.156 540.093 153.949 521.18C164.882 515.19 177.471 512.038 190.061 512.038C194.699 512.038 198.344 508.466 198.344 504.158C198.344 499.85 194.589 496.277 190.061 496.277C185.644 496.277 181.116 496.593 176.698 497.328C176.477 481.252 172.391 452.777 149.752 430.817C126.34 408.227 97.4061 404.759 86.0314 404.339H85.8105C81.3931 404.339 77.7488 407.596 77.5279 411.799V412.009C77.5279 414.216 78.3009 416.212 79.847 417.683ZM50.8027 276.36L50.5818 276.15C47.4897 273.313 42.6305 273.103 39.4279 275.73C37.7714 277.096 36.6671 278.987 36.5566 281.089C36.3358 283.19 37.1088 285.186 38.5444 286.868L38.6549 286.973C54.9992 303.889 77.7488 314.292 101.824 315.973C102.707 326.06 106.351 341.085 118.831 353.799C136.5 371.766 159.029 373.237 165.434 373.237C169.962 373.237 173.717 369.665 173.717 365.357C173.717 361.049 169.962 357.476 165.434 357.476C160.575 357.476 143.789 356.321 130.868 343.081C122.033 334.045 119.272 322.908 118.389 315.763C124.021 315.132 129.543 314.081 134.844 312.505C174.49 300.737 201.104 263.857 199.669 222.878C199.558 220.777 198.675 218.781 197.018 217.415C195.362 215.944 193.264 215.208 191.055 215.313C186.527 215.418 182.883 219.096 183.104 223.509C184.318 257.447 162.563 287.813 129.984 297.585C123.027 299.686 115.738 300.737 108.45 300.737C86.5835 300.527 65.601 291.701 50.8027 276.36Z" fill="#0071BB"/>
</svg>
