<svg width="296" height="645" viewBox="0 0 296 645" fill="none" xmlns="http://www.w3.org/2000/svg">
<path opacity="0.15" d="M245.308 183.52C263.861 184.466 281.089 192.136 293.789 205.06C294.562 205.901 295.335 206.636 295.997 207.477V69.3064C295.997 45.56 282.635 23.8099 260.106 10.9911C236.583 -2.56332 207.649 -3.19375 182.691 9.30989C165.353 18.0309 155.303 31.9005 150.003 41.7774C165.243 41.7774 179.489 48.0817 187.44 52.3897C201.134 59.7448 216.153 72.0383 218.141 81.3897C218.583 83.4912 218.141 85.5927 216.926 87.3789C215.711 89.1651 213.834 90.3209 211.625 90.7412L211.073 90.8463C210.631 90.8463 210.189 90.8463 209.748 90.8463C205.993 90.7412 202.68 88.1144 201.907 84.647C201.023 82.3354 193.183 73.6144 179.268 66.1542C170.654 61.531 153.978 54.3861 139.622 59.2194L138.738 59.5346H138.407C118.197 65.2086 104.724 74.3499 98.4295 86.8535C92.2452 99.042 92.6869 114.593 99.8652 133.191C142.714 133.716 171.979 151.788 186.998 187.093C193.183 202.013 195.943 217.564 195.281 233.535C195.17 237.738 191.526 241.1 186.998 241.1H186.777C182.25 240.995 178.605 237.318 178.716 233.01C179.268 219.245 176.838 205.796 171.648 192.977C158.506 162.086 134.1 148.111 94.6748 149.057C84.7356 149.897 59.9982 153.995 41.3348 173.118C21.0148 193.923 14.4991 225.234 24.5487 254.655C25.4322 257.176 24.88 259.803 23.2235 261.905C5.00174 284.285 -7.03565 321.901 5.44348 349.955C15.8243 373.177 41.1139 387.046 80.5391 391.144C85.0669 391.564 88.38 395.452 87.9382 399.865C87.4965 404.173 83.3 407.325 78.7722 406.905C50.5009 403.963 28.0826 396.187 11.9591 383.579C5.66435 392.3 -1.73478 407.64 0.36348 429.285C2.90348 455.659 21.3461 479.195 48.4026 490.438C52.2678 492.014 54.2556 496.112 53.0409 499.894C49.9487 509.141 45.8626 527.318 52.9304 546.862C67.0661 585.949 112.676 596.351 114.663 596.771C116.762 597.191 118.639 598.452 119.854 600.239C138.076 627.873 169.991 645 203.343 645C213.392 645 223.221 643.423 232.718 640.271C260.327 631.025 279.432 611.166 289.371 581.115C291.469 574.601 293.126 567.876 294.23 561.152C292.463 544.235 286.058 528.054 275.567 514.184C257.566 490.543 232.939 481.296 219.908 477.829C215.49 476.673 212.95 472.365 214.165 468.162C214.717 466.166 216.153 464.485 218.03 463.434C219.908 462.383 222.227 462.173 224.325 462.698C239.455 466.691 267.947 477.409 288.93 505.043C291.469 508.405 293.899 511.872 295.997 515.55V249.296C295.114 222.607 272.475 200.647 244.424 199.281C242.216 199.176 240.228 198.231 238.682 196.654C237.246 195.078 236.473 193.082 236.583 190.981C236.915 186.673 240.78 183.31 245.308 183.52ZM216.153 418.043C214.607 419.619 212.619 420.459 210.41 420.564C201.023 420.88 177.169 423.716 157.954 442.314C136.971 462.698 135.425 490.753 135.756 501.68C140.836 503.362 145.696 505.568 150.334 508.09C189.649 529.945 194.95 573.235 195.612 581.641C195.943 585.949 192.52 589.731 187.992 590.047H187.771H187.329C183.023 590.047 179.378 586.789 179.047 582.691C178.936 580.905 175.844 540.452 142.051 521.539C131.118 515.55 118.529 512.398 105.939 512.398C101.301 512.398 97.6565 508.825 97.6565 504.517C97.6565 500.209 101.411 496.637 105.939 496.637C110.356 496.637 114.884 496.952 119.302 497.688C119.523 481.612 123.609 453.137 146.248 431.177C169.66 408.586 198.594 405.119 209.969 404.698H210.189C214.607 404.698 218.251 407.956 218.472 412.158V412.369C218.472 414.575 217.699 416.572 216.153 418.043ZM245.197 276.72L245.418 276.51C248.51 273.673 253.369 273.463 256.572 276.089C258.229 277.455 259.333 279.347 259.443 281.448C259.664 283.55 258.891 285.546 257.456 287.227L257.345 287.332C241.001 304.249 218.251 314.651 194.176 316.332C193.293 326.419 189.649 341.445 177.169 354.158C159.5 372.126 136.971 373.597 130.566 373.597C126.038 373.597 122.283 370.024 122.283 365.716C122.283 361.408 126.038 357.836 130.566 357.836C135.425 357.836 152.211 356.68 165.132 343.441C173.967 334.405 176.728 323.267 177.611 316.122C171.979 315.492 166.457 314.441 161.156 312.865C121.51 301.097 94.8956 264.216 96.3313 223.238C96.4417 221.136 97.3252 219.14 98.9817 217.774C100.638 216.303 102.736 215.568 104.945 215.673C109.473 215.778 113.117 219.455 112.896 223.868C111.682 257.807 133.437 288.173 166.016 297.945C172.973 300.046 180.262 301.097 187.55 301.097C209.416 300.887 230.399 292.06 245.197 276.72Z" fill="#00ADEF"/>
</svg>
