<svg width="32" height="32" viewBox="0 0 32 32" fill="none" xmlns="http://www.w3.org/2000/svg">
<path d="M19.2929 5.95989C19.6834 5.56936 20.3166 5.56936 20.7071 5.95989C21.0976 6.35041 21.0976 6.98357 20.7071 7.3741L19.2929 5.95989ZM10.6667 16.0003L9.95956 16.7074C9.56904 16.3169 9.56904 15.6837 9.95956 15.2932L10.6667 16.0003ZM20.7071 24.6266C21.0976 25.0171 21.0976 25.6502 20.7071 26.0408C20.3166 26.4313 19.6834 26.4313 19.2929 26.0408L20.7071 24.6266ZM20.7071 7.3741L11.3738 16.7074L9.95956 15.2932L19.2929 5.95989L20.7071 7.3741ZM11.3738 15.2932L20.7071 24.6266L19.2929 26.0408L9.95956 16.7074L11.3738 15.2932Z" fill="#FEFEFE"/>
</svg>
