<svg width="15" height="16" viewBox="0 0 15 16" fill="none" xmlns="http://www.w3.org/2000/svg">
<path d="M12.5821 6.83211C12.9726 6.44158 12.9726 5.80842 12.5821 5.41789C12.1916 5.02737 11.5584 5.02737 11.1679 5.41789L12.5821 6.83211ZM7.5 10.5L6.79289 11.2071C6.98043 11.3946 7.23478 11.5 7.5 11.5C7.76522 11.5 8.01957 11.3946 8.20711 11.2071L7.5 10.5ZM3.83211 5.41789C3.44158 5.02737 2.80842 5.02737 2.41789 5.41789C2.02737 5.80842 2.02737 6.44158 2.41789 6.83211L3.83211 5.41789ZM11.1679 5.41789L6.79289 9.79289L8.20711 11.2071L12.5821 6.83211L11.1679 5.41789ZM8.20711 9.79289L3.83211 5.41789L2.41789 6.83211L6.79289 11.2071L8.20711 9.79289Z" fill="#121616"/>
</svg>
