<svg width="896" height="474" viewBox="0 0 896 474" fill="none" xmlns="http://www.w3.org/2000/svg">
<path opacity="0.7" d="M689.63 1.20343C604.251 -7.49168 528.358 31.6363 481.979 95.7627L350.221 304.445C324.923 352.268 274.328 382.701 217.408 377.267C154.164 371.832 101.461 318.575 94.0824 253.362C84.5958 168.584 148.894 96.8497 230.057 96.8497C276.436 96.8497 316.491 120.761 340.734 156.629L342.842 159.889L354.437 177.279C358.653 182.714 367.086 182.714 371.302 177.279L414.519 108.805C416.627 105.545 416.627 100.11 414.519 96.8497C369.194 33.8101 293.301 -4.23101 210.03 3.37721C102.515 10.9854 5.54082 114.24 0.270478 225.102C-6.05393 362.05 99.3529 474 230.057 474C309.112 474 378.681 432.698 420.843 369.659L421.897 367.485L424.006 364.224L448.249 326.183L451.411 320.749C457.736 337.052 465.114 352.268 473.547 366.398L476.709 370.746C517.818 432.698 587.386 474 666.441 474C703.333 474 737.064 465.305 767.632 450.088C772.902 447.915 775.01 440.306 771.848 434.872L730.739 369.659C727.577 365.311 723.361 364.224 718.09 366.398C702.279 372.919 684.36 377.267 665.387 377.267C613.738 377.267 568.413 346.834 545.223 303.358C532.575 279.447 527.304 252.275 529.412 222.929C535.737 157.715 586.332 104.458 649.576 96.8497C731.793 88.1545 801.362 153.368 801.362 237.058C801.362 254.449 798.199 269.665 792.929 284.881C791.875 288.142 791.875 291.403 793.983 293.576L840.362 367.485C844.578 374.006 853.011 374.006 857.227 367.485C886.741 321.836 901.498 266.404 894.12 205.539C881.471 97.9365 795.037 12.0723 689.63 1.20343Z" fill="#F3F6FB"/>
</svg>
