<svg width="56" height="56" viewBox="0 0 56 56" fill="none" xmlns="http://www.w3.org/2000/svg">
<circle cx="28" cy="28" r="28" fill="#4E6297"/>
<path d="M40.6 19.3465C40.6 17.2501 38.7503 15.4004 36.6539 15.4004H20.7462C18.6498 15.4004 16.8 17.2501 16.8 19.3465V35.2543C16.8 37.3506 18.6498 39.2004 20.7462 39.2004H28.7617V30.1983H25.8021V26.2522H28.7617V24.6491C28.7617 21.9361 30.7348 19.5931 33.2011 19.5931H36.4073V23.5392H33.2011C32.8311 23.5392 32.4612 23.9092 32.4612 24.6491V26.2522H36.4073V30.1983H32.4612V39.2004H36.6539C38.7503 39.2004 40.6 37.3506 40.6 35.2543V19.3465Z" fill="white"/>
</svg>
