<svg width="128" height="36" viewBox="0 0 128 36" fill="none" xmlns="http://www.w3.org/2000/svg">
<path d="M18.1745 36C28.2119 36 36.3489 27.9411 36.3489 18C36.3489 8.05888 28.2119 0 18.1745 0C8.13698 0 0 8.05888 0 18C0 27.9411 8.13698 36 18.1745 36Z" fill="url(#paint0_linear_228_421)"/>
<path d="M12.544 26.8344C12.544 27.0552 12.4324 27.1656 12.2094 27.1656H8.75296C8.52996 27.1656 8.41846 27.0552 8.41846 26.8344V9.33129C8.41846 9.11043 8.52996 9 8.75296 9H12.2094C12.4324 9 12.544 9.11043 12.544 9.33129V26.8344Z" fill="white"/>
<path d="M29.1571 12.2577C29.1571 12.4785 29.0456 12.589 28.8226 12.589H24.5298V26.8344C24.5298 27.0552 24.4183 27.1656 24.1953 27.1656H20.7946C20.5716 27.1656 20.4601 27.0552 20.4601 26.8344V12.589H16.1116C15.8886 12.589 15.7771 12.4785 15.7771 12.2577V9.33129C15.7771 9.11043 15.8886 9 16.1116 9H28.8783C29.1013 9 29.2128 9.11043 29.2128 9.33129V12.2577H29.1571Z" fill="white"/>
<path d="M46.2723 5.79739C46.2723 6.62561 46.1608 11.4293 46.1608 11.4293C47.7218 9.71764 49.7288 8.77899 52.349 8.77899C57.5895 8.77899 60.823 12.0367 60.823 17.4477V31.6379C60.823 31.9692 60.6558 32.1348 60.3213 32.1348H56.1958C55.8613 32.1348 55.694 31.9692 55.694 31.6379V17.9446C55.694 15.0183 54.1888 13.3066 51.68 13.3066C47.9448 13.3066 46.3281 16.233 46.2723 20.2084V31.5275C46.2723 31.8587 46.1051 32.0244 45.7706 32.0244H41.7566C41.4221 32.0244 41.1433 31.9692 41.1433 31.5275V0.717634C41.1433 0.496775 41.3106 0.220703 41.6451 0.220703H45.7706C46.1051 0.220703 46.2723 0.386346 46.2723 0.717634V5.79739Z" fill="url(#paint1_linear_228_421)"/>
<path d="M127.389 8.99868C127.723 8.99868 127.89 9.16432 127.89 9.49561V13.0294C127.89 13.3606 127.723 13.5263 127.389 13.5263H122.538V25.7287C122.538 27.2748 123.207 28.1582 124.322 28.1582C124.713 28.1582 124.991 28.103 125.382 27.9925C125.716 27.8821 125.939 27.8821 126.051 28.2134L127.946 31.3054C128.058 31.5815 128.002 31.8024 127.723 31.968C126.887 32.4097 125.437 32.741 124.322 32.741C119.918 32.741 117.409 30.1459 117.409 25.6735V13.5263H115.124C114.789 13.5263 114.622 13.3606 114.622 13.0294V9.49561C114.622 9.16432 114.789 8.99868 115.124 8.99868H117.409V2.26248C117.409 1.98641 117.521 1.82077 117.8 1.71034L121.925 0.329969C122.315 0.219539 122.538 0.385182 122.538 0.71647V8.94347H127.389V8.99868Z" fill="url(#paint2_linear_228_421)"/>
<path d="M102.022 8.72227C97.5066 8.28055 93.4926 10.2683 91.0396 13.5259L84.0709 24.1272C82.7329 26.5566 80.0569 28.1026 77.0464 27.8266C73.7014 27.5505 70.9139 24.845 70.5237 21.5321C70.0219 17.2253 73.4227 13.5812 77.7154 13.5812C80.1684 13.5812 82.2869 14.7959 83.5691 16.618L83.6806 16.7836L84.2939 17.6671C84.5169 17.9431 84.9629 17.9431 85.1859 17.6671L87.4716 14.1885C87.5831 14.0229 87.5831 13.7468 87.4716 13.5812C85.0744 10.3787 81.0604 8.44619 76.6561 8.8327C70.9697 9.2192 65.8407 14.4646 65.5619 20.0965C65.2274 27.0536 70.8024 32.7407 77.7154 32.7407C81.8966 32.7407 85.5761 30.6425 87.8061 27.4401L87.8619 27.3296L87.9734 27.164L89.2556 25.2315L89.4229 24.9554C89.7574 25.7836 90.1476 26.5566 90.5936 27.2744L90.7609 27.4953C92.9351 30.6425 96.6146 32.7407 100.796 32.7407C102.747 32.7407 104.531 32.299 106.148 31.526C106.427 31.4155 106.538 31.029 106.371 30.7529L104.197 27.4401C104.029 27.2192 103.806 27.164 103.528 27.2744C102.691 27.6057 101.744 27.8266 100.74 27.8266C98.0084 27.8266 95.6111 26.2806 94.3846 24.072C93.7156 22.8572 93.4369 21.4769 93.5484 19.9861C93.8829 16.6732 96.5589 13.9677 99.9039 13.5812C104.252 13.1394 107.932 16.4523 107.932 20.7039C107.932 21.5873 107.765 22.3603 107.486 23.1333C107.43 23.299 107.43 23.4646 107.542 23.575L109.995 27.3296C110.218 27.6609 110.664 27.6609 110.887 27.3296C112.448 25.0106 113.228 22.1947 112.838 19.1026C112.169 13.6364 107.597 9.27442 102.022 8.72227Z" fill="url(#paint3_linear_228_421)"/>
<defs>
<linearGradient id="paint0_linear_228_421" x1="0.0304952" y1="18.0009" x2="36.3509" y2="18.0009" gradientUnits="userSpaceOnUse">
<stop stop-color="#121716"/>
<stop offset="1" stop-color="#0C283A"/>
</linearGradient>
<linearGradient id="paint1_linear_228_421" x1="41.1703" y1="16.1389" x2="60.8507" y2="16.1389" gradientUnits="userSpaceOnUse">
<stop stop-color="#121716"/>
<stop offset="1" stop-color="#0C283A"/>
</linearGradient>
<linearGradient id="paint2_linear_228_421" x1="114.676" y1="16.5436" x2="128.07" y2="16.5436" gradientUnits="userSpaceOnUse">
<stop stop-color="#121716"/>
<stop offset="1" stop-color="#0C283A"/>
</linearGradient>
<linearGradient id="paint3_linear_228_421" x1="65.5318" y1="20.7139" x2="112.951" y2="20.7139" gradientUnits="userSpaceOnUse">
<stop stop-color="#0071BC"/>
<stop offset="1" stop-color="#00C0F3"/>
</linearGradient>
</defs>
</svg>
