<svg width="56" height="56" viewBox="0 0 56 56" fill="none" xmlns="http://www.w3.org/2000/svg">
<circle cx="28" cy="28" r="28" fill="#55ACE3"/>
<path d="M42.8399 20.8602C41.8599 21.2802 40.7399 21.5602 39.6199 21.7002C40.7399 21.0002 41.7199 19.8802 42.1399 18.6202C41.0199 19.3202 39.8999 19.7402 38.4999 20.0202C37.5199 18.9002 35.9799 18.2002 34.4399 18.2002C31.3599 18.2002 28.8399 20.7202 28.8399 23.8002C28.8399 24.2202 28.8399 24.6402 28.9799 25.0602C24.3599 24.7802 20.1599 22.5402 17.3599 19.1802C16.9399 20.0202 16.6599 21.0002 16.6599 21.9802C16.6599 23.9402 17.6399 25.6202 19.1799 26.6002C18.1999 26.6002 17.3599 26.3202 16.6599 25.9002C16.6599 28.5602 18.6199 30.9402 21.1399 31.3602C20.7199 31.5002 20.1599 31.5002 19.5999 31.5002C19.1799 31.5002 18.8999 31.5002 18.4799 31.3602C19.1799 33.6002 21.2799 35.2802 23.7999 35.2802C21.8399 36.8202 19.4599 37.6602 16.7999 37.6602C16.3799 37.6602 15.9599 37.6602 15.3999 37.5202C17.9199 39.0602 20.8599 40.0402 24.0799 40.0402C34.4399 40.0402 40.0399 31.5002 40.0399 24.0802V23.3802C41.1599 22.9602 42.1399 21.9802 42.8399 20.8602Z" fill="white"/>
</svg>
