<svg width="20" height="20" viewBox="0 0 20 20" fill="none" xmlns="http://www.w3.org/2000/svg">
<path d="M1.70825 2.5H17.4583C17.6903 2.5 17.9129 2.5878 18.077 2.74408C18.2411 2.90036 18.3333 3.11232 18.3333 3.33333V16.6667C18.3333 16.8877 18.2411 17.0996 18.077 17.2559C17.9129 17.4122 17.6903 17.5 17.4583 17.5H1.70825C1.47619 17.5 1.25363 17.4122 1.08953 17.2559C0.925439 17.0996 0.833252 16.8877 0.833252 16.6667V3.33333C0.833252 3.11232 0.925439 2.90036 1.08953 2.74408C1.25363 2.5878 1.47619 2.5 1.70825 2.5ZM9.63575 9.73583L4.02525 5.19833L2.89213 6.46833L9.64713 11.9308L16.2805 6.46417L15.136 5.20333L9.63575 9.73583Z" fill="#00ADEF"/>
</svg>
