<svg width="56" height="56" viewBox="0 0 56 56" fill="none" xmlns="http://www.w3.org/2000/svg">
<circle cx="28" cy="28" r="28" fill="#2878B7"/>
<path d="M39.2 29.042V36.7639H34.6798V29.5128C34.6798 27.7236 34.0206 26.4994 32.4197 26.4994C31.1955 26.4994 30.4421 27.3469 30.1596 28.1003C30.0654 28.3828 29.9713 28.7594 29.9713 29.2303V36.7639H25.4511C25.4511 36.7639 25.5452 24.5218 25.4511 23.2976H29.9713V25.181C30.5363 24.2393 31.6663 22.9209 34.0206 22.9209C36.9399 22.9209 39.2 24.8985 39.2 29.042ZM20.7425 16.7998C19.2358 16.7998 18.2 17.8357 18.2 19.1541C18.2 20.4725 19.1417 21.5083 20.6484 21.5083C22.2493 21.5083 23.191 20.4725 23.191 19.1541C23.2852 17.7415 22.3434 16.7998 20.7425 16.7998ZM18.4825 36.7639H23.0026V23.2976H18.4825V36.7639Z" fill="white"/>
</svg>
