<svg width="20" height="21" viewBox="0 0 20 21" fill="none" xmlns="http://www.w3.org/2000/svg">
<path d="M15.3033 14.9703L10.7071 19.5665C10.3166 19.957 9.68342 19.957 9.2929 19.5665L4.69667 14.9703C3.64779 13.9214 2.93349 12.585 2.64411 11.1301C2.35473 9.67528 2.50326 8.16729 3.07092 6.79684C3.63858 5.4264 4.59987 4.25507 5.83324 3.43096C7.0666 2.60686 8.51665 2.16699 10 2.16699C11.4834 2.16699 12.9334 2.60686 14.1668 3.43096C15.4001 4.25507 16.3614 5.4264 16.9291 6.79684C17.4968 8.16729 17.6453 9.67528 17.3559 11.1301C17.0665 12.585 16.3522 13.9214 15.3033 14.9703ZM10 13.0003C10.8841 13.0003 11.7319 12.6491 12.357 12.0239C12.9821 11.3988 13.3333 10.551 13.3333 9.66693C13.3333 8.78287 12.9821 7.93503 12.357 7.3099C11.7319 6.68478 10.8841 6.33359 10 6.33359C9.11595 6.33359 8.2681 6.68478 7.64298 7.3099C7.01786 7.93503 6.66667 8.78287 6.66667 9.66693C6.66667 10.551 7.01786 11.3988 7.64298 12.0239C8.2681 12.6491 9.11595 13.0003 10 13.0003Z" fill="#00ADEF"/>
</svg>
