<svg width="132" height="162" viewBox="0 0 132 162" fill="none" xmlns="http://www.w3.org/2000/svg">
<ellipse cx="55.5946" cy="48.9997" rx="18.6667" ry="18.5362" transform="rotate(90 55.5946 48.9997)" fill="url(#paint0_linear_884_2906)"/>
<path d="M84.7246 65.0829L84.7246 33.2487L55.4197 17L26.4679 33.2487L26.4679 65.0829L55.4197 81L84.7246 65.0829Z" stroke="#0B273A" stroke-width="2"/>
<path d="M61.3273 160.343L10.2416 140.949C9.06236 140.501 8.58927 139.085 9.24285 138.007C22.7933 115.64 22.2816 103.661 8.07045 84.7534C8.00019 84.6599 7.93517 84.5561 7.88235 84.4518C0.376016 69.6269 0.457914 59.658 3.21345 40.9595C21.4098 -20.7516 118.88 -7.29438 115.324 56.022C115.31 56.2779 115.344 56.5478 115.424 56.7911L115.62 57.3787C120.016 70.6173 122.603 78.4062 130.154 89.5604C130.377 89.8888 130.505 90.2813 130.494 90.6777C130.377 94.6797 128.658 95.8501 125.142 97.211C124.916 97.2985 124.676 97.3422 124.433 97.3422H117.301C116.196 97.3422 115.301 98.2376 115.301 99.3422V114.38C115.301 114.54 115.281 114.703 115.243 114.858C112.249 126.96 107.977 130.994 98.3822 132.776C98.2644 132.798 98.1425 132.809 98.0227 132.809H77.6232C76.8491 132.809 76.1446 133.255 75.8143 133.955L63.846 159.327C63.4005 160.271 62.3035 160.714 61.3273 160.343Z" stroke="#0B273A" stroke-width="2"/>
<defs>
<linearGradient id="paint0_linear_884_2906" x1="36.928" y1="67.5359" x2="75.5474" y2="66.1439" gradientUnits="userSpaceOnUse">
<stop stop-color="#0071BC"/>
<stop offset="1" stop-color="#00C0F3"/>
</linearGradient>
</defs>
</svg>
