<svg width="82" height="98" viewBox="0 0 82 98" fill="none" xmlns="http://www.w3.org/2000/svg">
<ellipse cx="34.5476" cy="29.8094" rx="11.2" ry="11.4953" transform="rotate(90 34.5476 29.8094)" fill="url(#paint0_linear_917_2672)"/>
<path d="M52.6133 39.4591L52.6133 20.3586L34.4397 10.6094L16.4851 20.3586L16.4851 39.4591L34.4397 49.0094L52.6133 39.4591Z" stroke="#0B273A" stroke-width="2"/>
<path d="M37.4791 96.3772L7.35705 85.3131C6.15323 84.871 5.67661 83.4211 6.34431 82.3262C14.1735 69.4873 13.6954 62.3716 5.11922 51.3094C5.04655 51.2157 4.97917 51.1117 4.92433 51.0065C0.323226 42.1855 0.357495 36.2195 2.04055 25.1208C2.05501 25.0254 2.07756 24.9263 2.10606 24.8341C13.4842 -11.9748 73.6091 -3.95245 71.5984 33.8419C71.5843 34.106 71.6193 34.383 71.7052 34.6331L71.7719 34.8273C74.4699 42.6873 76.0689 47.3456 80.6397 53.9269C80.8719 54.2612 81.01 54.6601 80.9839 55.0662C80.846 57.2172 79.8179 57.9132 77.7987 58.6808C77.5791 58.7644 77.3448 58.8053 77.1098 58.8053H73.5742C72.4696 58.8053 71.5742 59.7007 71.5742 60.8053V68.9242C71.5742 69.0891 71.5533 69.2563 71.5121 69.4159C69.663 76.5731 67.0229 78.9844 61.1442 80.0542C61.0301 80.075 60.9124 80.0852 60.7964 80.0852H48.6718C47.907 80.0852 47.2092 80.5213 46.8741 81.2087L39.9664 95.3763C39.5167 96.2985 38.4422 96.7309 37.4791 96.3772Z" stroke="#0B273A" stroke-width="2"/>
<defs>
<linearGradient id="paint0_linear_917_2672" x1="23.3476" y1="41.3047" x2="46.5212" y2="40.4966" gradientUnits="userSpaceOnUse">
<stop stop-color="#0071BC"/>
<stop offset="1" stop-color="#00C0F3"/>
</linearGradient>
</defs>
</svg>
