<svg width="122" height="105" viewBox="0 0 122 105" fill="none" xmlns="http://www.w3.org/2000/svg">
<ellipse cx="60.9986" cy="44.9995" rx="18.6667" ry="17.8178" transform="rotate(90 60.9986 44.9995)" fill="url(#paint0_linear_884_2907)"/>
<path d="M89 61.0829L89 29.2487L60.831 13L33.0013 29.2487L33.0013 61.0829L60.831 77L89 61.0829Z" stroke="#0B273A" stroke-width="2"/>
<path d="M26.1318 102.457L30.9014 88.5358C31.0535 88.0918 30.868 87.597 30.4682 87.3513C8.15471 73.6396 1 63.3521 1 45.6717C3.62276 18.8783 28.539 0.378259 63.9464 1.01602C100.009 3.56777 118.369 19.5162 120.991 46.9476C121.645 73.649 84.5289 98.4498 48.5811 91.6744C48.3425 91.6294 48.0941 91.6708 47.8844 91.7932L27.5819 103.645C26.7817 104.112 25.8315 103.334 26.1318 102.457Z" stroke="#0B273A" stroke-width="2"/>
<defs>
<linearGradient id="paint0_linear_884_2907" x1="42.332" y1="62.8173" x2="80.9473" y2="61.3693" gradientUnits="userSpaceOnUse">
<stop stop-color="#0071BC"/>
<stop offset="1" stop-color="#00C0F3"/>
</linearGradient>
</defs>
</svg>
