<svg width="74" height="65" viewBox="0 0 74 65" fill="none" xmlns="http://www.w3.org/2000/svg">
<ellipse cx="36.9968" cy="28.0774" rx="11.4872" ry="10.6907" transform="rotate(90 36.9968 28.0774)" fill="url(#paint0_linear_917_2664)"/>
<path d="M53.7969 37.9743L53.7969 18.384L36.8954 8.38483L20.1976 18.384L20.1976 37.9743L36.8954 47.7694L53.7969 37.9743Z" stroke="#0B273A" stroke-width="2"/>
<path d="M16.4124 62.4372L18.8474 55.1478C18.9939 54.7094 18.815 54.2247 18.4246 53.9773C5.23798 45.6199 1 39.3008 1 28.4903C2.57366 12.002 17.5234 0.61739 38.7678 1.00986C60.4056 2.58017 71.4212 12.3946 72.9949 29.2754C73.386 45.6672 51.2254 60.8949 29.7059 56.8297C29.4619 56.7836 29.2079 56.8265 28.9948 56.9541L17.8746 63.612C17.0782 64.0888 16.1183 63.3176 16.4124 62.4372Z" stroke="#0B273A" stroke-width="2"/>
<defs>
<linearGradient id="paint0_linear_917_2664" x1="25.5097" y1="38.7681" x2="49.2712" y2="37.8543" gradientUnits="userSpaceOnUse">
<stop stop-color="#0071BC"/>
<stop offset="1" stop-color="#00C0F3"/>
</linearGradient>
</defs>
</svg>
