<svg width="28" height="28" viewBox="0 0 28 28" fill="none" xmlns="http://www.w3.org/2000/svg">
<g clip-path="url(#clip0_304_535)">
<path d="M2.39102 3.5H24.441C24.7659 3.5 25.0775 3.62292 25.3072 3.84171C25.537 4.0605 25.666 4.35725 25.666 4.66667V23.3333C25.666 23.6428 25.537 23.9395 25.3072 24.1583C25.0775 24.3771 24.7659 24.5 24.441 24.5H2.39102C2.06613 24.5 1.75454 24.3771 1.52481 24.1583C1.29508 23.9395 1.16602 23.6428 1.16602 23.3333V4.66667C1.16602 4.35725 1.29508 4.0605 1.52481 3.84171C1.75454 3.62292 2.06613 3.5 2.39102 3.5ZM13.4895 13.6302L5.63481 7.27767L4.04844 9.05567L13.5054 16.7032L22.7922 9.04983L21.1899 7.28467L13.4895 13.6302Z" fill="#FEFFFF"/>
</g>
<defs>
<clipPath id="clip0_304_535">
<rect width="28" height="28" fill="white"/>
</clipPath>
</defs>
</svg>
