<svg width="40" height="40" viewBox="0 0 40 40" fill="none" xmlns="http://www.w3.org/2000/svg">
<circle cx="22.4482" cy="20.4482" r="5.44815" fill="#FF3D2E"/>
<path fill-rule="evenodd" clip-rule="evenodd" d="M20.2517 0.0683432C10.9599 0.964468 4.08632 7.41961 2.6849 16.5659C2.34818 18.7636 2.48698 22.6986 2.97441 24.7771C3.88326 28.6516 5.67492 31.8332 8.49173 34.5745C11.3781 37.3835 14.8332 39.1129 18.9279 39.798C20.9606 40.1382 25.0406 40.0343 26.9133 39.5946C30.6873 38.7087 33.6947 37.0983 36.5643 34.4267L37.6326 33.4321L34.4843 30.2679L31.3359 27.1036L30.6221 27.7683C28.904 29.3685 27.2173 30.3516 25.2967 30.8721C23.7031 31.304 20.9498 31.2987 19.3302 30.8606C15.4302 29.8056 12.6263 26.9761 11.5794 23.0385C11.1471 21.4129 11.1503 18.5169 11.5863 16.8618C12.4275 13.6678 14.3374 11.3377 17.2168 9.99274C18.8723 9.21941 20.2854 8.91863 22.2624 8.91848C25.5623 8.91819 27.8572 9.79596 30.3962 12.0295L31.3248 12.8467L34.4397 9.70438L37.5544 6.56196L36.6722 5.75209C33.4013 2.74947 29.5835 0.842706 25.6406 0.242627C24.1004 0.00812812 21.6853 -0.0698408 20.2517 0.0683432Z" fill="#121616"/>
</svg>
