<svg width="274" height="48" viewBox="0 0 274 48" fill="none" xmlns="http://www.w3.org/2000/svg">
<g clip-path="url(#clip0_338_483)">
<path d="M57.7528 18.5425C58.4868 17.8036 59.3701 17.2289 60.3439 16.8564C61.3178 16.4839 62.36 16.3222 63.4013 16.3821C64.4123 16.3174 65.4241 16.496 66.3513 16.9028C67.2786 17.3097 68.0942 17.9328 68.7294 18.7197C69.9608 20.2555 70.5768 22.4756 70.5774 25.3799C70.5769 25.4503 70.5545 25.5188 70.5132 25.576C70.4719 25.6331 70.4138 25.6759 70.347 25.6986C70.1612 25.775 69.9613 25.8111 69.7605 25.8046H60.5953C60.5425 26.8466 60.8291 27.8777 61.4122 28.744C61.6434 29.0915 61.9619 29.3725 62.3359 29.559C62.71 29.7455 63.1266 29.831 63.5441 29.8068C64.0229 29.8584 64.5056 29.7555 64.9213 29.5133C65.337 29.271 65.6638 28.9021 65.8537 28.4609C65.9201 28.3011 66.0403 28.1695 66.1937 28.0888C66.34 28.0092 66.5083 27.9795 66.6731 28.004L69.2658 28.2159C69.4914 28.2348 69.7042 28.3285 69.8701 28.4821C69.9512 28.5561 70.0154 28.6466 70.0582 28.7475C70.101 28.8484 70.1215 28.9574 70.1184 29.0669C70.1163 29.1925 70.0795 29.3151 70.0121 29.4212C68.7563 31.8537 66.5298 33.0686 63.3325 33.0658C62.2935 33.1275 61.2536 32.9631 60.2848 32.5838C59.316 32.2046 58.4415 31.6197 57.7222 30.8697C56.4188 29.4294 55.7671 27.3633 55.7671 24.6714C55.7643 22.0264 56.4262 19.9834 57.7528 18.5425ZM66.0662 22.6872C66.0506 21.8357 65.7781 21.0087 65.2842 20.314C65.0401 20.0411 64.7377 19.8262 64.3994 19.6851C64.0611 19.544 63.6953 19.4803 63.3291 19.4986C62.9555 19.4768 62.5823 19.5461 62.2417 19.7004C61.901 19.8547 61.6032 20.0895 61.374 20.3843C60.9092 21.0645 60.6501 21.8636 60.6276 22.6864L66.0662 22.6872Z" fill="#1646A8"/>
<path d="M77.2408 24.4225L72.7296 18.2233C72.6139 18.0438 72.5522 17.835 72.552 17.6215C72.5472 17.4927 72.5701 17.3643 72.6192 17.245C72.6684 17.1257 72.7425 17.0183 72.8367 16.9299C73.0295 16.7519 73.2848 16.6566 73.5474 16.6646H76.2828C76.4127 16.6532 76.543 16.6808 76.6569 16.744C76.7709 16.8071 76.8632 16.9029 76.922 17.0189L79.8708 21.517L82.7839 17.0189C82.8428 16.903 82.9352 16.8073 83.0491 16.7441C83.163 16.681 83.2933 16.6533 83.4232 16.6646H86.1943C86.4569 16.6565 86.7122 16.7518 86.9049 16.9299C86.9965 17.0126 87.0693 17.1138 87.1184 17.2268C87.1675 17.3398 87.1918 17.462 87.1897 17.5851C87.1842 17.8142 87.1102 18.0364 86.9772 18.2233L82.5009 24.3869L87.3682 31.2591C87.4902 31.436 87.5525 31.6471 87.5459 31.8617C87.5482 31.9848 87.5241 32.1069 87.4751 32.22C87.4261 32.333 87.3535 32.4342 87.2619 32.5169C87.0692 32.695 86.814 32.7903 86.5513 32.7822H83.7462C83.6163 32.7936 83.486 32.766 83.372 32.7028C83.2581 32.6397 83.1658 32.5439 83.1069 32.4279L79.8768 27.3984L76.6016 32.4262C76.5428 32.5422 76.4504 32.638 76.3365 32.7011C76.2225 32.7643 76.0922 32.7919 75.9623 32.7805H73.2626C73 32.7886 72.7447 32.6933 72.552 32.5152C72.4605 32.4325 72.3878 32.3313 72.3388 32.2183C72.2898 32.1052 72.2657 31.9831 72.2681 31.86C72.2584 31.6339 72.3206 31.4106 72.4457 31.2218L77.2408 24.4225Z" fill="#1646A8"/>
<path d="M104.184 18.5418C103.691 17.831 103.024 17.2567 102.248 16.8726C101.471 16.4886 100.609 16.3073 99.7429 16.3457C98.8193 16.2796 97.8943 16.4535 97.0582 16.8503C96.2221 17.2471 95.5035 17.8532 94.9725 18.6096C94.9665 18.3553 94.958 18.1273 94.947 17.9392V17.9756C94.9411 17.7495 94.9172 17.5242 94.8756 17.3018V17.3382C94.8314 17.154 94.7325 16.9874 94.5917 16.8602C94.4573 16.7337 94.2792 16.6638 94.0944 16.6653H91.217C91.1046 16.6633 90.993 16.6844 90.889 16.7271C90.7851 16.7698 90.691 16.8333 90.6126 16.9136C90.5323 16.9917 90.4688 17.0854 90.4261 17.1889C90.3834 17.2924 90.3624 17.4035 90.3644 17.5154C90.4114 18.6489 90.4349 19.6527 90.4349 20.5268V38.0615C90.4354 38.168 90.4578 38.2732 90.5006 38.3707C90.5435 38.4682 90.6059 38.556 90.684 38.6285C90.7567 38.7063 90.8445 38.7685 90.9422 38.8112C91.0398 38.8539 91.1452 38.8763 91.2518 38.8769H94.2363C94.3431 38.8763 94.4486 38.8539 94.5464 38.8112C94.6442 38.7685 94.7322 38.7064 94.805 38.6285C94.883 38.5559 94.9454 38.4681 94.9882 38.3706C95.031 38.2731 95.0534 38.1679 95.0541 38.0615V32.6421C95.043 31.9505 95.0294 31.3936 95.0133 30.9622C95.4079 31.5187 95.9189 31.9831 96.511 32.3234C97.4251 32.8232 98.4531 33.0792 99.4955 33.0667C100.392 33.1128 101.285 32.9323 102.092 32.5422C102.899 32.152 103.595 31.5648 104.114 30.8351C105.203 29.3959 105.748 27.3413 105.748 24.6715C105.748 22.0016 105.227 19.9584 104.184 18.5418ZM98.0768 29.7366C97.619 29.7657 97.1623 29.6645 96.7599 29.4448C96.3575 29.2251 96.0259 28.896 95.8038 28.4957C95.1946 27.3542 94.9117 26.0676 94.9861 24.7766C94.9047 23.4582 95.1995 22.1437 95.8361 20.9854C96.0469 20.5888 96.3652 20.2593 96.7548 20.0345C97.1444 19.8097 97.5896 19.6986 98.0394 19.714C98.4815 19.6951 98.9201 19.7995 99.306 20.0154C99.6919 20.2313 100.01 20.5501 100.224 20.9362C100.784 22.0993 101.035 23.3865 100.952 24.674C100.952 28.0491 99.9934 29.7366 98.0768 29.7366Z" fill="#1646A8"/>
<path d="M110.018 18.5425C110.752 17.8037 111.635 17.229 112.609 16.8565C113.583 16.484 114.625 16.3223 115.666 16.382C116.677 16.3174 117.689 16.4961 118.616 16.9029C119.544 17.3097 120.36 17.9328 120.995 18.7197C122.226 20.2555 122.842 22.4756 122.843 25.3799C122.842 25.4504 122.82 25.519 122.778 25.5761C122.737 25.6332 122.679 25.6761 122.612 25.6986C122.426 25.775 122.226 25.8111 122.025 25.8046H112.86C112.807 26.8466 113.094 27.8778 113.677 28.744C113.908 29.0916 114.227 29.3727 114.601 29.5592C114.975 29.7458 115.391 29.8311 115.809 29.8068C116.288 29.8584 116.77 29.7554 117.186 29.5131C117.601 29.2709 117.928 28.902 118.118 28.4609C118.184 28.3011 118.304 28.1695 118.458 28.0888C118.604 28.0092 118.772 27.9795 118.937 28.004L121.531 28.2159C121.756 28.2349 121.968 28.3286 122.134 28.4821C122.215 28.556 122.28 28.6465 122.323 28.7474C122.366 28.8483 122.386 28.9573 122.383 29.0669C122.381 29.1924 122.344 29.3149 122.277 29.4212C121.021 31.8537 118.794 33.0686 115.598 33.0658C114.559 33.1275 113.519 32.963 112.55 32.5838C111.582 32.2046 110.707 31.6197 109.988 30.8697C108.684 29.4294 108.033 27.3633 108.033 24.6713C108.029 22.0263 108.691 19.9834 110.018 18.5425ZM118.331 22.6872C118.316 21.8356 118.043 21.0084 117.549 20.314C117.305 20.041 117.003 19.8261 116.664 19.685C116.326 19.5439 115.96 19.4802 115.594 19.4986C115.22 19.4769 114.847 19.5462 114.507 19.7005C114.166 19.8548 113.868 20.0895 113.639 20.3843C113.174 21.0646 112.915 21.8636 112.892 22.6863L118.331 22.6872Z" fill="#1646A8"/>
<path d="M126.553 16.9142C126.627 16.8332 126.718 16.7691 126.819 16.7263C126.921 16.6834 127.03 16.6628 127.14 16.6659H129.945C130.149 16.6624 130.347 16.7384 130.497 16.8778C130.571 16.9446 130.63 17.0267 130.67 17.1184C130.71 17.2101 130.729 17.3093 130.727 17.4092L130.833 18.5111L130.87 18.9713C131.044 18.5685 131.246 18.178 131.473 17.8025C131.791 17.3628 132.204 16.9996 132.681 16.7396C133.213 16.4861 133.798 16.3648 134.386 16.3862C134.71 16.3793 135.032 16.4149 135.346 16.4921C135.52 16.5157 135.678 16.6072 135.785 16.7466C135.891 16.8859 135.938 17.0617 135.915 17.2355V19.5383C135.916 19.6647 135.887 19.7896 135.832 19.9032C135.776 20.0169 135.695 20.1162 135.595 20.1935C135.5 20.2785 135.386 20.3404 135.263 20.3742C135.139 20.408 135.01 20.4129 134.884 20.3884C134.411 20.3418 134.091 20.3181 133.925 20.3181C133.508 20.2932 133.092 20.3828 132.722 20.577C132.353 20.7713 132.044 21.0628 131.829 21.42C131.207 22.4681 130.922 23.6806 131.011 24.895V31.9799C131.01 32.0862 130.988 32.1912 130.945 32.2885C130.903 32.3859 130.84 32.4735 130.763 32.5461C130.69 32.6239 130.602 32.6861 130.504 32.7288C130.406 32.7715 130.301 32.7938 130.194 32.7944H127.215C127.108 32.7938 127.002 32.7715 126.905 32.7288C126.807 32.6861 126.719 32.6239 126.646 32.5461C126.568 32.4736 126.506 32.386 126.463 32.2886C126.42 32.1913 126.398 32.0862 126.398 31.9799V20.6088C126.398 19.5697 126.385 18.873 126.361 18.5187C126.337 18.2588 126.325 17.9282 126.325 17.527C126.321 17.4149 126.339 17.3031 126.378 17.1979C126.417 17.0927 126.476 16.9963 126.553 16.9142Z" fill="#1646A8"/>
<path d="M143.102 14.1846C143.029 14.2625 142.941 14.3247 142.844 14.3674C142.746 14.4101 142.64 14.4324 142.534 14.4329H139.552C139.445 14.4325 139.339 14.4102 139.241 14.3675C139.144 14.3248 139.056 14.2625 138.983 14.1846C138.905 14.1122 138.842 14.0244 138.799 13.9269C138.756 13.8293 138.734 13.7241 138.734 13.6176V11.7402C138.734 11.6337 138.757 11.5285 138.799 11.4309C138.842 11.3334 138.905 11.2457 138.983 11.1731C139.056 11.0953 139.144 11.0331 139.242 10.9904C139.339 10.9477 139.445 10.9254 139.552 10.9248H142.536C142.643 10.9254 142.748 10.9478 142.846 10.9905C142.944 11.0332 143.032 11.0954 143.105 11.1731C143.183 11.2458 143.245 11.3336 143.288 11.4311C143.33 11.5286 143.353 11.6338 143.353 11.7402V13.6176C143.352 13.7242 143.33 13.8295 143.287 13.927C143.244 14.0246 143.181 14.1122 143.102 14.1846ZM143.102 32.5338C143.029 32.6116 142.941 32.6737 142.844 32.7164C142.746 32.7591 142.64 32.7815 142.534 32.7821H139.552C139.445 32.7815 139.339 32.7592 139.242 32.7165C139.144 32.6738 139.056 32.6116 138.983 32.5338C138.905 32.4615 138.842 32.3739 138.799 32.2765C138.757 32.1791 138.734 32.074 138.734 31.9676V17.4783C138.734 17.3719 138.757 17.2668 138.8 17.1694C138.842 17.072 138.905 16.9845 138.983 16.9121C139.056 16.8343 139.144 16.7721 139.242 16.7294C139.339 16.6867 139.445 16.6643 139.552 16.6638H142.536C142.643 16.6644 142.748 16.6868 142.846 16.7295C142.944 16.7722 143.032 16.8343 143.105 16.9121C143.183 16.9846 143.245 17.0722 143.288 17.1696C143.33 17.267 143.353 17.372 143.353 17.4783V31.9676C143.352 32.0741 143.33 32.1792 143.287 32.2766C143.243 32.374 143.181 32.4615 143.102 32.5338Z" fill="#1646A8"/>
<path d="M148.42 18.5425C149.154 17.8036 150.037 17.2288 151.011 16.8563C151.985 16.4839 153.027 16.3222 154.069 16.382C155.08 16.3174 156.091 16.4961 157.019 16.9029C157.946 17.3097 158.761 17.9328 159.397 18.7197C160.628 20.2555 161.244 22.4756 161.245 25.3799C161.244 25.4503 161.222 25.5188 161.18 25.5759C161.139 25.633 161.081 25.6759 161.014 25.6986C160.828 25.7749 160.629 25.8111 160.428 25.8046H151.263C151.21 26.8471 151.498 27.8786 152.082 28.7448C152.313 29.0924 152.632 29.3735 153.006 29.56C153.38 29.7465 153.796 29.8319 154.214 29.8077C154.693 29.8593 155.175 29.7565 155.591 29.5142C156.006 29.2719 156.333 28.903 156.523 28.4617C156.589 28.3021 156.71 28.1706 156.863 28.0896C157.009 28.0101 157.177 27.9803 157.342 28.0049L159.935 28.2168C160.16 28.2357 160.373 28.3294 160.539 28.4829C160.62 28.5569 160.684 28.6474 160.727 28.7483C160.77 28.8493 160.79 28.9582 160.787 29.0677C160.785 29.1933 160.748 29.3159 160.681 29.422C159.425 31.8546 157.199 33.0694 154.001 33.0666C152.962 33.1283 151.923 32.9639 150.954 32.5846C149.985 32.2054 149.11 31.6205 148.391 30.8705C147.088 29.4302 146.436 27.3641 146.436 24.6722C146.432 22.0266 147.093 19.9834 148.42 18.5425ZM156.733 22.6872C156.718 21.8358 156.445 21.0086 155.951 20.314C155.707 20.0411 155.405 19.8262 155.067 19.6851C154.728 19.544 154.363 19.4803 153.996 19.4986C153.623 19.4768 153.25 19.5461 152.909 19.7004C152.568 19.8547 152.27 20.0895 152.041 20.3843C151.576 21.0645 151.317 21.8635 151.295 22.6863L156.733 22.6872Z" fill="#1646A8"/>
<path d="M177.533 18.0114C177.025 17.4529 176.396 17.0163 175.695 16.7341C174.993 16.452 174.237 16.3318 173.483 16.3824C172.391 16.3557 171.316 16.6505 170.392 17.2299C169.681 17.6952 169.094 18.3244 168.68 19.0641L168.651 18.3987L168.58 17.4062V17.3706C168.555 17.1787 168.46 17.0025 168.314 16.8748C168.165 16.7353 167.968 16.6593 167.763 16.6629H164.958C164.848 16.6598 164.739 16.6804 164.638 16.7233C164.537 16.7661 164.446 16.8302 164.372 16.9112C164.219 17.0738 164.136 17.29 164.141 17.513C164.141 17.891 164.153 18.1979 164.176 18.4335C164.201 18.7652 164.213 19.4382 164.213 20.4524V31.9659C164.213 32.0723 164.236 32.1774 164.278 32.2748C164.321 32.3722 164.384 32.4598 164.462 32.5321C164.535 32.6099 164.622 32.6721 164.72 32.7148C164.818 32.7575 164.923 32.7798 165.03 32.7804H168.014C168.121 32.7798 168.226 32.7575 168.324 32.7148C168.422 32.6721 168.51 32.6099 168.583 32.5321C168.661 32.4597 168.723 32.3721 168.766 32.2747C168.809 32.1773 168.831 32.0722 168.832 31.9659V24.1682C168.772 23.0707 169.084 21.9849 169.719 21.0864C169.946 20.7373 170.256 20.4505 170.623 20.2525C170.989 20.0545 171.4 19.9515 171.816 19.9532C173.473 19.9532 174.302 21.2285 174.303 23.7792V31.9625C174.303 32.0689 174.326 32.174 174.368 32.2714C174.411 32.3688 174.474 32.4564 174.552 32.5287C174.625 32.6065 174.713 32.6687 174.81 32.7114C174.908 32.7541 175.014 32.7765 175.121 32.777H178.104C178.211 32.7764 178.316 32.754 178.414 32.7113C178.512 32.6686 178.6 32.6065 178.673 32.5287C178.751 32.4563 178.813 32.3687 178.856 32.2713C178.899 32.1739 178.921 32.0688 178.922 31.9625V22.6527C179.037 20.9891 178.543 19.3402 177.533 18.0114Z" fill="#1646A8"/>
<path d="M183.623 18.6094C184.361 17.8499 185.253 17.2576 186.24 16.8725C187.227 16.4875 188.286 16.3187 189.344 16.3777C191.038 16.3151 192.704 16.8269 194.069 17.8296C195.159 18.6446 195.936 19.8073 196.271 21.1241C196.307 21.2475 196.313 21.3777 196.289 21.5039C196.264 21.6301 196.21 21.7487 196.13 21.8497C196.055 21.9576 195.953 22.0452 195.835 22.1044C195.717 22.1636 195.586 22.1925 195.454 22.1887L192.541 22.2946C192.34 22.2991 192.144 22.2297 191.99 22.0997C191.842 21.9812 191.747 21.8096 191.724 21.6217V21.6581C191.632 21.1572 191.383 20.6983 191.014 20.3469C190.779 20.1352 190.504 19.9728 190.205 19.8694C189.906 19.7661 189.589 19.7238 189.273 19.7451C187.378 19.7451 186.431 21.3866 186.431 24.6695C186.431 28.0463 187.378 29.7349 189.273 29.7355C189.943 29.7594 190.595 29.517 191.085 29.0617C191.522 28.6638 191.799 28.1219 191.866 27.5361C191.911 27.3525 192.017 27.1899 192.168 27.0758C192.315 26.9603 192.497 26.8978 192.684 26.8987L195.632 27.0046C195.756 27.0026 195.879 27.0305 195.991 27.0859C196.102 27.1414 196.198 27.2228 196.271 27.3233C196.351 27.4211 196.409 27.5353 196.44 27.6578C196.471 27.7802 196.474 27.908 196.45 28.0319C196.244 28.8597 195.882 29.6409 195.384 30.3339C194.713 31.2091 193.834 31.9031 192.826 32.3528C191.717 32.8341 190.518 33.0756 189.309 33.0614C188.259 33.1233 187.208 32.9592 186.227 32.5803C185.246 32.2014 184.358 31.6165 183.624 30.8653C182.196 29.1797 181.471 27.0116 181.6 24.8085C181.464 22.5614 182.187 20.3465 183.623 18.6094Z" fill="#1646A8"/>
<path d="M200.392 18.5425C201.126 17.8036 202.01 17.2288 202.984 16.8563C203.957 16.4839 205 16.3222 206.041 16.382C207.052 16.3174 208.064 16.4961 208.991 16.9029C209.918 17.3097 210.734 17.9328 211.369 18.7197C212.6 20.2555 213.216 22.4756 213.217 25.3799C213.217 25.4503 213.194 25.5188 213.153 25.5759C213.112 25.633 213.054 25.6759 212.987 25.6986C212.801 25.7749 212.601 25.8111 212.4 25.8046H203.235C203.182 26.8466 203.469 27.8777 204.052 28.744C204.283 29.0916 204.601 29.3726 204.976 29.5591C205.35 29.7456 205.766 29.831 206.184 29.8068C206.663 29.8585 207.145 29.7557 207.561 29.5134C207.977 29.2711 208.304 28.9022 208.493 28.4609C208.56 28.3011 208.68 28.1695 208.833 28.0888C208.98 28.0092 209.148 27.9795 209.313 28.004L211.905 28.2159C212.131 28.2348 212.344 28.3285 212.51 28.4821C212.591 28.556 212.655 28.6466 212.698 28.7475C212.741 28.8484 212.761 28.9574 212.758 29.0669C212.756 29.1925 212.719 29.3151 212.652 29.4212C211.396 31.8537 209.169 33.0686 205.972 33.0658C204.933 33.1275 203.893 32.963 202.924 32.5838C201.956 32.2046 201.081 31.6197 200.362 30.8697C199.058 29.4294 198.407 27.3633 198.407 24.6713C198.404 22.0263 199.066 19.9834 200.392 18.5425ZM208.705 22.6872C208.69 21.8358 208.418 21.0086 207.924 20.314C207.68 20.0411 207.377 19.8262 207.039 19.6851C206.701 19.544 206.335 19.4803 205.969 19.4986C205.595 19.4768 205.222 19.5461 204.881 19.7004C204.541 19.8547 204.243 20.0895 204.014 20.3843C203.549 21.0645 203.29 21.8635 203.267 22.6863L208.705 22.6872Z" fill="#1646A8"/>
<path d="M227.944 31.756C226.337 32.709 224.482 33.1647 222.615 33.0655C220.869 33.1578 219.129 32.7913 217.569 32.0027C216.554 31.4176 215.785 30.4871 215.402 29.3819C215.363 29.2799 215.339 29.1724 215.331 29.0633C215.333 28.869 215.402 28.6814 215.527 28.5318C215.593 28.449 215.677 28.3811 215.772 28.3323C215.866 28.2836 215.97 28.2551 216.077 28.2487L218.528 27.8944H218.634C218.789 27.8962 218.94 27.94 219.072 28.0211C219.203 28.1022 219.31 28.2175 219.381 28.3547V28.3894C219.547 28.8043 219.83 29.1617 220.198 29.4175C220.952 29.7678 221.785 29.9139 222.614 29.8413C223.419 29.9046 224.227 29.7586 224.959 29.4175C225.164 29.3195 225.335 29.1618 225.449 28.9652C225.563 28.7686 225.615 28.5422 225.598 28.3157C225.601 28.1365 225.561 27.9592 225.48 27.7989C225.4 27.6386 225.282 27.5001 225.136 27.3952C224.489 27.0565 223.795 26.8176 223.076 26.6866C221.479 26.4289 219.918 25.9889 218.422 25.3754C217.637 25.0488 216.959 24.5087 216.467 23.8168C215.997 23.0898 215.762 22.2373 215.791 21.3732C215.755 20.6562 215.902 19.9418 216.219 19.2972C216.536 18.6526 217.012 18.0991 217.603 17.6888C219.102 16.7271 220.869 16.268 222.647 16.3784C224.26 16.3024 225.861 16.6829 227.266 17.476C228.24 18.1059 228.977 19.0405 229.362 20.1332C229.398 20.2471 229.405 20.368 229.383 20.4854C229.362 20.6028 229.312 20.7132 229.238 20.807C229.165 20.9098 229.073 20.9973 228.966 21.0642C228.86 21.1311 228.741 21.1762 228.616 21.1969L226.165 21.4808H226.094C225.916 21.4772 225.743 21.4215 225.597 21.3206C225.443 21.2298 225.329 21.0842 225.277 20.913C225.177 20.5614 224.949 20.2595 224.638 20.0654C224.031 19.7333 223.339 19.5859 222.648 19.6416C221.958 19.5913 221.265 19.7003 220.623 19.9603C220.444 20.0545 220.295 20.1981 220.194 20.3739C220.094 20.5497 220.046 20.7506 220.056 20.9528C220.045 21.1186 220.082 21.284 220.164 21.4287C220.246 21.5734 220.369 21.6911 220.517 21.7673C221.051 22.0819 221.643 22.2865 222.258 22.3691C223.087 22.5347 224.176 22.7946 225.526 23.1489C226.365 23.341 227.169 23.664 227.907 24.1058C228.476 24.5278 228.968 25.0438 229.363 25.6314C229.738 26.3521 229.921 27.1566 229.896 27.9682C229.918 28.7126 229.751 29.4507 229.41 30.1132C229.069 30.7757 228.564 31.3409 227.944 31.756Z" fill="#1646A8"/>
<path d="M2.02462 18.6523C2.76164 17.8929 3.65393 17.3006 4.6409 16.9155C5.62786 16.5305 6.68637 16.3617 7.74455 16.4207C9.43906 16.3576 11.1049 16.8694 12.4699 17.8726C13.5599 18.6877 14.3371 19.8504 14.6724 21.1671C14.7082 21.2906 14.714 21.4208 14.6893 21.547C14.6646 21.6731 14.6102 21.7916 14.5304 21.8926C14.4551 22.0006 14.3539 22.0882 14.236 22.1474C14.1182 22.2065 13.9874 22.2355 13.8555 22.2317L10.9424 22.3376C10.7411 22.342 10.5451 22.2727 10.3916 22.1427C10.2436 22.0242 10.148 21.8526 10.1255 21.6646V21.7011C10.0332 21.2002 9.7845 20.7413 9.41489 20.3899C9.18047 20.1773 8.90548 20.0141 8.60636 19.91C8.30724 19.8059 7.99013 19.763 7.674 19.7839C5.77897 19.7839 4.83174 21.425 4.8323 24.7074C4.8323 28.0847 5.77953 29.7734 7.674 29.7734C8.34368 29.7975 8.99557 29.5555 9.48629 29.1004C9.92278 28.7026 10.2 28.1607 10.2666 27.5748C10.3112 27.3912 10.4181 27.2286 10.5692 27.1145C10.7161 26.9989 10.8981 26.9365 11.0852 26.9374L14.0332 27.0442C14.1575 27.0423 14.2805 27.0702 14.3918 27.1257C14.5031 27.1812 14.5993 27.2625 14.6724 27.3629C14.7526 27.4606 14.8101 27.5748 14.8408 27.6973C14.8715 27.8198 14.8747 27.9476 14.8501 28.0715C14.6447 28.8994 14.2829 29.6807 13.7841 30.3735C13.1137 31.2486 12.2344 31.9427 11.2263 32.3924C10.1173 32.874 8.9184 33.1155 7.70885 33.101C6.65891 33.1627 5.60794 32.9985 4.6273 32.6194C3.64665 32.2404 2.75929 31.6553 2.02547 30.9041C0.596847 29.2186 -0.127995 27.0504 0.000665469 24.8473C-0.133422 22.6015 0.589639 20.3884 2.02462 18.6523Z" fill="#1AB1EB"/>
<path d="M22.1665 14.2238C22.0937 14.3017 22.0057 14.3638 21.9079 14.4066C21.8101 14.4493 21.7045 14.4716 21.5978 14.4721H18.6133C18.5066 14.4717 18.4012 14.4495 18.3035 14.4067C18.2058 14.364 18.118 14.3017 18.0454 14.2238C17.9672 14.1514 17.9046 14.0636 17.8618 13.9661C17.8189 13.8685 17.7967 13.7632 17.7964 13.6567V11.7794C17.7968 11.673 17.8192 11.5679 17.862 11.4705C17.9049 11.3731 17.9673 11.2855 18.0454 11.2132C18.1181 11.1353 18.2059 11.0731 18.3036 11.0304C18.4013 10.9877 18.5066 10.9654 18.6133 10.9648H21.5978C21.7045 10.9655 21.81 10.9879 21.9078 11.0306C22.0055 11.0733 22.0936 11.1354 22.1665 11.2132C22.2443 11.2857 22.3063 11.3734 22.3489 11.4708C22.3914 11.5681 22.4135 11.6732 22.4138 11.7794V13.6567C22.4136 13.7631 22.3916 13.8683 22.3491 13.9658C22.3065 14.0633 22.2444 14.1511 22.1665 14.2238ZM22.1665 32.573C22.0935 32.6506 22.0055 32.7126 21.9077 32.7552C21.8099 32.7977 21.7045 32.8199 21.5978 32.8205H18.6133C18.5067 32.8201 18.4013 32.7979 18.3037 32.7553C18.206 32.7128 18.1181 32.6507 18.0454 32.573C17.9673 32.5005 17.9048 32.4127 17.862 32.3152C17.8192 32.2177 17.7968 32.1124 17.7964 32.0059V17.5175C17.7968 17.4111 17.8192 17.306 17.862 17.2086C17.9049 17.1112 17.9673 17.0236 18.0454 16.9513C18.1181 16.8734 18.2059 16.8112 18.3036 16.7685C18.4013 16.7258 18.5066 16.7035 18.6133 16.7029H21.5978C21.7045 16.7036 21.81 16.726 21.9078 16.7687C22.0055 16.8114 22.0936 16.8735 22.1665 16.9513C22.2443 17.0238 22.3063 17.1115 22.3489 17.2089C22.3914 17.3062 22.4135 17.4112 22.4138 17.5175V32.0059C22.4137 32.1124 22.3916 32.2177 22.3491 32.3154C22.3065 32.4131 22.2444 32.501 22.1665 32.5738V32.573Z" fill="#1AB1EB"/>
<path d="M25.7917 17.5186C25.792 17.4124 25.8142 17.3073 25.8569 17.2099C25.8996 17.1125 25.9619 17.0249 26.04 16.9525C26.1128 16.8746 26.2008 16.8125 26.2986 16.7698C26.3964 16.727 26.5019 16.7047 26.6086 16.7041H27.9559L28.0979 11.8153C28.1009 11.7411 28.1238 11.669 28.1643 11.6066C28.2049 11.5443 28.2615 11.494 28.3283 11.461C28.4717 11.3703 28.6378 11.3215 28.8077 11.3203H31.5083C31.6148 11.3209 31.7201 11.3432 31.8178 11.3857C31.9154 11.4283 32.0033 11.4902 32.0761 11.5678C32.1542 11.6404 32.2165 11.7282 32.2593 11.8257C32.3022 11.9232 32.3246 12.0284 32.3252 12.1348V16.705H34.4571C34.5638 16.7057 34.6693 16.728 34.7671 16.7707C34.8648 16.8134 34.9529 16.8756 35.0257 16.9533C35.1035 17.0259 35.1657 17.1136 35.2084 17.2109C35.251 17.3082 35.2734 17.4132 35.274 17.5195V19.185C35.2734 19.2914 35.2511 19.3965 35.2085 19.494C35.1658 19.5915 35.1036 19.6793 35.0257 19.752C34.9528 19.8296 34.8648 19.8916 34.767 19.9342C34.6692 19.9767 34.5638 19.999 34.4571 19.9995H32.3252V27.793C32.2795 28.3189 32.4177 28.8445 32.7162 29.2805C32.85 29.4397 33.0202 29.5647 33.2125 29.6448C33.4048 29.7248 33.6135 29.7577 33.8212 29.7407L34.4248 29.6695C34.5518 29.6432 34.6831 29.6454 34.8091 29.676C34.9351 29.7067 35.0527 29.765 35.1533 29.8467C35.2524 29.9279 35.3313 30.031 35.3838 30.1477C35.4363 30.2645 35.4609 30.3918 35.4559 30.5196V31.9368C35.4568 32.0986 35.4136 32.2577 35.3309 32.397C35.2573 32.5308 35.1359 32.6322 34.9909 32.681L34.9552 32.7157C33.91 32.9746 32.8349 33.0937 31.7582 33.07C30.6785 33.1241 29.6204 32.7555 28.8094 32.0427C28.0714 31.1637 27.7026 30.0343 27.78 28.8906V19.9987H26.6069C26.5002 19.9982 26.3947 19.976 26.2969 19.9335C26.1992 19.8909 26.1111 19.8289 26.0383 19.7512C25.9601 19.6786 25.8978 19.5909 25.8551 19.4933C25.8124 19.3958 25.7903 19.2906 25.79 19.1841L25.7917 17.5186Z" fill="#1AB1EB"/>
<path d="M37.1818 17.5538C37.1798 17.4419 37.2009 17.3307 37.2437 17.2272C37.2866 17.1237 37.3502 17.0301 37.4308 16.9521C37.5147 16.8693 37.6147 16.8046 37.7247 16.7619C37.8346 16.7192 37.9521 16.6994 38.0701 16.7037H41.0894C41.2422 16.7074 41.3904 16.757 41.5144 16.8461C41.6574 16.9412 41.7687 17.0767 41.8341 17.2351L45.3524 27.968L48.5494 17.2351C48.5931 17.0752 48.6941 16.9368 48.8333 16.8461C48.9692 16.7532 49.1301 16.7035 49.2949 16.7037H52.2794C52.3973 16.6995 52.5148 16.7194 52.6247 16.7621C52.7346 16.8048 52.8346 16.8694 52.9186 16.9521C53.0015 17.0358 53.0664 17.1355 53.1092 17.2451C53.152 17.3547 53.1719 17.4719 53.1677 17.5894C53.1627 17.7103 53.1386 17.8295 53.0963 17.9429L47.2701 33.4578C46.7285 35.0448 45.8293 36.487 44.6417 37.6736C43.631 38.5228 42.3387 38.965 41.018 38.9136C40.306 38.9145 39.5944 38.8789 38.8861 38.8068C38.6937 38.7818 38.5171 38.6874 38.3897 38.5415C38.2494 38.3932 38.1729 38.1961 38.1763 37.9923V36.2209C38.1727 36.1001 38.1965 35.9801 38.2458 35.8698C38.2951 35.7595 38.3687 35.6616 38.4611 35.5835C38.5521 35.5025 38.6594 35.4417 38.7757 35.405C38.892 35.3683 39.0148 35.3567 39.136 35.3708C39.3718 35.3986 39.6092 35.4108 39.8467 35.4072C40.3096 35.4228 40.7704 35.3381 41.1974 35.1589C41.5531 34.9759 41.8582 34.7084 42.0857 34.3799C42.4403 33.736 42.7604 33.0736 43.0445 32.3958L37.254 17.9429C37.2165 17.816 37.1923 17.6857 37.1818 17.5538Z" fill="#1AB1EB"/>
<path d="M271.279 21.8755C270.746 21.4296 270.129 21.0948 269.463 20.891C268.798 20.6872 268.099 20.6185 267.406 20.6889C265.833 20.8525 265.945 19.2311 264.618 18.2394C262.525 16.6053 260.949 17.43 259.101 17.2223C257.253 17.0147 258.373 15.9044 257.009 13.7362C255.37 10.8401 247.413 9.29579 242.835 10.1137L243.502 6.3174C248.008 5.51898 255.55 7.19888 257.141 10.1315C258.466 12.3208 257.344 13.4311 259.175 13.6515C261.006 13.8719 262.569 13.0641 264.629 14.7237C265.937 15.7323 265.812 17.3605 267.374 17.2105C267.972 17.1608 268.575 17.2384 269.141 17.4381C269.707 17.6379 270.224 17.9552 270.658 18.3691C270.552 18.0174 270.349 16.4714 270.184 15.7069C270.1 14.7707 269.826 13.8612 269.381 13.0328C268.773 12.1377 267.556 12.2165 266.644 12.3598C265.716 12.5056 264.819 10.3002 263.823 9.57634C263.247 9.12584 262.585 8.79867 261.877 8.61534C261.169 8.432 260.431 8.39646 259.708 8.51094C258.87 8.59061 257.774 8.5406 257.55 6.27079C257.327 4.00098 255.201 2.35413 252.088 1.6303C249.602 0.907787 246.991 0.71289 244.425 1.05818L244.459 0.863243C244.49 0.702912 244.466 0.536834 244.391 0.39199C244.365 0.328615 244.324 0.272394 244.272 0.228116C244.22 0.183839 244.157 0.152819 244.091 0.137715L243.355 0.00550054C243.287 -0.00333215 243.218 0.0043883 243.154 0.028004C243.089 0.0516196 243.032 0.0904186 242.985 0.141103C242.865 0.251036 242.785 0.398274 242.759 0.558968L237.213 32.1253C237.183 32.2859 237.208 32.4517 237.282 32.5974C237.308 32.6608 237.349 32.717 237.402 32.7612C237.455 32.8054 237.517 32.8365 237.584 32.8517L238.32 32.983C238.387 32.9921 238.457 32.9846 238.521 32.9613C238.585 32.938 238.643 32.8995 238.689 32.8491C238.809 32.7383 238.888 32.591 238.914 32.4304L240.751 21.9764C243.504 21.3251 246.359 21.22 249.153 21.667C253.919 22.4298 255.536 23.5817 256.32 25.0022C256.611 25.5664 256.831 26.1642 256.975 26.7822C257.116 27.1475 257.209 27.7603 258.568 27.6577C259.638 27.5014 260.718 27.4285 261.799 27.4399C263.014 27.5144 264.16 28.0328 265.016 28.896C265.597 29.6529 265.987 30.2521 266.563 30.3962C267.152 30.5356 267.767 30.521 268.348 30.3538C268.793 30.2705 269.251 30.2822 269.692 30.3881C270.132 30.494 270.545 30.6918 270.903 30.9683C271.859 31.6625 272.898 32.2351 273.996 32.6728C273.555 32.0439 272.866 29.2452 272.254 26.4669C272.127 26.3685 269.713 24.6022 267.537 24.9132C265.945 25.1396 266.034 23.4944 264.67 22.54C262.513 20.9576 260.921 21.8043 259.037 21.6323C257.152 21.4602 258.272 20.338 256.827 18.2132C255.069 15.3441 246.631 14.0024 241.979 14.939L242.58 11.5122C247.194 10.6494 255.232 12.1225 256.925 15C258.325 17.1477 257.202 18.2682 259.074 18.4539C260.947 18.6395 262.525 17.8089 264.651 19.4184C265.995 20.3931 265.893 22.0094 267.477 21.8323C268.18 21.7543 268.892 21.8185 269.57 22.0211C270.248 22.2237 270.878 22.5604 271.422 23.0113L271.536 23.1054L271.279 21.8755Z" fill="url(#paint0_linear_338_483)"/>
<path d="M165.767 45.0719V39.9864C165.767 39.9547 165.773 39.9232 165.786 39.894C165.798 39.8648 165.817 39.8386 165.84 39.8169C165.862 39.7935 165.888 39.7749 165.917 39.7622C165.946 39.7495 165.978 39.743 166.01 39.7432H166.891C166.923 39.7429 166.955 39.7494 166.984 39.7621C167.014 39.7748 167.04 39.7935 167.061 39.8169C167.085 39.8385 167.104 39.8647 167.116 39.8939C167.129 39.9231 167.136 39.9546 167.135 39.9864V41.5824L167.125 42.0427C167.283 41.8232 167.494 41.6463 167.737 41.5279C167.981 41.4096 168.25 41.3535 168.521 41.3646C168.78 41.3532 169.037 41.4065 169.27 41.5198C169.502 41.633 169.703 41.8026 169.853 42.013C170.178 42.5551 170.331 43.1821 170.293 43.8124C170.33 44.4532 170.165 45.0894 169.822 45.6321C169.667 45.8486 169.459 46.0225 169.219 46.1377C168.979 46.253 168.713 46.3059 168.447 46.2916C168.136 46.2961 167.829 46.2205 167.556 46.072C167.377 45.971 167.225 45.8275 167.115 45.6542L167.105 45.7906C167.103 45.8639 167.096 45.937 167.084 46.0093C167.071 46.0642 167.041 46.1137 166.999 46.1509C166.959 46.1884 166.906 46.209 166.852 46.2085H166.001C165.968 46.2088 165.936 46.2024 165.905 46.1898C165.875 46.1771 165.847 46.1584 165.824 46.1348C165.799 46.1099 165.78 46.0803 165.768 46.0478C165.755 46.0153 165.749 45.9806 165.751 45.9457C165.761 45.6361 165.766 45.3448 165.767 45.0719ZM167.351 44.9354C167.415 45.0527 167.511 45.1494 167.628 45.2142C167.745 45.279 167.878 45.3093 168.012 45.3016C168.143 45.307 168.273 45.2755 168.387 45.2108C168.501 45.146 168.594 45.0506 168.656 44.9354C168.823 44.5832 168.897 44.1944 168.872 43.8056C168.9 43.4195 168.824 43.0329 168.652 42.686C168.588 42.5776 168.496 42.489 168.384 42.43C168.273 42.3711 168.148 42.3441 168.022 42.352C167.888 42.3443 167.755 42.3746 167.638 42.4395C167.522 42.5043 167.425 42.601 167.362 42.7182C167.169 43.0625 167.081 43.4548 167.107 43.848C167.086 44.2262 167.17 44.6028 167.351 44.9363V44.9354Z" fill="#1646A8"/>
<path d="M170.914 41.6943C170.913 41.6611 170.919 41.6282 170.932 41.5976C170.945 41.5669 170.964 41.5393 170.988 41.5163C171.012 41.4917 171.042 41.4725 171.075 41.4598C171.107 41.4471 171.142 41.4412 171.177 41.4426H172.068C172.113 41.4436 172.157 41.4581 172.194 41.4841C172.236 41.5126 172.269 41.5526 172.288 41.5994L173.326 44.7693L174.27 41.5994C174.284 41.5519 174.314 41.5109 174.355 41.4841C174.396 41.4569 174.443 41.4424 174.491 41.4426H175.373C175.408 41.4412 175.443 41.4471 175.475 41.4598C175.508 41.4725 175.538 41.4917 175.562 41.5163C175.587 41.541 175.606 41.5705 175.619 41.6028C175.631 41.6352 175.637 41.6698 175.636 41.7045C175.634 41.7403 175.627 41.7757 175.615 41.8096L173.895 46.3865C173.734 46.855 173.468 47.2808 173.118 47.6316C172.819 47.8817 172.438 48.012 172.048 47.9969C171.838 47.9972 171.628 47.987 171.419 47.9664C171.362 47.9587 171.309 47.9307 171.271 47.8875C171.23 47.8434 171.208 47.785 171.209 47.7248V47.2019C171.208 47.1661 171.215 47.1306 171.23 47.098C171.245 47.0654 171.267 47.0366 171.294 47.0137C171.321 46.99 171.353 46.9721 171.387 46.9613C171.421 46.9505 171.457 46.947 171.493 46.951C171.562 46.959 171.632 46.9624 171.702 46.9611C171.839 46.9657 171.974 46.9409 172.1 46.8883C172.205 46.8347 172.295 46.7557 172.362 46.6586C172.467 46.4685 172.561 46.273 172.645 46.0729L170.936 41.8053C170.925 41.7691 170.917 41.7319 170.914 41.6943Z" fill="#1646A8"/>
<path d="M158.937 45.1666V41.861H160.491C160.52 41.8621 160.548 41.8569 160.574 41.8456C160.601 41.8343 160.624 41.8172 160.643 41.7957C160.664 41.7766 160.681 41.7534 160.694 41.7275C160.706 41.7016 160.713 41.6735 160.715 41.6449V41.0516C160.715 41.0227 160.708 40.9941 160.696 40.9681C160.683 40.942 160.665 40.919 160.643 40.9007C160.624 40.8783 160.601 40.8602 160.575 40.8478C160.549 40.8353 160.52 40.8288 160.491 40.8287H158.937V39.8802C158.936 39.852 158.931 39.824 158.919 39.7981C158.908 39.7722 158.892 39.7488 158.871 39.7294C158.852 39.7089 158.828 39.6926 158.802 39.6814C158.776 39.6702 158.748 39.6643 158.72 39.6641H157.862C157.833 39.6636 157.804 39.6691 157.776 39.6804C157.749 39.6916 157.725 39.7083 157.704 39.7294C157.684 39.7488 157.667 39.7722 157.656 39.7981C157.645 39.824 157.639 39.852 157.639 39.8802V40.8287H156.086C156.057 40.8296 156.029 40.8364 156.003 40.8489C155.977 40.8613 155.954 40.8789 155.935 40.9007C155.914 40.9194 155.897 40.9426 155.885 40.9687C155.874 40.9948 155.869 41.0231 155.87 41.0516V41.6449C155.87 41.6731 155.876 41.7011 155.887 41.727C155.898 41.7529 155.915 41.7763 155.935 41.7957C155.954 41.8167 155.977 41.8333 156.003 41.8446C156.029 41.8558 156.057 41.8614 156.086 41.861H157.641V45.1666C157.145 45.1443 156.66 45.0217 156.213 44.8062C155.766 44.5907 155.368 44.2868 155.043 43.913L154.906 43.796C154.863 43.7615 154.809 43.7426 154.754 43.7426C154.72 43.7433 154.686 43.7507 154.655 43.7645C154.624 43.7782 154.596 43.7981 154.573 43.8228C154.549 43.8475 154.531 43.8766 154.519 43.9084C154.507 43.9402 154.502 43.974 154.504 44.0079V44.825C154.504 44.8703 154.515 44.9149 154.535 44.9553C154.556 44.9956 154.586 45.0306 154.623 45.0572C155.11 45.5121 155.688 45.8587 156.32 46.0742C156.952 46.2897 157.622 46.3692 158.286 46.3074C158.952 46.3693 159.623 46.29 160.255 46.0745C160.888 45.859 161.467 45.5123 161.955 45.0572C161.992 45.0306 162.022 44.9956 162.042 44.9553C162.063 44.9149 162.074 44.8703 162.074 44.825V44.0079C162.076 43.974 162.07 43.9402 162.058 43.9084C162.047 43.8766 162.029 43.8475 162.005 43.8228C161.982 43.7981 161.954 43.7782 161.923 43.7645C161.892 43.7507 161.858 43.7433 161.824 43.7426C161.769 43.7428 161.716 43.7616 161.673 43.796L161.535 43.913C161.21 44.2869 160.812 44.5909 160.365 44.8064C159.919 45.0219 159.432 45.1445 158.937 45.1666Z" fill="#1646A8"/>
<path d="M178.949 40.3028C178.949 40.2711 178.955 40.2396 178.968 40.2105C178.981 40.1813 178.999 40.155 179.022 40.1333C179.044 40.1099 179.07 40.0913 179.1 40.0786C179.129 40.0659 179.16 40.0595 179.192 40.0596H180.127C180.159 40.0595 180.191 40.0659 180.22 40.0786C180.249 40.0913 180.276 40.1099 180.297 40.1333C180.321 40.1549 180.34 40.1811 180.352 40.2103C180.365 40.2395 180.372 40.271 180.371 40.3028V42.4362H182.816V40.3028C182.816 40.2711 182.822 40.2396 182.835 40.2105C182.847 40.1813 182.866 40.155 182.889 40.1333C182.911 40.1099 182.937 40.0913 182.966 40.0786C182.996 40.0659 183.027 40.0595 183.059 40.0596H183.994C184.026 40.0595 184.058 40.0659 184.087 40.0786C184.116 40.0913 184.143 40.1099 184.164 40.1333C184.188 40.155 184.206 40.1812 184.219 40.2104C184.232 40.2396 184.238 40.271 184.238 40.3028V45.9613C184.238 45.9931 184.232 46.0245 184.219 46.0537C184.206 46.0829 184.188 46.1091 184.164 46.1308C184.142 46.154 184.116 46.1725 184.087 46.1852C184.058 46.1979 184.026 46.2045 183.994 46.2045H183.059C183.027 46.2045 182.996 46.198 182.966 46.1853C182.937 46.1726 182.911 46.1541 182.889 46.1308C182.866 46.1091 182.847 46.0828 182.835 46.0536C182.822 46.0245 182.816 45.993 182.816 45.9613V43.6389H180.371V45.9613C180.372 45.9931 180.365 46.0246 180.352 46.0538C180.34 46.083 180.321 46.1092 180.297 46.1308C180.276 46.154 180.249 46.1725 180.22 46.1852C180.191 46.1979 180.159 46.2045 180.127 46.2045H179.192C179.16 46.2045 179.129 46.1979 179.1 46.1852C179.07 46.1725 179.044 46.154 179.022 46.1308C178.999 46.1091 178.981 46.0828 178.968 46.0536C178.955 46.0245 178.949 45.993 178.949 45.9613V40.3028Z" fill="#1646A8"/>
<path d="M189.312 45.6261C189.075 45.8512 188.794 46.0258 188.487 46.1392C188.181 46.2526 187.854 46.3024 187.527 46.2855C187.205 46.3015 186.883 46.2512 186.582 46.1378C186.281 46.0243 186.006 45.8501 185.775 45.6261C185.553 45.3825 185.381 45.0969 185.271 44.7863C185.162 44.4756 185.115 44.1462 185.135 43.8174C185.102 43.1539 185.332 42.5042 185.775 42.0078C186.011 41.7856 186.29 41.6136 186.595 41.5021C186.899 41.3906 187.224 41.3421 187.548 41.3594C187.873 41.3387 188.198 41.3836 188.505 41.4915C188.812 41.5995 189.093 41.7682 189.333 41.9875C189.772 42.4929 189.995 43.1501 189.952 43.8174C189.972 44.1462 189.925 44.4756 189.815 44.7863C189.705 45.0969 189.534 45.3825 189.312 45.6261ZM188.283 42.6867C188.201 42.5771 188.093 42.4893 187.969 42.4311C187.845 42.3729 187.708 42.346 187.571 42.3528C186.899 42.3528 186.563 42.841 186.563 43.8174C186.535 44.2083 186.626 44.5985 186.826 44.9362C186.896 45.0516 186.997 45.1462 187.116 45.2105C187.236 45.2748 187.37 45.3065 187.506 45.3024C187.654 45.3119 187.802 45.2832 187.936 45.2191C188.07 45.155 188.185 45.0576 188.271 44.9362C188.463 44.5961 188.552 44.2072 188.526 43.8174C188.559 43.4249 188.474 43.0315 188.283 42.6867Z" fill="#1646A8"/>
<path d="M191.028 41.5158C191.05 41.4922 191.076 41.4735 191.105 41.4608C191.134 41.4481 191.166 41.4417 191.198 41.442H192.027C192.087 41.4407 192.146 41.4633 192.19 41.5047C192.212 41.5244 192.23 41.5486 192.241 41.5757C192.253 41.6028 192.259 41.6321 192.258 41.6616L192.289 41.9862L192.299 42.1218C192.35 42.0026 192.41 41.887 192.477 41.776C192.571 41.6464 192.693 41.5396 192.834 41.4632C192.991 41.3879 193.164 41.3519 193.338 41.3581C193.433 41.3561 193.528 41.3669 193.621 41.3903C193.646 41.3935 193.671 41.4016 193.694 41.4144C193.716 41.4272 193.736 41.4443 193.752 41.4647C193.767 41.4851 193.779 41.5084 193.786 41.5334C193.792 41.5583 193.794 41.5843 193.791 41.6098V42.2879C193.791 42.3252 193.783 42.362 193.766 42.3955C193.75 42.429 193.726 42.4583 193.696 42.4812C193.668 42.5062 193.635 42.5244 193.598 42.5343C193.562 42.5441 193.523 42.5454 193.486 42.5379C193.346 42.5244 193.251 42.5168 193.202 42.5168C193.08 42.5093 192.957 42.5357 192.848 42.5929C192.739 42.6501 192.648 42.7361 192.584 42.8414C192.401 43.1507 192.317 43.5085 192.343 43.8669V45.9588C192.343 45.9906 192.337 46.0221 192.324 46.0513C192.311 46.0805 192.293 46.1067 192.269 46.1283C192.247 46.1516 192.221 46.1702 192.192 46.1829C192.163 46.1956 192.131 46.2021 192.099 46.202H191.218C191.187 46.202 191.155 46.1954 191.126 46.1827C191.097 46.1701 191.07 46.1515 191.048 46.1283C191.025 46.1067 191.006 46.0805 190.994 46.0513C190.981 46.0221 190.974 45.9906 190.974 45.9588V42.6007C190.974 42.293 190.974 42.0879 190.964 41.9845C190.957 41.9082 190.954 41.8099 190.954 41.6912C190.954 41.6586 190.961 41.6262 190.974 41.5961C190.986 41.566 191.005 41.5387 191.028 41.5158Z" fill="#1646A8"/>
<path d="M198.465 41.8394C198.315 41.6746 198.129 41.5458 197.922 41.4626C197.715 41.3794 197.491 41.3439 197.269 41.3588C196.946 41.3519 196.629 41.4404 196.356 41.613C196.145 41.7498 195.97 41.9356 195.846 42.1546L195.839 41.958L195.817 41.6647V41.6546C195.81 41.5979 195.782 41.5459 195.738 41.5088C195.694 41.4673 195.636 41.4448 195.575 41.4461H194.746C194.714 41.4457 194.683 41.4521 194.654 41.4648C194.624 41.4776 194.598 41.4963 194.576 41.5198C194.554 41.5436 194.536 41.5715 194.525 41.6021C194.513 41.6326 194.507 41.6651 194.508 41.6978C194.508 41.8088 194.508 41.8995 194.519 41.969C194.526 42.0673 194.529 42.2651 194.529 42.5623V45.962C194.529 45.9938 194.535 46.0252 194.548 46.0544C194.561 46.0836 194.579 46.1098 194.603 46.1315C194.625 46.1547 194.651 46.1733 194.68 46.1859C194.709 46.1986 194.741 46.2052 194.773 46.2052H195.653C195.685 46.2053 195.717 46.1988 195.746 46.1861C195.775 46.1734 195.802 46.1548 195.823 46.1315C195.847 46.11 195.866 46.0838 195.878 46.0546C195.891 46.0254 195.898 45.9938 195.897 45.962V43.6599C195.879 43.3358 195.972 43.015 196.159 42.7496C196.226 42.6468 196.317 42.5623 196.425 42.504C196.533 42.4456 196.654 42.4153 196.777 42.4157C197.267 42.4157 197.512 42.7923 197.512 43.5455V45.962C197.511 45.9938 197.518 46.0253 197.531 46.0545C197.543 46.0837 197.562 46.1099 197.586 46.1315C197.607 46.1548 197.634 46.1734 197.663 46.1861C197.692 46.1988 197.724 46.2053 197.756 46.2052H198.637C198.669 46.2052 198.701 46.1986 198.73 46.1859C198.759 46.1733 198.785 46.1547 198.807 46.1315C198.83 46.1098 198.849 46.0836 198.862 46.0544C198.874 46.0252 198.881 45.9938 198.881 45.962V43.2107C198.914 42.7185 198.766 42.2311 198.465 41.8394Z" fill="#1646A8"/>
<path d="M200.232 45.0719V39.9864C200.231 39.9547 200.238 39.9232 200.25 39.894C200.263 39.8648 200.281 39.8386 200.305 39.8169C200.326 39.7935 200.353 39.7749 200.382 39.7622C200.411 39.7495 200.443 39.743 200.475 39.7432H201.356C201.388 39.743 201.42 39.7495 201.449 39.7622C201.478 39.7749 201.504 39.7935 201.526 39.8169C201.55 39.8385 201.568 39.8647 201.581 39.8939C201.594 39.9231 201.6 39.9546 201.6 39.9864V41.5824L201.59 42.0426C201.748 41.8232 201.958 41.6464 202.202 41.528C202.445 41.4097 202.714 41.3535 202.985 41.3646C203.244 41.3531 203.501 41.4064 203.734 41.5197C203.967 41.6329 204.167 41.8025 204.318 42.013C204.642 42.5551 204.796 43.1821 204.758 43.8124C204.795 44.4531 204.63 45.0893 204.286 45.6321C204.131 45.8485 203.924 46.0224 203.684 46.1376C203.444 46.2529 203.178 46.3058 202.912 46.2916C202.601 46.2961 202.293 46.2204 202.02 46.072C201.841 45.9707 201.69 45.8272 201.58 45.6542L201.57 45.7906C201.567 45.8639 201.56 45.9369 201.548 46.0093C201.535 46.064 201.505 46.1133 201.463 46.1509C201.423 46.1882 201.371 46.2088 201.316 46.2085H200.466C200.433 46.2088 200.4 46.2024 200.37 46.1898C200.339 46.1771 200.312 46.1584 200.288 46.1347C200.264 46.11 200.245 46.0804 200.232 46.0479C200.219 46.0154 200.213 45.9806 200.215 45.9457C200.226 45.6361 200.232 45.3448 200.232 45.0719ZM201.815 44.9354C201.879 45.0527 201.975 45.1494 202.093 45.2142C202.21 45.279 202.343 45.3093 202.476 45.3016C202.608 45.3069 202.737 45.2754 202.851 45.2106C202.965 45.1459 203.059 45.0505 203.121 44.9354C203.288 44.5832 203.362 44.1944 203.337 43.8056C203.365 43.4194 203.289 43.0327 203.116 42.686C203.052 42.5776 202.959 42.489 202.848 42.43C202.737 42.3711 202.612 42.344 202.486 42.352C202.352 42.3443 202.219 42.3746 202.102 42.4395C201.985 42.5043 201.889 42.601 201.825 42.7182C201.634 43.0626 201.545 43.4548 201.57 43.848C201.55 44.2263 201.635 44.6028 201.815 44.9363V44.9354Z" fill="#1646A8"/>
<path d="M207.096 46.1274C207.074 46.1506 207.047 46.1691 207.018 46.1818C206.989 46.1944 206.957 46.201 206.926 46.2011H206.048C206.016 46.2009 205.985 46.1943 205.956 46.1816C205.926 46.169 205.9 46.1505 205.878 46.1274C205.855 46.1057 205.837 46.0794 205.824 46.0502C205.811 46.0211 205.805 45.9896 205.805 45.9579V39.9884C205.805 39.9566 205.811 39.9251 205.824 39.896C205.836 39.8668 205.855 39.8405 205.878 39.8189C205.9 39.7956 205.926 39.7771 205.956 39.7644C205.985 39.7517 206.016 39.7451 206.048 39.7451H206.93C206.962 39.745 206.993 39.7516 207.023 39.7643C207.052 39.7769 207.078 39.7955 207.1 39.8189C207.123 39.8405 207.142 39.8668 207.154 39.896C207.167 39.9251 207.173 39.9566 207.173 39.9884V45.9612C207.172 45.9927 207.165 46.0237 207.151 46.0523C207.138 46.0809 207.119 46.1064 207.096 46.1274Z" fill="#1646A8"/>
<path d="M212.263 45.6261C212.026 45.8513 211.746 46.0259 211.439 46.1393C211.132 46.2527 210.805 46.3025 210.478 46.2855C210.156 46.3016 209.835 46.2513 209.533 46.1378C209.232 46.0244 208.957 45.8502 208.726 45.6261C208.504 45.3825 208.332 45.097 208.222 44.7863C208.113 44.4757 208.066 44.1462 208.086 43.8174C208.053 43.1539 208.283 42.504 208.726 42.0078C208.962 41.7856 209.241 41.6135 209.546 41.502C209.851 41.3906 210.175 41.342 210.499 41.3594C210.824 41.3387 211.149 41.3836 211.456 41.4915C211.763 41.5995 212.045 41.7682 212.284 41.9875C212.723 42.4929 212.945 43.1502 212.902 43.8174C212.922 44.1462 212.876 44.4756 212.766 44.7863C212.656 45.0969 212.485 45.3825 212.263 45.6261ZM211.235 42.6867C211.153 42.5771 211.045 42.4893 210.921 42.4311C210.796 42.3729 210.659 42.346 210.522 42.3528C209.851 42.3528 209.515 42.841 209.515 43.8174C209.487 44.2082 209.578 44.5983 209.777 44.9362C209.848 45.0516 209.948 45.1462 210.067 45.2105C210.187 45.2748 210.321 45.3065 210.457 45.3024C210.605 45.3121 210.753 45.2835 210.887 45.2193C211.021 45.1552 211.137 45.0577 211.222 44.9362C211.414 44.5961 211.503 44.2072 211.477 43.8174C211.51 43.4252 211.427 43.0319 211.237 42.6867H211.235Z" fill="#1646A8"/>
<path d="M213.498 41.5419C213.523 41.5092 213.555 41.4831 213.593 41.4659C213.63 41.4486 213.671 41.4406 213.713 41.4427H214.478C214.533 41.4422 214.587 41.4608 214.63 41.4952C214.652 41.5112 214.67 41.5316 214.684 41.5551C214.698 41.5786 214.706 41.6047 214.709 41.6317V41.6207L215.349 44.6016L216.126 41.6207C216.137 41.5682 216.167 41.5216 216.211 41.4902C216.252 41.4601 216.302 41.4435 216.353 41.4427H217.402C217.453 41.4436 217.503 41.4602 217.544 41.4902C217.587 41.5216 217.618 41.5682 217.629 41.6207L218.309 44.205L218.403 44.6126L219.065 41.6326C219.077 41.5789 219.107 41.5308 219.15 41.4961C219.19 41.4615 219.242 41.4428 219.296 41.4435H220.051C220.093 41.4415 220.134 41.4494 220.171 41.4667C220.209 41.484 220.241 41.5101 220.266 41.5427C220.292 41.5736 220.31 41.6103 220.318 41.6496C220.327 41.6888 220.325 41.7296 220.314 41.7682L219.192 46.0255C219.181 46.0779 219.15 46.1244 219.107 46.1561C219.066 46.1861 219.016 46.2027 218.965 46.2035H217.937C217.885 46.2027 217.836 46.1861 217.795 46.1561C217.751 46.1243 217.721 46.0779 217.71 46.0255L217.007 43.3472L216.881 42.7929L216.755 43.3472L216.042 46.0255C216.029 46.0784 215.997 46.1248 215.953 46.1561C215.912 46.1861 215.862 46.2027 215.811 46.2035H214.783C214.732 46.2028 214.683 46.1862 214.642 46.1561C214.599 46.1279 214.567 46.0856 214.553 46.0366V46.0264L213.447 41.769C213.437 41.7299 213.436 41.6888 213.444 41.6492C213.453 41.6097 213.471 41.5728 213.498 41.5419Z" fill="#1646A8"/>
<path d="M221.495 41.9964C221.712 41.7781 221.973 41.6083 222.261 41.4983C222.548 41.3883 222.856 41.3405 223.164 41.3582C223.462 41.3394 223.761 41.3924 224.035 41.5126C224.309 41.6328 224.55 41.8167 224.737 42.0489C225.137 42.6237 225.329 43.3166 225.283 44.0145C225.283 44.0353 225.276 44.0556 225.264 44.0726C225.252 44.0896 225.235 44.1024 225.215 44.1094C225.161 44.1314 225.103 44.142 225.045 44.1408H222.338C222.322 44.4485 222.407 44.7529 222.579 45.0087C222.647 45.1113 222.742 45.1942 222.852 45.2492C222.963 45.3042 223.086 45.3294 223.209 45.3223C223.35 45.3369 223.492 45.3062 223.614 45.2347C223.737 45.1632 223.833 45.0546 223.889 44.9248C223.908 44.8777 223.943 44.8387 223.988 44.8146C224.032 44.7908 224.081 44.7816 224.13 44.7883L224.895 44.851C224.962 44.8572 225.024 44.8849 225.073 44.9299C225.097 44.9513 225.116 44.9775 225.128 45.0067C225.141 45.0359 225.147 45.0675 225.147 45.0994C225.146 45.1364 225.136 45.1724 225.116 45.2036C224.931 45.5575 224.644 45.8487 224.293 46.0405C223.942 46.2322 223.542 46.3159 223.144 46.2809C222.837 46.2992 222.529 46.2507 222.243 46.1387C221.957 46.0267 221.698 45.854 221.486 45.6325C221.07 45.1162 220.864 44.4631 220.909 43.8026C220.867 43.1481 221.077 42.5023 221.495 41.9964ZM223.95 43.2203C223.946 42.9689 223.866 42.7246 223.72 42.5194C223.648 42.4388 223.559 42.3753 223.459 42.3336C223.359 42.292 223.251 42.2732 223.143 42.2786C223.032 42.2722 222.922 42.2925 222.822 42.338C222.721 42.3835 222.633 42.4527 222.565 42.5397C222.429 42.7402 222.352 42.9754 222.345 43.2178L223.95 43.2203Z" fill="#1646A8"/>
<path d="M226.45 41.5158C226.472 41.4922 226.498 41.4735 226.528 41.4608C226.557 41.4481 226.588 41.4417 226.62 41.442H227.449C227.51 41.4407 227.568 41.4633 227.612 41.5047C227.635 41.5243 227.652 41.5485 227.664 41.5756C227.676 41.6027 227.681 41.632 227.68 41.6616L227.712 41.9862L227.722 42.1218C227.774 42.0026 227.833 41.887 227.901 41.776C227.995 41.6466 228.117 41.5397 228.258 41.4632C228.414 41.3879 228.587 41.3519 228.761 41.3581C228.856 41.3561 228.951 41.3669 229.044 41.3903C229.07 41.3935 229.094 41.4016 229.117 41.4144C229.139 41.4272 229.159 41.4443 229.175 41.4647C229.191 41.4851 229.202 41.5084 229.209 41.5334C229.216 41.5583 229.217 41.5843 229.214 41.6098V42.2879C229.214 42.3252 229.206 42.362 229.189 42.3955C229.173 42.429 229.149 42.4583 229.12 42.4812C229.091 42.5063 229.058 42.5245 229.021 42.5344C228.985 42.5442 228.947 42.5455 228.91 42.5379C228.769 42.5244 228.675 42.5168 228.626 42.5168C228.503 42.5094 228.38 42.5358 228.271 42.593C228.162 42.6503 228.071 42.7361 228.008 42.8414C227.824 43.1507 227.74 43.5085 227.766 43.8669V45.9588C227.767 45.9906 227.76 46.0222 227.747 46.0514C227.735 46.0806 227.716 46.1068 227.692 46.1283C227.671 46.1516 227.644 46.1702 227.615 46.1829C227.586 46.1956 227.554 46.2021 227.522 46.202H226.641C226.609 46.202 226.577 46.1954 226.548 46.1827C226.519 46.1701 226.493 46.1515 226.471 46.1283C226.448 46.1066 226.429 46.0803 226.417 46.0511C226.404 46.022 226.398 45.9905 226.398 45.9588V42.6007C226.398 42.2933 226.394 42.0879 226.387 41.9845C226.38 41.9082 226.376 41.8099 226.376 41.6912C226.377 41.6586 226.383 41.6262 226.396 41.5961C226.409 41.566 226.427 41.5387 226.45 41.5158Z" fill="#1646A8"/>
<path d="M233.083 41.1935C233.068 41.1946 233.052 41.1923 233.037 41.1867C233.023 41.1812 233.009 41.1725 232.998 41.1613C232.987 41.1503 232.978 41.1371 232.973 41.1225C232.967 41.1078 232.965 41.0921 232.966 41.0765V38.1871H232.02C232.004 38.188 231.989 38.1855 231.974 38.18C231.959 38.1744 231.946 38.1659 231.935 38.1549C231.924 38.1438 231.916 38.1305 231.91 38.1159C231.905 38.1013 231.903 38.0857 231.904 38.0702V37.8642C231.903 37.8487 231.905 37.8332 231.911 37.8187C231.916 37.8042 231.924 37.7908 231.935 37.7794C231.946 37.7685 231.959 37.7599 231.974 37.7544C231.989 37.7488 232.004 37.7464 232.02 37.7472H234.395C234.427 37.7464 234.457 37.758 234.48 37.7794C234.491 37.7908 234.499 37.8042 234.504 37.8187C234.51 37.8332 234.512 37.8487 234.511 37.8642V38.0702C234.513 38.0857 234.51 38.1013 234.505 38.1159C234.499 38.1305 234.491 38.1438 234.48 38.1549C234.457 38.1764 234.427 38.1879 234.395 38.1871H233.454V41.0765C233.455 41.0921 233.453 41.1078 233.447 41.1224C233.442 41.137 233.433 41.1503 233.422 41.1613C233.41 41.1721 233.397 41.1805 233.383 41.1861C233.368 41.1916 233.352 41.1941 233.337 41.1935H233.083Z" fill="#1646A8"/>
<path d="M235.478 41.1933C235.463 41.1944 235.447 41.1921 235.432 41.1865C235.418 41.181 235.404 41.1723 235.393 41.1611C235.382 41.1501 235.373 41.1369 235.368 41.1223C235.362 41.1076 235.36 41.0919 235.361 41.0763V37.8682C235.361 37.8527 235.363 37.8372 235.369 37.8226C235.374 37.808 235.383 37.7947 235.393 37.7835C235.404 37.7724 235.418 37.7638 235.432 37.7583C235.447 37.7527 235.463 37.7503 235.478 37.7513H235.725C235.756 37.7502 235.786 37.7608 235.81 37.7809C235.825 37.7943 235.837 37.8112 235.844 37.8301L236.889 39.8151L237.938 37.8301C237.948 37.8122 237.961 37.7957 237.975 37.7809C237.986 37.7705 238 37.7624 238.014 37.7573C238.029 37.7522 238.045 37.7501 238.06 37.7513H238.301C238.333 37.7504 238.363 37.762 238.386 37.7835C238.397 37.7947 238.406 37.808 238.411 37.8226C238.417 37.8371 238.419 37.8527 238.419 37.8682V41.0763C238.42 41.092 238.418 41.1076 238.412 41.1223C238.406 41.1369 238.398 41.1502 238.386 41.1611C238.375 41.1719 238.362 41.1803 238.347 41.1858C238.333 41.1913 238.317 41.1939 238.301 41.1933H238.06C238.044 41.1943 238.029 41.1919 238.014 41.1864C237.999 41.1808 237.986 41.1722 237.975 41.1611C237.964 41.1501 237.955 41.1368 237.95 41.1222C237.944 41.1076 237.942 41.0919 237.943 41.0763V38.659L237.12 40.261C237.108 40.2919 237.088 40.3185 237.06 40.3372C237.031 40.3562 236.997 40.3656 236.962 40.3644H236.81C236.774 40.3666 236.738 40.3571 236.708 40.3372C236.682 40.3173 236.66 40.2911 236.646 40.261L235.824 38.659V41.0763C235.825 41.0919 235.822 41.1076 235.817 41.1222C235.811 41.1368 235.802 41.1501 235.791 41.1611C235.78 41.1722 235.767 41.1808 235.752 41.1864C235.738 41.1919 235.722 41.1943 235.706 41.1933H235.478Z" fill="#1646A8"/>
</g>
<defs>
<linearGradient id="paint0_linear_338_483" x1="237.237" y1="15.9006" x2="275.118" y2="23.7984" gradientUnits="userSpaceOnUse">
<stop offset="0.057" stop-color="#264B9C"/>
<stop offset="0.097" stop-color="#2551A0"/>
<stop offset="0.151" stop-color="#2562AC"/>
<stop offset="0.213" stop-color="#257EC1"/>
<stop offset="0.28" stop-color="#25A5DD"/>
<stop offset="0.291" stop-color="#25ADE3"/>
<stop offset="0.305" stop-color="#25A1D8"/>
<stop offset="0.396" stop-color="#265E96"/>
<stop offset="0.462" stop-color="#26346D"/>
<stop offset="0.496" stop-color="#27245E"/>
<stop offset="0.561" stop-color="#23397E"/>
<stop offset="0.622" stop-color="#214895"/>
<stop offset="0.659" stop-color="#214E9E"/>
<stop offset="0.679" stop-color="#214A98"/>
<stop offset="0.704" stop-color="#224089"/>
<stop offset="0.731" stop-color="#253070"/>
<stop offset="0.747" stop-color="#27245E"/>
<stop offset="0.769" stop-color="#262A68"/>
<stop offset="0.843" stop-color="#233E85"/>
<stop offset="0.907" stop-color="#214997"/>
<stop offset="0.953" stop-color="#214E9E"/>
</linearGradient>
<clipPath id="clip0_338_483">
<rect width="274" height="48" fill="white"/>
</clipPath>
</defs>
</svg>
