<svg width="100" height="22" viewBox="0 0 100 22" fill="none" xmlns="http://www.w3.org/2000/svg">
<path d="M5.356 9.772V5.124H13.672C13.868 5.124 14.008 5.012 14.064 4.816L14.96 1.568C15.016 1.316 14.904 1.148 14.652 1.148H1.184C0.96 1.148 0.82 1.288 0.82 1.512V20.636C0.82 20.86 0.96 21 1.184 21H4.992C5.216 21 5.356 20.86 5.356 20.636V13.72H12.496C12.72 13.72 12.86 13.58 12.86 13.356V10.136C12.86 9.912 12.72 9.772 12.496 9.772H5.356ZM20.5497 0.335999C18.9817 0.335999 18.0577 1.26 18.0577 2.884C18.0577 4.48 18.9817 5.46 20.5497 5.46C22.1457 5.46 23.0417 4.48 23.0417 2.884C23.0417 1.26 22.1457 0.335999 20.5497 0.335999ZM23.1257 7.616C23.1257 7.392 22.9857 7.252 22.7617 7.252H17.2457C17.0217 7.252 16.8817 7.392 16.8817 7.616V10.78C16.8817 11.004 17.0217 11.144 17.2457 11.144H18.7017V20.636C18.7017 20.86 18.8417 21 19.0657 21H22.7617C22.9857 21 23.1257 20.86 23.1257 20.636V7.616ZM29.2743 7.504C29.1903 7.336 29.0503 7.252 28.8543 7.252H26.8663C26.6423 7.252 26.5023 7.392 26.5023 7.616V20.636C26.5023 20.86 26.6423 21 26.8663 21H30.5903C30.8143 21 30.9543 20.86 30.9543 20.636V13.748C30.9543 11.872 31.7103 10.892 33.0543 10.892C34.0343 10.892 34.6223 11.536 34.6223 12.684V20.636C34.6223 20.86 34.7623 21 34.9863 21H38.7103C38.9343 21 39.0743 20.86 39.0743 20.636V12.124C39.0743 8.848 37.0583 6.944 33.7543 6.944C32.9143 6.944 31.6263 7.168 30.5063 8.12C30.0863 8.484 29.9183 8.512 29.6383 8.092L29.2743 7.504ZM56.6824 1.512C56.6824 1.288 56.5424 1.148 56.3184 1.148H40.7504C40.5264 1.148 40.3864 1.288 40.3864 1.512V4.76C40.3864 4.984 40.5264 5.124 40.7504 5.124H46.2944V20.636C46.2944 20.86 46.4344 21 46.6584 21H50.4384C50.6624 21 50.8024 20.86 50.8024 20.636V5.124H56.3184C56.5424 5.124 56.6824 4.984 56.6824 4.76V1.512ZM68.8261 20.58C69.0501 20.524 69.1621 20.384 69.1061 20.132L68.3221 17.22C68.2661 16.996 68.1261 16.912 67.9021 16.968L66.2221 17.332C65.8301 17.416 65.0181 17.528 64.4301 17.528C63.1141 17.528 62.4141 17.108 61.8821 16.128L65.1581 15.652C68.3781 15.204 69.9461 13.916 69.9461 11.676C69.9461 8.792 67.7901 6.944 64.2901 6.944C59.8941 6.944 57.3461 9.716 57.3461 14.14C57.3461 18.536 59.8381 21.308 64.4301 21.308C65.1581 21.308 66.1101 21.224 67.0901 21L68.8261 20.58ZM61.6021 13.272C61.6861 11.508 62.9181 10.724 64.1221 10.724C65.2421 10.724 65.8021 11.06 65.8021 11.732C65.8021 12.348 65.3821 12.74 64.5141 12.824L61.6021 13.272ZM83.2317 20.58C83.4837 20.524 83.5677 20.384 83.4837 20.132L82.5597 17.08C82.4757 16.856 82.3357 16.772 82.1117 16.828L80.9917 17.108C80.4317 17.276 79.7317 17.388 79.2837 17.388C77.4637 17.388 76.5677 16.156 76.5677 14.084C76.5677 12.096 77.4077 10.892 79.3117 10.892C79.7037 10.892 80.3197 10.976 80.8797 11.144L81.9997 11.452C82.2237 11.508 82.3637 11.424 82.4477 11.2L83.3437 8.12C83.4277 7.868 83.3437 7.728 83.0917 7.644L81.5517 7.224C80.7397 7 79.9277 6.944 79.3117 6.944C74.7197 6.944 72.2277 9.716 72.2277 14.112C72.2277 18.536 74.7477 21.308 79.2277 21.308C79.9837 21.308 80.8517 21.252 81.6357 21.028L83.2317 20.58ZM91.0001 0.979999C91.0001 0.755999 90.8601 0.615999 90.6361 0.615999H86.9121C86.6881 0.615999 86.5481 0.755999 86.5481 0.979999V20.636C86.5481 20.86 86.6881 21 86.9121 21H90.6361C90.8601 21 91.0001 20.86 91.0001 20.636V13.748C91.0281 11.844 91.8121 10.892 93.1001 10.892C94.0801 10.892 94.6681 11.536 94.6681 12.684V20.636C94.6681 20.86 94.8081 21 95.0321 21H98.7561C98.9801 21 99.1201 20.86 99.1201 20.636V12.124C99.1201 8.848 97.1041 6.944 93.8001 6.944C92.6801 6.944 91.7001 7.28 90.7761 7.924C90.3001 8.204 90.1321 7.896 90.3001 7.56C90.8041 6.496 91.0001 5.544 91.0001 4.032V0.979999Z" fill="#8A61F9"/>
</svg>
