<svg width="112" height="48" viewBox="0 0 112 48" fill="none" xmlns="http://www.w3.org/2000/svg">
<g clip-path="url(#clip0_340_681)">
<path d="M40.62 36.8256V28.7701C40.6206 28.3727 40.5867 27.9761 40.5188 27.585C40.4621 27.2382 40.3527 26.9031 40.1947 26.5924C40.0467 26.3094 39.8276 26.074 39.5608 25.9116C39.246 25.733 38.891 25.6462 38.533 25.66C38.1573 25.6513 37.7853 25.7376 37.4486 25.9116C37.1416 26.0768 36.8763 26.3151 36.6739 26.6072C36.4614 26.9156 36.3039 27.2616 36.2091 27.6284C36.105 28.019 36.0528 28.4228 36.0541 28.8282V36.8246H31.4053V22.0762H35.8821V24.1197H35.9387C36.1228 23.7826 36.3448 23.4695 36.6 23.1873C36.8788 22.8757 37.2018 22.6108 37.5578 22.4018C37.9371 22.1805 38.3385 22.0033 38.7547 21.8733C39.2022 21.7314 39.6674 21.6601 40.135 21.6618C40.9617 21.6348 41.7825 21.8161 42.5278 22.1904C43.1513 22.5162 43.6953 22.9862 44.1186 23.5647C44.5298 24.1445 44.8265 24.804 44.9915 25.5046C45.168 26.2205 45.2578 26.9568 45.2589 27.696V36.8182L40.62 36.8256Z" fill="#FEFFFF"/>
<path d="M62.2393 29.6292V30.2212C62.2396 30.4091 62.23 30.5968 62.2108 30.7836H52.0463C52.0786 31.1823 52.1993 31.5678 52.3987 31.9095C52.5978 32.2475 52.8557 32.5436 53.1591 32.7827C53.8038 33.2915 54.5898 33.5669 55.398 33.5671C56.042 33.5883 56.6809 33.4408 57.2562 33.1379C57.7448 32.8698 58.1694 32.4905 58.4986 32.0279L61.7086 34.1602C61.0551 35.1644 60.1557 35.9675 59.1042 36.4859C57.9264 37.0509 56.6413 37.3296 55.3454 37.301C54.3294 37.3072 53.3196 37.132 52.3601 36.7829C51.4507 36.4557 50.6131 35.9421 49.8965 35.2723C49.1798 34.593 48.6129 33.7594 48.2348 32.8292C47.8147 31.7792 47.6079 30.6496 47.6272 29.5118C47.6113 28.3891 47.8124 27.2744 48.2186 26.2347C48.5794 25.3045 49.121 24.4624 49.8091 23.7616C50.4971 23.0607 51.3167 22.5162 52.2164 22.1625C53.1688 21.7813 54.1815 21.5905 55.2015 21.6001C56.1744 21.5886 57.1401 21.7746 58.0449 22.1477C58.89 22.4991 59.6507 23.0405 60.2728 23.7335C60.9137 24.4619 61.4069 25.3181 61.7228 26.2505C62.0843 27.3362 62.2592 28.48 62.2393 29.6292ZM57.9862 27.7633C58.0009 27.0354 57.755 26.3278 57.2966 25.779C57.0317 25.4898 56.7087 25.2655 56.3509 25.1222C55.993 24.9789 55.6091 24.9202 55.2269 24.9502C54.8042 24.945 54.3842 25.0203 53.9874 25.1723C53.6268 25.3111 53.293 25.5166 53.0022 25.779C52.7236 26.0319 52.4943 26.3384 52.3267 26.6819C52.1602 27.0173 52.0643 27.386 52.0453 27.7633H57.9862Z" fill="#FEFFFF"/>
<path d="M69.9319 25.6904V31.3398C69.8939 31.8894 70.0271 32.4371 70.3116 32.9012C70.4848 33.093 70.6984 33.2399 70.9356 33.3302C71.1728 33.4205 71.4269 33.4517 71.6776 33.4213C71.918 33.4202 72.158 33.4004 72.3956 33.3621C72.6132 33.333 72.8261 33.2733 73.0285 33.1845L73.0842 36.7387C72.6881 36.8771 72.2816 36.981 71.869 37.0495C71.3855 37.1379 70.8957 37.1825 70.4048 37.1827C69.6016 37.2049 68.8008 37.0793 68.0393 36.8116C67.4485 36.5982 66.92 36.2302 66.5042 35.7428C66.1111 35.2608 65.8272 34.6924 65.6738 34.0799C65.498 33.3775 65.4128 32.6536 65.4206 31.9276V25.6904H63.1777V22.077H65.4056V18.1973H69.9389V22.077H73.233V25.6904H69.9319Z" fill="#FEFFFF"/>
<path d="M80.3054 17.3671C80.308 17.7295 80.2358 18.0883 80.0938 18.419C79.9598 18.7389 79.7664 19.0281 79.5248 19.2696C79.2832 19.5111 78.9982 19.7002 78.6862 19.8261C78.36 19.9653 78.0109 20.0371 77.6584 20.0375C77.3094 20.047 76.9623 19.9824 76.638 19.8475C76.3137 19.7127 76.019 19.5104 75.7719 19.2531C75.5279 19.0111 75.3345 18.7192 75.2036 18.3956C75.0728 18.072 75.0073 17.7236 75.0114 17.3724C75.0105 17.0212 75.0776 16.6735 75.2088 16.3501C75.3362 16.0293 75.5282 15.7409 75.7719 15.5044C76.0206 15.2642 76.306 15.0691 76.6164 14.9272C76.9447 14.777 77.2999 14.7014 77.6584 14.7052C78.0108 14.7059 78.3599 14.7776 78.6862 14.9166C78.9982 15.0425 79.2832 15.2316 79.5248 15.4731C79.7664 15.7146 79.9598 16.0037 80.0938 16.3237C80.2346 16.6518 80.3068 17.0075 80.3054 17.3671ZM75.3496 36.8261V22.0757H79.9672V36.8251L75.3496 36.8261Z" fill="#FEFFFF"/>
<path d="M98.7673 29.395C98.7702 30.4005 98.6179 31.4 98.3166 32.355C98.0343 33.2674 97.5902 34.1163 97.0073 34.8573C96.4312 35.5811 95.7165 36.1713 94.9092 36.59C94.0329 37.036 93.0679 37.2592 92.0931 37.2412C91.2483 37.2454 90.4127 37.0586 89.6437 36.6936C88.9256 36.3721 88.3031 35.8556 87.8412 35.1977H87.7844V43.9351H83.167V22.0763H87.5597V23.883H87.6438C88.1311 23.2418 88.7399 22.7124 89.432 22.328C90.2583 21.8669 91.185 21.6374 92.1215 21.6619C93.0453 21.6454 93.9608 21.8441 94.8017 22.2437C95.6425 22.6433 96.3874 23.2337 96.982 23.9718C97.5656 24.7041 98.0144 25.5428 98.3055 26.4455C98.616 27.3949 98.7722 28.3918 98.7673 29.395ZM94.2895 29.395C94.2899 28.9222 94.2188 28.4524 94.0789 28.0028C93.9466 27.5659 93.7362 27.1592 93.4591 26.8039C93.1602 26.4268 92.7832 26.1254 92.3564 25.9227C91.9296 25.7199 91.4642 25.6211 90.9955 25.6336C90.5079 25.6245 90.0252 25.7361 89.5869 25.9593C89.1832 26.1689 88.8241 26.4612 88.5308 26.8187C88.2376 27.178 88.0089 27.5895 87.8554 28.0334C87.5362 28.9317 87.5362 29.9197 87.8554 30.8179C88.0089 31.2619 88.2376 31.6733 88.5308 32.0326C88.824 32.3902 89.1832 32.6826 89.5869 32.8921C90.0252 33.1154 90.5079 33.227 90.9955 33.2177C91.492 33.2289 91.984 33.1173 92.4313 32.8921C92.8295 32.6872 93.1802 32.3942 93.4591 32.0337C93.7368 31.6674 93.947 31.2505 94.0789 30.8042C94.2187 30.3487 94.2901 29.8733 94.2905 29.395H94.2895Z" fill="#FEFFFF"/>
<path d="M109.467 26.4316C109.076 26.0443 108.629 25.7233 108.143 25.4802C107.643 25.2254 107.094 25.0938 106.538 25.0954C106.125 25.0909 105.716 25.1819 105.341 25.3618C105.17 25.4366 105.025 25.5652 104.926 25.7298C104.828 25.8944 104.781 26.0868 104.792 26.2804C104.788 26.477 104.846 26.6696 104.955 26.8296C105.064 26.9896 105.221 27.1084 105.4 27.1685C106.036 27.4186 106.69 27.6165 107.356 27.7605C107.898 27.8842 108.43 28.0525 108.947 28.2637C109.469 28.4732 109.957 28.7629 110.397 29.1231C110.828 29.4772 111.182 29.9211 111.439 30.4266C111.714 30.9952 111.849 31.6261 111.833 32.2628C111.866 33.0333 111.706 33.7994 111.369 34.4854C111.031 35.1715 110.528 35.7536 109.909 36.1743C109.321 36.5762 108.67 36.8668 107.985 37.0327C107.284 37.2089 106.566 37.2983 105.845 37.2991C104.701 37.2994 103.565 37.1045 102.48 36.7219C101.453 36.3811 100.514 35.7984 99.7354 35.0189L102.326 32.1455C102.758 32.635 103.272 33.0368 103.845 33.3306C104.438 33.6448 105.094 33.8072 105.759 33.8042C106.147 33.8018 106.528 33.7056 106.873 33.523C107.05 33.4349 107.197 33.2928 107.295 33.1156C107.393 32.9384 107.437 32.7343 107.422 32.5303C107.423 32.3102 107.359 32.0952 107.238 31.915C107.117 31.7347 106.945 31.5981 106.747 31.5239C106.064 31.2301 105.358 31.0022 104.635 30.8431C104.137 30.7215 103.648 30.5632 103.171 30.3695C102.695 30.1799 102.253 29.9095 101.862 29.5693C101.47 29.225 101.149 28.8018 100.918 28.325C100.661 27.7718 100.536 27.1623 100.552 26.5479C100.529 25.7559 100.714 24.9724 101.087 24.2824C101.432 23.6731 101.904 23.152 102.466 22.757C103.039 22.358 103.672 22.0628 104.339 21.8837C105.005 21.6989 105.691 21.6044 106.38 21.6025C107.428 21.6021 108.469 21.777 109.463 22.1205C110.413 22.4333 111.284 22.9648 112.011 23.6756L109.467 26.4316Z" fill="#FEFFFF"/>
<path d="M17.8716 38.3538C17.5678 38.3475 17.3095 36.5704 17.3115 36.2501C17.3124 36.1695 17.3288 36.0898 17.3595 36.0158C17.3902 35.9418 17.4346 35.8749 17.4903 35.819C17.546 35.7631 17.6118 35.7193 17.6838 35.6903C17.7559 35.6612 17.8328 35.6474 17.9101 35.6497C18.0594 35.6617 18.1987 35.7327 18.2997 35.8482C18.4007 35.9636 18.4558 36.1149 18.4538 36.2712C18.4447 36.5905 18.1764 38.3591 17.8716 38.3538Z" fill="#FEFFFF"/>
<path d="M35.7876 43.3828C34.3507 42.4144 32.9239 41.4281 31.4931 40.4481C30.3792 39.688 29.2735 38.9258 28.1596 38.171C28.0949 38.1095 28.0174 38.0645 27.9333 38.0397C27.8491 38.0148 27.7605 38.0107 27.6746 38.0277C27.5887 38.0448 27.5077 38.0824 27.4381 38.1378C27.3685 38.1931 27.3121 38.2645 27.2736 38.3465C27.2206 38.4899 27.1792 38.6377 27.15 38.7884C26.4503 38.1298 25.7637 37.5082 25.1116 36.8474C24.9841 36.6714 24.9284 36.4499 24.9567 36.2311C25.2341 33.6728 25.5136 31.1156 25.8306 28.5626C25.9964 27.3507 25.7953 26.1151 25.2554 25.0285C23.3091 21.043 21.3784 17.0487 19.4633 13.0457C19.2936 12.6294 18.9873 12.2898 18.5995 12.0879H17.1606C17.1201 12.1069 17.0816 12.1291 17.0442 12.1513C16.7113 12.3565 16.449 12.6662 16.2948 13.0362C14.3323 17.1231 12.3537 21.2016 10.4034 25.2991C10.1496 25.7968 9.99047 26.341 9.9346 26.9018C9.90183 27.7266 9.9377 28.5529 10.0419 29.3713C10.2849 31.679 10.5665 33.9826 10.8156 36.2893C10.8269 36.3864 10.8196 36.4849 10.7942 36.5791C10.7689 36.6732 10.7259 36.7612 10.6677 36.8379C10.0045 37.5018 9.31286 38.134 8.61618 38.7905C8.4329 37.9723 8.0916 37.839 7.43948 38.282C4.95993 39.9812 2.48143 41.6815 0.00390625 43.3828C2.48239 42.4248 4.88405 41.2629 7.18632 39.9079C7.26936 39.8519 7.35948 39.8022 7.4658 39.7462C7.74688 42.4501 8.88775 44.9777 10.7062 46.9253C10.3092 47.2879 9.92852 47.6272 9.5579 47.9824C9.28956 48.2372 12.2049 46.7868 11.9446 46.5024C11.8312 46.3766 11.7026 46.2667 11.5619 46.1292C11.7077 45.9855 11.8312 45.8681 11.9497 45.7476C13.422 44.2422 14.8994 42.74 16.3647 41.2272C17.0178 40.5528 16.4315 38.1129 16.3647 38.5844C16.2872 39.2759 15.989 39.9201 15.5181 40.4132C14.0039 41.9637 12.487 43.5121 10.9674 45.0583C10.9178 45.1091 10.8611 45.1503 10.8125 45.1916C10.7849 45.1793 10.7591 45.1633 10.7355 45.144C10.689 45.0869 10.6444 45.0277 10.6019 44.9674C9.69434 43.6787 9.06489 42.2 8.75691 40.6331C8.7283 40.5406 8.72826 40.441 8.75679 40.3484C8.78531 40.2559 8.84094 40.175 8.91587 40.1172C9.73508 39.3656 10.5411 38.5992 11.3522 37.838C11.5783 37.6385 11.7517 37.382 11.8561 37.0928C11.9605 36.8036 11.9924 36.4913 11.9486 36.1857C11.6449 33.5174 11.3512 30.8471 11.0373 28.1799C10.9331 27.3661 11.0691 26.5385 11.4272 25.8076C13.31 21.9145 15.1917 18.0206 17.0725 14.1261C17.1768 14.9258 17.2344 15.7314 17.2446 16.5385C17.2446 16.609 17.2463 16.6795 17.2497 16.7499C17.0907 17.5365 16.1186 18.4615 15.7308 19.138C15.6348 19.2914 15.5514 19.453 15.4817 19.6211C14.6959 21.505 13.0382 26.4144 13.338 26.5402H13.3471H13.3532C13.6569 26.6639 15.9576 21.4987 16.5196 20.1275C16.5847 19.9491 16.6845 19.7867 16.8128 19.6506C16.9411 19.5145 17.095 19.4076 17.2649 19.3368C17.2649 20.4383 17.2649 21.5209 17.2649 22.614C17.0772 23.0764 16.8016 23.4943 16.4548 23.8424C16.2946 24.0206 16.1445 24.2084 16.0052 24.4048C15.8576 24.6196 15.7541 24.864 15.7014 25.1226C15.5302 25.9176 15.0392 28.0826 15.3855 28.1777C15.4031 28.1819 15.4216 28.18 15.4381 28.1725C15.7733 28.1344 16.4194 25.9186 16.7383 25.094C16.8042 24.8128 17.1292 24.7346 17.4299 24.6363C17.5545 29.5108 17.7124 34.2014 17.8603 34.2046C18.0081 34.2077 18.1641 29.5119 18.2957 24.6352C18.5995 24.7357 18.9245 24.8128 18.9914 25.0951C19.3185 25.9408 19.9918 28.2665 20.3179 28.1725C20.6632 28.0763 20.1731 25.9123 20.002 25.1173C19.9754 24.9928 19.9381 24.8711 19.8906 24.7536C19.7225 24.1553 18.6947 23.4068 18.4729 22.615V19.3378C18.6443 19.4103 18.7998 19.5185 18.9297 19.656C19.0596 19.7934 19.1612 19.9571 19.2283 20.137C19.6881 21.2397 22.092 26.6692 22.3958 26.5423C22.6996 26.4155 21.0399 21.5071 20.2551 19.6222C20.1733 19.4193 20.0715 19.2259 19.9513 19.045C19.5463 18.3853 18.6643 17.5206 18.4972 16.7742C18.5317 15.4274 18.5985 13.959 18.6228 14.0056C20.5427 17.9769 22.4613 21.9493 24.3785 25.9228C24.6974 26.5907 24.8166 27.3431 24.7208 28.0826C24.417 30.7635 24.1132 33.4455 23.8094 36.1265C23.7597 36.4497 23.7916 36.7808 23.9019 37.0872C24.0122 37.3937 24.197 37.6648 24.4382 37.8739C25.2483 38.6203 26.0432 39.3783 26.8513 40.1236C26.9227 40.1765 26.9763 40.2515 27.0045 40.3381C27.0326 40.4246 27.034 40.5182 27.0082 40.6056C26.7783 41.7881 26.3622 42.9227 25.7769 43.9632C25.5318 44.386 25.2584 44.7983 24.9881 45.2317C24.8868 45.1471 24.8331 45.1049 24.7855 45.0541C23.3334 43.5797 21.882 42.1054 20.4313 40.631C19.8413 40.0665 19.4665 39.2983 19.3762 38.4681C19.3286 38.022 18.6957 40.4967 19.3458 41.1733C20.8495 42.7358 22.3725 44.2771 23.8884 45.8248C23.9815 45.9199 24.0767 46.0108 24.2064 46.1419C24.1051 46.2328 24.018 46.3005 23.941 46.3777C23.5005 46.8153 26.4544 48.2256 26.1182 47.9116C25.782 47.5976 25.4235 47.2699 25.0599 46.9338C26.8839 44.9851 28.0286 42.4537 28.3105 39.7451C28.4006 39.7937 28.4532 39.817 28.4998 39.8508C30.8299 41.2394 33.2678 42.4209 35.7876 43.3828Z" fill="#FEFFFF"/>
<path d="M18.0509 8.25742C17.6175 8.25742 17.2661 0.825634 17.2661 0.825634C17.2657 0.717626 17.2857 0.610592 17.325 0.510647C17.3642 0.410701 17.4219 0.3198 17.4948 0.243132C17.5677 0.166465 17.6543 0.105539 17.7497 0.0638218C17.8451 0.0221046 17.9475 0.00041568 18.0509 0C18.1544 0.00041568 18.2567 0.0221046 18.3522 0.0638218C18.4476 0.105539 18.5343 0.166465 18.6072 0.243132C18.68 0.3198 18.7377 0.410701 18.7769 0.510647C18.8161 0.610592 18.8361 0.717626 18.8357 0.825634C18.8357 0.825634 18.4843 8.25742 18.0509 8.25742Z" fill="#FEFFFF"/>
<path d="M25.9046 11.1477L25.8905 11.1393C25.5087 10.9035 28.7663 4.31535 28.7663 4.31535C28.8191 4.21995 28.8894 4.13642 28.9733 4.06956C29.0572 4.00271 29.1528 3.95387 29.2549 3.92585C29.357 3.89784 29.4634 3.89121 29.5679 3.90635C29.6724 3.92149 29.773 3.9581 29.8639 4.01406L29.8781 4.02251C30.0621 4.13655 30.1953 4.32196 30.2488 4.53825C30.3023 4.75453 30.2718 4.98414 30.1637 5.17693C30.1637 5.17693 26.2873 11.3835 25.9046 11.1477Z" fill="#FEFFFF"/>
<path d="M27.9391 18.1282V18.1113C27.8986 17.6472 34.8897 16.6028 34.8897 16.6028C34.995 16.5932 35.1011 16.6054 35.2018 16.6386C35.3026 16.6719 35.3961 16.7255 35.477 16.7965C35.5579 16.8675 35.6245 16.9544 35.6732 17.0523C35.7218 17.1502 35.7515 17.2572 35.7606 17.3671V17.384C35.7795 17.606 35.7138 17.8268 35.5776 17.9984C35.4415 18.17 35.246 18.2786 35.0336 18.3006C35.0336 18.3006 27.9786 18.5923 27.9391 18.1282Z" fill="#FEFFFF"/>
<path d="M9.89001 11.1477L9.90422 11.1393C10.286 10.9035 7.02844 4.31535 7.02844 4.31535C6.97566 4.21995 6.90527 4.13642 6.82139 4.06956C6.73751 4.00271 6.64174 3.95387 6.53968 3.92585C6.43763 3.89784 6.33123 3.89121 6.2267 3.90635C6.12218 3.92149 6.02156 3.9581 5.93066 4.01406L5.91657 4.02251C5.73258 4.13655 5.59924 4.32196 5.54574 4.53825C5.49224 4.75453 5.52294 4.98414 5.63103 5.17693C5.63103 5.17693 9.51129 11.3835 9.89001 11.1477Z" fill="#FEFFFF"/>
<path d="M7.86073 18.1282V18.1113C7.90022 17.6472 0.91113 16.6028 0.91113 16.6028C0.805866 16.5932 0.699829 16.6054 0.599077 16.6386C0.498325 16.6719 0.404862 16.7255 0.323983 16.7965C0.243104 16.8675 0.176427 16.9544 0.127752 17.0523C0.0790774 17.1502 0.0493477 17.2572 0.0402981 17.3671V17.384C0.0213825 17.606 0.0871611 17.8268 0.223303 17.9984C0.359444 18.17 0.554964 18.2786 0.767372 18.3006C0.767372 18.3006 7.82124 18.5923 7.86073 18.1282Z" fill="#FEFFFF"/>
<path d="M18.7588 16.6552C18.7588 16.6552 18.7878 16.6422 18.7588 16.6552V16.6552Z" fill="#FEFFFF"/>
<path d="M17.5583 16.6552C17.5583 16.6552 17.5293 16.6422 17.5583 16.6552V16.6552Z" fill="#FEFFFF"/>
</g>
<defs>
<clipPath id="clip0_340_681">
<rect width="112" height="48" fill="white"/>
</clipPath>
</defs>
</svg>
