<svg width="48" height="56" viewBox="0 0 48 56" fill="none" xmlns="http://www.w3.org/2000/svg">
<path fill-rule="evenodd" clip-rule="evenodd" d="M20.8689 0.00398808C20.7509 0.0070398 20.2642 0.0184244 19.7872 0.029279C18.4776 0.0590836 16.7897 0.110232 15.246 0.166881C14.4498 0.1961 7.46194 0.254504 6.66723 0.238587C6.43131 0.233854 5.80189 0.221629 5.26851 0.211414C4.17297 0.190417 2.62948 0.151787 1.2775 0.111493C0.77489 0.0965266 0.348915 0.0842649 0.330881 0.0842649C0.299923 0.0842466 0.298356 0.140822 0.302907 1.09318L0.307718 2.10213L1.58521 2.28947C3.57526 2.58132 3.71289 2.60272 4.1511 2.68865C4.89387 2.83429 5.38883 2.99967 5.57494 3.1644C5.87809 3.43277 6.08362 4.4578 6.26542 6.60799C6.42042 8.44147 6.51572 10.3517 6.56579 12.6292C6.59347 13.8886 6.57911 30.8558 6.54923 32.1913C6.50328 34.2449 6.48767 34.8709 6.46133 35.7181C6.38948 38.0291 6.29216 39.8832 6.16307 41.4013C6.1121 42.0005 6.08497 42.2625 6.07005 42.2995C6.06166 42.3203 5.39588 42.7126 4.44358 43.258L4.21544 43.3887L3.95869 43.4193C3.81748 43.4361 3.68096 43.4546 3.65532 43.4604C3.62967 43.4662 2.86597 43.4761 1.95821 43.4823L0.307718 43.4936L0.302907 44.5044L0.298076 45.5151L0.564001 45.504C1.00365 45.4856 2.62435 45.4399 2.8394 45.4399L3.03988 45.4398V45.522C3.03988 45.5757 3.04799 45.6043 3.06319 45.6042C3.07602 45.6042 3.20819 45.5923 3.35692 45.5777C3.75614 45.5386 5.11689 45.428 5.7161 45.386C6.58916 45.3248 7.85463 45.3033 10.565 45.3036C13.2037 45.3039 13.4471 45.3083 16.0759 45.4025C17.6013 45.4572 18.7575 45.4911 19.5821 45.5053C19.8334 45.5096 20.3411 45.5211 20.7104 45.5308C22.1698 45.5691 24.0505 45.4767 25.5593 45.2927C27.939 45.0024 30.0051 44.5173 32.1118 43.7542C32.3202 43.6787 32.4209 43.6502 32.4297 43.6642C32.4368 43.6755 32.7528 44.0962 33.1318 44.599C33.8057 45.493 33.8223 45.5131 33.877 45.5045C34.0881 45.4715 35.2902 45.3736 36.031 45.3293C36.5576 45.2977 38.3884 45.2863 39.0895 45.3102C40.1389 45.3459 41.8524 45.4476 42.3674 45.5047L42.4654 45.5156L42.4606 44.5046L42.4558 43.4936L41.8497 43.4827C41.3987 43.4746 41.2124 43.4645 41.1217 43.4434C40.8007 43.3686 40.4595 43.2195 40.2704 43.0715C39.8612 42.7513 38.9849 41.7907 38.1985 40.8004L38.0478 40.6106L38.2936 40.4275C39.6777 39.3963 41.038 38.1402 42.1869 36.8321C44.978 33.6544 46.7768 29.9398 47.5536 25.7498C47.7613 24.6297 47.8872 23.5706 47.9675 22.2686C47.9995 21.7495 48.0113 20.11 47.9872 19.5458C47.8032 15.2496 46.7194 11.7514 44.6328 8.71861C43.594 7.20872 42.2167 5.78077 40.6869 4.62753C38.5688 3.03079 36.1653 1.86539 33.5982 1.1903C32.2428 0.833856 30.2421 0.488317 28.366 0.286647C27.4038 0.183217 26.6068 0.124559 25.4847 0.074598C25.1359 0.0590653 24.6995 0.0379591 24.5149 0.0276709C24.2015 0.0102377 21.3441 -0.00832846 20.8689 0.00398808ZM23.0322 2.87878C23.5721 2.91098 24.1397 2.95347 24.5155 2.98982L24.8705 3.02415L25.1618 3.14301C26.6636 3.7558 27.8744 4.71375 28.7097 5.95013C28.941 6.29238 29.0375 6.45716 29.2177 6.81732C29.6501 7.68159 29.917 8.63569 30.0438 9.76936C30.1248 10.4948 30.1208 11.5514 30.0338 12.3642C29.7919 14.6246 28.899 16.5198 27.3687 18.0206C26.5918 18.7824 25.8211 19.3226 24.8039 19.818C23.365 20.5188 21.8157 20.8993 19.7965 21.0477C19.3695 21.079 17.8198 21.0791 17.3441 21.0477C17.1441 21.0345 16.7161 21.0037 16.393 20.9792C16.0699 20.9547 15.7839 20.9346 15.7574 20.9346C15.7103 20.9346 15.7054 20.9471 15.5468 21.4749L15.3843 22.0151L15.5367 22.183C17.9432 24.835 20.0106 27.2951 21.9817 29.8523C22.3181 30.2887 30.4303 41.0176 30.4594 41.0646C30.4796 41.0972 29.7955 41.365 29.1027 41.5957C27.6322 42.0852 25.9932 42.4297 24.2538 42.6149C21.7716 42.879 19.1247 42.8419 15.8615 42.4971C14.8487 42.3901 13.2683 42.1844 13.2391 42.1558C13.2138 42.131 13.1354 41.7738 13.0936 41.4927C12.9774 40.7124 12.8124 37.1387 12.7562 34.1831C12.7318 32.9043 12.7318 12.0436 12.7561 10.9572C12.8085 8.61803 12.896 6.62407 13.0376 4.54477C13.0687 4.08842 13.0999 3.66903 13.1071 3.61281L13.12 3.51058L13.2505 3.48942C13.3223 3.4778 13.7 3.42638 14.0898 3.37519C16.1895 3.09939 18.028 2.93463 19.8152 2.8621C20.3085 2.84209 22.6177 2.85406 23.0322 2.87878ZM37.1981 8.94877C38.3794 10.3733 39.3195 12.0976 39.9719 14.0363C40.7484 16.3441 41.1225 18.9173 41.1223 21.9488C41.1217 28.3689 39.4744 33.3883 36.1628 37.0605C36.0544 37.1807 35.8986 37.348 35.8165 37.4323L35.6673 37.5855L33.8648 35.295C32.8734 34.0352 31.7611 32.6221 31.393 32.1548C29.1028 29.2471 27.0553 26.5557 25.3177 24.1684C24.5167 23.0679 24.1125 22.5003 24.1145 22.4788C24.1154 22.4687 24.1681 22.4495 24.2316 22.436C27.0739 21.8332 29.3623 20.9491 31.266 19.7184C32.0879 19.1871 32.7258 18.6771 33.4114 18.0034C34.8463 16.5933 35.8228 15.0813 36.4043 13.3693C36.7854 12.2473 36.9554 11.2528 36.9765 10.0214C36.986 9.47053 36.9643 8.78601 36.9335 8.66379C36.922 8.61818 36.9397 8.63719 37.1981 8.94877ZM11.7586 48.2565C11.3139 48.3992 10.7198 48.5251 10.3459 48.5559L10.2013 48.5677V48.7201V48.8725L10.5603 48.8785C10.8597 48.8834 10.9293 48.8898 10.9793 48.9165C11.1183 48.991 11.1241 49.1265 11.1243 52.3107C11.1245 55.441 11.1247 55.4364 10.9763 55.5263C10.8986 55.5733 10.7194 55.5997 10.4764 55.5999L10.2759 55.6V55.7565V55.9129L10.3645 55.8992C10.4833 55.8809 12.8027 55.8797 12.8915 55.898L12.9615 55.9123V55.7562V55.6L12.7517 55.5997C12.347 55.599 12.1483 55.5409 12.1044 55.4107C12.0594 55.277 12.0451 55.0263 12.0349 54.1884C12.025 53.3835 12.0266 53.3158 12.0551 53.3158C12.1111 53.3158 12.5653 53.737 13.8193 54.9515C14.2348 55.3539 14.653 55.7515 14.7488 55.835C14.8995 55.9665 14.9296 55.9854 14.9726 55.9754C15.132 55.9383 15.5491 55.8072 15.7192 55.7406L15.9174 55.6631L15.9229 55.5412L15.9284 55.4192L15.8576 55.4076C15.5867 55.3631 15.5475 55.3337 14.5 54.3934C14.066 54.0039 12.9429 52.9041 12.9636 52.8891C12.9676 52.8863 13.0841 52.7935 13.2226 52.6829C14.114 51.9709 14.6952 51.5574 15.0129 51.4092C15.1548 51.343 15.1895 51.3344 15.3439 51.3274L15.5165 51.3196V51.1665V51.0133L14.9803 51.0141L14.4441 51.0149L13.7447 51.6645C13.0172 52.3403 12.7544 52.5667 12.3382 52.8768C12.1681 53.0035 12.0812 53.0574 12.0599 53.0494C12.0315 53.0387 12.029 52.9258 12.0298 51.6464C12.0306 50.2636 12.0528 48.7512 12.0773 48.4177C12.0883 48.2668 12.0857 48.2391 12.0582 48.2121C12.0176 48.1723 12.0232 48.1715 11.7586 48.2565ZM37.467 48.222C37.1578 48.3536 36.6607 48.4783 36.2082 48.5376C36.0851 48.5538 35.9424 48.5727 35.8911 48.5797L35.7979 48.5924V48.7475V48.9027L36.1336 48.9118C36.5115 48.9221 36.5694 48.9382 36.6088 49.0438C36.6559 49.1696 36.6814 52.8238 36.6462 54.394C36.6271 55.2452 36.6126 55.4038 36.548 55.4669C36.4942 55.5194 36.3293 55.5579 36.0963 55.5723C35.9937 55.5787 35.8822 55.5885 35.8484 55.5941L35.7871 55.6044L35.7925 55.7511L35.7979 55.8979L36.0869 55.8906C36.4582 55.8812 37.9786 55.8811 38.2223 55.8904L38.4088 55.8975L38.4142 55.7488C38.4172 55.667 38.4172 55.5998 38.4142 55.5995C37.756 55.5333 37.6512 55.5051 37.6171 55.3854C37.5669 55.2097 37.5572 54.5601 37.5666 52.0089C37.5718 50.5819 37.5845 49.2787 37.5948 49.1128C37.6051 48.947 37.6194 48.6835 37.6266 48.5272L37.6397 48.243L37.5953 48.2146C37.5547 48.1887 37.5439 48.1893 37.467 48.222ZM45.9841 48.2192C45.7249 48.3533 45.0063 48.5184 44.4373 48.5747L44.3114 48.5872V48.7495V48.9118H44.6281C44.9707 48.9118 45.0622 48.93 45.1123 49.0081C45.1602 49.0827 45.1715 49.8527 45.1635 52.5118C45.1559 55.0738 45.1496 55.3351 45.0928 55.4391C45.058 55.5027 44.9294 55.5426 44.6926 55.5633C44.5701 55.574 44.4343 55.5871 44.3907 55.5925L44.3114 55.6023V55.7567V55.9111L44.39 55.8988C44.4744 55.8856 46.4361 55.8786 46.7452 55.8904L46.9317 55.8975L46.9371 55.7488C46.9401 55.667 46.9401 55.5998 46.9371 55.5995C46.5617 55.5617 46.2885 55.5212 46.2343 55.4952C46.1973 55.4775 46.1568 55.4418 46.1443 55.4159C46.084 55.2913 46.0742 54.8709 46.0741 52.4021C46.0739 50.0187 46.0805 49.644 46.1406 48.596L46.1603 48.2528L46.1171 48.2174C46.0644 48.1744 46.0709 48.1743 45.9841 48.2192ZM2.75081 48.5695C2.20274 48.5917 0.698017 48.5965 0.303056 48.5773L0 48.5626V48.7281V48.8936H0.182318C0.57506 48.8936 0.842905 48.9596 0.901651 49.0709C0.991001 49.2402 1.00672 49.71 1.00672 52.2102C1.00672 54.2593 0.992363 55.0457 0.950849 55.2711C0.927239 55.3992 0.887888 55.4518 0.772988 55.5087C0.686342 55.5516 0.659934 55.5547 0.340355 55.5604L0 55.5664V55.7394V55.9123L0.0699359 55.8984C0.161655 55.88 2.95922 55.8791 3.02589 55.8973L3.07718 55.9114V55.7391V55.5668L2.71818 55.5606C2.36236 55.5544 2.35818 55.5539 2.24727 55.4995C2.16436 55.4589 2.12726 55.4282 2.10405 55.3807C2.03398 55.2377 2.0271 55.011 2.01889 52.5757C2.01151 50.3877 2.02186 49.6083 2.06341 49.2201L2.07441 49.1173L2.23551 49.0689C2.54436 48.9761 2.73285 48.9463 3.07949 48.9355C3.57425 48.9201 3.90505 48.9865 4.20102 49.1606C4.44209 49.3024 4.66146 49.5841 4.74339 49.8572C4.79788 50.0387 4.81784 50.3022 4.79404 50.5257C4.72448 51.1789 4.33618 51.6486 3.69816 51.8512C3.4663 51.9248 3.23498 51.9496 2.84656 51.9426L2.48453 51.9361L2.45688 52.0209L2.42922 52.1056L2.60663 52.3041C3.08552 52.84 3.33033 53.1518 4.77909 55.071L5.40741 55.9034L5.57108 55.887C5.6611 55.878 5.97633 55.8749 6.27163 55.88L6.8085 55.8894L6.80314 55.731L6.79777 55.5726L6.66723 55.5635C6.49992 55.5518 6.43963 55.5151 6.27644 55.3256C5.86803 54.8514 3.82876 52.212 3.85118 52.1866C3.85379 52.1836 3.92199 52.1656 4.00272 52.1466C4.18974 52.1026 4.50134 51.9964 4.67987 51.9158C5.02291 51.7609 5.3876 51.4635 5.59163 51.1725C5.9624 50.6435 6.02749 49.961 5.75843 49.4235C5.69431 49.2954 5.64944 49.2377 5.50256 49.0946C5.2932 48.8905 5.13675 48.797 4.84889 48.7039C4.39774 48.5581 3.86904 48.5242 2.75081 48.5695ZM22.0625 48.7333C22.0625 48.8838 22.0648 48.8934 22.1044 48.9021C22.1275 48.9072 22.2807 48.9315 22.4448 48.9561C22.9317 49.0292 22.9421 49.0362 22.9847 49.323C23.0528 49.7813 23.0602 50.0653 23.0602 52.2102C23.0602 54.2119 23.0471 54.8584 22.9981 55.2769L22.9856 55.3832L22.7432 55.5242L22.5007 55.6651L22.4951 55.7907L22.4896 55.9162L22.6443 55.9046C23.326 55.8537 23.459 55.8513 24.2351 55.8763C25.2827 55.9101 25.8489 55.9075 26.1467 55.8676C27.2554 55.719 28.1402 55.2702 28.8013 54.5212C29.3239 53.9291 29.6104 53.2903 29.7313 52.4478C29.7674 52.1959 29.7615 51.5241 29.721 51.2783C29.6346 50.7542 29.4814 50.3514 29.2271 49.9797C28.9298 49.5451 28.5422 49.217 28.0396 48.9745C27.7487 48.8341 27.4845 48.7473 27.16 48.6853C26.5656 48.5717 26.6766 48.576 24.2678 48.5748L22.0625 48.5738V48.7333ZM8.22499 48.6564C8.04321 48.7392 7.93376 48.8631 7.87874 49.0486C7.79978 49.3147 7.93805 49.6095 8.20142 49.7364C8.32441 49.7956 8.56695 49.7974 8.69436 49.74C8.8065 49.6895 8.9435 49.5552 8.99507 49.4453C9.05195 49.3242 9.05204 49.0844 8.99523 48.9634C8.94149 48.8489 8.825 48.7284 8.71527 48.6738C8.58817 48.6105 8.34487 48.6018 8.22499 48.6564ZM17.3759 48.6458C17.1315 48.7312 16.9821 48.9432 16.9825 49.2042C16.9827 49.3887 17.034 49.5017 17.1761 49.6305C17.4153 49.8476 17.7579 49.8414 17.988 49.6158C18.1152 49.4913 18.155 49.3932 18.1552 49.2042C18.1553 49.0709 18.148 49.0341 18.1031 48.9447C18.0394 48.8176 17.8979 48.6882 17.7789 48.6485C17.6735 48.6133 17.4727 48.6119 17.3759 48.6458ZM26.1933 49.0663C27.2209 49.2297 27.9147 49.6861 28.3057 50.456C28.5394 50.9161 28.6346 51.3853 28.6357 52.0823C28.6369 52.8431 28.5363 53.3536 28.282 53.877C27.8586 54.7483 27.1553 55.2388 26.0814 55.4117C25.7691 55.462 24.9533 55.4567 24.4875 55.4015C24.2981 55.379 24.1411 55.3587 24.1387 55.3563C24.1362 55.3539 24.1241 55.2371 24.1118 55.0968C24.0796 54.7288 24.0651 49.9478 24.095 49.5291C24.1268 49.0844 24.0972 49.128 24.3928 49.0904C24.8397 49.0335 25.0119 49.0242 25.5126 49.0305C25.8521 49.0347 26.0652 49.0459 26.1933 49.0663ZM8.80012 50.9222C8.78337 50.9318 8.61973 50.9884 8.43646 51.048C8.11509 51.1526 7.82494 51.2191 7.43186 51.2784C7.32929 51.2938 7.22196 51.3111 7.19335 51.3168L7.14134 51.3272L7.14672 51.4763L7.15211 51.6255L7.49115 51.6346C7.9705 51.6475 7.97762 51.6541 8.00545 52.1093C8.02835 52.4839 8.00966 54.9491 7.98211 55.1887C7.94672 55.4964 7.9262 55.5131 7.53337 55.5546C7.38522 55.5702 7.23641 55.5873 7.20265 55.5925L7.14132 55.602L7.14671 55.7496L7.15211 55.8972L7.35726 55.8903C7.6326 55.8809 9.23289 55.8813 9.54859 55.8909L9.80035 55.8985L9.80575 55.7509L9.81113 55.6032L9.75912 55.593C9.73051 55.5874 9.63577 55.5742 9.54859 55.5637C9.14538 55.5149 9.03207 55.4644 8.99137 55.3155C8.94296 55.1383 8.92511 54.7123 8.92748 53.7909C8.92998 52.8132 8.96086 51.4853 8.98848 51.1686L9.00441 50.9859L8.95478 50.9449C8.90212 50.9013 8.84997 50.8937 8.80012 50.9222ZM17.9198 50.9222C17.903 50.9318 17.7394 50.9884 17.5561 51.048C17.2347 51.1526 16.9446 51.2191 16.5515 51.2784C16.4489 51.2938 16.3416 51.3111 16.313 51.3168L16.261 51.3272L16.2664 51.4763L16.2718 51.6255L16.6083 51.6346C17.0922 51.6478 17.0983 51.6532 17.1249 52.088C17.1464 52.4398 17.1289 54.9826 17.1035 55.1942C17.067 55.4993 17.05 55.5128 16.6485 55.5551C16.5028 55.5705 16.3561 55.5873 16.3223 55.5925L16.261 55.602L16.2664 55.7496L16.2718 55.8972L16.4769 55.8903C16.7522 55.8809 18.3525 55.8813 18.6682 55.8909L18.92 55.8985L18.9254 55.7509L18.9308 55.6032L18.8788 55.593C18.8502 55.5874 18.7554 55.5741 18.6682 55.5634C18.3002 55.5184 18.1896 55.4781 18.1372 55.3701C18.0923 55.2773 18.0752 55.1214 18.0523 54.5976C18.0238 53.9431 18.0744 51.2857 18.1201 51.0385C18.129 50.9902 18.1221 50.9756 18.0749 50.9426C18.0148 50.9007 17.9681 50.8945 17.9198 50.9222ZM32.3197 50.9598C32.0148 51.0241 31.8146 51.1109 31.2614 51.4187L30.9024 51.6185V51.97V52.3216L31.0531 52.3605L31.2038 52.3994L31.2274 52.3414C31.2403 52.3095 31.3041 52.149 31.3691 51.9849L31.4873 51.6865L31.6353 51.6135C32.0805 51.3943 32.7064 51.4011 33.101 51.6296C33.4493 51.8313 33.6446 52.199 33.6659 52.6935L33.6718 52.8295L33.5506 52.8523C31.7589 53.1883 31.4117 53.2867 31.0753 53.5535C30.837 53.7426 30.6514 54.0341 30.5636 54.3574C30.5284 54.4867 30.5214 54.5587 30.5219 54.7868C30.5224 55.0341 30.5274 55.0754 30.5724 55.2086C30.6355 55.3956 30.7331 55.543 30.8858 55.6823C31.1132 55.8895 31.3854 55.9815 31.8162 55.9966C32.1298 56.0077 32.2621 55.989 32.4223 55.9111C32.4838 55.8811 32.786 55.6675 33.0937 55.4364C33.4014 55.2053 33.6595 55.016 33.6672 55.0157C33.6748 55.0155 33.6811 55.2148 33.6811 55.4587V55.9021L33.9003 55.8869C34.1405 55.8702 35.2187 55.8822 35.271 55.9021C35.3007 55.9135 35.3037 55.8989 35.3037 55.7414V55.5682L35.0472 55.5594C34.7748 55.55 34.7087 55.5329 34.6592 55.4589C34.6098 55.385 34.5958 55.1418 34.577 54.0376C34.553 52.6195 34.5309 52.1839 34.4713 51.9555C34.3482 51.4844 33.9526 51.128 33.3921 50.9835C33.2291 50.9415 33.1609 50.9346 32.8512 50.9289C32.5476 50.9234 32.4715 50.9278 32.3197 50.9598ZM40.9265 50.9416C40.6195 50.9922 40.2781 51.1356 39.7236 51.447L39.4345 51.6093L39.4295 51.9662L39.4244 52.323L39.5694 52.361C39.6491 52.3818 39.7164 52.3968 39.7191 52.3943C39.7217 52.3918 39.7779 52.2526 39.844 52.085C39.9102 51.9174 39.9752 51.7578 39.9885 51.7303C40.0192 51.667 40.2348 51.5594 40.4416 51.5042C40.6408 51.4511 41.0828 51.4459 41.2808 51.4945C41.493 51.5465 41.6736 51.6446 41.824 51.7897C42.0436 52.0017 42.1555 52.2726 42.1791 52.6497L42.1906 52.8334L41.9968 52.8662C41.2507 52.9924 40.3222 53.2001 40.05 53.3017C39.5572 53.4856 39.2335 53.8297 39.0884 54.324C39.0607 54.4186 39.0461 54.5331 39.0389 54.7141C39.0301 54.9363 39.034 54.9907 39.0684 55.1252C39.1258 55.3494 39.2071 55.4945 39.3599 55.6453C39.5963 55.8786 39.8766 55.9799 40.3338 55.9971C40.6296 56.0082 40.7754 55.9888 40.9287 55.9179C40.9813 55.8936 41.2834 55.6801 41.6001 55.4434L42.176 55.0131L42.1908 55.101C42.1989 55.1493 42.2031 55.3484 42.2001 55.5435L42.1947 55.8981L42.3439 55.8907C42.5352 55.8812 43.4088 55.8811 43.64 55.8905L43.8172 55.8977L43.8226 55.7306L43.8279 55.5635L43.6081 55.562C43.2452 55.5596 43.1636 55.5182 43.1341 55.3218C43.1262 55.2688 43.1068 54.6375 43.0911 53.9188C43.0526 52.1547 43.0394 52.009 42.892 51.7105C42.8275 51.5801 42.7852 51.525 42.6443 51.3883C42.389 51.1406 42.1342 51.016 41.7481 50.95C41.5703 50.9197 41.0895 50.9147 40.9265 50.9416ZM33.6718 53.8427V54.5339L33.5917 54.6357C33.469 54.7917 33.2036 55.0332 33.0382 55.1395C32.7632 55.3162 32.4874 55.3924 32.1801 55.3767C32.0471 55.3698 31.9844 55.357 31.8998 55.319C31.5881 55.1792 31.4432 54.9327 31.4432 54.5424C31.4432 54.2147 31.5216 54.0051 31.7139 53.8183C31.9107 53.6272 32.3289 53.4624 33.075 53.2817C33.2802 53.232 33.4816 53.1832 33.5226 53.1732C33.6877 53.1331 33.6718 53.0617 33.6718 53.8427ZM42.1854 53.8476V54.5439L42.0639 54.6866C41.6774 55.1407 41.2264 55.3807 40.76 55.3807C40.4811 55.3807 40.2678 55.2815 40.1111 55.0788C40.0011 54.9365 39.9582 54.7885 39.9576 54.5493C39.957 54.3139 39.9835 54.1933 40.0733 54.0237C40.222 53.7428 40.5073 53.5787 41.1775 53.3885C41.4555 53.3096 42.0968 53.1544 42.1527 53.1525C42.1832 53.1514 42.1854 53.1963 42.1854 53.8476Z" fill="#212121"/>
</svg>
