<svg width="80" height="80" viewBox="0 0 80 80" fill="none" xmlns="http://www.w3.org/2000/svg">
<path fill-rule="evenodd" clip-rule="evenodd" d="M37.1307 8.32731C36.4693 8.98861 36.938 10.1332 37.87 10.1332C38.4181 10.1332 38.9366 9.61471 38.9366 9.06661C38.9366 8.5185 38.4181 8 37.87 8C37.6103 8 37.337 8.12093 37.1307 8.32731ZM61.1501 8.13973C60.3065 8.35171 59.1058 9.06234 58.5229 9.6947C58.2236 10.0195 57.7887 10.6861 57.5568 11.1758L57.1348 12.0664L57.0991 29.3264L57.0632 46.5864L59.2724 52.1251C60.6043 55.4643 61.5906 57.7565 61.7561 57.8972C62.1074 58.1958 62.6945 58.1958 63.0457 57.8972C63.2107 57.7567 64.1982 55.4624 65.5268 52.1325L67.7338 46.601V37.2272V27.8534L67.4065 27.5262C66.9736 27.0932 66.3608 27.0932 65.9279 27.5262L65.6006 27.8534V36.5924V45.3312H64.5341H63.4675V33.0653V20.7993H64.5341H65.6006V22.6052C65.6006 24.3449 65.6126 24.4232 65.9279 24.7384C66.3635 25.174 66.9736 25.1714 67.4127 24.7323L67.7462 24.3988L67.7067 18.2254L67.6671 12.0519L67.1691 11.0448C66.268 9.22206 64.6675 8.15252 62.7008 8.05893C62.1326 8.03186 61.4348 8.06826 61.1501 8.13973ZM30.7314 10.0606C30.1913 10.6005 30.3331 11.3409 31.0497 11.7227C31.6716 12.054 32.5372 11.4989 32.5372 10.7686C32.5372 10.2527 32.0022 9.73324 31.4706 9.73324C31.2109 9.73324 30.9376 9.85416 30.7314 10.0606ZM43.5301 10.0606C42.99 10.6005 43.1319 11.3409 43.8485 11.7227C44.4703 12.054 45.3359 11.4989 45.3359 10.7686C45.3359 10.2527 44.8009 9.73324 44.2694 9.73324C44.0097 9.73324 43.7364 9.85416 43.5301 10.0606ZM63.3854 10.2953C64.1177 10.5117 65.2221 11.6162 65.4385 12.3486C65.5277 12.6504 65.6006 13.2353 65.6006 13.6485V14.3996H62.4009H59.2013V13.6485C59.2013 12.4919 59.4411 11.8844 60.1966 11.1272C61.1319 10.1899 62.1392 9.92709 63.3854 10.2953ZM36.0035 12.4744C34.6895 12.7576 33.6664 13.1804 32.6189 13.873C27.7135 17.1167 26.833 23.9766 30.7707 28.2711C31.4621 29.0252 31.6743 29.5988 31.262 29.5988C31.1472 29.5988 30.7402 29.9138 30.3575 30.2987C29.3952 31.2668 29.1261 32.2621 29.4943 33.491C29.6857 34.13 30.5169 35.1023 31.0661 35.3299C31.4126 35.4734 31.4706 35.5676 31.4706 35.9866C31.4706 38.037 33.0038 40.4127 34.9579 41.3904L35.8681 41.8458L35.2359 42.389C34.3194 43.1764 32.6994 43.9208 30.8808 44.3898C30.0064 44.6153 29.0445 44.9443 28.743 45.121C27.9586 45.5807 26.9769 46.6826 26.5625 47.5687C26.2506 48.2355 26.2058 48.4985 26.2052 49.6671C26.2045 50.9073 26.2358 51.0668 26.6402 51.8882C27.1964 53.018 28.3559 54.1211 29.4328 54.545C30.0729 54.7968 30.5262 54.8576 32.0976 54.902C33.9811 54.9551 33.9929 54.9536 34.3308 54.6158C34.7403 54.2062 34.7748 53.6229 34.4158 53.1789C34.176 52.8823 34.0544 52.8603 32.3031 52.796C30.5257 52.7308 30.4167 52.7103 29.7948 52.3258C29.3926 52.0771 28.9906 51.6749 28.741 51.2712C28.3915 50.7056 28.3376 50.4925 28.3376 49.6747C28.3376 48.8908 28.3983 48.628 28.6958 48.1217C29.2067 47.2525 29.8472 46.8723 31.6009 46.3972C34.4497 45.6253 35.8814 44.8327 37.5695 43.0928C38.4093 42.2274 38.6185 42.0821 39.1693 41.9816C39.518 41.9178 40.2267 41.658 40.7445 41.4039C42.5961 40.4951 43.9013 38.6415 44.1858 36.5167C44.3146 35.5552 44.3546 35.4622 44.7019 35.3183C45.5715 34.9581 46.4025 33.5966 46.4025 32.532C46.4025 31.4527 45.5701 30.1052 44.6739 29.734C44.1085 29.4997 44.1503 29.1025 44.8081 28.4602C46.368 26.9369 47.4691 24.2083 47.4691 21.8659C47.4691 20.2324 46.7585 17.7762 46.0381 16.9202C45.5914 16.3893 44.8152 16.3721 44.4124 16.8842C44.0577 17.3352 44.0645 17.5987 44.451 18.3705C45.093 19.6529 45.2654 20.3926 45.2654 21.8659C45.2654 24.0476 44.6285 25.5807 43.056 27.1848C42.1917 28.0665 42.1363 28.1595 42.1363 28.7276V29.3321H41.6526C41.1694 29.3321 41.169 29.3317 41.2431 28.8322C41.2839 28.5572 41.5097 26.579 41.7447 24.4361C42.1455 20.7813 42.1583 20.5194 41.9524 20.2052C41.5839 19.6427 41.1789 19.6429 39.4479 20.2065L37.87 20.7202L36.2922 20.2065C34.5611 19.6429 34.1561 19.6427 33.7876 20.2052C33.5818 20.5194 33.5946 20.7813 33.9953 24.4361C34.2304 26.579 34.4561 28.5572 34.4969 28.8322C34.571 29.3317 34.5706 29.3321 34.0874 29.3321H33.6038V28.7276C33.6038 28.1574 33.5504 28.0691 32.6648 27.1747C31.1987 25.6938 30.4013 23.8058 30.4061 21.826C30.4141 18.4309 32.8653 15.3784 36.2186 14.5878C37.8424 14.2049 39.7924 14.4771 41.4374 15.3165C42.1319 15.6708 42.4081 15.6721 42.8515 15.3232C43.122 15.1104 43.2028 14.9292 43.2028 14.5351C43.2028 13.8895 42.7918 13.517 41.5157 13.0061C39.7308 12.2916 37.742 12.0998 36.0035 12.4744ZM26.0652 14.727C25.1334 15.6586 26.4814 17.1596 27.4442 16.2625C27.8239 15.9088 27.9343 15.434 27.7273 15.0453C27.3454 14.3287 26.6051 14.1869 26.0652 14.727ZM48.4328 14.4888C48.3397 14.5264 48.1698 14.7382 48.0554 14.9593C47.4984 16.0363 48.8241 17.0564 49.6749 16.2055C50.514 15.3665 49.553 14.0382 48.4328 14.4888ZM65.6006 17.5995V18.6661H62.4009H59.2013V17.5995V16.5329H62.4009H65.6006V17.5995ZM24.332 21.1266C23.6706 21.7879 24.1392 22.9325 25.0713 22.9325C25.331 22.9325 25.6043 22.8116 25.8105 22.6052C26.0169 22.3989 26.1378 22.1256 26.1378 21.8659C26.1378 21.6062 26.0169 21.3328 25.8105 21.1266C25.6043 20.9202 25.331 20.7993 25.0713 20.7993C24.8116 20.7993 24.5382 20.9202 24.332 21.1266ZM49.9295 21.1266C49.2681 21.7879 49.7367 22.9325 50.6688 22.9325C51.2168 22.9325 51.7353 22.414 51.7353 21.8659C51.7353 21.3178 51.2168 20.7993 50.6688 20.7993C50.409 20.7993 50.1357 20.9202 49.9295 21.1266ZM61.3344 33.0653V45.3312H60.2678H59.2013V33.0653V20.7993H60.2678H61.3344V33.0653ZM36.9606 22.6921L37.87 22.985L38.7794 22.6921C39.2795 22.531 39.7178 22.3992 39.7533 22.3992C39.7889 22.3992 39.6528 23.854 39.4509 25.6323C39.2491 27.4106 39.0808 28.9704 39.077 29.0988C39.0708 29.3032 38.9212 29.3321 37.87 29.3321C36.8188 29.3321 36.6692 29.3032 36.6631 29.0988C36.6592 28.9704 36.4909 27.4106 36.2891 25.6323C36.0873 23.854 35.9511 22.3992 35.9867 22.3992C36.0222 22.3992 36.4605 22.531 36.9606 22.6921ZM13.939 23.0876C12.7514 23.3109 11.2146 24.1583 10.231 25.1322C9.20975 26.1436 8.3869 27.668 8.14879 28.99C7.9504 30.0914 7.9504 64.8375 8.14879 65.9389C8.37676 67.2048 9.19068 68.7402 10.1439 69.7023C11.067 70.6341 11.7548 71.0788 13.0564 71.5859L13.939 71.9297L42.6405 71.9648L71.3419 72L71.671 71.6709L72 71.3419V52.7975V34.2531L71.6727 33.9259C71.2398 33.4928 70.6271 33.4928 70.1942 33.9259L69.8669 34.2531V52.0597V69.8663L42.0363 69.8315L14.2057 69.7965L13.3151 69.3745C12.0756 68.7874 11.3037 68.0316 10.704 66.818C10.2335 65.8661 10.2061 65.7401 10.2061 64.5302C10.2061 63.3202 10.2335 63.1942 10.704 62.2423C11.3037 61.0287 12.0756 60.2729 13.3151 59.6858C14.1205 59.3042 14.3268 59.2638 15.4722 59.2638C16.6176 59.2638 16.8239 59.3042 17.6293 59.6858C19.4273 60.5376 20.5872 62.1559 20.763 64.0582C20.8293 64.7743 20.9185 65.0557 21.1542 65.2914C21.5649 65.7022 22.1875 65.6929 22.6108 65.2694L22.9381 64.9423V50.337V35.7318H24.744C26.4837 35.7318 26.5619 35.7198 26.8771 35.4045C27.3101 34.9715 27.3101 34.3588 26.8771 33.9259C26.5619 33.6106 26.4837 33.5986 24.744 33.5986H22.9381V31.6899C22.9381 29.314 22.7924 28.4892 22.1286 27.1059C20.6821 24.0919 17.3346 22.4495 13.939 23.0876ZM17.6625 25.575C18.8655 26.1379 19.6438 26.9036 20.2404 28.1107L20.7384 29.1181L20.7745 44.1762C20.8037 56.3401 20.7781 59.2087 20.6412 59.1006C19.0964 57.8808 18.0469 57.3848 16.5469 57.1663C14.5308 56.8725 12.2816 57.4837 10.806 58.7266L10.2061 59.232L10.1697 56.2481C10.1498 54.6068 10.1498 47.8344 10.1697 41.1981L10.2061 29.1321L10.628 28.2415C11.1637 27.1107 11.9264 26.2828 12.9213 25.7526C13.9714 25.1929 14.546 25.0662 15.772 25.1246C16.5722 25.1628 16.9985 25.2642 17.6625 25.575ZM26.0652 27.5262C25.1334 28.4579 26.4814 29.9589 27.4442 29.0617C27.8239 28.708 27.9343 28.2333 27.7273 27.8446C27.3454 27.128 26.6051 26.9861 26.0652 27.5262ZM48.4328 27.2881C48.3397 27.3257 48.1698 27.5374 48.0554 27.7586C47.4984 28.8356 48.8241 29.8557 49.6749 29.0048C50.514 28.1658 49.553 26.8375 48.4328 27.2881ZM43.9421 31.7927C44.1485 31.9989 44.2694 32.2722 44.2694 32.532C44.2694 32.7917 44.1485 33.065 43.9421 33.2712L43.6149 33.5986H37.87H32.1251L31.7979 33.2712C31.5916 33.065 31.4706 32.7917 31.4706 32.532C31.4706 32.2722 31.5916 31.9989 31.7979 31.7927L32.1251 31.4653H37.87H43.6149L43.9421 31.7927ZM47.7964 33.9259C47.59 34.1321 47.4691 34.4054 47.4691 34.6652C47.4691 34.9249 47.59 35.1982 47.7964 35.4045L48.1235 35.7318H51.202H54.2805L54.6077 35.4045C54.8141 35.1982 54.935 34.9249 54.935 34.6652C54.935 34.4054 54.8141 34.1321 54.6077 33.9259L54.2805 33.5986H51.202H48.1235L47.7964 33.9259ZM42.0721 36.3609C41.9663 37.0673 41.5182 38.0283 41.0173 38.6237C40.8337 38.8419 40.3054 39.2244 39.8433 39.4736C39.0762 39.8873 38.905 39.9266 37.87 39.9266C36.8342 39.9266 36.6643 39.8874 35.8935 39.4718C34.6358 38.7936 33.8725 37.7265 33.6676 36.3593L33.5735 35.7318H37.87H42.1665L42.0721 36.3609ZM42.4636 44.5919C42.1689 44.8865 42.1361 45.0294 42.1352 46.0252L42.1343 47.1311L41.6128 47.4288L41.0914 47.7266L40.1827 47.1955C39.683 46.9034 39.1415 46.6645 38.9795 46.6645C38.501 46.6645 38.1016 47.1562 36.9549 49.157C35.4812 51.7285 35.4864 51.8578 37.1034 52.8088C37.8576 53.2525 37.87 53.2696 37.87 53.8641C37.87 54.4586 37.8576 54.4757 37.1034 54.9194C35.9921 55.5729 35.8702 55.7056 35.8702 56.2614C35.8702 56.8517 36.3103 57.3306 36.8528 57.3306C37.2277 57.3306 39.5561 56.0421 39.8745 55.6584C39.9969 55.5109 40.0547 54.9716 40.063 53.9005C40.0766 52.132 40.0138 51.9858 39.0116 51.4541C38.677 51.2766 38.4033 51.0836 38.4033 51.0252C38.4033 50.9669 38.6247 50.534 38.8955 50.0632L39.3877 49.2074L40.1129 49.6223C40.9952 50.1271 41.4209 50.131 42.0999 49.6402C42.3858 49.4335 42.9247 49.1221 43.2973 48.9481C44.1002 48.5733 44.2694 48.2676 44.2694 47.1915V46.3978H45.3359H46.4025L46.4068 47.2978C46.409 47.7963 46.484 48.2935 46.5745 48.4125C46.6645 48.5307 47.0675 48.7922 47.4701 48.9941C47.8729 49.1958 48.3823 49.4955 48.6023 49.6601C49.288 50.1731 49.4954 50.1759 50.4208 49.685L51.2743 49.2321L51.7715 50.0726C52.0449 50.5348 52.2686 50.9621 52.2686 51.0221C52.2686 51.0822 52.002 51.2728 51.6761 51.4457C50.6618 51.9838 50.6225 52.0714 50.6089 53.8221C50.5953 55.5968 50.6576 55.7421 51.6603 56.2741C51.9949 56.4515 52.2686 56.6446 52.2686 56.703C52.2686 56.7613 52.049 57.1908 51.7806 57.6575L51.2927 58.5058L50.43 58.0481C49.4813 57.5448 49.3158 57.5505 48.5363 58.1138C48.2699 58.3064 47.7472 58.6061 47.3745 58.7801C46.5717 59.1549 46.4025 59.4606 46.4025 60.5366V61.3303H45.3359H44.2694L44.2651 60.4304C44.2628 59.9319 44.1879 59.4347 44.0974 59.3156C44.0074 59.1975 43.6044 58.9341 43.2018 58.7301C42.799 58.5262 42.2708 58.2078 42.0279 58.0227C41.785 57.8376 41.4173 57.6861 41.2109 57.6861C40.8349 57.6861 38.8667 58.7397 38.3033 59.2426C37.8629 59.6355 37.8891 60.4212 38.3546 60.7873C38.8511 61.1779 39.1499 61.1362 40.1827 60.5326L41.0914 60.0016L41.6128 60.2993L42.1343 60.597L42.1352 61.703C42.1361 62.6988 42.1689 62.8417 42.4636 63.1362C42.7881 63.4609 42.8114 63.4635 45.3359 63.4635C47.8605 63.4635 47.8838 63.4609 48.2083 63.1362C48.503 62.8417 48.5358 62.6988 48.5367 61.703L48.5378 60.597L49.0721 60.3069L49.6065 60.0168L50.5021 60.5402C50.9947 60.8281 51.5304 61.0637 51.6924 61.0637C52.1709 61.0637 52.5703 60.572 53.717 58.5712C55.1907 55.9997 55.1855 55.8704 53.5685 54.9194C52.8143 54.4757 52.8019 54.4586 52.8019 53.8641C52.8019 53.2696 52.8143 53.2525 53.5685 52.8088C55.1855 51.8578 55.1907 51.7285 53.717 49.157C52.5703 47.1562 52.1709 46.6645 51.6924 46.6645C51.5304 46.6645 50.9947 46.9001 50.5021 47.1879L49.6065 47.7114L49.0721 47.4212L48.5378 47.1311L48.5367 46.0252C48.5358 45.0294 48.503 44.8865 48.2083 44.5919C47.8838 44.2673 47.8605 44.2646 45.3359 44.2646C42.8114 44.2646 42.7881 44.2673 42.4636 44.5919ZM65.0299 47.6311C64.9935 47.7228 64.8007 48.2028 64.6014 48.6977L64.239 49.5977H62.4009H60.5629L60.2005 48.6977C60.0012 48.2028 59.8084 47.7228 59.772 47.6311C59.7205 47.5011 60.2986 47.4644 62.4009 47.4644C64.5033 47.4644 65.0813 47.5011 65.0299 47.6311ZM44.2694 50.8385C43.615 51.0448 42.499 52.2004 42.2984 52.8796C41.9291 54.1297 42.1895 55.1263 43.1316 56.0685C44.4962 57.4331 46.379 57.404 47.6423 55.9989C48.882 54.6199 48.8431 52.9625 47.5403 51.6597C46.6021 50.7216 45.5102 50.4475 44.2694 50.8385ZM63.2769 51.9642C62.8342 53.1665 62.4763 53.9974 62.4009 53.9974C62.3256 53.9974 61.9677 53.1665 61.525 51.9642C61.4482 51.7557 61.5412 51.7309 62.4009 51.7309C63.2607 51.7309 63.3536 51.7557 63.2769 51.9642ZM46.0752 53.1248C46.2816 53.331 46.4025 53.6044 46.4025 53.8641C46.4025 54.1238 46.2816 54.3971 46.0752 54.6034C45.869 54.8098 45.5957 54.9307 45.3359 54.9307C45.0762 54.9307 44.8029 54.8098 44.5967 54.6034C44.3903 54.3971 44.2694 54.1238 44.2694 53.8641C44.2694 53.6044 44.3903 53.331 44.5967 53.1248C44.8029 52.9184 45.0762 52.7975 45.3359 52.7975C45.5957 52.7975 45.869 52.9184 46.0752 53.1248ZM29.3375 60.438C28.6832 60.6442 27.5672 61.7999 27.3665 62.4791C26.9972 63.7291 27.2576 64.7257 28.1998 65.668C28.8902 66.3584 29.5655 66.6634 30.4041 66.6634C31.2427 66.6634 31.9179 66.3584 32.6084 65.668C33.9572 64.3191 33.9572 62.608 32.6084 61.2591C31.6702 60.3211 30.5783 60.0469 29.3375 60.438ZM61.7158 60.5182C61.4214 60.7562 61.3968 60.8853 61.3344 62.5087C61.2623 64.3866 61.1707 64.6421 60.3499 65.2552C59.9918 65.5226 59.7909 65.532 52.9137 65.5968L45.8455 65.6634L45.5907 65.9782C45.234 66.419 45.266 67.0055 45.6686 67.4081L46.0013 67.7409L53.1678 67.7021L60.3345 67.6633L61.0153 67.304C62.0262 66.7708 62.4404 66.369 62.9409 65.4369C63.3791 64.6205 63.3934 64.5452 63.4446 62.7724C63.497 60.96 63.495 60.9458 63.1551 60.6058C62.743 60.1937 62.161 60.1583 61.7158 60.5182ZM31.1433 62.7243C31.8047 63.3855 31.3361 64.5302 30.4041 64.5302C29.856 64.5302 29.3375 64.0116 29.3375 63.4635C29.3375 62.9154 29.856 62.3969 30.4041 62.3969C30.6638 62.3969 30.9371 62.5179 31.1433 62.7243Z" fill="url(#paint0_linear_982_9819)"/>
<defs>
<linearGradient id="paint0_linear_982_9819" x1="8" y1="72" x2="74.2059" y2="69.6303" gradientUnits="userSpaceOnUse">
<stop stop-color="#0071BC"/>
<stop offset="1" stop-color="#00C0F3"/>
</linearGradient>
</defs>
</svg>
