<svg width="80" height="80" viewBox="0 0 80 80" fill="none" xmlns="http://www.w3.org/2000/svg">
<path fill-rule="evenodd" clip-rule="evenodd" d="M11.7721 8.14238C10.9952 8.32455 9.858 8.99329 9.30405 9.5936C9.02287 9.89838 8.61432 10.524 8.3964 10.9835L8 11.8193V34.0339V56.2484L8.46779 57.1938C9.03114 58.3326 9.75631 59.0419 10.9207 59.5929L11.7573 59.9889L19.7238 60.0245L27.6902 60.0602L27.4355 61.1049C27.1911 62.1072 27.1614 62.1583 26.7063 62.3589C26.1005 62.6259 25.3079 63.5227 25.1179 64.1561C25.0369 64.4262 24.9706 65.2766 24.9706 66.0459C24.9706 67.3642 24.9883 67.4623 25.2781 67.7517L25.5855 68.0588H30.7889H35.9922V67.0579V66.057H31.4834H26.9746V65.3632C26.9746 64.7933 27.0295 64.6144 27.282 64.3623L27.5894 64.0551H31.7908H35.9922V63.0542V62.0533H32.625H29.2576L29.5093 61.0524L29.7609 60.0514H32.8766H35.9922V59.0505V58.0496H24.265C15.4236 58.0496 12.411 58.0122 12.0224 57.8974C11.3344 57.6944 10.2969 56.6579 10.0936 55.9707C10.0067 55.6768 9.94129 54.7235 9.94129 53.7499V52.044H22.9667H35.9922V51.0431V50.0422H22.9667H9.94129V31.3206C9.94129 16.9872 9.97699 12.4783 10.0936 12.084C10.2969 11.3968 11.3344 10.3603 12.0224 10.1572C12.3059 10.0735 13.0808 10.0051 13.7445 10.0051H14.9511V9.00418V8.00325L13.6047 8.01576C12.8641 8.02277 12.0395 8.0797 11.7721 8.14238ZM16.955 9.00418V10.0051H17.9569H18.9589V9.00418V8.00325H17.9569H16.955V9.00418ZM20.9628 9.00255V10.0051H44.2125C62.1007 10.0051 67.581 10.0401 67.9776 10.1572C68.6656 10.3603 69.7031 11.3968 69.9064 12.084C70.1275 12.8316 70.1275 55.2231 69.9064 55.9707C69.7415 56.5284 68.5925 57.7994 68.2532 57.7994C68.0796 57.7994 68.0559 56.1401 68.0259 41.8158L67.9922 25.8323L67.5958 24.9965C67.0442 23.8333 66.3342 23.1089 65.1942 22.5461L64.2479 22.0788H53.032H41.816L40.9794 22.4748C39.815 23.0258 39.0898 23.7351 38.5265 24.8739L38.0587 25.8192V47.0394V68.2595L38.5265 69.2049C39.0898 70.3437 39.815 71.053 40.9794 71.604L41.816 72H53.0254H64.2348L65.0715 71.604C66.2355 71.0531 66.961 70.3437 67.5244 69.2054L67.9922 68.2604L68.0311 64.0933C68.0622 60.7702 68.1033 59.9263 68.2335 59.9263C68.3233 59.9263 68.7924 59.7286 69.2757 59.4872C70.3435 58.9534 71.0671 58.2026 71.6036 57.0712L72 56.2354V34.0273V11.8193L71.6036 10.9835C71.052 9.82044 70.342 9.09589 69.2022 8.53312L68.2557 8.06581L44.6093 8.03291L20.9628 8V9.00255ZM21.2703 12.3141C20.9994 12.5846 20.9628 12.731 20.9628 13.5441V14.4672L20.1212 14.8008L19.2794 15.1344L18.626 14.4898C17.6064 13.4838 17.513 13.5151 15.484 15.5421C13.4549 17.569 13.4236 17.6623 14.4306 18.6809L15.0758 19.3336L14.7419 20.1745L14.408 21.0153H13.484C12.67 21.0153 12.5235 21.0518 12.2527 21.3225C11.9477 21.627 11.9452 21.6489 11.9452 24.0181C11.9452 26.3873 11.9477 26.4092 12.2527 26.7137C12.5235 26.9843 12.67 27.0209 13.484 27.0209H14.408L14.7419 27.8616L15.0758 28.7025L14.4306 29.3553C13.4236 30.3738 13.4549 30.4672 15.484 32.494C17.513 34.5211 17.6064 34.5523 18.626 33.5464L19.2794 32.9018L20.1212 33.2354L20.9628 33.5689V34.492C20.9628 35.3052 20.9994 35.4515 21.2703 35.722C21.5751 36.0267 21.5971 36.0292 23.9687 36.0292C26.3403 36.0292 26.3622 36.0267 26.6671 35.722C26.938 35.4515 26.9746 35.3052 26.9746 34.492V33.5689L27.8162 33.2354L28.658 32.9018L29.3114 33.5464C30.331 34.5523 30.4244 34.5211 32.4534 32.494C34.4825 30.4672 34.5138 30.3738 33.5068 29.3553L32.8616 28.7025L33.1955 27.8616L33.5294 27.0209H34.4534C35.2674 27.0209 35.4139 26.9843 35.6847 26.7137C35.9897 26.4092 35.9922 26.3873 35.9922 24.0181C35.9922 21.6489 35.9897 21.627 35.6847 21.3225C35.4139 21.0518 35.2674 21.0153 34.4534 21.0153H33.5294L33.1955 20.1745L32.8616 19.3336L33.5068 18.6809C34.5138 17.6623 34.4825 17.569 32.4534 15.5421C30.4244 13.5151 30.331 13.4838 29.3114 14.4898L28.658 15.1344L27.8162 14.8008L26.9746 14.4672V13.5441C26.9746 12.731 26.938 12.5846 26.6671 12.3141C26.3622 12.0095 26.3403 12.007 23.9687 12.007C21.5971 12.007 21.5751 12.0095 21.2703 12.3141ZM50.0196 13.0079V14.0088H56.5323H63.045V13.0079V12.007H56.5323H50.0196V13.0079ZM65.0489 13.0079V14.0088H66.0509H67.0528V13.0079V12.007H66.0509H65.0489V13.0079ZM24.9706 14.7984C24.9706 15.7923 25.1579 16.0138 26.3095 16.3818C26.7787 16.5316 27.4575 16.8192 27.8181 17.0206C28.7277 17.5288 28.9953 17.4983 29.742 16.8006L30.3694 16.2142L31.0749 16.9191L31.7806 17.6239L31.1936 18.2507C30.4952 18.9967 30.4646 19.2639 30.9734 20.1726C31.175 20.5329 31.4628 21.211 31.6129 21.6797C31.9812 22.8301 32.2029 23.0172 33.1978 23.0172H33.9883V24.0181V25.019H33.1978C32.2029 25.019 31.9812 25.2061 31.6129 26.3565C31.4628 26.8252 31.175 27.5033 30.9734 27.8635C30.4646 28.7722 30.4952 29.0395 31.1936 29.7854L31.7806 30.4122L31.0749 31.117L30.3694 31.8219L29.742 31.2355C28.9953 30.5379 28.7277 30.5073 27.8181 31.0156C27.4575 31.217 26.7787 31.5045 26.3095 31.6544C25.1579 32.0224 24.9706 32.2438 24.9706 33.2377V34.0273H23.9687H22.9667V33.2377C22.9667 32.2438 22.7795 32.0224 21.6279 31.6544C21.1587 31.5045 20.4799 31.217 20.1193 31.0156C19.2096 30.5073 18.9421 30.5379 18.1954 31.2355L17.5679 31.8219L16.8624 31.117L16.1568 30.4122L16.7438 29.7854C17.4422 29.0395 17.4728 28.7722 16.964 27.8635C16.7624 27.5033 16.4746 26.8252 16.3245 26.3565C15.9562 25.2061 15.7345 25.019 14.7395 25.019H13.9491V24.0181V23.0172H14.7395C15.7345 23.0172 15.9562 22.8301 16.3245 21.6797C16.4746 21.211 16.7624 20.5329 16.964 20.1726C17.4728 19.2639 17.4422 18.9967 16.7438 18.2507L16.1568 17.6239L16.8624 16.9191L17.5679 16.2142L18.1954 16.8006C18.9421 17.4983 19.2096 17.5288 20.1193 17.0206C20.4799 16.8192 21.1587 16.5316 21.6279 16.3818C22.7795 16.0138 22.9667 15.7923 22.9667 14.7984V14.0088H23.9687H24.9706V14.7984ZM22.7936 19.1446C22.0011 19.3435 20.8731 20.0104 20.3256 20.6038C20.0444 20.9086 19.6359 21.5342 19.4179 21.9937C19.059 22.7505 19.0215 22.9423 19.0215 24.0246C19.0215 25.1525 19.0478 25.2727 19.4893 26.1651C20.0527 27.3039 20.7778 28.0132 21.9422 28.5642C22.6988 28.9222 22.8927 28.9602 23.9687 28.9602C25.0447 28.9602 25.2385 28.9222 25.9951 28.5642C27.1595 28.0132 27.8847 27.3039 28.4481 26.1651C28.8901 25.2717 28.9159 25.1535 28.9159 24.0181C28.9159 22.8827 28.8901 22.7644 28.4481 21.8711C27.6018 20.1604 26.0982 19.1566 24.2504 19.0687C23.7166 19.0433 23.061 19.0775 22.7936 19.1446ZM24.8935 21.1674C25.5815 21.3705 26.619 22.407 26.8223 23.0942C27.1692 24.2673 26.9246 25.2026 26.0395 26.0867C24.7724 27.3525 23.165 27.3525 21.8979 26.0867C20.6308 24.8209 20.6308 23.2166 21.8979 21.948C22.7765 21.0685 23.7228 20.8219 24.8935 21.1674ZM63.9698 24.1702C64.6578 24.3733 65.6953 25.4097 65.8986 26.097C66.1929 27.0924 66.4289 27.0209 62.8515 27.0209H59.652L59.3447 27.328C59.1503 27.5221 59.0372 27.7779 59.0372 28.0233C59.0372 28.6323 58.7856 29.4771 58.519 29.7629C58.2802 30.0191 58.185 30.0236 53.0254 30.0236C47.8659 30.0236 47.7707 30.0191 47.5318 29.7629C47.2653 29.4771 47.0137 28.6323 47.0137 28.0233C47.0137 27.7779 46.9006 27.5221 46.7062 27.328L46.3989 27.0209H43.1994C39.622 27.0209 39.858 27.0924 40.1523 26.097C40.3408 25.4597 41.3892 24.3752 42.0039 24.1816C42.6607 23.9749 63.2716 23.9642 63.9698 24.1702ZM49.0176 27.0209V28.0218H53.0254H57.0333V27.0209V26.0199H53.0254H49.0176V27.0209ZM45.2032 29.4293C45.4326 30.4896 46.1863 31.4745 47.041 31.8312C47.7374 32.1218 58.3135 32.1218 59.0099 31.8312C59.8645 31.4745 60.6183 30.4896 60.8477 29.4293L60.9358 29.0227H63.4933H66.0509V46.5389V64.0551H53.0254H40V46.5389V29.0227H42.5576H45.1151L45.2032 29.4293ZM32.2918 35.3354C32.0209 35.6059 31.9843 35.7523 31.9843 36.5654V37.4886L31.1427 37.8221L30.3009 38.1557L29.6475 37.5111C28.6279 36.5051 28.5345 36.5364 26.5055 38.5634C24.4764 40.5903 24.4451 40.6836 25.4521 41.7022L26.0973 42.3549L25.7634 43.1958L25.4295 44.0366H24.5055C23.6915 44.0366 23.545 44.0731 23.2742 44.3438C22.9711 44.6464 22.9667 44.6821 22.9667 46.8461V49.0412H23.9687H24.9706V47.5399V46.0385H25.7611C26.756 46.0385 26.9777 45.8514 27.346 44.701C27.4961 44.2323 27.7839 43.5542 27.9855 43.194C28.4943 42.2852 28.4637 42.018 27.7654 41.2721L27.1783 40.6452L27.884 39.9404L28.5895 39.2355L29.2169 39.822C29.9636 40.5196 30.2312 40.5501 31.1408 40.0419C31.5014 39.8405 32.1802 39.553 32.6494 39.4031C33.801 39.0351 33.9883 38.8137 33.9883 37.8197V37.0301H35.4912H36.9941V36.0292V35.0283H34.7967C32.6305 35.0283 32.5948 35.0327 32.2918 35.3354ZM51.0841 36.2034C47.1538 36.9597 43.8584 39.7808 42.6263 43.4437C40.2882 50.3944 45.0777 57.5399 52.392 58.0132C57.5887 58.3495 62.3066 54.8953 63.7062 49.7294C64.0685 48.3918 64.0877 45.7761 63.7446 44.485C62.6542 40.3821 59.7942 37.4933 55.7182 36.3783C54.571 36.0645 52.2592 35.9771 51.0841 36.2034ZM55.7182 38.4566C57.1395 38.9087 58.1962 39.5674 59.3507 40.7207C60.9901 42.3584 61.8422 44.1842 61.9993 46.3967C62.3855 51.8312 57.8753 56.3545 52.4206 56.0032C51.0846 55.9172 49.5743 55.4552 48.4213 54.7797C47.4556 54.214 45.807 52.5446 45.2253 51.5436C44.9655 51.0963 44.6047 50.2799 44.4238 49.7294C44.1432 48.8763 44.093 48.4975 44.0839 47.1645C44.0712 45.3103 44.2588 44.4741 45.0382 42.9106C45.9548 41.072 47.9653 39.2845 49.9003 38.5877C51.6796 37.947 53.9551 37.8957 55.7182 38.4566ZM53.8186 42.8091L51.0294 45.5853L50.2222 44.811C48.9959 43.6346 48.9892 43.6366 46.7993 45.8243C45.191 47.431 45.0098 47.6555 45.0098 48.0419C45.0098 48.4357 45.2456 48.7076 47.7996 51.2589C50.361 53.8177 50.6249 54.0459 51.0228 54.0459C51.4262 54.0459 51.7886 53.7138 56.2486 49.2583C60.7016 44.8101 61.0411 44.4404 61.0411 44.0396C61.0411 43.6514 60.862 43.4293 59.2516 41.8206C57.6486 40.2192 57.4175 40.0329 57.0349 40.0329C56.6454 40.0329 56.3613 40.2781 53.8186 42.8091ZM33.8152 42.1739C33.0383 42.3561 31.9011 43.0248 31.3471 43.6251C30.7179 44.3071 30.1456 45.5076 30.0328 46.3825L29.9481 47.0394H30.9367H31.9251L32.0778 46.3972C32.3444 45.2759 33.2249 44.3963 34.3473 44.1299L34.9902 43.9774V43.006V42.0348L34.6458 42.0473C34.4564 42.0543 34.0826 42.1112 33.8152 42.1739ZM57.8492 43.2878L58.5946 44.0402L54.8082 47.8227L51.0218 51.6054L49.2378 49.8232L47.4538 48.0411L48.2306 47.2651L49.0072 46.4893L49.8157 47.2649C51.0908 48.488 50.9237 48.5632 54.2095 45.2885C55.7281 43.7751 57.0006 42.5365 57.0372 42.536C57.0738 42.5356 57.4392 42.8739 57.8492 43.2878ZM11.9452 55.0468V56.0477H12.9472H13.9491V55.0468V54.0459H12.9472H11.9452V55.0468ZM15.953 55.0468V56.0477H18.9589H21.9648V55.0468V54.0459H18.9589H15.953V55.0468ZM66.0509 66.7619C66.0509 67.1496 65.9824 67.6985 65.8986 67.9818C65.6953 68.669 64.6578 69.7055 63.9698 69.9086C63.2284 70.1274 42.8225 70.1274 42.0811 69.9086C41.3931 69.7055 40.3556 68.669 40.1523 67.9818C40.0685 67.6985 40 67.1496 40 66.7619V66.057H53.0254H66.0509V66.7619ZM49.0176 68.0588V69.0598H53.0254H57.0333V68.0588V67.0579H53.0254H49.0176V68.0588Z" fill="url(#paint0_linear_982_9825)"/>
<defs>
<linearGradient id="paint0_linear_982_9825" x1="8" y1="72" x2="74.2059" y2="69.6303" gradientUnits="userSpaceOnUse">
<stop stop-color="#0071BC"/>
<stop offset="1" stop-color="#00C0F3"/>
</linearGradient>
</defs>
</svg>
