<svg width="80" height="80" viewBox="0 0 80 80" fill="none" xmlns="http://www.w3.org/2000/svg">
<path fill-rule="evenodd" clip-rule="evenodd" d="M26.875 8.2138C25.9053 8.4687 24.8179 9.16227 24.1936 9.92422C23.2732 11.0475 22.8829 12.4098 22.8775 14.5177L22.875 15.4865H17.6986C13.0404 15.4865 12.4493 15.5093 11.7924 15.7144C9.95625 16.2876 8.689 17.6439 8.1865 19.5736C8.02537 20.1921 8 22.7399 8 38.3105C8 49.9641 8.04475 56.5693 8.12675 57.0049C8.53387 59.1675 10.4048 60.9224 12.6493 61.2471C13.0827 61.3097 17.0235 61.3622 21.4062 61.3636L29.375 61.3661V63.4913V65.6165L27.4062 65.6192C25.6955 65.6216 25.3638 65.6554 24.875 65.877C23.449 66.5236 22.875 67.6943 22.875 69.9564C22.875 70.9678 23.0922 71.6488 23.4812 71.8571C23.8372 72.0476 56.1628 72.0476 56.5187 71.8571C56.9077 71.6488 57.125 70.9678 57.125 69.9564C57.125 67.6943 56.551 66.5236 55.125 65.877C54.6362 65.6554 54.3045 65.6216 52.5938 65.6192L50.625 65.6165V63.4913V61.3661L58.5938 61.3636C62.9766 61.3622 66.9173 61.3097 67.3507 61.2471C69.5952 60.9224 71.4661 59.1675 71.8732 57.0049C71.9552 56.5693 72 49.9641 72 38.3105C72 22.7399 71.9746 20.1921 71.8135 19.5736C71.311 17.6439 70.0438 16.2876 68.2076 15.7144C67.5508 15.5093 66.9596 15.4865 62.3014 15.4865H57.125L57.1225 14.5177C57.1154 11.7245 56.379 10.0544 54.6451 8.89887C53.2459 7.9664 53.7961 8.00015 40 8.00015C28.7886 8.00015 27.6149 8.01928 26.875 8.2138ZM52.5384 10.2434C53.3474 10.4476 54.1664 11.1132 54.5459 11.8749C54.8596 12.5045 54.875 12.6276 54.875 14.5109V16.4866H40H25.125V14.5109C25.125 12.6237 25.1399 12.5056 25.4568 11.8695C25.8169 11.1468 26.5501 10.5297 27.349 10.2769C27.9736 10.0792 51.763 10.0476 52.5384 10.2434ZM36.4196 12.3573C35.7277 12.644 35.5529 13.5051 36.0795 14.0319L36.4091 14.3614H40H43.5909L43.9205 14.0319C44.336 13.6162 44.3463 13.1122 43.9485 12.6495L43.647 12.2987L40.1673 12.2725C38.2534 12.2581 36.567 12.2962 36.4196 12.3573ZM48.1364 12.3698C47.4451 12.6524 47.2749 13.5226 47.8069 14.0545C48.202 14.4498 48.7535 14.4539 49.2055 14.0651C50.0791 13.3136 49.2078 11.9318 48.1364 12.3698ZM51.2856 12.4205C50.6284 12.7067 50.5185 13.5782 51.0764 14.0801C51.7335 14.6714 52.75 14.2146 52.75 13.3281C52.75 12.9305 52.3851 12.3612 52.1304 12.3612C52.0699 12.3612 51.9455 12.3351 51.854 12.3032C51.7624 12.2715 51.5066 12.3241 51.2856 12.4205ZM22.875 23.9874V30.363L18.0312 30.3649C12.8003 30.3669 12.7089 30.3776 12.395 31.0322C12.1919 31.4559 12.285 31.8945 12.6501 32.2347C12.9139 32.4806 13.0723 32.4882 17.8986 32.4882H22.875V39.4186V46.3491L20.5723 46.3881C18.3328 46.426 18.2606 46.4355 17.9473 46.7301C17.5176 47.1343 17.5109 47.762 17.9319 48.1829L18.2386 48.4898H40H61.7614L62.0681 48.1829C62.4891 47.762 62.4824 47.1343 62.0527 46.7301C61.7394 46.4355 61.6673 46.426 59.4277 46.3881L57.125 46.3491V31.9765V17.6039L62.3438 17.639C67.0714 17.671 67.605 17.6954 68.0135 17.8988C68.6058 18.1938 69.2049 18.7895 69.5412 19.4178L69.8125 19.9245L69.8456 35.8323L69.8787 51.7401H40.0019H10.125L10.1305 36.0198C10.1364 19.1794 10.1105 19.8833 10.7566 18.9402C11.0721 18.4798 11.7081 18.0003 12.2985 17.7775C12.5714 17.6746 14.2079 17.6279 17.7812 17.6212L22.875 17.6117V23.9874ZM54.875 32.4882V46.3646H40H25.125V39.4264V32.4882H26.3843H27.6435L28.353 31.825L29.0625 31.1618L29.6875 31.3295C30.138 31.4502 31.028 31.487 32.875 31.4612C35.2694 31.428 35.4765 31.4065 36.0309 31.1333C36.7907 30.7592 37.4554 29.9805 37.6904 29.1894C37.9511 28.311 37.9511 23.9141 37.6904 23.0358C37.4443 22.2069 36.7882 21.4664 35.9743 21.0986C35.3408 20.8123 35.1949 20.7995 32.5625 20.7995C30.2014 20.7995 29.729 20.8318 29.2222 21.0273C28.5121 21.3013 27.5642 22.2982 27.3787 22.9661C27.2025 23.6007 27.2119 28.7161 27.3902 29.2278C27.5177 29.5935 27.4986 29.6632 27.1794 29.9965C26.8582 30.3316 26.7553 30.363 25.9766 30.363H25.125V24.4874V18.6118H40H54.875V32.4882ZM40.6564 20.9166C39.9461 21.2372 39.813 22.0502 40.3781 22.6154C40.5819 22.8191 40.7959 22.8623 41.6032 22.8623C42.4721 22.8623 42.6126 22.829 42.8611 22.5645C43.2558 22.1444 43.2458 21.5511 42.8374 21.1426C42.5755 20.8807 42.3681 20.808 41.7868 20.7747C41.3339 20.7487 40.9103 20.8018 40.6564 20.9166ZM46.1875 20.8224C45.4241 21.0197 45.1385 21.9028 45.6341 22.5328L45.8931 22.8623H49.0498C52.1878 22.8623 52.208 22.8605 52.4782 22.573C52.8655 22.1607 52.8425 21.4926 52.4276 21.1026C52.1076 20.8017 52.0854 20.7994 49.2714 20.7787C47.7127 20.7672 46.325 20.7868 46.1875 20.8224ZM12.6695 22.1584C12.4071 22.3842 12.325 22.5668 12.325 22.9248C12.325 23.2827 12.4071 23.4653 12.6695 23.6911C12.9597 23.9407 13.1493 23.9874 13.875 23.9874C14.6007 23.9874 14.7903 23.9407 15.0805 23.6911C15.3429 23.4653 15.425 23.2827 15.425 22.9248C15.425 22.5668 15.3429 22.3842 15.0805 22.1584C14.7903 21.9088 14.6007 21.8622 13.875 21.8622C13.1493 21.8622 12.9597 21.9088 12.6695 22.1584ZM16.9195 22.1584C16.6571 22.3842 16.575 22.5668 16.575 22.9248C16.575 23.2827 16.6571 23.4653 16.9195 23.6911C17.2345 23.9621 17.3759 23.9874 18.5756 23.9874C19.937 23.9874 20.5144 23.8308 20.6724 23.4192C20.8392 22.9843 20.7451 22.471 20.4431 22.1691C20.153 21.8788 20.0584 21.8622 18.7001 21.8622C17.3694 21.8622 17.2386 21.8839 16.9195 22.1584ZM34.906 22.9938C35.6718 23.2064 35.75 23.4957 35.75 26.1126C35.75 28.6471 35.6665 28.9867 34.9851 29.2244C34.7624 29.302 33.7611 29.3629 32.7073 29.3629H30.8269L32.154 28.016C32.8839 27.2753 33.518 26.5219 33.5631 26.3418C33.6575 25.9662 33.369 25.3099 33.0569 25.1901C32.9456 25.1475 32.682 25.1125 32.4711 25.1125C32.1516 25.1125 31.8612 25.3355 30.7314 26.4491L29.375 27.7859V25.6584C29.375 22.7764 29.2394 22.8995 32.4375 22.8775C33.5375 22.8699 34.6484 22.9223 34.906 22.9938ZM12.6281 25.3594C12.0306 25.9569 12.2738 26.8734 13.0945 27.1171C13.4023 27.2083 14.6825 27.2421 16.8339 27.2156C20.0987 27.1753 20.106 27.1746 20.4276 26.8722C20.8559 26.4695 20.8714 25.7702 20.4607 25.3843C20.1772 25.118 20.0969 25.1125 16.5232 25.1125C13.0574 25.1125 12.8626 25.1249 12.6281 25.3594ZM40.3781 25.3594C39.7984 25.9392 39.9496 26.7499 40.6956 27.0615C41.0713 27.2186 41.9944 27.2419 46.6229 27.2113L52.1051 27.1752L52.4275 26.8722C52.8559 26.4695 52.8715 25.7703 52.4608 25.3843C52.1722 25.1133 52.1536 25.1125 46.3983 25.1125C40.8165 25.1125 40.6169 25.1206 40.3781 25.3594ZM40.3781 29.6098C39.8321 30.1559 39.9532 30.9863 40.6287 31.3282C41.0384 31.5355 46.1586 31.5505 46.7448 31.3462C47.0199 31.2503 47.208 31.0701 47.3247 30.7907C47.5168 30.3309 47.4604 30.0617 47.0846 29.6442C46.835 29.3668 46.788 29.3629 43.7282 29.3629C40.805 29.3629 40.6106 29.3773 40.3781 29.6098ZM49.9319 29.6698C49.2624 30.3392 49.7349 31.3357 50.7776 31.4532C52.0174 31.593 52.75 31.2005 52.75 30.3962C52.75 30.1173 52.6471 29.8737 52.4431 29.6698C52.1714 29.3979 52.0283 29.3629 51.1875 29.3629C50.3467 29.3629 50.2036 29.3979 49.9319 29.6698ZM29.0625 33.9078C28.31 34.2678 27.8512 34.7348 27.5101 35.4885C27.2778 36.0018 27.2553 36.3045 27.2528 38.9433L27.25 41.8356L27.5991 42.504C27.9893 43.2509 28.7594 43.9107 29.4719 44.1086C29.728 44.1797 31.1469 44.2377 32.625 44.2375C35.1834 44.237 35.3425 44.2229 35.9375 43.9436C36.668 43.6007 37.1691 43.128 37.5439 42.4283C37.7974 41.955 37.8125 41.7573 37.8125 38.9263C37.8125 36.0868 37.798 35.8989 37.5413 35.4194C37.2049 34.7911 36.6058 34.1954 36.0135 33.9003C35.6248 33.7068 35.1569 33.6712 32.625 33.6424C29.7511 33.6098 29.674 33.6156 29.0625 33.9078ZM40.4001 33.8668C39.8305 34.3975 39.9419 35.231 40.6287 35.5786C41.0556 35.7945 42.1866 35.7777 42.6294 35.5488C43.2481 35.2287 43.3353 34.3774 42.7986 33.8946C42.5351 33.6574 42.3438 33.6133 41.5791 33.6133C40.8407 33.6133 40.6215 33.6604 40.4001 33.8668ZM45.6819 33.9202C45.3446 34.2574 45.2729 34.9076 45.5353 35.2494C45.8768 35.6942 46.1968 35.7385 49.0625 35.7385C51.9282 35.7385 52.2482 35.6942 52.5897 35.2494C52.8521 34.9076 52.7804 34.2574 52.4431 33.9202L52.1364 33.6133H49.0625H45.9886L45.6819 33.9202ZM35.3368 36.0402L35.6875 36.342V38.9263V41.5107L35.3368 41.8125C34.9916 42.1094 34.9471 42.1142 32.5112 42.1142C30.0576 42.1142 30.0336 42.1115 29.7057 41.8076L29.375 41.501V38.9266C29.375 35.484 29.1265 35.7385 32.4874 35.7385C34.9485 35.7385 34.9914 35.743 35.3368 36.0402ZM40.3654 38.2292C40.1451 38.4494 40 38.7263 40 38.9263C40 39.1264 40.1451 39.4033 40.3654 39.6235L40.7308 39.989H46.3091C52.1814 39.989 52.464 39.9637 52.6724 39.4208C52.8392 38.9859 52.7451 38.4726 52.4431 38.1706L52.1364 37.8637H46.4336H40.7308L40.3654 38.2292ZM40.3716 42.4733C39.9757 42.8692 39.9101 43.2119 40.1454 43.6538C40.4446 44.2155 40.5407 44.2312 43.7118 44.2354C46.716 44.2394 46.7384 44.2374 47.0805 43.9431C47.5259 43.5599 47.5568 42.8656 47.1468 42.4552C46.8764 42.1845 46.7815 42.1755 43.8059 42.1392L40.7433 42.1017L40.3716 42.4733ZM50.1875 42.2652C49.5359 42.6388 49.4301 43.3854 49.9545 43.9098C50.2512 44.2066 50.3763 44.2394 51.2103 44.2394C52.0269 44.2394 52.1726 44.2031 52.4431 43.9325C52.949 43.4267 52.8481 42.6111 52.241 42.2971C51.8228 42.0808 50.5438 42.0609 50.1875 42.2652ZM69.875 55.0927C69.875 55.8115 69.7985 56.578 69.6904 56.9421C69.4443 57.771 68.7882 58.5115 67.9743 58.8793L67.3125 59.1784H40H12.6875L12.0258 58.8793C11.2118 58.5115 10.5557 57.771 10.3096 56.9421C10.2015 56.578 10.125 55.8115 10.125 55.0927V53.8653H40H69.875V55.0927ZM48.5 63.4913V65.6165H40H31.5V63.4913V61.3661H40H48.5V63.4913ZM54.5681 68.0486C54.8263 68.3066 54.875 68.4754 54.875 69.1112V69.8669H40H25.125V69.1112C25.125 68.4754 25.1737 68.3066 25.4319 68.0486L25.7386 67.7417H40H54.2614L54.5681 68.0486Z" fill="url(#paint0_linear_982_9821)"/>
<defs>
<linearGradient id="paint0_linear_982_9821" x1="8" y1="72" x2="74.2059" y2="69.6303" gradientUnits="userSpaceOnUse">
<stop stop-color="#0071BC"/>
<stop offset="1" stop-color="#00C0F3"/>
</linearGradient>
</defs>
</svg>
