<svg width="80" height="80" viewBox="0 0 80 80" fill="none" xmlns="http://www.w3.org/2000/svg">
<path fill-rule="evenodd" clip-rule="evenodd" d="M42.7515 8.12471C38.0849 8.65332 33.6825 10.7412 30.4167 13.9746L29.5199 14.8626H19.0668H8.61365L8.30689 15.1695C8.0025 15.4738 8 15.4957 8 17.8632C8 20.2307 8.0025 20.2526 8.30689 20.5569C8.6979 20.9481 9.17717 20.9481 9.56819 20.5569C9.86495 20.2602 9.87508 20.1918 9.87508 18.494V16.738H18.9523H28.0296L27.8026 17.0818C27.3321 17.7947 26.6095 19.0142 26.4108 19.431L26.2045 19.8636H20.2443C14.4036 19.8636 14.2774 19.8689 13.9546 20.1228C13.5419 20.4475 13.503 21.1167 13.8752 21.489C14.1179 21.7317 14.2919 21.739 19.7589 21.739C25.0652 21.739 25.3889 21.7518 25.329 21.9578C25.294 22.0781 25.1447 22.5822 24.9973 23.078L24.7295 23.9794L19.4404 24.0157C14.4429 24.0501 14.1368 24.0652 13.8882 24.2902C13.5307 24.614 13.5307 25.3655 13.8882 25.6893C14.1364 25.914 14.44 25.9296 19.2615 25.964L24.3716 26.0005L24.3006 26.9642C24.2616 27.4942 24.2081 27.9983 24.1816 28.0842C24.1442 28.2058 23.0238 28.2405 19.1293 28.2405C14.2919 28.2405 14.1169 28.2488 13.8752 28.4905C13.503 28.8629 13.5419 29.532 13.9546 29.8567C14.2753 30.109 14.4153 30.1159 19.2551 30.1159H24.2262L24.3082 30.8973C24.5193 32.9064 25.106 35.1555 25.9216 37.0824C26.1026 37.5101 26.2508 37.8898 26.2508 37.9263C26.2508 37.9627 25.8601 37.9926 25.3827 37.9926C24.6453 37.9926 24.4618 38.038 24.1639 38.2943L23.8132 38.596L23.7762 52.3286C23.7558 59.8815 23.7739 66.3044 23.8164 66.6016C23.9671 67.6545 23.8288 67.624 28.4466 67.624C30.953 67.624 32.6083 67.5754 32.7538 67.4975C32.8838 67.428 33.0486 67.1607 33.1199 66.9036C33.2047 66.5983 33.2499 62.8958 33.2503 56.2204L33.2511 46.0045L34.2652 46.6206C34.8231 46.9595 35.3857 47.2705 35.5153 47.3116C35.7437 47.3841 35.7512 47.6874 35.7519 56.9113C35.7523 63.1092 35.7979 66.5996 35.8823 66.9036C35.9537 67.1607 36.1184 67.428 36.2484 67.4975C36.5675 67.6683 44.4353 67.6683 44.7543 67.4975C44.8843 67.428 45.0491 67.1607 45.1204 66.9036C45.2042 66.6021 45.2505 63.4593 45.2508 58.0452L45.2516 49.6541L45.8316 49.5746C46.1505 49.5308 46.6286 49.4951 46.8942 49.4951H47.3767V56.8773V64.2597L47.6836 64.5665C48.0746 64.9577 48.5538 64.9577 48.9449 64.5665L49.2518 64.2597V56.7023V49.1449L49.908 48.9915C52.1334 48.4709 54.3905 47.4959 56.3638 46.2028L57.5935 45.3969L62.5167 50.3243C65.8087 53.619 67.6145 55.3366 67.9667 55.508C69.8001 56.4002 72.0105 55.0087 72 52.9686C71.9943 51.8592 71.7748 51.5932 66.5379 46.3465L61.5856 41.3851L62.2952 40.3295C63.1521 39.0547 64.3591 36.5587 64.7997 35.1511C65.5382 32.791 65.6833 31.7616 65.6857 28.8656C65.6882 25.9112 65.5632 24.9741 64.8613 22.6844C64.2349 20.6407 62.7562 17.614 62.1547 17.1443C61.8808 16.9305 61.3649 16.948 61.0301 17.1827C60.5801 17.4979 60.6651 18.0941 61.321 19.223C64.0411 23.9054 64.6274 29.6273 62.9153 34.7821C59.8868 43.9008 50.5574 49.2474 41.0639 47.3052C34.6703 45.9972 29.2068 41.1371 27.0777 34.8638C25.9646 31.5839 25.81 27.3549 26.6808 24.0135C28.3262 17.7007 33.3822 12.4663 39.5622 10.6776C45.8737 8.85099 52.4928 10.2653 57.3303 14.4742C58.9064 15.8454 59.1007 15.9287 59.6728 15.4786C59.91 15.292 60.0022 15.1037 60.0022 14.8062C60.0022 14.456 59.8673 14.2654 59.1207 13.561C54.8219 9.50501 48.6527 7.45619 42.7515 8.12471ZM42.6265 11.9253C36.6572 12.7431 31.5241 16.7198 29.25 22.2883C28.3465 24.5009 27.9972 26.3172 27.9972 28.8031C27.9972 32.3679 28.8926 35.3644 30.8162 38.2364C33.4276 42.1354 37.2429 44.6502 41.9434 45.5705C43.601 45.8951 46.6553 45.8669 48.3377 45.5116C51.7037 44.8007 54.5279 43.3005 56.9174 40.9541C60.2028 37.7279 62.0015 33.4292 62.0015 28.8031C62.0015 26.3275 61.4878 23.8819 60.5306 21.8016C57.3247 14.8333 50.1777 10.8909 42.6265 11.9253ZM48.1892 13.9726C53.4751 15.1472 57.6225 18.8445 59.3553 23.927C60.4925 27.2624 60.3586 31.3438 59.0048 34.6169C56.4908 40.6946 50.0874 44.5486 43.6015 43.8879C38.2099 43.3386 33.7512 40.2623 31.3419 35.4295C29.3753 31.4849 29.3762 26.1036 31.3441 22.1766C33.2618 18.3497 36.4447 15.6091 40.496 14.2962C42.6835 13.5873 45.8547 13.454 48.1892 13.9726ZM8.25914 23.4438L8 23.7732V47.5797V71.3862L8.30689 71.6931L8.61365 72H28.6259H48.6381L48.9449 71.6931C49.2418 71.3962 49.2518 71.3285 49.2518 69.622C49.2518 67.4465 49.13 67.1299 48.2921 67.1258C48.0104 67.1244 47.8194 67.2198 47.6358 67.4534C47.4155 67.7333 47.3767 67.9585 47.3767 68.9537V70.1246H28.6259H9.87508V46.9489V23.7732L9.61594 23.4438C9.42806 23.2049 9.24168 23.1143 8.93754 23.1143C8.6334 23.1143 8.44702 23.2049 8.25914 23.4438ZM13.9546 32.6255C13.5419 32.9502 13.503 33.6194 13.8752 33.9917C14.1145 34.231 14.2919 34.2418 18.0004 34.2418C21.709 34.2418 21.8863 34.231 22.1256 33.9917C22.5319 33.5854 22.5019 33.054 22.0497 32.6477C21.7398 32.3692 21.6986 32.3664 18.0103 32.3664C14.4298 32.3664 14.2711 32.3765 13.9546 32.6255ZM28.0769 40.8995C28.4739 41.4668 29.3504 42.4987 30.0248 43.1926L31.251 44.4542V55.1014V65.7486H28.5009H25.7508V52.8083V39.868H26.5529H27.3551L28.0769 40.8995ZM65.2873 47.7202C69.4896 51.9324 70.1271 52.6204 70.1236 52.9401C70.1164 53.6177 69.4902 54.0745 68.8776 53.8493C68.7057 53.7862 66.4141 51.586 63.7852 48.9602L59.0054 44.1859L59.6558 43.5273C60.0135 43.1651 60.3378 42.8686 60.3766 42.8686C60.4153 42.8686 62.6252 45.0519 65.2873 47.7202ZM12.4134 45.7959L12.0627 46.0976L12.0253 56.0794C12.0047 61.5693 12.0228 66.3044 12.0655 66.6016C12.2171 67.6558 12.0714 67.624 16.7504 67.624C21.4293 67.624 21.2837 67.6558 21.4352 66.6016C21.4779 66.3044 21.4961 61.5693 21.4754 56.0794L21.4381 46.0976L21.0873 45.7959L20.7365 45.4942H16.7504H12.7642L12.4134 45.7959ZM19.5005 56.5591V65.7486H16.7504H14.0003V56.5591V47.3696H16.7504H19.5005V56.5591ZM39.2513 48.7792C40.3077 49.0901 42.4061 49.4951 42.961 49.4951H43.2515V57.6219V65.7486H40.5014H37.7513V57.0446C37.7513 48.8146 37.7631 48.3441 37.97 48.4036C38.0904 48.4381 38.6669 48.6071 39.2513 48.7792Z" fill="url(#paint0_linear_982_9809)"/>
<defs>
<linearGradient id="paint0_linear_982_9809" x1="8" y1="72" x2="74.2059" y2="69.6303" gradientUnits="userSpaceOnUse">
<stop stop-color="#0071BC"/>
<stop offset="1" stop-color="#00C0F3"/>
</linearGradient>
</defs>
</svg>
