<svg width="80" height="80" viewBox="0 0 80 80" fill="none" xmlns="http://www.w3.org/2000/svg">
<path fill-rule="evenodd" clip-rule="evenodd" d="M14.5209 8.25306C13.4467 8.59716 12.8227 9.08286 10.7895 11.1578C8.8337 13.1535 8.53784 13.5562 8.21266 14.6645C7.84094 15.9317 8.02413 17.3929 8.6993 18.5443C8.84996 18.8013 11.7682 21.8195 15.1843 25.2513L21.3955 31.4911H20.3581C19.4344 31.4911 19.2848 31.527 18.9935 31.8188C18.6807 32.1318 18.6662 32.2207 18.6662 33.8252C18.6662 35.4433 18.6554 35.508 18.3662 35.6184C18.107 35.7173 17.9187 35.5895 16.9825 34.6798C15.3846 33.127 15.5627 33.071 12.5705 36.0666C9.57819 39.0621 9.63406 38.8838 11.1852 40.4834C12.0939 41.4207 12.2215 41.6091 12.1227 41.8686C12.0125 42.1581 11.9478 42.1689 10.3315 42.1689C8.72877 42.1689 8.63997 42.1835 8.32732 42.4966L8 42.8241V46.44V50.0559L8.32732 50.3835C8.63997 50.6966 8.72877 50.7112 10.3315 50.7112C11.9478 50.7112 12.0125 50.722 12.1227 51.0115C12.2215 51.2709 12.0939 51.4594 11.1852 52.3966C9.63406 53.9963 9.57819 53.818 12.5705 56.8135C15.5687 59.815 15.3826 59.7579 17.0033 58.1741C17.9769 57.2229 18.1401 57.1122 18.3799 57.2408C18.6459 57.3833 18.653 57.5084 18.6924 62.6986L18.7328 68.0105L19.2308 69.0186C19.8305 70.2331 20.6029 70.9899 21.842 71.5776L22.7327 72H45.3386H67.9445L68.9519 71.5015C70.1654 70.9011 70.9212 70.1283 71.5084 68.8874L71.9304 67.9958L71.9652 38.3269L72 8.65815L71.6712 8.32901L71.3426 8H47.4649H23.5872L23.26 8.32767C22.9401 8.64774 22.9326 8.7034 22.9326 10.7577V12.8603L20.9661 10.9198C19.8845 9.85273 18.7895 8.85502 18.5329 8.70273C17.3601 8.00694 15.8263 7.83503 14.5209 8.25306ZM16.84 10.278C17.1189 10.3555 17.5389 10.5928 17.7733 10.8052L18.1995 11.1915L14.6938 14.7011L11.188 18.2106L10.8021 17.7839C10.4111 17.3515 10.1347 16.6162 10.1347 16.0083C10.1347 15.0299 10.391 14.6435 12.3799 12.6225C14.8016 10.1621 15.3626 9.86728 16.84 10.278ZM69.8638 38.6498C69.8638 60.6474 69.8268 67.2896 69.7017 67.7134C69.3632 68.8605 67.8966 69.9312 66.664 69.9312C65.4314 69.9312 63.9648 68.8605 63.6262 67.7134C63.5164 67.3411 63.4641 65.9944 63.4641 63.5364V59.9086L63.1368 59.5811L62.8096 59.2534H58.337H53.8646V57.4455C53.8646 55.7038 53.8526 55.6255 53.5372 55.3099C53.2147 54.9869 53.1767 54.9823 50.8707 54.9823H48.5315V52.7132C48.5315 50.7433 48.5589 50.4442 48.7401 50.4442C48.8549 50.4442 49.2749 50.1177 49.6734 49.7188C50.0719 49.3198 50.3981 48.8994 50.3981 48.7845C50.3981 48.6104 50.598 48.5756 51.598 48.5756H52.7979V50.3835C52.7979 52.1252 52.8099 52.2035 53.1253 52.519L53.4524 52.8467H59.1977H64.9429L65.27 52.519L65.5974 52.1915V47.5078V42.8241L65.27 42.4966L64.9429 42.1689H59.1977H53.4524L53.1253 42.4966C52.8099 42.8121 52.7979 42.8905 52.7979 44.6322V46.44H51.598C50.598 46.44 50.3981 46.4052 50.3981 46.2312C50.3981 46.1162 50.083 45.7087 49.6981 45.3257C48.7239 44.3563 47.7411 44.0939 46.4804 44.4668C45.884 44.6432 44.5317 45.8676 44.5317 46.2312C44.5317 46.4052 44.3317 46.44 43.3317 46.44H42.1318V44.6322C42.1318 42.8905 42.1198 42.8121 41.8045 42.4966L41.4773 42.1689H35.7321H29.9869L29.6597 42.4966L29.3324 42.8241V47.5078V52.1915L29.6597 52.519L29.9869 52.8467H35.7321H41.4773L41.8045 52.519C42.1198 52.2035 42.1318 52.1252 42.1318 50.3835V48.5756H43.3317C44.3317 48.5756 44.5317 48.6104 44.5317 48.7845C44.5317 48.8994 44.8578 49.3198 45.2563 49.7188C45.6548 50.1177 46.0748 50.4442 46.1896 50.4442C46.3708 50.4442 46.3982 50.7433 46.3982 52.7132V54.9823H44.059C41.753 54.9823 41.715 54.9869 41.3925 55.3099C41.0771 55.6255 41.0652 55.7038 41.0652 57.4455V59.2534H33.0655H25.0659V47.233C25.0659 37.6512 25.0997 35.2333 25.2325 35.3147C25.3243 35.3709 25.6692 35.6238 25.9992 35.8768C27.1403 36.7518 28.3643 37.1931 33.6262 38.6271L38.7866 40.0334H47.5982H56.4099L56.7371 39.7057C57.0524 39.3902 57.0644 39.3118 57.0644 37.5701V35.7623H61.0036H64.9429L65.27 35.4346L65.5974 35.107V25.0845V15.0619L65.27 14.7343L64.9429 14.4067H60.2643H55.5857L55.2585 14.7343L54.9312 15.0619V26.4799V37.8978H47.3405C40.2259 37.8978 39.7456 37.8831 39.6824 37.6642C39.3371 36.4673 38.6653 33.902 38.6653 33.7805C38.6653 33.6669 40.1459 33.6267 44.3377 33.6267H50.0102L50.3374 33.299C50.7704 32.8656 50.7704 32.2522 50.3374 31.8188L50.0102 31.4911H44.0138H38.0176L37.8165 30.7904C37.706 30.4051 37.5753 29.9246 37.526 29.7226L37.4364 29.3556H43.7233H50.0102L50.3374 29.0279C50.7704 28.5945 50.7704 27.9811 50.3374 27.5477L50.0102 27.22L43.3044 27.214L36.5987 27.208L36.1032 26.4465C35.8307 26.0277 35.5083 25.55 35.387 25.3848L35.1662 25.0845H37.2551C39.2952 25.0845 39.3516 25.0769 39.6712 24.7568C39.8776 24.5503 39.9985 24.2767 39.9985 24.0167C39.9985 23.7567 39.8776 23.4831 39.6712 23.2766C39.3467 22.9516 39.3234 22.9489 36.7987 22.9489C34.3032 22.9489 34.2472 22.955 33.9393 23.2632L33.6254 23.5776L29.3456 19.2916L25.0659 15.0058V12.5706V10.1356H47.4649H69.8638V38.6498ZM20.072 13.0785C20.3168 13.3493 20.2857 13.3853 16.8279 16.8471L13.3364 20.3422L13.0371 20.0425L12.7378 19.7428L16.201 16.274C18.1058 14.366 19.7004 12.805 19.7445 12.805C19.7887 12.805 19.936 12.9281 20.072 13.0785ZM36.0594 14.7343C35.853 14.9408 35.7321 15.2144 35.7321 15.4745C35.7321 15.7345 35.853 16.0081 36.0594 16.2146C36.3839 16.5396 36.4072 16.5422 38.9319 16.5422C41.4566 16.5422 41.4799 16.5396 41.8045 16.2146C42.0108 16.0081 42.1318 15.7345 42.1318 15.4745C42.1318 15.2144 42.0108 14.9408 41.8045 14.7343C41.4799 14.4093 41.4566 14.4067 38.9319 14.4067C36.4072 14.4067 36.3839 14.4093 36.0594 14.7343ZM44.5923 14.7343C44.3859 14.9408 44.265 15.2144 44.265 15.4745C44.265 15.7345 44.3859 16.0081 44.5923 16.2146C44.9168 16.5396 44.9402 16.5422 47.4649 16.5422C49.9895 16.5422 50.0129 16.5396 50.3374 16.2146C50.5438 16.0081 50.6647 15.7345 50.6647 15.4745C50.6647 15.2144 50.5438 14.9408 50.3374 14.7343C50.0129 14.4093 49.9895 14.4067 47.4649 14.4067C44.9402 14.4067 44.9168 14.4093 44.5923 14.7343ZM27.2651 20.2788L32.5963 25.617L32.0301 26.1839L31.4639 26.7507L26.1016 21.3826L20.7393 16.0145L21.2631 15.4775C21.5511 15.1821 21.8199 14.9406 21.8604 14.9406C21.9008 14.9406 24.333 17.3428 27.2651 20.2788ZM63.4641 25.0845V33.6267H60.2643H57.0644V25.0845V16.5422H60.2643H63.4641V25.0845ZM24.5988 22.9485L29.9303 28.2871L29.0974 29.1209L28.2647 29.9546L22.9009 24.5851L17.5373 19.2157L18.3309 18.4128C18.7674 17.9713 19.1567 17.61 19.1959 17.61C19.2352 17.61 21.6666 20.0124 24.5988 22.9485ZM33.9261 19.0055C33.7198 19.2119 33.5988 19.4856 33.5988 19.7456C33.5988 20.0056 33.7198 20.2792 33.9261 20.4857L34.2533 20.8133H42.1318H50.0102L50.3374 20.4857C50.5438 20.2792 50.6647 20.0056 50.6647 19.7456C50.6647 19.4856 50.5438 19.2119 50.3374 19.0055L50.0102 18.6778H42.1318H34.2533L33.9261 19.0055ZM21.3987 26.1516L26.7299 31.4898L26.1637 32.0567L25.5975 32.6235L20.2352 27.2554L14.8729 21.8873L15.3967 21.3503C15.6847 21.0549 15.9535 20.8133 15.994 20.8133C16.0344 20.8133 18.4666 23.2156 21.3987 26.1516ZM42.4591 23.2766C42.2527 23.4831 42.1318 23.7567 42.1318 24.0167C42.1318 24.2767 42.2527 24.5503 42.4591 24.7568L42.7863 25.0845H46.3982H50.0102L50.3374 24.7568C50.5438 24.5503 50.6647 24.2767 50.6647 24.0167C50.6647 23.7567 50.5438 23.4831 50.3374 23.2766L50.0102 22.9489H46.3982H42.7863L42.4591 23.2766ZM34.7968 28.4537C34.9998 28.8753 35.3322 29.8273 35.5354 30.569L35.9049 31.9177L33.8995 33.9251L31.8942 35.9327L30.7799 35.6328C29.355 35.2493 28.5551 34.9449 27.783 34.4919L27.1654 34.1295L30.6154 30.6732C34.4885 26.793 34.0972 27.0007 34.7968 28.4537ZM22.9326 35.7623V37.8978L22.4993 37.9001C21.6242 37.9048 20.1704 38.3077 19.0707 38.8505C16.2775 40.2289 14.4044 43.2755 14.4044 46.44C14.4044 49.6032 16.2547 52.6123 19.0662 54.021C20.1645 54.5713 21.6106 54.9752 22.4993 54.98L22.9326 54.9823V57.1178V59.2534H21.866H20.7994V57.8032C20.7994 56.1408 20.6422 55.7922 19.764 55.5076C19.4901 55.4189 18.9739 55.1996 18.6167 55.0203C17.7532 54.5871 17.4888 54.6731 16.3731 55.7513L15.4555 56.6383L14.1005 55.2818L12.7455 53.9253L13.6315 53.0067C14.7085 51.8899 14.7945 51.6252 14.3617 50.7607C14.1826 50.4031 13.9636 49.8863 13.8749 49.6121C13.5907 48.733 13.2424 48.5756 11.5818 48.5756H10.1332V46.44V44.3045H11.5818C13.2424 44.3045 13.5907 44.1471 13.8749 43.2679C13.9636 42.9938 14.1826 42.477 14.3617 42.1194C14.7945 41.2549 14.7085 40.9902 13.6315 39.8733L12.7455 38.9548L14.1005 37.5983L15.4555 36.2418L16.3731 37.1287C17.4888 38.2069 17.7532 38.293 18.6167 37.8598C18.9739 37.6805 19.4901 37.4612 19.764 37.3725C20.6422 37.0879 20.7994 36.7393 20.7994 35.0769V33.6267H21.866H22.9326V35.7623ZM36.9745 35.8439C37.1792 36.6229 37.3191 37.2878 37.2855 37.3215C37.2277 37.3793 34.533 36.7076 34.4059 36.6037C34.3409 36.5507 36.4139 34.4275 36.5307 34.4275C36.5702 34.4275 36.7699 35.0649 36.9745 35.8439ZM22.9326 41.0859V42.1386L22.3051 42.2329C20.931 42.4391 19.6945 43.3571 19.0654 44.6382C18.7931 45.1923 18.7384 45.498 18.743 46.44C18.7488 47.6835 18.9836 48.3576 19.7237 49.2564C20.2096 49.8465 21.4643 50.5243 22.2993 50.6478L22.9326 50.7415V51.7942V52.8467H22.5607C21.3438 52.8467 19.6132 52.0656 18.5225 51.024C15.9554 48.5728 15.8811 44.62 18.3537 42.025C19.4141 40.912 21.1767 40.069 22.4993 40.0422L22.9326 40.0334V41.0859ZM22.9326 46.44C22.9326 48.7962 22.9509 48.7541 22.0888 48.3935C20.4298 47.6996 20.411 45.211 22.0594 44.4923C22.9464 44.1055 22.9326 44.075 22.9326 46.44ZM39.9985 47.5078V50.7112H35.7321H31.4656V47.5078V44.3045H35.7321H39.9985V47.5078ZM63.4641 47.5078V50.7112H59.1977H54.9312V47.5078V44.3045H59.1977H63.4641V47.5078ZM48.2042 46.7677C48.4105 46.9742 48.5315 47.2478 48.5315 47.5078C48.5315 47.7678 48.4105 48.0414 48.2042 48.2479C47.9979 48.4545 47.7246 48.5756 47.4649 48.5756C47.2051 48.5756 46.9318 48.4545 46.7256 48.2479C46.5192 48.0414 46.3982 47.7678 46.3982 47.5078C46.3982 47.2478 46.5192 46.9742 46.7256 46.7677C46.9318 46.5611 47.2051 46.44 47.4649 46.44C47.7246 46.44 47.9979 46.5611 48.2042 46.7677ZM51.7313 58.1856V59.2534H47.4649H43.1984V58.1856V57.1178H47.4649H51.7313V58.1856ZM61.354 64.7013L61.3975 68.0139L61.8731 68.9724L62.3488 69.9312H42.9561C28.12 69.9312 23.4346 69.893 23.0148 69.7689C22.2824 69.5522 21.1779 68.4466 20.9615 67.7134C20.8562 67.3562 20.7994 66.1535 20.7994 64.2765V61.3889H41.0549H61.3104L61.354 64.7013Z" fill="url(#paint0_linear_982_9817)"/>
<defs>
<linearGradient id="paint0_linear_982_9817" x1="8" y1="72" x2="74.2059" y2="69.6303" gradientUnits="userSpaceOnUse">
<stop stop-color="#0071BC"/>
<stop offset="1" stop-color="#00C0F3"/>
</linearGradient>
</defs>
</svg>
