<svg width="160" height="80" viewBox="0 0 160 80" fill="none" xmlns="http://www.w3.org/2000/svg">
<path d="M123.148 0.20311C107.902 -1.26442 94.3497 5.33946 86.0677 16.1625L62.5394 51.3832C58.022 59.4546 48.9872 64.5909 38.8229 63.6737C27.5294 62.7565 18.118 53.7679 16.8004 42.7615C15.1064 28.4531 26.5882 16.3459 41.0816 16.3459C49.3636 16.3459 56.5162 20.3816 60.8454 26.4352L61.2219 26.9855L63.2924 29.9206C64.0453 30.8378 65.5511 30.8378 66.304 29.9206L74.0212 18.3638C74.3977 17.8135 74.3977 16.8963 74.0212 16.3459C65.9275 5.70635 52.3752 -0.714094 37.5053 0.569994C18.3062 1.85408 0.989432 19.281 0.0483002 37.992C-1.08106 61.1056 17.7416 80 41.0816 80C55.1986 80 67.6215 73.0292 75.1506 62.3897L75.3388 62.0228L75.7153 61.4724L80.0445 55.052L80.6092 54.1348C81.7385 56.8864 83.0561 59.4546 84.5619 61.8393L85.1266 62.5731C92.4674 73.0292 104.89 80 119.007 80C125.595 80 131.618 78.5325 137.077 75.9643C138.018 75.5974 138.395 74.3133 137.83 73.3961L130.489 62.3897C129.924 61.6559 129.172 61.4724 128.23 61.8393C125.407 62.94 122.207 63.6737 118.819 63.6737C109.596 63.6737 101.502 58.5374 97.3613 51.1997C95.1026 47.164 94.1615 42.578 94.5379 37.6251C95.6673 26.6186 104.702 17.63 115.996 16.3459C130.677 14.8784 143.1 25.8849 143.1 40.0098C143.1 42.9449 142.536 45.5131 141.594 48.0812C141.406 48.6316 141.406 49.1819 141.783 49.5488L150.065 62.0228C150.818 63.1234 152.323 63.1234 153.076 62.0228C158.347 54.3182 160.982 44.9627 159.664 34.69C157.406 16.5294 141.971 2.03752 123.148 0.20311Z" fill="url(#paint0_linear_669_3382)"/>
<defs>
<linearGradient id="paint0_linear_669_3382" x1="-2.54698e-07" y1="80" x2="164.882" y2="68.1969" gradientUnits="userSpaceOnUse">
<stop stop-color="#0071BC"/>
<stop offset="1" stop-color="#00C0F3"/>
</linearGradient>
</defs>
</svg>
