<svg width="64" height="64" viewBox="0 0 64 64" fill="none" xmlns="http://www.w3.org/2000/svg">
<path fill-rule="evenodd" clip-rule="evenodd" d="M30.8416 4.07312C29.4664 4.3799 28.0695 5.41407 27.4451 6.58782C27.1605 7.12304 27.1257 7.31905 27.1349 8.34084C27.1404 8.97356 27.1682 9.57507 27.1966 9.67751C27.2369 9.82356 25.6879 10.6649 20.0284 13.5706L12.8088 17.2775L12.1902 16.8329C10.827 15.8532 9.11591 15.5484 7.48181 15.9943C4.06871 16.9256 2.85717 20.7622 5.24409 23.0807C5.9215 23.7388 6.5883 24.1324 7.48477 24.4036L8.0574 24.5768V32.0065V39.4363L7.48477 39.6095C6.08675 40.0324 4.82462 41.0623 4.34824 42.1689C3.02736 45.2372 5.63507 48.4156 9.29079 48.1932C10.3964 48.126 11.1364 47.8701 12.1066 47.2199C12.6612 46.8481 12.8177 46.7914 13.0378 46.8822C13.1833 46.9422 16.4402 48.6017 20.2752 50.5699C25.7483 53.3786 27.2369 54.1884 27.1966 54.335C27.1682 54.4378 27.1404 55.0395 27.1349 55.6722C27.1257 56.694 27.1605 56.89 27.4451 57.4253C27.9426 58.3606 28.7832 59.1088 29.8739 59.5874C30.7638 59.9779 30.8777 60 31.9994 60C33.1211 60 33.235 59.9779 34.125 59.5874C35.2105 59.1111 35.9946 58.4128 36.5293 57.4463C36.8371 56.8897 36.8742 56.7048 36.8742 55.727C36.8742 55.1244 36.8318 54.5288 36.7799 54.4034C36.6949 54.1975 36.9942 54.0176 39.8652 52.5491C41.614 51.6548 44.8049 50.0189 46.9563 48.9139C49.1076 47.809 50.9505 46.8768 51.0517 46.8423C51.1577 46.8062 51.5157 46.9674 51.8972 47.2232C52.8596 47.8683 53.6046 48.1261 54.6984 48.1926C56.8458 48.3233 58.6174 47.3817 59.5651 45.6059C59.9164 44.9476 59.9518 44.7836 59.9475 43.8394C59.9414 42.5249 59.6413 41.7936 58.7547 40.9323C58.0773 40.2743 57.4105 39.8806 56.5141 39.6095L55.9414 39.4363V32.0065V24.5768L56.5141 24.4036C57.9121 23.9807 59.1742 22.9508 59.6506 21.8442C60.9693 18.7808 58.388 15.6246 54.718 15.8132C53.6293 15.8692 52.5259 16.2706 51.6946 16.9133L51.2118 17.2866L47.1283 15.1881C44.8824 14.0341 41.614 12.358 39.8652 11.4637C36.9942 9.99535 36.6949 9.81556 36.7799 9.60969C36.8318 9.48424 36.874 8.88865 36.8737 8.28605C36.8732 7.33537 36.8309 7.11066 36.5532 6.58782C35.7566 5.0879 34.1004 4.08462 32.2938 4.00771C31.7585 3.98492 31.105 4.01439 30.8416 4.07312ZM33.5242 5.9701C34.6305 6.54564 35.1476 7.4285 35.0636 8.59842C34.9964 9.53617 34.522 10.2356 33.6316 10.7096C32.5122 11.3056 31.4866 11.3056 30.3673 10.7096C29.4373 10.2145 28.9911 9.52971 28.9379 8.51581C28.9023 7.83641 28.941 7.66286 29.245 7.14112C29.6274 6.48461 30.231 5.99881 30.9661 5.7559C31.6792 5.52023 32.8475 5.61807 33.5242 5.9701ZM28.4809 11.517C28.8186 11.8482 29.7987 12.3769 30.4283 12.5674L30.9908 12.7375L31.0322 14.4722C31.08 16.4649 31.1693 16.6677 31.9994 16.6677C32.7867 16.6677 32.8521 16.5111 32.891 14.5363L32.925 12.7993L33.7703 12.4955C34.2352 12.3283 34.8864 11.9889 35.2174 11.741L35.8194 11.2904L43.048 14.9924L50.2767 18.6946L50.1803 19.2424C50.0569 19.9437 50.0561 20.5367 50.178 21.1736L50.275 21.6803L48.8197 22.4231C47.0204 23.3415 46.8089 23.5038 46.8089 23.9648C46.8089 24.3597 47.2689 24.7754 47.7057 24.7754C47.8414 24.7754 48.6798 24.4008 49.569 23.9428C50.5736 23.4254 51.2379 23.1455 51.324 23.2032C51.4001 23.2544 51.7343 23.4787 52.0667 23.7016C52.5768 24.0438 53.1576 24.2941 53.9368 24.5075C54.0598 24.5411 54.0854 26.096 54.0603 32.0109L54.0285 39.472L53.4089 39.6582C52.7647 39.8518 52.1674 40.1756 51.5969 40.6405L51.2634 40.9123L49.6046 40.075C48.6923 39.6145 47.8263 39.2377 47.6803 39.2377C47.297 39.2377 46.8089 39.7152 46.8089 40.0901C46.8089 40.5025 47.0597 40.689 48.82 41.5863L50.2757 42.3285L50.1783 42.8374C50.056 43.4772 50.0568 44.0697 50.1808 44.7707L50.2778 45.3185L43.0525 49.0182L35.8272 52.718L35.1535 52.2309C34.7829 51.9629 34.1486 51.6365 33.7439 51.5054L33.0079 51.2673L32.9665 49.5367C32.9188 47.5487 32.8291 47.3454 31.9994 47.3454C31.1697 47.3454 31.08 47.5487 31.0324 49.5367L30.9909 51.2673L30.255 51.5054C29.8502 51.6365 29.2163 51.9625 28.8462 52.2302L28.1734 52.7168L20.9476 49.0176L13.7217 45.3185L13.8183 44.7707C13.9421 44.0693 13.9427 43.4767 13.8205 42.8374L13.7231 42.3285L15.1788 41.5863C16.9392 40.689 17.1899 40.5025 17.1899 40.0901C17.1899 39.7072 16.6985 39.2371 16.3007 39.2394C16.145 39.2404 15.2955 39.6138 14.4131 40.0692C13.4442 40.5693 12.7549 40.8616 12.6727 40.807C12.5977 40.7575 12.2645 40.5329 11.9322 40.3082C11.422 39.963 10.7743 39.6841 10.0629 39.503C9.83689 39.4455 9.83689 24.5689 10.0629 24.5071C10.8396 24.2948 11.4222 24.0437 11.9322 23.7016C12.2645 23.4787 12.5987 23.2544 12.6749 23.2032C12.7609 23.1455 13.4252 23.4254 14.4298 23.9428C15.319 24.4008 16.1575 24.7754 16.2931 24.7754C16.73 24.7754 17.1899 24.3597 17.1899 23.9648C17.1899 23.5038 16.9784 23.3415 15.1792 22.4231L13.7239 21.6803L13.8209 21.1736C13.9429 20.5355 13.942 19.9423 13.8178 19.2424L13.7206 18.6946L16.7819 17.1341C18.4656 16.2759 21.7037 14.6141 23.9776 13.4413C26.2515 12.2687 28.145 11.3068 28.1854 11.3041C28.2257 11.3013 28.3588 11.3971 28.4809 11.517ZM9.95598 17.5693C10.7575 17.7817 11.6917 18.6597 11.9444 19.4382C12.3894 20.809 11.6211 22.1889 10.0983 22.7538C9.51305 22.9708 8.34866 22.978 7.78232 22.7679C5.89645 22.0684 5.25409 19.9502 6.49105 18.5103C7.27719 17.5953 8.6488 17.2227 9.95598 17.5693ZM56.4496 17.7406C58.4075 18.6486 58.7483 20.9667 57.1115 22.2425C56.4724 22.7408 55.9311 22.9237 55.0857 22.9273C53.8727 22.9325 52.8901 22.4321 52.3393 21.529C51.7413 20.5485 51.7975 19.4993 52.4965 18.5937C53.3421 17.4981 55.1061 17.1175 56.4496 17.7406ZM24.2674 18.7954C21.3694 19.4195 19.4302 21.9156 19.8724 24.4525C20.0257 25.3309 20.5622 26.4213 21.1177 26.9829L21.5028 27.3724L20.8187 27.7908C19.7593 28.4386 18.8429 29.411 18.2399 30.5274C17.6287 31.6593 17.4219 32.3571 17.3944 33.3819C17.3773 34.0221 17.409 34.1309 17.6664 34.3165C18.2781 34.7575 19.1621 34.3929 19.1666 33.6978C19.1708 33.0761 19.5371 31.835 19.9217 31.1399C20.3982 30.2785 21.5554 29.2236 22.5083 28.782L23.1986 28.4621L23.9357 28.6457C24.3441 28.7474 25.1116 28.8292 25.6579 28.8292H26.6431L26.7901 29.1853C26.8709 29.3811 27.156 29.7969 27.4237 30.1091L27.9103 30.6769L27.0982 31.2048C25.1625 32.4631 23.8615 34.6644 23.8561 36.6904C23.854 37.48 24.1058 37.8134 24.7044 37.8134C25.364 37.8134 25.5965 37.5201 25.707 36.5486C25.812 35.6253 26.1006 34.8271 26.6061 34.0614C27.0328 33.4151 28.2424 32.419 29.0314 32.0641C29.6868 31.7692 29.6946 31.7685 30.3904 31.9418C31.2855 32.1647 32.7134 32.1647 33.6085 31.9418C34.3033 31.7688 34.3129 31.7696 34.9597 32.0606C36.2172 32.6262 37.5369 33.9865 37.9816 35.175C38.0896 35.4637 38.2271 36.0879 38.2869 36.5619C38.3733 37.2455 38.4518 37.464 38.6668 37.6186C39.0336 37.8822 39.593 37.8649 39.914 37.5799C40.1535 37.3673 40.1713 37.262 40.1123 36.4021C39.968 34.2992 38.6491 32.2732 36.6007 31.0078L36.0804 30.6864L36.5711 30.1138C36.841 29.7989 37.1279 29.3811 37.2088 29.1853L37.3558 28.8292H38.341C38.8872 28.8292 39.6547 28.7474 40.0632 28.6457L40.8002 28.4621L41.4906 28.782C42.4434 29.2236 43.6007 30.2785 44.0772 31.1399C44.4656 31.842 44.8281 33.0777 44.8322 33.7131C44.8365 34.3967 45.7254 34.7541 46.3324 34.3165C46.5899 34.1309 46.6216 34.0221 46.6044 33.3819C46.5769 32.3571 46.3702 31.6593 45.7589 30.5274C45.1559 29.411 44.2396 28.4386 43.1801 27.7908L42.496 27.3724L42.8812 26.9829C43.4367 26.4213 43.9731 25.3309 44.1264 24.4525C44.6971 21.1788 41.2871 18.1851 37.6046 18.7269C35.825 18.9886 34.08 20.1061 33.3387 21.4585L33.0484 21.9879L31.9866 21.9886L30.9247 21.9893L30.6541 21.4657C30.2233 20.6319 29.1502 19.6868 28.1298 19.2425C26.7745 18.6525 25.5754 18.5137 24.2674 18.7954ZM27.1122 20.5957C27.8323 20.8785 28.5662 21.4851 28.9267 22.0952C29.2197 22.5913 29.2202 22.5974 28.9758 22.7195C28.8401 22.7873 28.4089 23.1132 28.0178 23.4437C27.2055 24.1298 26.5034 25.2558 26.3834 26.0646C26.3412 26.3498 26.2764 26.7249 26.2396 26.8981L26.1726 27.213L25.2911 27.162C23.3723 27.0507 21.9024 25.8069 21.6828 24.1084C21.5365 22.9782 22.2061 21.6273 23.2216 21.0041C24.4215 20.2678 25.8857 20.1141 27.1122 20.5957ZM40.0555 20.6415C42.5301 21.6473 43.1095 24.6553 41.1338 26.2399C40.3748 26.8486 39.7022 27.1042 38.7077 27.162L37.8262 27.213L37.7592 26.8981C37.7224 26.7249 37.6576 26.3498 37.6154 26.0646C37.4955 25.2558 36.7934 24.1298 35.9811 23.4437C35.59 23.1132 35.1601 22.7887 35.0261 22.7227C34.7927 22.6076 34.791 22.5863 34.9864 22.2226C35.8742 20.5698 38.1402 19.863 40.0555 20.6415ZM33.4174 23.8626C34.2816 24.1164 35.3393 25.0672 35.6342 25.855C36.261 27.5307 35.524 29.2611 33.8283 30.0951C33.2308 30.3888 33.0666 30.4179 31.9994 30.4179C30.9323 30.4179 30.768 30.3888 30.1706 30.0951C28.0132 29.0341 27.4598 26.4473 29.0478 24.8458C30.1999 23.6838 31.6771 23.3515 33.4174 23.8626ZM36.7003 40.5569C36.0601 40.7959 35.8774 41.4213 36.3237 41.8465C36.5601 42.0719 36.6829 42.0864 38.36 42.0864C39.9801 42.0864 40.1673 42.0662 40.3915 41.8673C40.7033 41.5904 40.7083 41.0918 40.4024 40.7564C40.1793 40.5116 40.0811 40.4963 38.5821 40.4717C37.7107 40.4575 36.8638 40.4958 36.7003 40.5569ZM23.5527 40.796C23.0958 41.375 23.4953 42.0864 24.2771 42.0864C24.7298 42.0864 25.2117 41.6909 25.2117 41.3194C25.2117 41.2151 25.0966 40.9999 24.9559 40.8412C24.6148 40.4561 23.8405 40.4312 23.5527 40.796ZM26.7614 40.796C26.3046 41.375 26.704 42.0864 27.4859 42.0864C27.9385 42.0864 28.4205 41.6909 28.4205 41.3194C28.4205 41.2151 28.3053 40.9999 28.1646 40.8412C27.8235 40.4561 27.0492 40.4312 26.7614 40.796ZM29.9701 40.796C29.8645 40.9299 29.778 41.1655 29.778 41.3194C29.778 41.7992 30.1007 42.0864 30.6399 42.0864C31.009 42.0864 31.1758 42.0207 31.3734 41.7977C31.514 41.6389 31.6292 41.4237 31.6292 41.3194C31.6292 41.2151 31.514 40.9999 31.3734 40.8412C31.0322 40.4561 30.2579 40.4312 29.9701 40.796ZM10.4479 41.4127C11.7423 42.0256 12.3529 43.3162 11.9444 44.5749C11.7825 45.0736 11.6026 45.3263 11.1012 45.7591C10.0687 46.6505 8.76912 46.8383 7.54919 46.2725C6.07454 45.5886 5.43378 44.0362 6.0928 42.7438C6.88153 41.1969 8.77221 40.619 10.4479 41.4127ZM56.259 41.2654C56.8675 41.484 57.5623 42.0966 57.8727 42.6882C58.5726 44.0225 57.9568 45.5735 56.4496 46.2725C55.2297 46.8383 53.9302 46.6505 52.8976 45.7591C51.7816 44.7957 51.6046 43.5817 52.4069 42.3939C53.2001 41.2197 54.8147 40.7467 56.259 41.2654ZM23.6288 43.9834C23.2492 44.3422 23.2744 44.859 23.6857 45.1462C24.0071 45.3707 24.1045 45.3733 31.9994 45.3733C39.8944 45.3733 39.9917 45.3707 40.3131 45.1462C40.7381 44.8493 40.7564 44.3048 40.3527 43.968L40.067 43.7298H31.9821H23.8973L23.6288 43.9834ZM33.4925 53.2235C34.5436 53.7313 35.0856 54.555 35.0835 55.6413C35.0779 58.5561 30.5882 59.4618 29.2062 56.8272C28.3915 55.2739 29.319 53.4461 31.1806 52.9366C31.8117 52.7638 32.7931 52.8856 33.4925 53.2235Z" fill="url(#paint0_linear_982_9792)"/>
<defs>
<linearGradient id="paint0_linear_982_9792" x1="4" y1="60" x2="61.9302" y2="57.9265" gradientUnits="userSpaceOnUse">
<stop stop-color="#0071BC"/>
<stop offset="1" stop-color="#00C0F3"/>
</linearGradient>
</defs>
</svg>
