<svg width="64" height="64" viewBox="0 0 64 64" fill="none" xmlns="http://www.w3.org/2000/svg">
<path fill-rule="evenodd" clip-rule="evenodd" d="M30.8211 4.15825C29.9446 4.39445 29.3859 4.72318 28.7121 5.39892C27.9888 6.12438 27.5656 6.95792 27.4028 7.97696C27.2137 9.16168 27.5401 10.4954 28.2454 11.4208L28.5356 11.8016L28.2695 11.9744C27.6649 12.3666 27.0594 13.0291 26.7749 13.6098C26.5111 14.1481 26.4671 14.3837 26.4332 15.4406C26.3989 16.5033 26.4241 16.7232 26.6366 17.2175C26.9563 17.9611 27.6581 18.6002 28.3958 18.8194C29.2371 19.0694 34.7577 19.0694 35.599 18.8194C36.3366 18.6002 37.0385 17.9611 37.3581 17.2175C37.5707 16.7232 37.5958 16.5033 37.5616 15.4406C37.5276 14.3837 37.4837 14.1481 37.2198 13.6098C36.9353 13.0291 36.3298 12.3666 35.7253 11.9744L35.4591 11.8016L35.7493 11.4208C36.4547 10.4954 36.781 9.16168 36.5919 7.97696C36.1517 5.21934 33.4696 3.44462 30.8211 4.15825ZM20.4245 6.0151C20.0255 6.18768 19.8024 6.62799 19.9056 7.03928C19.9424 7.1858 20.2729 7.61888 20.6403 8.00171L21.3081 8.69771H17.4291C14.299 8.69771 13.4258 8.73012 12.9068 8.86536C10.9123 9.38528 9.37459 10.929 8.85218 12.9358C8.72503 13.4245 8.68924 14.2997 8.68924 16.9237V20.2856L9.03744 20.5788C9.43784 20.916 9.90061 20.8934 10.2756 20.5186C10.4834 20.3108 10.4976 20.1163 10.5495 16.7707L10.6042 13.2421L10.98 12.5485C11.3943 11.784 11.9803 11.2415 12.8015 10.8625C13.3253 10.6208 13.4484 10.6131 17.3297 10.5815L21.3194 10.5489L20.5851 11.3099C19.7534 12.1721 19.6594 12.5143 20.1104 13.0391C20.3139 13.2757 20.4594 13.3385 20.7835 13.3294C21.1652 13.3185 21.3223 13.1923 22.82 11.6921C24.057 10.453 24.46 9.98054 24.5144 9.70514C24.5835 9.35561 24.5306 9.28848 22.9023 7.66137C21.9763 6.73607 21.1202 5.95246 20.9999 5.92005C20.8795 5.88753 20.6206 5.93034 20.4245 6.0151ZM33.3652 6.27681C35.3285 7.36768 35.2 10.2737 33.1464 11.2272C32.563 11.498 31.4382 11.4997 30.846 11.2304C28.8384 10.3178 28.656 7.43076 30.5362 6.32817C30.808 6.16873 31.1865 5.99878 31.3771 5.95049C31.9323 5.80989 32.7733 5.94786 33.3652 6.27681ZM39.7455 9.0306C39.4659 9.31049 39.424 9.41945 39.483 9.71467C39.5216 9.90772 39.6519 10.1645 39.7723 10.2852C39.984 10.4971 40.1725 10.5064 45.3232 10.5593L50.6548 10.614L51.2729 10.904C52.0599 11.2732 52.7318 11.9456 53.1008 12.7331C53.3784 13.3258 53.3919 13.4408 53.4235 15.4869L53.4564 17.6222L52.7669 16.9447C52.0246 16.2153 51.6451 16.0457 51.2395 16.262C50.8621 16.4632 50.7169 16.7003 50.713 17.1222C50.7099 17.462 50.8653 17.6547 52.3236 19.1198C53.5586 20.3605 54.0223 20.7579 54.298 20.8116C54.6454 20.8793 54.7187 20.8218 56.3545 19.1973C57.2874 18.2708 58.0775 17.4055 58.1105 17.2744C58.2537 16.7039 57.5649 16.0475 56.9778 16.1949C56.8232 16.2337 56.3836 16.5663 56.001 16.9339L55.3055 17.6022V15.5821C55.3055 13.338 55.208 12.7626 54.6357 11.628C54.2125 10.7892 53.2812 9.85757 52.3939 9.3855C51.1282 8.71227 50.9776 8.69771 45.2615 8.69771H40.0782L39.7455 9.0306ZM34.7329 13.5705C34.9073 13.6607 35.188 13.9155 35.3566 14.1366C35.628 14.4924 35.6676 14.6478 35.7007 15.4876C35.7358 16.3702 35.7192 16.4588 35.4641 16.7556L35.1897 17.0747H31.9974H28.805L28.5307 16.7556C28.2758 16.4592 28.2591 16.3696 28.294 15.4963C28.3251 14.7177 28.3764 14.4932 28.593 14.1894C29.1294 13.4368 29.257 13.4072 31.9755 13.4068C33.9303 13.4065 34.4788 13.439 34.7329 13.5705ZM30.4654 20.9255C25.8935 21.6452 22.3823 24.781 21.1383 29.2555C20.936 29.9833 20.9022 30.3891 20.9036 32.0767C20.9051 33.9077 20.9263 34.1169 21.2031 35.0223C21.8348 37.0897 22.7624 38.6399 24.2023 40.0339C25.8831 41.6614 27.6017 42.5639 29.9118 43.0322C31.2888 43.3115 33.6796 43.2106 35.0066 42.8174C39.14 41.5925 42.0942 38.3975 42.9638 34.212C43.245 32.8583 43.1916 30.5447 42.8497 29.2652C41.7038 24.9782 38.2478 21.7574 33.9978 21.0157C33.1514 20.868 31.1545 20.817 30.4654 20.9255ZM32.71 23.168C33.1673 23.6746 33.6125 24.5873 33.9441 25.6981L34.1647 26.4372H31.9974H29.8301L30.0507 25.6981C30.5675 23.9666 31.3846 22.7141 31.9974 22.7141C32.2136 22.7141 32.4175 22.844 32.71 23.168ZM28.9334 23.3081C28.9334 23.3337 28.7833 23.7299 28.5996 24.1886C28.4161 24.6473 28.1874 25.3409 28.0916 25.73L27.9171 26.4372H26.2293H24.5416L24.9593 25.9253C25.5686 25.1784 26.8908 24.166 27.888 23.683C28.7165 23.2816 28.9334 23.2038 28.9334 23.3081ZM36.2775 23.7626C37.1596 24.2048 38.4703 25.2326 39.0354 25.9253L39.4531 26.4372H37.7588H36.0644L35.9464 25.8872C35.8816 25.5847 35.656 24.8899 35.445 24.3431C35.234 23.7965 35.0614 23.3261 35.0614 23.298C35.0614 23.2089 35.53 23.388 36.2775 23.7626ZM8.7746 23.7029C8.12 23.8133 7.22762 24.226 6.66899 24.6769C4.81429 26.1733 4.41466 29.0227 5.79017 30.9418L6.15413 31.4494L5.62997 31.7892C4.55462 32.4865 4.07828 33.4399 4.00923 35.0333C3.94784 36.4475 4.18541 37.161 4.93838 37.8242C5.77299 38.5594 6.10171 38.6093 9.85957 38.5708L13.1211 38.5374L13.6966 38.2338C14.3242 37.9029 14.8547 37.27 15.0493 36.6201C15.1196 36.3854 15.1525 35.6934 15.1281 34.9678C15.0899 33.8375 15.0559 33.6644 14.7677 33.1402C14.4692 32.5968 13.8736 31.9593 13.3139 31.5839L13.0689 31.4196L13.438 30.8721C14.1754 29.7784 14.4019 28.5742 14.1139 27.2788C13.7038 25.4338 12.2666 24.0553 10.3926 23.7098C9.67355 23.5772 9.52396 23.5767 8.7746 23.7029ZM53.2539 23.7593C52.4137 23.9858 51.8388 24.3111 51.1838 24.9311C49.5256 26.5004 49.2744 29.1614 50.6128 30.9774L50.9388 31.4196L50.6874 31.5839C50.1361 31.9441 49.5289 32.5905 49.2257 33.1402C48.9289 33.6779 48.9034 33.8169 48.8685 35.088C48.832 36.4172 48.84 36.4742 49.1451 37.0591C49.4868 37.7143 50.1877 38.2786 50.909 38.479C51.1386 38.5428 52.6301 38.5911 54.3828 38.5914C58.0131 38.5922 58.3039 38.5399 59.1325 37.7372C59.8404 37.0515 60.0598 36.3299 59.9866 34.9289C59.9084 33.4319 59.3332 32.3396 58.306 31.7372L57.8256 31.4554L58.0932 31.1045C58.2404 30.9113 58.4982 30.4598 58.666 30.101C58.9421 29.511 58.9713 29.3334 58.9713 28.244C58.9713 27.1046 58.952 26.9998 58.6115 26.3034C57.6179 24.2704 55.3514 23.1941 53.2539 23.7593ZM10.9286 25.8749C12.8755 26.9089 12.8528 29.6887 10.8886 30.7489C9.76459 31.3558 8.42125 31.1179 7.56006 30.1593C6.58363 29.0725 6.56612 27.5633 7.51738 26.4818C8.43296 25.4409 9.69018 25.2173 10.9286 25.8749ZM55.5526 25.7508C56.0785 25.9598 56.8676 26.8356 57.0357 27.3969C57.3415 28.4183 57.1314 29.3839 56.4347 30.1593C55.8603 30.7985 55.258 31.0598 54.3535 31.0621C52.1143 31.0676 50.8108 28.416 52.173 26.6264C52.9615 25.5906 54.2856 25.2475 55.5526 25.7508ZM27.5517 28.4904C27.5252 28.5959 27.4683 29.2241 27.4252 29.8866L27.3467 31.0911H25.0487H22.7507L22.7855 30.7079C22.8293 30.2258 23.1069 29.1227 23.3024 28.6547L23.4508 28.2988H25.5253C27.4464 28.2988 27.5962 28.3129 27.5517 28.4904ZM34.5568 28.5452C34.5942 28.6807 34.6568 29.3213 34.6958 29.9687L34.7666 31.1459H31.9974H29.2282L29.299 29.9687C29.4115 28.0991 29.0887 28.2988 31.9974 28.2988C34.4878 28.2988 34.4887 28.2989 34.5568 28.5452ZM40.6924 28.6547C40.8878 29.1227 41.1655 30.2258 41.2092 30.7079L41.244 31.0911H38.946H36.6481L36.5696 29.8866C36.5265 29.2241 36.4696 28.5959 36.4431 28.4904C36.3986 28.3129 36.5484 28.2988 38.4695 28.2988H40.5439L40.6924 28.6547ZM12.4183 33.2564C13.1082 33.7216 13.2852 34.1214 13.2852 35.2137C13.2852 36.259 13.1546 36.5398 12.6034 36.6782C12.466 36.7127 11.0135 36.7263 9.37536 36.7083C6.44258 36.6763 6.39312 36.672 6.14789 36.4263C5.92652 36.2047 5.89883 36.0698 5.89883 35.2138C5.89883 34.3554 5.93035 34.2031 6.18871 33.8124C6.68715 33.0587 6.88423 33.0128 9.63054 33.01C11.9672 33.0075 12.0617 33.0159 12.4183 33.2564ZM27.4106 33.7466C27.4157 34.1531 27.4552 34.769 27.4985 35.1154L27.577 35.745H25.514H23.4508L23.2888 35.3568C23.1266 34.9685 22.8803 34.0334 22.7635 33.3633L22.7015 33.0074H25.0514H27.4014L27.4106 33.7466ZM34.6949 34.1298C34.5799 35.9374 34.9012 35.745 31.9974 35.745C29.0936 35.745 29.4149 35.9374 29.2999 34.1298L29.2284 33.0074H31.9974H34.7663L34.6949 34.1298ZM41.2312 33.3633C41.1145 34.0334 40.8681 34.9685 40.706 35.3568L40.5439 35.745H38.4808H36.4177L36.4963 35.1154C36.5395 34.769 36.579 34.1531 36.5842 33.7466L36.5933 33.0074H38.9433H41.2933L41.2312 33.3633ZM57.2123 33.2556C57.481 33.4087 57.7401 33.6846 57.9044 33.993C58.1295 34.4155 58.1618 34.6063 58.1307 35.3321C58.1005 36.0371 58.053 36.2199 57.8461 36.4271C57.6017 36.6717 57.5497 36.6763 54.6194 36.7083C52.9813 36.7263 51.5287 36.7127 51.3914 36.6782C50.8402 36.5398 50.7095 36.259 50.7095 35.2137C50.7095 34.1214 50.8866 33.7216 51.5764 33.2564C51.9331 33.016 52.0283 33.0075 54.3642 33.0092C56.6642 33.0109 56.8038 33.023 57.2123 33.2556ZM28.0452 38.1815C28.1175 38.4976 28.3442 39.1984 28.5491 39.7387C28.7539 40.279 28.901 40.7415 28.8761 40.7665C28.7917 40.8511 27.6798 40.3199 26.9361 39.8398C26.1119 39.3077 25.3656 38.6524 24.8686 38.0243L24.5379 37.6066H26.2258H27.9138L28.0452 38.1815ZM34.0765 37.8224C34.0765 38.1292 33.4761 39.7363 33.1595 40.2769C32.7683 40.9448 32.3435 41.3297 31.9974 41.3297C31.4346 41.3297 30.804 40.4669 30.2435 38.9299C29.7205 37.4962 29.5743 37.6066 31.9974 37.6066C33.9935 37.6066 34.0765 37.6152 34.0765 37.8224ZM39.1262 38.0243C38.625 38.6577 37.8815 39.3084 37.0279 39.8609C36.2658 40.3542 35.2085 40.8564 35.1195 40.7673C35.0941 40.7419 35.2408 40.279 35.4457 39.7387C35.6505 39.1984 35.8773 38.4976 35.9496 38.1815L36.081 37.6066H37.7689H39.4569L39.1262 38.0243ZM9.2911 41.4369C9.17073 41.4883 8.36074 42.2471 7.49101 43.1232C6.03255 44.5924 5.90978 44.7473 5.90978 45.1176C5.90978 45.4241 5.9843 45.5833 6.22438 45.79C6.72085 46.2174 7.15868 46.0843 7.99886 45.2511L8.68924 44.5664L8.69056 47.5746C8.69198 50.8383 8.74319 51.2341 9.312 52.3752C9.71228 53.1781 10.8788 54.3473 11.6623 54.7309C12.8923 55.3331 13.0146 55.3437 18.7019 55.3413C22.66 55.3396 23.9972 55.3062 24.1281 55.2057C24.6059 54.8387 24.6454 54.1364 24.2105 53.7423C24.0006 53.5521 23.6478 53.5359 18.6084 53.4846L13.2305 53.4298L12.6834 53.1608C11.9863 52.8179 11.2205 52.051 10.8743 51.3492C10.6092 50.8117 10.6036 50.7447 10.5704 47.6841L10.5367 44.5665L11.2984 45.3024C12.0996 46.0763 12.3069 46.1537 12.8396 45.8781C13.1891 45.6973 13.2852 45.5134 13.2852 45.0252C13.2852 44.7378 13.0596 44.4581 11.7806 43.16C10.552 41.9131 9.77827 41.2833 9.54081 41.3366C9.52385 41.3404 9.41147 41.3855 9.2911 41.4369ZM54.0329 41.4884C53.8445 41.5698 53.6476 41.703 53.5952 41.7842C53.5429 41.8655 53.4753 43.9277 53.4452 46.3668L53.3905 50.8017L53.1205 51.3492C52.7742 52.051 52.0085 52.8179 51.3114 53.1608C50.7694 53.4273 50.7311 53.4301 47.2123 53.4629L43.6604 53.4961L44.3399 52.788C44.9425 52.16 45.0193 52.0302 45.0193 51.6404C45.0193 51.1141 44.6417 50.747 44.1004 50.747C43.8049 50.747 43.5309 50.9748 42.0908 52.4182C40.5923 53.92 40.4233 54.1272 40.4233 54.4632C40.4233 54.7979 40.5907 55.0058 42.028 56.4555C43.6862 58.1284 44.0015 58.3352 44.4931 58.0731C44.8648 57.875 45.0119 57.636 45.0158 57.2244C45.0187 56.9188 44.898 56.7322 44.2901 56.102L43.5608 55.3461L47.0531 55.3448C50.8267 55.3434 51.1529 55.3056 52.3366 54.7319C53.6207 54.1097 54.8804 52.4538 55.1849 50.988C55.2605 50.6239 55.3055 48.8408 55.3055 46.2034V41.999L55.0593 41.728C54.7369 41.3731 54.4525 41.3067 54.0329 41.4884ZM31.1338 45.1713C28.7344 45.6428 27.0129 48.0575 27.393 50.4187C27.513 51.1648 27.9813 52.2861 28.2892 52.5649C28.5859 52.8336 28.547 52.969 28.1055 53.207C27.6093 53.4744 27.1528 53.9947 26.7776 54.7205C26.5243 55.2103 26.4762 55.457 26.4377 56.4594C26.3835 57.8732 26.5598 58.5235 27.1666 59.1492C27.991 59.9992 27.9953 60 31.9974 60C35.9995 60 36.0037 59.9992 36.8282 59.1492C37.435 58.5235 37.6112 57.8732 37.5571 56.4594C37.5186 55.457 37.4704 55.2103 37.2172 54.7205C36.842 53.9947 36.3854 53.4744 35.8893 53.207C35.6747 53.0913 35.4991 52.9553 35.4991 52.9048C35.4991 52.8543 35.6206 52.6533 35.7694 52.4583C37.7826 49.817 36.1542 45.7871 32.8253 45.1726C32.0908 45.037 31.8177 45.0368 31.1338 45.1713ZM33.1464 47.2322C33.6994 47.4894 34.3389 48.1534 34.5804 48.7212C34.8254 49.2973 34.8202 50.3679 34.5699 50.8624C34.2262 51.5416 33.8932 51.8973 33.2963 52.2229C31.476 53.2157 29.24 51.8953 29.2309 49.8221C29.2274 49.0177 29.4589 48.4315 30.0057 47.8595C30.575 47.2638 31.1388 47.0287 31.9974 47.0287C32.4607 47.0287 32.8612 47.0996 33.1464 47.2322ZM34.7856 54.7205C35.4572 55.1012 35.7146 55.6551 35.7127 56.7149C35.7098 58.2037 35.7363 58.1932 31.9974 58.1932C28.2584 58.1932 28.2849 58.2037 28.2821 56.7149C28.2801 55.6551 28.5376 55.1012 29.2092 54.7205C29.6237 54.4856 29.758 54.4737 31.9974 54.4737C34.2367 54.4737 34.3711 54.4856 34.7856 54.7205Z" fill="url(#paint0_linear_982_9790)"/>
<defs>
<linearGradient id="paint0_linear_982_9790" x1="4" y1="60" x2="61.9302" y2="57.9265" gradientUnits="userSpaceOnUse">
<stop stop-color="#0071BC"/>
<stop offset="1" stop-color="#00C0F3"/>
</linearGradient>
</defs>
</svg>
