<svg width="56" height="56" viewBox="0 0 56 56" fill="none" xmlns="http://www.w3.org/2000/svg">
<path fill-rule="evenodd" clip-rule="evenodd" d="M26.1973 4.02792C26.0166 4.04893 25.4675 4.11188 24.9771 4.16789C17.5501 5.01561 10.688 9.66871 6.92226 16.4108C5.54747 18.8722 4.55236 21.9247 4.12613 24.988C3.93907 26.3323 3.96497 29.9285 4.17137 31.2737C5.01509 36.7722 7.27752 41.2688 11.0977 45.0393C11.6848 45.6187 12.5452 46.3967 13.0098 46.7681C21.7747 53.7741 34.2932 53.7405 43.0454 46.6876C53.3769 38.3618 55.0075 23.2478 46.6871 12.9326C42.8489 8.17422 37.5382 5.15127 31.3597 4.20804C30.424 4.06516 26.9274 3.9432 26.1973 4.02792ZM27.2298 9.76938V14.1584L26.2677 14.2728C25.0647 14.4159 23.8352 14.7419 22.6201 15.24C22.1029 15.4519 21.6646 15.6103 21.6461 15.5918C21.5453 15.4909 17.4314 8.30884 17.3951 8.17028C17.3608 8.03922 17.5342 7.92045 18.2313 7.59734C21.0355 6.29752 24.1476 5.50852 26.9247 5.39304L27.2298 5.38037V9.76938ZM29.9987 5.47513C32.6234 5.71567 35.2139 6.41967 37.6361 7.5509C38.4104 7.91257 38.6005 8.03922 38.5661 8.17056C38.5299 8.30894 34.416 15.4911 34.3153 15.5918C34.2968 15.6103 33.8584 15.4519 33.3413 15.24C32.1261 14.7419 30.8966 14.4159 29.6936 14.2728L28.7315 14.1584V9.76938C28.7315 6.32069 28.7567 5.38037 28.8489 5.38046C28.9134 5.38046 29.4308 5.42306 29.9987 5.47513ZM18.2459 12.5439C19.4185 14.5747 20.3779 16.2809 20.3779 16.3353C20.3779 16.3897 20.0928 16.6362 19.7443 16.883C18.9278 17.4615 17.4444 18.9453 16.863 19.7651C16.5558 20.1983 16.3599 20.3928 16.258 20.3657C16.1221 20.3296 8.93839 16.2106 8.83796 16.1112C8.69116 15.9659 10.4676 13.621 11.6865 12.351C12.2214 11.7936 13.0426 11.0237 13.5113 10.6398C14.4592 9.86376 15.8667 8.86123 16.0166 8.85542C16.0701 8.85326 17.0732 10.5132 18.2459 12.5439ZM40.5936 9.24063C42.5277 10.5503 44.6794 12.5931 46.014 14.3867C46.8589 15.5222 47.1932 16.0419 47.1234 16.1115C47.0207 16.2139 39.8478 20.3287 39.7085 20.3651C39.6004 20.3933 39.4135 20.2096 39.0983 19.7651C38.5306 18.9644 37.0537 17.483 36.217 16.8749C35.8686 16.6217 35.5834 16.3744 35.5834 16.3254C35.5834 16.1708 39.8433 8.85157 39.9332 8.85157C39.9804 8.85157 40.2776 9.02663 40.5936 9.24063ZM30.1037 15.7514C35.248 16.6463 39.3299 20.7262 40.2252 25.8681C40.4135 26.9491 40.4135 29.0311 40.2252 30.1121C39.4463 34.586 36.2249 38.317 31.8909 39.7651C30.5655 40.2081 29.5004 40.3738 27.9807 40.3738C26.461 40.3738 25.3958 40.2081 24.0704 39.7651C19.7038 38.3061 16.521 34.6196 15.7361 30.1121C15.5478 29.0311 15.5478 26.9491 15.7361 25.8681C16.4096 22.0001 18.9 18.6561 22.4308 16.8789C23.3067 16.438 24.8232 15.9304 25.7801 15.7578C26.8026 15.5732 29.0606 15.5699 30.1037 15.7514ZM11.9297 19.5389C13.917 20.6862 15.5568 21.639 15.574 21.6562C15.5912 21.6733 15.4146 22.1662 15.1817 22.7513C14.6697 24.037 14.4135 25.0172 14.2507 26.3125L14.1282 27.2865L9.82022 27.3109C7.44713 27.3244 5.47539 27.2985 5.43015 27.2533C5.32127 27.1444 5.51068 25.1112 5.74589 23.8622C6.10003 21.982 6.70844 20.1004 7.5317 18.3393C7.89353 17.5653 8.02024 17.3753 8.15165 17.4097C8.24241 17.4334 9.94261 18.3916 11.9297 19.5389ZM48.4349 18.3505C49.2529 20.1003 49.8621 21.9863 50.2154 23.8622C50.4506 25.1112 50.64 27.1444 50.5312 27.2533C50.4859 27.2985 48.5142 27.3244 46.1411 27.3109L41.8332 27.2865L41.7107 26.3125C41.5478 25.0172 41.2916 24.037 40.7797 22.7513C40.5467 22.1662 40.3699 21.6736 40.3867 21.6568C40.511 21.5328 47.7654 17.3934 47.8619 17.3914C47.9298 17.39 48.1876 17.8216 48.4349 18.3505ZM26.2972 21.3723C25.5708 22.2216 24.9298 23.019 24.8727 23.1442C24.6481 23.637 25.2409 24.2038 25.7653 23.9975C25.8891 23.9489 26.4237 23.4025 26.9533 22.7833C27.4829 22.1641 27.9468 21.6575 27.9841 21.6575C28.0976 21.6575 31.9882 26.2659 32.2384 26.6967C32.8801 27.8017 33.0573 29.4004 32.6751 30.6373C32.1789 32.243 30.7583 33.5525 29.0845 33.9469C27.0906 34.4168 24.9651 33.5465 23.8325 31.7964C23.3094 30.9881 23.0995 30.222 23.1018 29.1295C23.1043 28.0249 23.3559 27.2215 23.9903 26.2935C24.4734 25.5868 24.5088 25.3557 24.1835 25.0307C23.6577 24.505 23.0276 24.9503 22.3553 26.3232C21.8473 27.3605 21.692 28.0253 21.692 29.1628C21.692 30.3041 21.8467 30.9629 22.3643 32.0242C22.6711 32.6535 22.9134 32.9816 23.5131 33.5804C24.8415 34.9066 26.1366 35.4479 27.9807 35.4479C29.8247 35.4479 31.1198 34.9066 32.4482 33.5804C33.6938 32.3368 34.2694 30.9407 34.2694 29.1628C34.2694 28.6289 34.2077 27.9737 34.1276 27.658C33.9459 26.9409 33.3399 25.7048 32.9338 25.2225C32.76 25.0161 31.6562 23.718 30.4809 22.3377C27.7538 19.1347 28.1355 19.2228 26.2972 21.3723ZM14.2568 29.7022C14.4 30.9047 14.7262 32.1336 15.2245 33.3481C15.4365 33.865 15.5949 34.3032 15.5764 34.3217C15.4757 34.4223 8.29009 38.5343 8.15165 38.5705C8.02024 38.6048 7.89353 38.4149 7.5317 37.6409C6.39992 35.2198 5.69558 32.6306 5.45492 30.0071C5.40283 29.4395 5.36022 28.9224 5.36022 28.8579C5.36012 28.7658 6.30089 28.7406 9.75123 28.7406H14.1423L14.2568 29.7022ZM50.6011 28.8579C50.6011 28.9224 50.5585 29.4395 50.5064 30.0071C50.2876 32.3928 49.6664 34.8123 48.6992 37.0467C48.1441 38.3291 47.9761 38.614 47.8022 38.5682C47.6693 38.5332 40.4814 34.4175 40.3843 34.3209C40.3661 34.3028 40.523 33.8695 40.7329 33.358C41.2093 32.1966 41.566 30.8438 41.7093 29.6553L41.8194 28.7406H46.2104C49.6605 28.7406 50.6012 28.7658 50.6011 28.8579ZM16.8682 36.2225C17.4449 37.0358 18.9306 38.5208 19.7443 39.0972C20.0928 39.344 20.3779 39.5905 20.3779 39.6449C20.3779 39.801 16.1233 47.1286 16.0326 47.1286C15.8819 47.1286 14.3183 46.0116 13.4202 45.2623C12.9297 44.8531 12.1162 44.0849 11.6123 43.5553C10.4296 42.312 8.69642 40.0092 8.83796 39.8689C8.95867 39.7492 16.2177 35.5945 16.3102 35.592C16.3701 35.5905 16.6213 35.8742 16.8682 36.2225ZM43.4729 37.7413C45.4576 38.8883 47.1003 39.8456 47.1234 39.8686C47.2976 40.0424 45.3529 42.5328 43.9416 43.9434C42.5273 45.3571 40.0388 47.2976 39.8641 47.1231C39.7641 47.023 35.6438 39.8439 35.608 39.7072C35.5814 39.6057 35.7775 39.4086 36.2096 39.1024C37.0327 38.5194 38.515 37.0378 39.0983 36.215C39.4135 35.7705 39.6004 35.5869 39.7085 35.6151C39.7942 35.6375 41.4882 36.5943 43.4729 37.7413ZM22.776 40.7998C23.9319 41.2621 25.4704 41.6476 26.549 41.7453L27.2298 41.807V46.2034C27.2298 49.658 27.2046 50.5998 27.1124 50.5997C25.9905 50.599 23.3922 50.1758 21.8797 49.7473C20.1198 49.2488 17.3743 48.1062 17.3743 47.8722C17.3743 47.7567 21.6083 40.3738 21.6745 40.3738C21.6944 40.3738 22.1901 40.5655 22.776 40.7998ZM36.4549 44.0662C37.6275 46.097 38.587 47.8095 38.587 47.8719C38.587 48.117 35.7332 49.2983 33.9408 49.7951C32.5469 50.1817 29.9053 50.599 28.8489 50.5997C28.7567 50.5998 28.7315 49.6596 28.7315 46.2111V41.8223L29.6467 41.7121C30.8371 41.5688 32.2034 41.2088 33.2725 40.7566C33.7434 40.5575 34.1723 40.39 34.2257 40.3842C34.2792 40.3785 35.2823 42.0354 36.4549 44.0662Z" fill="url(#paint0_linear_982_9860)"/>
<defs>
<linearGradient id="paint0_linear_982_9860" x1="4" y1="52" x2="53.6544" y2="50.2227" gradientUnits="userSpaceOnUse">
<stop stop-color="#0071BC"/>
<stop offset="1" stop-color="#00C0F3"/>
</linearGradient>
</defs>
</svg>
