<svg width="56" height="56" viewBox="0 0 56 56" fill="none" xmlns="http://www.w3.org/2000/svg">
<path fill-rule="evenodd" clip-rule="evenodd" d="M16.6396 0.15604C15.6208 0.37839 14.1809 1.08326 13.3296 1.77611C11.7133 3.09165 10.6292 5.29893 10.4411 7.65678C10.4109 8.03647 10.3359 8.09366 8.34615 9.25514C7.21128 9.91764 6.12924 10.6071 5.94176 10.7873C5.36365 11.3428 5.11134 11.9564 5.11134 12.8073C5.11134 13.9411 5.62831 14.7826 6.66028 15.3286C7.25719 15.6445 8.41883 15.6186 9.06536 15.2751C9.3412 15.1286 9.5784 15.0254 9.59259 15.0459C9.60667 15.0665 9.67842 15.2957 9.75191 15.5554C10.0545 16.6236 11.2947 17.5638 12.5537 17.6793L13.2123 17.7397L13.2551 19.0376C13.2935 20.2021 13.3354 20.4162 13.6621 21.1178C14.1312 22.1247 14.802 22.7942 15.9224 23.3732C16.6632 23.756 16.8108 23.8781 16.7662 24.0707C16.7364 24.1991 16.5943 24.9212 16.4502 25.6756C16.2113 26.9267 16.1662 27.047 15.9365 27.047C15.484 27.047 15.1598 27.4303 15.0892 28.049L15.0245 28.6162L13.8131 29.1062C13.1469 29.3757 12.5369 29.6004 12.4575 29.6055C12.3442 29.6129 12.3133 28.5382 12.3133 24.5959V19.577H11.3904H10.4674V24.9876V30.3983L8.13122 31.3092C5.56128 32.3111 5.09773 32.5669 4.63914 33.2363C4.13002 33.9796 4.0173 34.4665 4.01188 35.9469L4.00681 37.3184H4.92975H5.8527V36.0517C5.8527 34.0774 5.53797 34.3218 10.6445 32.3306C12.9901 31.416 14.9481 30.6671 14.9956 30.6665C15.0432 30.6658 15.0822 33.843 15.0822 37.7269V44.7884H16.0051H16.9281V39.6527V34.5171H33.5411H50.1541V36.3846V38.2521H51.0771H52V32.9361V27.62L51.7168 27.3336L51.4337 27.047H42.0258H32.6181V21.8599C32.6181 18.4633 32.6587 16.6475 32.7357 16.5992C32.8003 16.5589 32.9916 16.2538 33.1606 15.9212C33.4099 15.431 33.4775 15.1129 33.5182 14.2384C33.574 13.0416 33.3839 12.2121 32.9084 11.5766C32.6555 11.2384 32.6402 11.1053 32.5923 8.83366C32.5461 6.64202 32.517 6.36937 32.237 5.5123C31.8247 4.25068 31.2125 3.24164 30.2975 2.31593C29.387 1.3949 28.3927 0.77547 27.1381 0.347926L26.2152 0.0334839L21.8312 0.00652186C18.2776 -0.015188 17.2942 0.0130582 16.6396 0.15604ZM26.1468 2.01538C28.2979 2.52836 30.0875 4.33892 30.5946 6.51527C30.7015 6.97421 30.7695 7.83793 30.7705 8.75126L30.7722 10.2394H29.671C28.6556 10.2394 28.5477 10.2617 28.2866 10.526C28.054 10.7612 28.0034 10.9281 28.0034 11.4597V12.1069L26.5325 12.1052C24.255 12.1025 22.9344 11.6699 21.6571 10.5081C21.1396 10.0373 20.3882 9.00688 20.3899 8.77017C20.3903 8.71169 20.741 8.47067 21.1691 8.23489C21.5974 7.999 22.0521 7.68386 22.18 7.53458C22.3077 7.38518 22.7704 6.5204 23.2081 5.61267C23.967 4.03906 23.997 3.94522 23.8536 3.59483C23.7709 3.39267 23.612 3.17802 23.5007 3.11768C23.3892 3.05745 22.4393 2.94914 21.3897 2.87712L19.4813 2.74616L16.33 4.58846C14.5967 5.6017 13.0038 6.53487 12.7903 6.66222L12.4019 6.89367L12.4799 6.49472C12.5228 6.27541 12.7453 5.70196 12.9744 5.2205C13.71 3.67466 15.2385 2.42425 16.8858 2.02075C17.8961 1.77342 25.1144 1.7691 26.1468 2.01538ZM41.8476 4.6369V5.57066H42.7705H43.6935V4.6369V3.70314H42.7705H41.8476V4.6369ZM21.5248 4.81863C21.5466 4.83766 21.3908 5.17953 21.1787 5.57836L20.7929 6.30354L17.4211 8.27143L14.0495 10.2394H13.2023C11.9276 10.2394 11.2424 10.4907 10.5178 11.2236C10.1255 11.6206 9.85875 12.0123 9.76495 12.3292C9.64232 12.7432 9.51691 12.8808 8.96291 13.2094C8.60181 13.4234 8.19167 13.6355 8.05162 13.6804C7.31591 13.9167 6.58886 12.9198 7.04088 12.2944C7.12325 12.1804 10.0436 10.4139 13.5303 8.36889L19.8699 4.65067L20.6775 4.71732C21.1217 4.75397 21.503 4.79961 21.5248 4.81863ZM36.3089 6.09694L35.6806 6.74054L36.3414 7.4091L37.0021 8.07756L37.6378 7.43443L38.2736 6.79131L37.6054 6.12227L36.9372 5.45335L36.3089 6.09694ZM47.9305 6.12752L47.2693 6.80356L47.9055 7.43922L48.5416 8.07487L49.2024 7.4063L49.8631 6.73785L49.2275 6.09473L48.5918 5.45149L47.9305 6.12752ZM41.2298 7.62305C39.4535 8.05806 37.8137 9.40116 37.0179 11.0728C35.8672 13.4904 36.1553 16.0156 37.8293 18.1828L38.3301 18.8312L38.7248 21.2726C39.0603 23.3478 39.1588 23.7538 39.3823 23.9799C39.6429 24.2436 39.6717 24.2458 42.7705 24.2458C45.8693 24.2458 45.8982 24.2436 46.1588 23.9799C46.3823 23.7538 46.4808 23.3477 46.817 21.2663C47.1879 18.9695 47.2349 18.7898 47.581 18.3516C48.486 17.2057 49.0425 15.9273 49.1829 14.6727L49.2609 13.9745H48.3364H47.4118L47.3324 14.6179C47.2242 15.4938 46.5818 16.7512 45.9338 17.3555C45.6445 17.6253 45.0609 18.0124 44.6372 18.2155C43.9403 18.5495 43.7617 18.5849 42.7705 18.5849C41.7794 18.5849 41.6008 18.5495 40.9039 18.2155C39.8313 17.7014 39.1633 17.0397 38.6444 15.9774C38.2377 15.1449 38.2135 15.0328 38.2135 13.9805C38.2135 12.9709 38.248 12.792 38.5786 12.0859C39.0867 11.0008 39.7407 10.325 40.7908 9.79999C41.6136 9.38855 41.7245 9.36404 42.7645 9.36404C43.7625 9.36404 43.9393 9.39894 44.6372 9.73346C45.6046 10.1971 46.3422 10.8787 46.7671 11.7013C46.9485 12.0526 47.1516 12.3399 47.2187 12.3402C47.5851 12.341 48.7697 11.8329 48.7697 11.6748C48.7697 11.2945 47.9915 10.0502 47.3304 9.37349C45.7672 7.7735 43.3949 7.09279 41.2298 7.62305ZM20.2834 11.757C21.1629 12.6063 22.1764 13.208 23.3598 13.5833L24.3116 13.8853V14.3967V14.9082H25.2346H26.1575V14.4413V13.9745H27.0805H28.0034V16.8696C28.0034 21.0094 28.1465 20.787 24.1963 22.7875C22.6346 23.5784 21.8231 23.9268 21.5428 23.9268C20.916 23.9267 16.1401 21.4729 15.6889 20.919C15.1156 20.2154 15.0822 19.9272 15.0822 15.6965V11.7849L16.8894 10.732L18.6966 9.67918L19.1514 10.3912C19.4017 10.7828 19.911 11.3974 20.2834 11.757ZM13.2363 13.9896V15.8723L12.703 15.8115C12.308 15.7665 12.0764 15.6562 11.8089 15.3856C11.4588 15.0312 11.4481 14.9897 11.4481 13.9816C11.4481 13.0351 11.4737 12.9149 11.7365 12.6288C12.083 12.2516 12.3615 12.1242 12.8613 12.1143L13.2363 12.1069V13.9896ZM31.2766 12.5633C31.6272 12.918 31.6375 12.9583 31.6375 13.9745C31.6375 14.9906 31.6272 15.0309 31.2766 15.3856C31.0092 15.6562 30.7775 15.7665 30.3825 15.8115L29.8493 15.8723V13.9745V12.0766L30.3825 12.1374C30.7775 12.1825 31.0092 12.2928 31.2766 12.5633ZM16.9281 13.9745V14.9082H17.851H18.7739V13.9745V13.0407H17.851H16.9281V13.9745ZM30.7722 22.3783V27.047H28.8347H26.8973L26.6354 25.6756C26.4913 24.9212 26.346 24.189 26.3123 24.0485C26.2597 23.8279 26.3654 23.7347 27.0837 23.3687C28.1795 22.8105 28.9529 22.0642 29.4107 21.1233C29.7428 20.4407 29.7825 20.2429 29.8281 19.0393L29.8784 17.7095H30.3253H30.7722V22.3783ZM18.7765 19.3144C18.7819 19.7515 19.2347 20.5088 19.6902 20.8426C21.3153 22.0336 23.9255 21.262 24.2673 19.4895L24.3405 19.1101H23.4502C22.7345 19.1101 22.5023 19.1559 22.2665 19.3436C22.0922 19.4822 21.7984 19.577 21.5428 19.577C21.2871 19.577 20.9934 19.4822 20.8191 19.3436C20.5843 19.1567 20.351 19.1101 19.6498 19.1101C18.8916 19.1101 18.7743 19.1375 18.7765 19.3144ZM42.7705 20.4331C43.7163 20.4331 44.238 20.3787 44.5876 20.2437C45.1607 20.0222 45.1561 20.0107 44.9594 21.1604C44.725 22.5313 45 22.3783 42.7705 22.3783C40.541 22.3783 40.8161 22.5313 40.5817 21.1604C40.385 20.0107 40.3803 20.0222 40.9535 20.2437C41.3031 20.3787 41.8247 20.4331 42.7705 20.4331ZM21.5251 25.7974C22.2184 25.7974 22.4402 25.7349 23.4315 25.2598C24.1821 24.9001 24.5682 24.7689 24.5985 24.8633C24.6616 25.06 25.0038 26.8155 25.0038 26.9428C25.0038 27.0016 23.4969 27.047 21.5428 27.047C19.5887 27.047 18.0817 27.0016 18.0817 26.9428C18.0817 26.8144 18.4243 25.0588 18.4878 24.8614C18.519 24.7644 18.89 24.8923 19.6372 25.2578C20.6173 25.7372 20.8281 25.7974 21.5251 25.7974ZM50.1541 30.7821V32.6496H33.5411H16.9281V30.7821V28.9146H33.5411H50.1541V30.7821ZM18.7739 30.7821V31.7158H19.6969H20.6198V30.7821V29.8483H19.6969H18.7739V30.7821ZM22.4657 30.7821V31.7158H23.3887H24.3116V30.7821V29.8483H23.3887H22.4657V30.7821ZM46.4623 30.7821V31.7158H47.3853H48.3082V30.7821V29.8483H47.3853H46.4623V30.7821ZM19.0572 36.6711L18.7739 36.9576V40.873V44.7884H19.6947H20.6155L20.6465 42.1594L20.6775 39.5304L23.1003 41.82C24.4328 43.0792 25.5721 44.1569 25.6322 44.2151C25.6994 44.2801 25.3436 44.6998 24.7093 45.3042L23.6771 46.2877L24.3283 46.9544L24.9797 47.6211L26.0254 46.6011L27.0712 45.5812L29.5704 47.9569L32.0697 50.3326L29.5751 50.3641L27.0805 50.3955V51.327V52.2584H30.9505H34.8206L35.1037 51.9719L35.387 51.6855V44.3215V36.9576L35.1037 36.6711L34.8206 36.3846H27.0805H19.3403L19.0572 36.6711ZM37.5161 36.6711L37.2329 36.9576V44.3215V51.6855L37.5161 51.9719L37.7992 52.2584H42.7705H47.7419L48.025 51.9719L48.3082 51.6855V44.3215V36.9576L48.025 36.6711L47.7419 36.3846H42.7705H37.7992L37.5161 36.6711ZM32.0413 38.2946C32.0413 38.3181 30.9256 39.3978 29.5619 40.6941L27.0825 43.0511L24.6011 40.6907C23.2363 39.3925 22.1196 38.3127 22.1196 38.2912C22.1196 38.2697 24.352 38.2521 27.0805 38.2521C29.8089 38.2521 32.0413 38.2712 32.0413 38.2946ZM44.2418 40.4083C43.4644 41.5942 42.8023 42.5645 42.7705 42.5645C42.7388 42.5645 42.0767 41.5942 41.2992 40.4083L39.8858 38.2521H42.7705H45.6553L44.2418 40.4083ZM4.0323 46.3933C4.06438 53.5676 4.06564 53.6029 4.31853 54.0811C4.72809 54.8556 5.12784 55.2598 5.82916 55.6082L6.48722 55.9351L16.036 55.9676L25.5847 56L25.8873 55.6938C26.18 55.3977 26.1874 55.3558 26.1157 54.4118C25.9607 52.3708 25.1749 50.68 23.6774 49.165C22.6271 48.1024 21.664 47.4896 20.3314 47.0362L19.4085 46.7221L14.4765 46.6811L9.54448 46.6403V47.5818V48.5234H11.3904H13.2363V51.3247V54.126H10.1753C6.76607 54.126 6.49265 54.0776 6.08643 53.4035C5.85974 53.0275 5.85351 52.832 5.85316 46.1015L5.8527 39.1859H4.92641H4L4.0323 46.3933ZM33.5145 46.7133L33.4834 49.105L31.003 46.7564C29.6387 45.4647 28.5226 44.369 28.5226 44.3215C28.5226 44.274 29.6387 43.1784 31.003 41.8866L33.4834 39.538L33.5145 41.9297C33.5317 43.2452 33.5317 45.3978 33.5145 46.7133ZM50.1541 47.1228V54.126H39.0788H28.0034V55.0597V55.9935H39.7185H51.4337L51.7168 55.7069L52 55.4205V47.77V40.1196H51.0771H50.1541V47.1228ZM40.3658 46.2766L39.0796 48.2316V44.3215V40.4114L40.3658 42.3665L41.652 44.3215L40.3658 46.2766ZM46.462 44.3507L46.4615 48.2316L45.1756 46.2772L43.8898 44.3227L45.1472 42.3988C45.8388 41.3406 46.4177 40.4737 46.4335 40.4723C46.4493 40.4709 46.4621 42.2161 46.462 44.3507ZM44.2418 48.2348L45.6553 50.3909H42.7705H39.8858L41.2992 48.2348C42.0767 47.0488 42.7388 46.0785 42.7705 46.0785C42.8023 46.0785 43.4644 47.0488 44.2418 48.2348ZM19.9415 48.8928C21.0341 49.3091 21.6945 49.7311 22.4199 50.4768C23.1576 51.2352 23.5525 51.8754 23.9276 52.9209C24.4066 54.2559 24.8691 54.126 19.6392 54.126H15.0822V51.3116V48.4974L17.1299 48.5497C18.957 48.5963 19.26 48.6333 19.9415 48.8928Z" fill="url(#paint0_linear_982_9862)"/>
<defs>
<linearGradient id="paint0_linear_982_9862" x1="4" y1="56" x2="53.6713" y2="54.4761" gradientUnits="userSpaceOnUse">
<stop stop-color="#0071BC"/>
<stop offset="1" stop-color="#00C0F3"/>
</linearGradient>
</defs>
</svg>
