<svg width="56" height="56" viewBox="0 0 56 56" fill="none" xmlns="http://www.w3.org/2000/svg">
<path fill-rule="evenodd" clip-rule="evenodd" d="M6.86898 4.08892C5.80895 4.34067 4.7556 5.22045 4.26715 6.26192L4 6.83157V28.0038V49.176L4.32636 49.8386C4.73068 50.6593 5.51828 51.4074 6.31794 51.73L6.89082 51.9613L27.6748 51.9917C43.1482 52.0143 48.5988 51.9925 49.007 51.9067C50.1808 51.6595 51.2695 50.7505 51.7163 49.6447L51.9477 49.0722L51.9738 33.6022L52 18.1323L51.7541 17.8866C51.4594 17.5921 51.1078 17.5719 50.7875 17.8313L50.5521 18.0216L50.5023 33.4473L50.4524 48.8729L50.2378 49.2714C49.9892 49.7332 49.6965 50.0196 49.2064 50.2809C48.8689 50.4608 48.1705 50.4669 27.9738 50.4669C7.7772 50.4669 7.07872 50.4608 6.74129 50.2809C6.25115 50.0196 5.95848 49.7332 5.70987 49.2714L5.49525 48.8729V28.0017V7.13044L5.70987 6.73195C5.95848 6.27019 6.25115 5.98377 6.74129 5.72246C7.07872 5.54254 7.7772 5.53646 27.9738 5.53646H48.8575L49.2562 5.75095C49.7183 5.99941 50.0048 6.29191 50.2663 6.78176C50.4347 7.09727 50.4553 7.43141 50.4825 10.2928L50.5126 13.4553L28.7371 13.4808C7.48254 13.5058 6.95661 13.511 6.75176 13.6962C6.47793 13.9438 6.47264 14.4832 6.74129 14.7517C6.93946 14.9497 7.07354 14.9509 29.2624 14.9509H51.5843L51.7953 14.6828C52.003 14.419 52.0059 14.355 51.977 10.673C51.9485 7.03221 51.9415 6.91585 51.718 6.36314C51.4475 5.69386 50.7549 4.88721 50.1432 4.52896C49.1805 3.96509 50.3983 3.99388 27.924 4.00364C16.5202 4.00862 7.04552 4.04698 6.86898 4.08892ZM7.78348 9.01882C7.51204 9.28999 7.48563 9.44521 7.64941 9.80465C7.81647 10.1711 8.14912 10.2686 9.23248 10.2686C10.1223 10.2686 10.2456 10.2458 10.4895 10.0362C10.832 9.74169 10.8489 9.21219 10.5242 8.94938C10.3459 8.80512 10.1069 8.77424 9.16798 8.77424C8.0907 8.77424 8.01465 8.78769 7.78348 9.01882ZM12.2239 8.97349C11.9226 9.27455 11.958 9.80336 12.2973 10.0701C12.5468 10.2663 12.6666 10.2818 13.7019 10.2517C14.751 10.2212 14.8475 10.2017 15.024 9.98358C15.2707 9.67883 15.2653 9.36391 15.0077 9.03675C14.8052 8.77932 14.778 8.77424 13.6122 8.77424C12.5561 8.77424 12.4009 8.79656 12.2239 8.97349ZM16.6172 9.03675C16.3596 9.36391 16.3542 9.67883 16.601 9.98358C16.7774 10.2017 16.8739 10.2212 17.9231 10.2517C18.9584 10.2818 19.0781 10.2663 19.3276 10.0701C19.6669 9.80336 19.7023 9.27455 19.4011 8.97349C19.224 8.79656 19.0688 8.77424 18.0128 8.77424C16.847 8.77424 16.8198 8.77932 16.6172 9.03675ZM25.1771 8.95795C24.8486 9.22384 24.8695 9.73272 25.2215 10.0353L25.4929 10.2686H36.5886C47.6628 10.2686 47.6847 10.2682 47.9469 10.0621C48.276 9.80336 48.307 9.27017 48.0102 8.97349C47.8132 8.77663 47.6779 8.77424 36.6075 8.77424C25.8682 8.77424 25.3947 8.78181 25.1771 8.95795ZM23.3341 21.5714L23.0894 21.8159V25.1903V28.5647L23.32 28.7813C23.5395 28.9874 23.6395 28.9979 25.3635 28.9979H27.1764V30.2408V31.4837L21.5354 31.511L15.8944 31.5383L15.7039 31.7735C15.5291 31.9894 15.5134 32.1917 15.5134 34.2392V36.4697H13.9319C12.4829 36.4697 12.3284 36.4871 12.0878 36.6762L11.8251 36.8827V40.3125C11.8251 43.6095 11.8328 43.75 12.0245 43.9415C12.2172 44.1341 12.3567 44.1408 16.2157 44.1408H20.2076L20.4522 43.8962L20.697 43.6517V40.3053V36.9588L20.4522 36.7143C20.2128 36.4749 20.1734 36.4697 18.6081 36.4697H17.0087V34.7263V32.9829H22.0925H27.1764V34.7263V36.4697H25.6876C24.8688 36.4697 24.0908 36.5108 23.9587 36.561C23.5082 36.7321 23.478 36.9963 23.509 40.4938L23.5379 43.7601L23.7733 43.9504C23.9961 44.1307 24.219 44.1408 27.9738 44.1408C31.7287 44.1408 31.9516 44.1307 32.1744 43.9504L32.4097 43.7601L32.4387 40.4938C32.4584 38.2686 32.4324 37.1427 32.3571 36.9613C32.1826 36.5399 31.8835 36.4697 30.2619 36.4697H28.7713V34.7263V32.9829H33.8551H38.939V34.7263V36.4697H37.3396C35.7743 36.4697 35.7349 36.4749 35.4954 36.7143L35.2507 36.9588V40.3053V43.6517L35.4954 43.8962L35.7401 44.1408H39.732C43.5909 44.1408 43.7305 44.1341 43.9232 43.9415C44.1149 43.75 44.1225 43.6095 44.1225 40.3125V36.8827L43.8599 36.6762C43.6192 36.4871 43.4647 36.4697 42.0157 36.4697H40.4342V34.2392C40.4342 32.1917 40.4186 31.9894 40.2438 31.7735L40.0533 31.5383L34.4123 31.511L28.7713 31.4837V30.2408V28.9979H30.5981C32.3786 28.9979 32.4303 28.9921 32.6416 28.7674C32.8552 28.5401 32.8583 28.4894 32.8583 25.1763V21.8159L32.6136 21.5714L32.369 21.3269H27.9738H23.5787L23.3341 21.5714ZM31.3631 25.1624V27.5036H27.9738H24.5846V25.1624V22.8212H27.9738H31.3631V25.1624ZM19.2017 40.3053V42.6464H16.261H13.3204V40.3053V37.9641H16.261H19.2017V40.3053ZM30.9643 40.3053V42.6464H27.9738H24.9833V40.3053V37.9641H27.9738H30.9643V40.3053ZM42.6273 40.3053V42.6464H39.6866H36.746V40.3053V37.9641H39.6866H42.6273V40.3053Z" fill="url(#paint0_linear_982_9852)"/>
<defs>
<linearGradient id="paint0_linear_982_9852" x1="4" y1="52" x2="53.6544" y2="50.2227" gradientUnits="userSpaceOnUse">
<stop stop-color="#0071BC"/>
<stop offset="1" stop-color="#00C0F3"/>
</linearGradient>
</defs>
</svg>
