<svg width="56" height="56" viewBox="0 0 56 56" fill="none" xmlns="http://www.w3.org/2000/svg">
<path fill-rule="evenodd" clip-rule="evenodd" d="M6.02183 4.19348C5.2661 4.48857 4.70468 5.01281 4.33036 5.77291L4 6.44365V22.4562V38.4687L4.26509 39.0339C4.58805 39.7224 5.14406 40.2962 5.80619 40.6243L6.30254 40.8703L12.2888 40.8983L18.275 40.9263L18.5708 40.6308C18.8865 40.3152 18.959 39.8793 18.7583 39.5044C18.5052 39.0319 18.3393 39.0192 12.3875 39.0176C8.12145 39.0165 6.74473 38.9866 6.55582 38.8911C6.41987 38.8223 6.20583 38.6136 6.08029 38.4275L5.85204 38.0889V25.3454V12.6019H26.1244H46.3968V20.0279V27.4539L43.4685 24.5447C40.1339 21.2318 40.1713 21.2575 38.686 21.2575C37.9233 21.2575 37.7616 21.2925 37.1635 21.5869C36.4163 21.9548 35.9045 22.4804 35.567 23.2268C35.3356 23.7387 35.2857 23.7703 34.973 23.603C34.2829 23.2339 32.9105 23.321 32.0461 23.7891C31.0802 24.312 30.279 25.5425 30.279 26.5031V26.8882L29.7422 26.9551C28.5994 27.0979 27.2948 28.0419 26.9595 28.9685C26.8911 29.1579 26.81 29.3128 26.7792 29.3128C26.7486 29.3128 25.6202 28.2063 24.2716 26.8542C21.6892 24.2647 21.3595 24.0101 20.3443 23.8225C18.4335 23.4694 16.5738 24.879 16.3143 26.8771C16.2364 27.4767 16.4495 28.4463 16.7817 29.0044C16.899 29.2015 19.7466 32.1209 23.1096 35.4918C26.4726 38.8628 29.1897 41.6208 29.1476 41.6208C29.1056 41.6208 28.4797 41.4802 27.7568 41.3085C26.1373 40.9236 25.3013 40.9365 24.4362 41.3595C23.721 41.7093 22.9493 42.5503 22.6777 43.276C22.398 44.0229 22.3973 45.1206 22.676 45.8649C22.9138 46.5004 23.6121 47.3231 24.2089 47.671C24.7119 47.9643 34.3268 51.3251 35.4995 51.6176C41.1489 53.0264 47.1885 50.4539 50.1894 45.3606C53.0283 40.5421 52.486 34.2523 48.8637 29.9843L48.303 29.3237L48.2759 17.8836L48.2488 6.44355L47.9185 5.77291C47.5386 5.00171 46.9767 4.48347 46.2011 4.18888C45.7065 4.00106 45.2031 3.99635 26.0983 4.00096C7.1739 4.00546 6.48624 4.01206 6.02183 4.19348ZM45.8347 6.10643C46.3515 6.51279 46.3968 6.72933 46.3968 8.79438V10.7006H26.1244H5.85204V8.79438C5.85204 6.72933 5.89729 6.51279 6.41416 6.10643L6.67996 5.89749H26.1244H45.5689L45.8347 6.10643ZM8.90091 7.64413C8.3469 8.19779 8.79909 9.19964 9.60308 9.19964C10.1169 9.19964 10.4571 8.84101 10.4571 8.29906C10.4571 7.73579 10.1197 7.39847 9.55613 7.39847C9.2548 7.39847 9.08171 7.46331 8.90091 7.64413ZM12.3539 7.65424C12.0015 8.02928 12.0193 8.63958 12.3921 8.96009C12.7915 9.30351 13.2927 9.2827 13.6684 8.90715C14.0414 8.53421 14.0529 8.12334 13.7018 7.70637C13.3528 7.2918 12.7176 7.26728 12.3539 7.65424ZM15.8085 7.64413C15.4609 7.99146 15.4692 8.57854 15.8266 8.93587C16.4082 9.51705 17.3647 9.10969 17.3647 8.28085C17.3647 7.73689 17.0193 7.39847 16.4637 7.39847C16.1624 7.39847 15.9893 7.46331 15.8085 7.64413ZM22.6619 7.52675C22.1949 7.88519 22.151 8.49559 22.5628 8.90715L22.8554 9.19964H32.9319H43.0084L43.3011 8.90715C43.6835 8.5249 43.703 7.99896 43.3479 7.64413L43.1022 7.39847L32.9615 7.40167C25.1478 7.40407 22.7843 7.43279 22.6619 7.52675ZM18.9024 18.2515C18.5322 18.5108 18.4465 18.9065 18.4824 20.1904C18.5131 21.2888 18.5361 21.4135 18.7508 21.6416C19.0503 21.9599 19.4198 22.0518 19.7875 21.8996C20.2684 21.7005 20.3681 21.3665 20.3681 19.954C20.3681 18.6908 20.368 18.6903 20.0754 18.3979C19.7452 18.0678 19.2527 18.0064 18.9024 18.2515ZM11.3469 18.5557C11.0201 18.7333 10.8126 19.2123 10.9034 19.5795C10.9469 19.7551 11.6769 20.5646 12.8967 21.7896C14.6293 23.5297 14.8611 23.728 15.2172 23.7754C15.5238 23.8164 15.6739 23.78 15.8844 23.6142C16.2044 23.3621 16.3351 22.8342 16.1619 22.4938C15.9964 22.1688 12.5729 18.726 12.2391 18.549C11.9039 18.3713 11.6833 18.3729 11.3469 18.5557ZM39.4328 23.2625C39.9463 23.5061 47.4619 31.1263 48.0645 32.0145C49.4546 34.0631 50.1009 36.1424 50.1009 38.5667C50.1009 40.0216 49.918 41.1697 49.4928 42.3834C47.5143 48.031 41.6125 51.2034 35.7851 49.7519C34.7465 49.4931 25.2492 46.1433 24.9731 45.9384C24.5621 45.6332 24.3295 45.1367 24.3295 44.5641C24.3295 43.6166 25.052 42.9027 26.007 42.9067C26.2367 42.9076 27.7256 43.2266 29.3154 43.6155C30.9053 44.0043 32.3165 44.3225 32.4516 44.3225C32.8429 44.3225 33.2823 43.8118 33.2823 43.3568C33.2823 42.9861 33.0858 42.7794 25.7808 35.469C17.6582 27.3402 18.0381 27.772 18.2086 26.8641C18.2959 26.3987 18.8217 25.8619 19.3432 25.7057C20.2615 25.4307 20.0067 25.2163 26.6988 31.8952C32.688 37.8727 32.7854 37.9639 33.1754 37.9639C33.7348 37.9639 34.0832 37.6226 34.0832 37.0746C34.0832 36.6741 34.034 36.6169 31.5779 34.1651C30.2001 32.7897 28.956 31.4968 28.8134 31.292C28.1198 30.2966 28.8767 28.8124 30.078 28.8124C30.7509 28.8124 31.1017 29.0943 33.8954 31.8793C36.5321 34.5079 36.6782 34.6362 37.0365 34.6362C37.5645 34.6362 37.9329 34.258 37.9329 33.7157C37.9329 33.3254 37.8637 33.2459 35.1188 30.4886C32.9469 28.3069 32.2769 27.5745 32.1829 27.2799C31.8292 26.1709 32.7903 25.0842 33.9694 25.2599C34.4164 25.3266 34.5414 25.4362 37.3438 28.2215C40.1212 30.9818 40.2712 31.1139 40.6301 31.1139C41.3296 31.1139 41.7909 30.3908 41.4799 29.7815C41.4186 29.6613 40.433 28.6173 39.2897 27.4615C37.5241 25.6766 37.201 25.3039 37.1446 24.9864C37.0183 24.2774 37.3632 23.597 38.0376 23.2252C38.3281 23.065 39.0575 23.0845 39.4328 23.2625ZM11.0907 26.1565C10.7128 26.3208 10.5561 26.5789 10.5604 27.0297C10.5639 27.3989 10.6993 27.6215 11.0262 27.7955C11.3072 27.9451 13.6993 27.9518 13.976 27.8038C14.0872 27.7442 14.2425 27.5416 14.3212 27.3535C14.5226 26.8716 14.3081 26.3619 13.8176 26.1571C13.3555 25.9641 11.5341 25.9637 11.0907 26.1565ZM21.2019 39.165C20.8217 39.3303 20.6684 39.5858 20.6684 40.0543C20.6684 40.4784 21.1281 40.9203 21.5694 40.9203C22.0107 40.9203 22.4704 40.4784 22.4704 40.0543C22.4704 39.5775 22.3151 39.3279 21.915 39.1607C21.5166 38.9944 21.5953 38.9939 21.2019 39.165Z" fill="url(#paint0_linear_982_9848)"/>
<defs>
<linearGradient id="paint0_linear_982_9848" x1="4" y1="52" x2="53.6544" y2="50.2227" gradientUnits="userSpaceOnUse">
<stop stop-color="#0071BC"/>
<stop offset="1" stop-color="#00C0F3"/>
</linearGradient>
</defs>
</svg>
