<svg width="56" height="56" viewBox="0 0 56 56" fill="none" xmlns="http://www.w3.org/2000/svg">
<path fill-rule="evenodd" clip-rule="evenodd" d="M4.26971 4.17916L4.04837 4.35841L4.02287 10.1639C3.99756 15.934 3.99859 15.971 4.19378 16.2191C4.4468 16.5408 4.93831 16.5622 5.21656 16.2635C5.40424 16.0621 5.40771 15.9627 5.40771 10.7323V5.40625H15.5793H25.7508V19.878V34.3497L25.9452 34.5967C26.1991 34.9196 26.665 34.9335 26.9532 34.6268L27.157 34.4098V19.435V4.46022L26.9269 4.23016L26.6968 4H15.5939C4.80247 4 4.48477 4.00506 4.26971 4.17916ZM29.0746 4.23016L28.8445 4.46022V17.6756C28.8445 24.944 28.8707 30.9592 28.9027 31.0427C29.0701 31.4791 28.7915 31.4688 40.4131 31.4688C48.2179 31.4688 51.4001 31.439 51.5634 31.3647C51.689 31.3074 51.8387 31.1578 51.8959 31.0322C51.9685 30.8729 52 29.106 52 25.1957C52 19.6643 51.9974 19.5844 51.8057 19.3408C51.5547 19.0217 51.0621 19.0015 50.7849 19.299C50.5973 19.5003 50.5938 19.6001 50.5938 24.7833V30.0625H40.4222H30.2507V17.7344V5.40625H40.4222H50.5938V11.2948C50.5938 17.0913 50.5968 17.1866 50.7849 17.3885C51.0631 17.6871 51.5547 17.6658 51.8076 17.3443C52.0029 17.096 52.0037 17.066 51.9784 10.7267L51.9531 4.35841L51.7318 4.17916C51.5167 4.00506 51.1991 4 40.4076 4H29.3047L29.0746 4.23016ZM32.69 8.24453C32.215 8.48669 32.218 8.44628 32.243 14.1459L32.2662 19.4636L32.4798 19.6772L32.6934 19.8906H40.4222H48.1511L48.3647 19.6771L48.5782 19.4635V14.0312V8.599L48.3647 8.38544L48.1512 8.17188L40.5368 8.14891C34.5474 8.13091 32.8729 8.15125 32.69 8.24453ZM47.1762 9.64909C47.2011 9.71397 47.2104 11.1766 47.1968 12.8993L47.172 16.0317L45.2033 14.2697C44.1206 13.3007 43.1429 12.4656 43.0307 12.4139C42.9184 12.3622 42.7286 12.3453 42.6088 12.3764C42.489 12.4074 41.8003 12.9608 41.0785 13.6062C40.3566 14.2516 39.7449 14.7788 39.7191 14.7778C39.6934 14.7768 39.2504 14.3975 38.7348 13.9351C37.7517 13.0532 37.4934 12.9123 37.1576 13.0751C37.0454 13.1295 36.2153 13.8361 35.313 14.6453L33.6724 16.1165L33.6477 12.9417C33.6341 11.1955 33.6434 9.71387 33.6682 9.64909C33.7345 9.47622 47.11 9.47631 47.1762 9.64909ZM10.0241 9.92716C9.72035 10.0737 9.60139 10.5867 9.63982 11.5856C9.67142 12.4081 9.68754 12.4662 9.94422 12.6869C10.1472 12.8614 10.2766 12.9047 10.4598 12.8589C10.9267 12.7425 11.0325 12.5579 11.0325 11.8605V11.2188H12.9543H14.8762V15.3906V19.5625H14.092C13.4405 19.5625 13.266 19.5954 13.0607 19.7568C12.7191 20.0255 12.7191 20.5057 13.0607 20.7744C13.2952 20.9589 13.4232 20.9688 15.5793 20.9688C17.7354 20.9688 17.8633 20.9589 18.0978 20.7744C18.4394 20.5057 18.4394 20.0255 18.0978 19.7568C17.8926 19.5954 17.718 19.5625 17.0666 19.5625H16.2824V15.3906V11.2188H18.2042H20.126V11.7874C20.126 12.4493 20.2303 12.6918 20.5708 12.8212C20.8922 12.9434 21.285 12.7838 21.4263 12.4736C21.4846 12.3458 21.5322 11.8403 21.5322 11.3503C21.5322 10.4249 21.4057 9.98575 21.1061 9.87072C20.8254 9.763 10.2529 9.81691 10.0241 9.92716ZM39.0094 9.98997C37.6678 10.5993 37.5319 12.4439 38.7664 13.2897C39.0391 13.4766 39.2118 13.5156 39.766 13.5156C40.5153 13.5156 40.922 13.3181 41.2929 12.7741C42.3459 11.2292 40.6999 9.22216 39.0094 9.98997ZM40.0066 11.3158C40.2121 11.4258 40.2536 11.8655 40.0754 12.0438C39.8993 12.2198 39.5561 12.1759 39.4034 11.958C39.251 11.7403 39.2914 11.5168 39.5158 11.3359C39.6926 11.1935 39.7719 11.1903 40.0066 11.3158ZM44.9708 15.9297C47.8766 18.5021 47.8826 18.5312 45.5088 18.5312H43.8865L42.3888 17.1918C41.565 16.4551 40.891 15.8109 40.891 15.7604C40.891 15.6567 42.6299 14.043 42.7493 14.0358C42.7917 14.0333 43.7914 14.8855 44.9708 15.9297ZM39.5978 16.5859L41.7194 18.4844L37.7897 18.5088C35.6284 18.5223 33.8044 18.512 33.7365 18.486C33.3937 18.3544 33.7292 17.9536 35.5272 16.3458C36.5473 15.4337 37.4031 14.6875 37.4291 14.6875C37.455 14.6875 38.431 15.5417 39.5978 16.5859ZM4.19499 18.2167L4 18.4648L4.02419 35.0532L4.04837 51.6416L4.26971 51.8208C4.48477 51.9949 4.80182 52 15.5939 52H26.6968L26.9269 51.7698L27.157 51.5398L27.154 44.1527C27.1517 38.2408 27.1267 36.7336 27.0292 36.6052C26.7488 36.236 26.1595 36.2355 25.8795 36.6041C25.781 36.7337 25.7562 38.1308 25.7538 43.6797L25.7508 50.5938H15.5793H5.40771V34.4865C5.40771 18.4061 5.40742 18.3787 5.21656 18.174C4.93906 17.876 4.4468 17.8967 4.19499 18.2167ZM32.7317 21.808C32.2495 22.0035 32.1168 22.6456 32.4954 22.9521C32.699 23.117 33.065 23.125 40.392 23.125C45.2242 23.125 48.1386 23.091 48.2465 23.0332C48.5003 22.8974 48.632 22.448 48.4971 22.1777C48.2653 21.7126 48.4204 21.7212 40.4222 21.7261C36.2974 21.7286 32.8366 21.7654 32.7317 21.808ZM7.7316 23.534C7.36243 23.8145 7.36186 24.4038 7.73048 24.6838C7.95885 24.8573 23.1897 24.8656 23.4153 24.6923C23.7101 24.4659 23.8079 24.1636 23.6834 23.8629C23.6204 23.7109 23.4931 23.546 23.4005 23.4964C23.2964 23.4408 20.2989 23.4074 15.562 23.4093C9.41802 23.4116 7.86013 23.4364 7.7316 23.534ZM32.7317 25.3696C32.2762 25.5563 32.1311 26.1434 32.4526 26.4988C32.6212 26.685 32.7259 26.6875 40.3795 26.6875C47.7774 26.6875 48.1455 26.6795 48.3491 26.5146C48.631 26.2863 48.6348 25.8118 48.3569 25.5338L48.1512 25.3281L40.5368 25.3097C36.3489 25.2997 32.8366 25.3266 32.7317 25.3696ZM7.77979 27.081C7.3509 27.2882 7.36186 28.1477 7.79554 28.3141C8.07837 28.4226 23.2127 28.3853 23.4178 28.2755C23.8674 28.0349 23.8252 27.2913 23.3495 27.0747C23.0324 26.9301 8.07931 26.9362 7.77979 27.081ZM7.71454 30.7422C7.37546 31.0469 7.35296 31.4453 7.65764 31.75C7.84213 31.9345 7.97009 31.9375 15.5386 31.9375C20.7822 31.9375 23.2912 31.9058 23.4178 31.838C23.8674 31.5974 23.8252 30.8538 23.3495 30.6372C23.1829 30.5613 20.97 30.5312 15.5332 30.5312H7.94938L7.71454 30.7422ZM29.3464 33.1274C29.2358 33.149 29.067 33.2532 28.9714 33.3588C28.8052 33.5425 28.7964 33.932 28.7705 42.2833C28.7555 47.0861 28.7681 51.1529 28.7983 51.3207C28.8284 51.4885 28.9435 51.7099 29.054 51.8129C29.2524 51.9977 29.3917 52 40.3335 52C51.3996 52 51.4125 51.9998 51.6592 51.8057L51.9063 51.6114V42.6121C51.9063 36.9212 51.8725 33.5496 51.8145 33.4412C51.764 33.3468 51.589 33.2231 51.4255 33.1661C51.2143 33.0925 48.0049 33.0662 40.338 33.0752C34.4032 33.0823 29.457 33.1057 29.3464 33.1274ZM7.88872 34.1821C7.41389 34.3767 7.28565 35.0301 7.66242 35.3352C7.85291 35.4895 8.36186 35.5 15.622 35.5C23.2756 35.5 23.3803 35.4975 23.5489 35.3113C23.783 35.0526 23.7665 34.599 23.5139 34.3463L23.3082 34.1406L15.6938 34.1222C11.506 34.1122 7.99363 34.1391 7.88872 34.1821ZM50.5 42.5312V50.5938H40.3285H30.1569V42.5938C30.1569 38.1937 30.1851 34.5656 30.2195 34.5313C30.2538 34.4969 34.831 34.4688 40.391 34.4688H50.5V42.5312ZM39.3441 35.3775C36.5882 35.8407 34.4056 37.665 33.5065 40.2568C33.2652 40.9522 33.2148 41.2583 33.1775 42.2535C33.1273 43.5907 33.3035 44.5185 33.815 45.6117C35.7719 49.7936 41.2063 51.0953 44.8054 48.2443C46.4448 46.9456 47.4453 45.027 47.5654 42.9514C47.7724 39.3719 45.3069 36.1895 41.7621 35.461C41.096 35.3241 39.906 35.283 39.3441 35.3775ZM41.5472 36.8593C44.6552 37.5096 46.7125 40.6525 46.0577 43.75C45.5993 45.9185 43.8517 47.713 41.7113 48.2131C40.7648 48.4341 39.3124 48.357 38.4178 48.0381C36.1688 47.2365 34.7036 45.2668 34.584 42.8842C34.5255 41.7187 34.6639 41.0059 35.1442 40C35.4519 39.3556 35.6704 39.0592 36.286 38.4511C37.7602 36.9948 39.5732 36.4462 41.5472 36.8593ZM7.97206 37.7203C7.4827 37.8181 7.26915 38.4976 7.60964 38.8738C7.77819 39.0601 7.88282 39.0625 15.5793 39.0625C23.2757 39.0625 23.3803 39.0601 23.5489 38.8738C23.783 38.6151 23.7665 38.1615 23.5139 37.9088L23.3082 37.7031L15.7408 37.6917C11.5786 37.6853 8.08268 37.6982 7.97206 37.7203ZM39.8508 39.9159C39.7081 40.0735 39.6658 40.2897 39.6397 40.994L39.6073 41.875H38.8134C38.3767 41.875 37.9358 41.9197 37.8335 41.9745C37.3651 42.2252 37.4458 43.0019 37.9587 43.1807C38.1174 43.236 38.5572 43.2812 38.9362 43.2812H39.6254V43.9704C39.6254 44.3494 39.6696 44.7866 39.7238 44.9418C39.8934 45.4284 40.4509 45.5433 40.8675 45.1775C41.0016 45.0598 41.0316 44.8748 41.0316 44.1664V43.2993L41.9125 43.2669C42.9256 43.2295 43.1878 43.0886 43.1878 42.5815C43.1878 42.0228 43.0271 41.9272 42.0004 41.875L41.0785 41.8281L41.0316 40.9062C40.9924 40.1347 40.955 39.9626 40.8028 39.8515C40.5315 39.6537 40.0594 39.6857 39.8508 39.9159ZM7.60964 41.5012C7.37555 41.7599 7.39205 42.2135 7.6446 42.4662L7.85029 42.6719H15.5793H23.3081L23.5139 42.4662C23.7665 42.2135 23.783 41.7599 23.5489 41.5012C23.3803 41.3149 23.2757 41.3125 15.5793 41.3125C7.88282 41.3125 7.77819 41.3149 7.60964 41.5012ZM7.66242 45.0398C7.38474 45.2646 7.37639 45.7605 7.64582 46.0298L7.85038 46.2344H15.5793H23.3081L23.5139 46.0287C23.7665 45.776 23.783 45.3224 23.5489 45.0637C23.3803 44.8775 23.2756 44.875 15.622 44.875C8.36186 44.875 7.85291 44.8855 7.66242 45.0398Z" fill="url(#paint0_linear_982_9864)"/>
<defs>
<linearGradient id="paint0_linear_982_9864" x1="4" y1="52" x2="53.6544" y2="50.2227" gradientUnits="userSpaceOnUse">
<stop stop-color="#0071BC"/>
<stop offset="1" stop-color="#00C0F3"/>
</linearGradient>
</defs>
</svg>
