<svg width="56" height="56" viewBox="0 0 56 56" fill="none" xmlns="http://www.w3.org/2000/svg">
<path fill-rule="evenodd" clip-rule="evenodd" d="M5.35767 4.23632C4.79426 4.52044 4.44968 4.89377 4.19324 5.49812C4.00291 5.94646 4.00225 6.02997 4.00113 28L4 50.0518L4.22156 50.5519C4.48794 51.1528 4.83795 51.5204 5.40455 51.7939C5.82517 51.997 5.89408 51.9976 28.0011 51.9988L50.1758 52L50.6446 51.7637C51.208 51.4796 51.5526 51.1062 51.809 50.5019C51.9993 50.0534 52 49.9713 52 28C52 6.02867 51.9993 5.94656 51.809 5.49812C51.5526 4.89377 51.208 4.52044 50.6446 4.23632L50.1758 4H28.0011H5.82648L5.35767 4.23632ZM50.0673 5.70914C50.1929 5.77025 50.3426 5.92986 50.3999 6.06387C50.5482 6.4111 50.5482 49.5889 50.3999 49.9361C50.3426 50.0701 50.1929 50.2298 50.0673 50.2909C49.7417 50.4491 6.2606 50.4491 5.93496 50.2909C5.80932 50.2298 5.65968 50.0701 5.60239 49.9361C5.5271 49.7599 5.49831 43.6606 5.49831 27.9089V6.12548L5.74547 5.86176L5.99272 5.59813H27.9157C43.783 5.59813 49.9019 5.62884 50.0673 5.70914ZM8.72887 9.04392C8.58373 9.19863 8.49869 9.40365 8.49869 9.59847C8.49869 9.79328 8.58373 9.9983 8.72887 10.153L8.95896 10.3985H28.0011H47.0433L47.2734 10.153C47.5779 9.82829 47.5779 9.36865 47.2734 9.04392L47.0433 8.7984H28.0011H8.95896L8.72887 9.04392ZM8.72887 12.2442C8.58373 12.3989 8.49869 12.6039 8.49869 12.7987C8.49869 12.9935 8.58373 13.1986 8.72887 13.3533L8.95896 13.5988H22.0004H35.0418L35.2719 13.3533C35.5764 13.0286 35.5764 12.5689 35.2719 12.2442L35.0418 11.9987H22.0004H8.95896L8.72887 12.2442ZM11.3695 16.9039C10.7762 17.0629 9.93174 17.5959 9.52181 18.0703C9.31132 18.3139 9.00547 18.8139 8.84232 19.1813C8.57398 19.7854 8.54557 19.9402 8.54557 20.7994C8.54557 21.6586 8.57398 21.8134 8.84232 22.4175C9.244 23.3219 9.78566 23.9221 10.5851 24.3487C10.9469 24.5417 11.3006 24.6997 11.371 24.6997C11.4742 24.6997 11.4991 25.0297 11.4991 26.3999C11.4991 27.7701 11.4742 28.1 11.371 28.1C11.3006 28.1 10.9469 28.258 10.5851 28.451C9.78566 28.8777 9.244 29.4778 8.84232 30.3822C8.57398 30.9863 8.54557 31.1412 8.54557 32.0003C8.54557 32.8595 8.57398 33.0143 8.84232 33.6185C9.244 34.5228 9.78566 35.123 10.5851 35.5496C10.9469 35.7426 11.3006 35.9007 11.371 35.9007C11.4742 35.9007 11.4991 36.2306 11.4991 37.6008C11.4991 38.971 11.4742 39.3009 11.371 39.3009C11.3006 39.3009 10.9469 39.459 10.5851 39.652C9.78566 40.0786 9.244 40.6788 8.84232 41.5831C8.5736 42.1881 8.54557 42.3414 8.54557 43.2065C8.54557 44.108 8.56526 44.2042 8.89577 44.9174C9.31751 45.8277 9.86039 46.3946 10.7321 46.8351C11.2985 47.1213 11.4436 47.1516 12.2492 47.1516C13.0547 47.1516 13.1998 47.1213 13.7662 46.8351C14.6379 46.3946 15.1808 45.8277 15.6025 44.9174C15.9331 44.2042 15.9527 44.108 15.9527 43.2065C15.9527 42.3414 15.9247 42.1881 15.656 41.5831C15.2543 40.6788 14.7127 40.0786 13.9132 39.652C13.5514 39.459 13.1977 39.3009 13.1273 39.3009C13.0241 39.3009 12.9993 38.971 12.9993 37.6008C12.9993 36.2306 13.0241 35.9007 13.1273 35.9007C13.1977 35.9007 13.5514 35.7426 13.9132 35.5496C14.7127 35.123 15.2543 34.5228 15.656 33.6185C15.9243 33.0143 15.9527 32.8595 15.9527 32.0003C15.9527 31.1412 15.9243 30.9863 15.656 30.3822C15.2543 29.4778 14.7127 28.8777 13.9132 28.451C13.5514 28.258 13.1977 28.1 13.1273 28.1C13.0241 28.1 12.9993 27.7701 12.9993 26.3999C12.9993 25.0297 13.0241 24.6997 13.1273 24.6997C13.1977 24.6997 13.5514 24.5417 13.9132 24.3487C14.7127 23.9221 15.2543 23.3219 15.656 22.4175C15.9247 21.8126 15.9527 21.6593 15.9527 20.7942C15.9527 19.8926 15.9331 19.7965 15.6025 19.0833C14.969 17.7158 13.8434 16.9135 12.46 16.8433C12.0604 16.823 11.5697 16.8503 11.3695 16.9039ZM12.9415 18.5208C13.4565 18.6831 14.2332 19.5116 14.3854 20.0609C14.6451 20.9986 14.462 21.7462 13.7994 22.4529C12.8508 23.4647 11.6475 23.4647 10.6989 22.4529C9.75031 21.4412 9.75031 20.1587 10.6989 19.1448C11.3566 18.4417 12.0651 18.2446 12.9415 18.5208ZM19.2302 20.2449C19.085 20.3996 19 20.6046 19 20.7994C19 20.9942 19.085 21.1992 19.2302 21.3539L19.4603 21.5995H27.251H35.0418L35.2719 21.3539C35.417 21.1992 35.5021 20.9942 35.5021 20.7994C35.5021 20.6046 35.417 20.3996 35.2719 20.2449L35.0418 19.9993H27.251H19.4603L19.2302 20.2449ZM37.2324 20.2449C37.0873 20.3996 37.0023 20.6046 37.0023 20.7994C37.0023 20.9942 37.0873 21.1992 37.2324 21.3539L37.4625 21.5995H42.2529H47.0433L47.2734 21.3539C47.4185 21.1992 47.5036 20.9942 47.5036 20.7994C47.5036 20.6046 47.4185 20.3996 47.2734 20.2449L47.0433 19.9993H42.2529H37.4625L37.2324 20.2449ZM12.9415 29.7217C13.7473 29.9757 14.4994 31.0758 14.4994 32.0003C14.4994 33.2395 13.411 34.4005 12.2492 34.4005C11.6594 34.4005 11.1845 34.1718 10.6989 33.6539C9.75031 32.6421 9.75031 31.3597 10.6989 30.3457C11.3566 29.6426 12.0651 29.4455 12.9415 29.7217ZM19.2302 31.4458C19.085 31.6005 19 31.8055 19 32.0003C19 32.1952 19.085 32.4002 19.2302 32.5549L19.4603 32.8004H28.7512H38.0422L38.2723 32.5549C38.4174 32.4002 38.5024 32.1952 38.5024 32.0003C38.5024 31.8055 38.4174 31.6005 38.2723 31.4458L38.0422 31.2003H28.7512H19.4603L19.2302 31.4458ZM40.2328 31.4458C40.0877 31.6005 40.0026 31.8055 40.0026 32.0003C40.0026 32.1952 40.0877 32.4002 40.2328 32.5549L40.4629 32.8004H43.7531H47.0433L47.2734 32.5549C47.4185 32.4002 47.5036 32.1952 47.5036 32.0003C47.5036 31.8055 47.4185 31.6005 47.2734 31.4458L47.0433 31.2003H43.7531H40.4629L40.2328 31.4458ZM12.9415 40.9227C13.7473 41.1766 14.4994 42.2767 14.4994 43.2013C14.4994 44.4405 13.411 45.6015 12.2492 45.6015C11.6594 45.6015 11.1845 45.3727 10.6989 44.8548C9.75031 43.843 9.75031 42.5606 10.6989 41.5466C11.3566 40.8436 12.0651 40.6465 12.9415 40.9227ZM19.2302 42.6467C19.085 42.8014 19 43.0065 19 43.2013C19 43.3961 19.085 43.6011 19.2302 43.7558L19.4603 44.0013H22.7505H26.0407L26.2708 43.7558C26.4159 43.6011 26.5009 43.3961 26.5009 43.2013C26.5009 43.0065 26.4159 42.8014 26.2708 42.6467L26.0407 42.4012H22.7505H19.4603L19.2302 42.6467ZM28.2313 42.6467C28.0862 42.8014 28.0011 43.0065 28.0011 43.2013C28.0011 43.3961 28.0862 43.6011 28.2313 43.7558L28.4614 44.0013H37.7523H47.0433L47.2734 43.7558C47.4185 43.6011 47.5036 43.3961 47.5036 43.2013C47.5036 43.0065 47.4185 42.8014 47.2734 42.6467L47.0433 42.4012H37.7523H28.4614L28.2313 42.6467Z" fill="url(#paint0_linear_982_9856)"/>
<defs>
<linearGradient id="paint0_linear_982_9856" x1="4" y1="52" x2="53.6544" y2="50.2227" gradientUnits="userSpaceOnUse">
<stop stop-color="#0071BC"/>
<stop offset="1" stop-color="#00C0F3"/>
</linearGradient>
</defs>
</svg>
