<svg width="56" height="56" viewBox="0 0 56 56" fill="none" xmlns="http://www.w3.org/2000/svg">
<path fill-rule="evenodd" clip-rule="evenodd" d="M4.2324 4.2324L4.00227 4.46245V7.42382V10.3852L4.2324 10.6152C4.4512 10.8341 4.51775 10.8454 5.59165 10.8454H6.72076V17.7353V24.6253H5.56531C3.873 24.6253 4.00227 24.345 4.00227 28.0131V30.967L4.21919 31.1709C4.41745 31.3571 4.53472 31.3747 5.57843 31.3747H6.72076V38.2647V45.1546H5.59165C4.51775 45.1546 4.4512 45.1659 4.2324 45.3848L4.00227 45.6148V48.5762V51.5376L4.2324 51.7676L4.46245 51.9977H7.42382H10.3852L10.6152 51.7676C10.8341 51.5488 10.8454 51.4822 10.8454 50.4083V49.2792H17.7353H24.6253V50.4347C24.6253 52.127 24.345 51.9977 28.0131 51.9977H30.967L31.1709 51.7808C31.3571 51.5826 31.3747 51.4653 31.3747 50.4216V49.2792H38.2647H45.1546V50.4083C45.1546 51.4822 45.1659 51.5488 45.3848 51.7676L45.6148 51.9977H48.5762H51.5376L51.7676 51.7676L51.9977 51.5376V48.5762V45.6148L51.7676 45.3848C51.5488 45.1659 51.4822 45.1546 50.4083 45.1546H49.2792V38.2647V31.3747H50.4347C52.127 31.3747 51.9977 31.655 51.9977 27.9869V25.033L51.7808 24.8291C51.5826 24.6428 51.4653 24.6253 50.4216 24.6253H49.2792V17.7353V10.8454H50.4083C51.4822 10.8454 51.5488 10.8341 51.7676 10.6152L51.9977 10.3852V7.42382V4.46245L51.7676 4.2324L51.5376 4.00227H48.5762H45.6148L45.3848 4.2324C45.1659 4.4512 45.1546 4.51775 45.1546 5.59165V6.72076H38.2647H31.3747V5.56531C31.3747 3.873 31.655 4.00227 27.9869 4.00227H25.033L24.8291 4.21919C24.6428 4.41745 24.6253 4.53472 24.6253 5.57843V6.72076H17.7353H10.8454V5.59165C10.8454 4.51775 10.8341 4.4512 10.6152 4.2324L10.3852 4.00227H7.42382H4.46245L4.2324 4.2324ZM9.43926 7.42382V9.43926H7.42382H5.40839V7.42382V5.40839H7.42382H9.43926V7.42382ZM29.9686 7.42382V9.43926H28H26.0314V7.42382V5.40839H28H29.9686V7.42382ZM50.5916 7.42382V9.43926H48.5762H46.5607V7.42382V5.40839H48.5762H50.5916V7.42382ZM24.6253 9.2918C24.6253 10.9645 24.3665 10.8454 28 10.8454C31.6335 10.8454 31.3747 10.9645 31.3747 9.2918V8.12688H38.2647H45.1546V9.25599C45.1546 10.3299 45.1659 10.3964 45.3848 10.6152C45.6035 10.8341 45.6701 10.8454 46.744 10.8454H47.8731V17.7353V24.6253H46.7082C45.0355 24.6253 45.1546 24.3665 45.1546 28C45.1546 31.6335 45.0355 31.3747 46.7082 31.3747H47.8731V38.2647V45.1546H46.744C45.6701 45.1546 45.6035 45.1659 45.3848 45.3848C45.1659 45.6035 45.1546 45.6701 45.1546 46.744V47.8731H38.2647H31.3747V46.7082C31.3747 45.0355 31.6335 45.1546 28 45.1546C24.3665 45.1546 24.6253 45.0355 24.6253 46.7082V47.8731H17.7353H10.8454V46.744C10.8454 45.6701 10.8341 45.6035 10.6152 45.3848C10.3964 45.1659 10.3299 45.1546 9.25599 45.1546H8.12688V38.2647V31.3747H9.2918C10.9645 31.3747 10.8454 31.6335 10.8454 28C10.8454 24.3665 10.9645 24.6253 9.2918 24.6253H8.12688V17.7353V10.8454H9.25599C10.3299 10.8454 10.3964 10.8341 10.6152 10.6152C10.8341 10.3964 10.8454 10.3299 10.8454 9.25599V8.12688H17.7353H24.6253V9.2918ZM16.4698 13.6303C16.3925 13.6588 16.2555 13.7464 16.1652 13.8249C16.0153 13.9555 16.0011 14.2284 16.0011 16.9836V19.9993L16.2181 20.2032C16.4332 20.4053 16.4659 20.407 20.1083 20.407H23.7816V30.7696V41.1323L24.0118 41.3623L24.2418 41.5925H27.2032H30.1646L30.3946 41.3623L30.6248 41.1323V34.6598V28.1875H31.4216H32.2184V34.6988V41.2102L32.4235 41.4013C32.6183 41.5828 32.7438 41.5925 34.9077 41.5925C37.0617 41.5925 37.1969 41.5822 37.3741 41.405C37.558 41.2211 37.5616 41.0925 37.5616 34.7025V28.1875H40.2206C42.7686 28.1875 42.8898 28.1794 43.1265 27.9932L43.3735 27.7989V25.5048V23.2107L43.1434 22.9806L42.9134 22.7505H39.577H36.2407L36.0106 22.9806C35.7173 23.2739 35.7173 23.6333 36.0106 23.9265L36.2407 24.1566H39.1041H41.9674V25.469V26.7814L39.3192 26.7844C36.4681 26.7875 36.4412 26.792 36.2529 27.2873C36.189 27.4554 36.1555 29.7181 36.1555 33.8649V40.1863H34.89H33.6245V33.8073C33.6245 27.0554 33.6212 27.0018 33.1984 26.8396C33.115 26.8076 31.869 26.7814 30.4296 26.7814H27.8125V25.469V24.1566H30.7116H33.6109L33.8051 23.9096C34.0629 23.582 34.0505 23.2618 33.7693 22.9806C33.5448 22.756 33.5042 22.7505 32.082 22.7505H30.6248V21.5787V20.407H34.3112H37.9976L38.2015 20.1901C38.4018 19.9767 38.4053 19.9232 38.4053 17.0132C38.4053 14.2386 38.394 14.0395 38.226 13.8321L38.0469 13.6107H33.2495H28.4521L28.273 13.8321C28.0303 14.1317 28.0458 14.5174 28.3107 14.7662C28.5268 14.9692 28.5435 14.97 32.7634 14.97H36.9991V16.9854V19.0009H33.339H29.6788L29.4488 19.231C29.2219 19.4577 29.2186 19.4845 29.2186 21.1058V22.7505H28.0427C26.919 22.7505 26.8564 22.7607 26.6365 22.9806L26.4064 23.2107V25.469V27.7273L26.6365 27.9573C26.8564 28.1773 26.919 28.1875 28.0427 28.1875H29.2186V34.1869V40.1863H27.2032H25.1878V29.8237V19.461L24.9576 19.231L24.7276 19.0009H21.0674H17.4073V16.9854V14.97H21.6656H25.9241L26.1183 14.723C26.4343 14.3213 26.3615 13.9236 25.9309 13.701C25.7083 13.5859 24.939 13.5651 21.1381 13.5713C18.6479 13.5753 16.5472 13.6019 16.4698 13.6303ZM9.43926 28V29.9686H7.42382H5.40839V28V26.0314H7.42382H9.43926V28ZM50.5916 28V29.9686H48.5762H46.5607V28V26.0314H48.5762H50.5916V28ZM12.5754 27.0115C12.4488 27.138 12.3452 27.3508 12.3452 27.4844C12.3452 27.618 12.4488 27.8308 12.5754 27.9573L12.8054 28.1875H17.2884C22.1541 28.1875 22.0956 28.1936 22.2262 27.6733C22.2947 27.4002 22.0847 26.9274 21.8557 26.8396C21.7723 26.8076 19.7018 26.7814 17.2547 26.7814H12.8054L12.5754 27.0115ZM12.5754 30.3862C12.4488 30.5127 12.3452 30.6794 12.3452 30.7566C12.3452 31.0201 12.553 31.3538 12.7818 31.4581C13.1045 31.6051 21.5261 31.6034 21.8492 31.4562C22.3248 31.2396 22.3671 30.4961 21.9175 30.2555C21.794 30.1894 20.2352 30.156 17.2685 30.156H12.8054L12.5754 30.3862ZM12.5396 33.7777C12.2865 34.0993 12.2943 34.3047 12.5714 34.6269L12.7977 34.89H17.3135H21.8293L22.0624 34.619C22.3164 34.3237 22.3036 34.0033 22.0256 33.6948C21.8886 33.5428 21.5412 33.5307 17.3058 33.5307H12.7338L12.5396 33.7777ZM12.7543 36.9213C12.5547 37.018 12.3452 37.3657 12.3452 37.6002C12.3452 37.6682 12.4327 37.8349 12.5396 37.9708L12.7338 38.2178H17.3058C22.3499 38.2178 22.0837 38.2493 22.2372 37.6342C22.2888 37.4275 22.2469 37.3248 22.0173 37.0952L21.7338 36.8117L17.3442 36.818C14.5256 36.8221 12.8829 36.8591 12.7543 36.9213ZM12.6371 40.3504C12.5285 40.4406 12.4136 40.6488 12.3819 40.8129C12.3354 41.0536 12.3708 41.1579 12.5649 41.3519L12.8054 41.5925H17.2685C20.2352 41.5925 21.794 41.5591 21.9175 41.493C22.3671 41.2524 22.3248 40.5089 21.8492 40.2923C21.687 40.2183 20.2896 40.1863 17.2258 40.1863C13.1816 40.1863 12.8191 40.1993 12.6371 40.3504ZM9.43926 48.5762V50.5916H7.42382H5.40839V48.5762V46.5607H7.42382H9.43926V48.5762ZM29.9686 48.5762V50.5916H28H26.0314V48.5762V46.5607H28H29.9686V48.5762ZM50.5916 48.5762V50.5916H48.5762H46.5607V48.5762V46.5607H48.5762H50.5916V48.5762Z" fill="url(#paint0_linear_982_9866)"/>
<defs>
<linearGradient id="paint0_linear_982_9866" x1="4" y1="52" x2="53.6544" y2="50.2227" gradientUnits="userSpaceOnUse">
<stop stop-color="#0071BC"/>
<stop offset="1" stop-color="#00C0F3"/>
</linearGradient>
</defs>
</svg>
