<svg width="56" height="56" viewBox="0 0 56 56" fill="none" xmlns="http://www.w3.org/2000/svg">
<path fill-rule="evenodd" clip-rule="evenodd" d="M10.5155 4.09705C7.44303 4.61483 5.03554 6.82408 4.18253 9.90865C3.92298 10.8473 3.94354 12.8155 4.22309 13.7918C4.60979 15.1423 5.29481 16.3172 6.25346 17.2745C7.51956 18.5387 9.02247 19.2624 10.8995 19.5118L11.6903 19.6168L13.31 22.4208C14.3126 24.1564 15.0131 25.2709 15.1486 25.3459C15.3025 25.4312 15.837 25.4682 16.9503 25.4705C18.258 25.4733 18.5246 25.4963 18.4834 25.6035C17.8638 27.2159 17.6262 29.2679 17.8626 30.9654C18.0793 32.5208 18.7739 34.3266 19.6537 35.6213C20.3271 36.6124 21.5969 37.843 22.6368 38.5124L23.576 39.117L23.58 40.6747L23.5839 42.2325L21.6443 43.3471C20.5775 43.9601 19.6754 44.4736 19.6396 44.4882C19.6039 44.5028 19.5479 44.1441 19.5151 43.6912C19.3785 41.8032 18.5866 40.0705 17.2508 38.7365C16.2921 37.7793 15.1155 37.0952 13.7631 36.7091C12.7854 36.43 10.8142 36.4094 9.87427 36.6686C7.00882 37.4588 4.97385 39.4908 4.18253 42.3521C3.9473 43.2027 3.9473 45.2519 4.18253 46.1024C5.31894 50.2117 9.23836 52.6773 13.2969 51.8358C15.889 51.2985 18.0091 49.5217 19.0018 47.0548L19.2391 46.4651L22.0454 44.8459C23.9175 43.7657 24.8902 43.1514 24.9676 43.0003C25.0452 42.8487 25.084 42.2752 25.0849 41.2648L25.0864 39.7558L25.908 39.99C26.6434 40.1997 26.9122 40.2252 28.4669 40.2332C30.3358 40.2428 30.8531 40.1654 32.2397 39.6683C33.1082 39.357 33.6967 39.061 34.5082 38.5271L35.1501 38.1048L36.1633 39.1134L37.1766 40.122L37.1296 40.706C37.0949 41.1372 37.1242 41.3774 37.2412 41.6235C37.403 41.964 43.0735 47.5163 43.501 47.753C43.8001 47.9185 44.6578 47.9175 44.975 47.7513C45.3885 47.5346 47.6036 45.2342 47.7611 44.858C47.8401 44.6691 47.9048 44.3875 47.9048 44.2321C47.9048 43.5434 47.6904 43.2869 44.6804 40.3749C41.5033 37.3011 41.2734 37.1285 40.4954 37.2316L40.0615 37.2891L38.9541 36.1803L37.8467 35.0717L38.2257 34.3133C39.0372 32.6893 39.3149 31.4309 39.3069 29.412C39.3023 28.2513 39.2603 27.7943 39.0984 27.1422C38.3709 24.2141 36.6242 21.8064 34.148 20.3184C32.8619 19.5455 31.2201 18.9688 29.9905 18.8579C29.6432 18.8267 29.2981 18.7816 29.2236 18.7578C29.1337 18.7291 29.416 18.3865 30.0672 17.7341L31.0458 16.7535H34.6199H38.194L38.7533 17.2959C39.7367 18.2497 40.9038 18.9229 42.2316 19.302C42.8408 19.4759 43.2036 19.5139 44.2426 19.5125C45.9898 19.5101 47.1022 19.1887 48.5109 18.2792C50.0621 17.2777 51.236 15.6624 51.7716 13.7918C52.0761 12.7285 52.0761 10.8391 51.7716 9.77578C51.3765 8.3958 50.6948 7.23909 49.6924 6.24741C48.1319 4.70353 45.9728 3.89592 43.773 4.03319C40.3684 4.24567 37.6071 6.53068 36.673 9.90865C36.4145 10.843 36.434 12.8158 36.7112 13.7832C36.8268 14.1867 37.006 14.6824 37.1094 14.885L37.2976 15.2532H33.85H30.4026L28.5661 17.0724L26.7297 18.8916L25.9644 19.0815C23.4499 19.7054 21.1001 21.3116 19.7339 23.3401L19.3113 23.9676L17.6211 23.969L15.9308 23.9704L14.6322 21.7134C13.9181 20.4719 13.3476 19.444 13.3645 19.429C13.3815 19.4141 13.649 19.3292 13.9589 19.2404C16.4565 18.5242 18.5354 16.3963 19.2807 13.7934C19.5857 12.7284 19.5859 10.8398 19.2812 9.77578C18.886 8.3958 18.2044 7.23909 17.202 6.24741C15.4749 4.53869 12.8686 3.7006 10.5155 4.09705ZM13.6845 5.81983C15.5478 6.4146 17.111 7.97132 17.7307 9.84929C17.9447 10.4977 17.9833 10.78 17.9887 11.7369C17.9936 12.574 17.9513 13.0062 17.8236 13.4247C17.6211 14.0887 17.1262 15.1594 17.022 15.1594C16.9818 15.1594 16.8467 14.9379 16.7219 14.6671C16.4448 14.0663 15.1825 12.7714 14.5542 12.4435L14.1166 12.215L14.3967 11.8085C14.8423 11.1618 14.9736 10.6588 14.9253 9.78375C14.8721 8.8201 14.5989 8.25047 13.872 7.58697C12.6523 6.47395 10.8478 6.48052 9.61613 7.60253C8.90632 8.24925 8.63193 8.82554 8.57916 9.78028C8.53052 10.6606 8.68855 11.2647 9.1176 11.8393L9.38682 12.1998L8.90265 12.4737C8.22815 12.8553 7.06244 14.0613 6.7827 14.6671C6.65772 14.9379 6.5225 15.1594 6.4823 15.1594C6.37807 15.1594 5.8832 14.0887 5.68066 13.4247C5.4058 12.5236 5.449 10.8329 5.77202 9.85426C6.48897 7.68186 8.31022 6.0866 10.6318 5.59723C11.3645 5.44279 12.8404 5.55044 13.6845 5.81983ZM46.1749 5.81983C48.0382 6.4146 49.6014 7.97132 50.2211 9.84929C50.4351 10.4977 50.4737 10.78 50.4791 11.7369C50.484 12.574 50.4418 13.0062 50.314 13.4247C50.1115 14.0887 49.6166 15.1594 49.5124 15.1594C49.4722 15.1594 49.3372 14.9379 49.2123 14.6671C48.9353 14.0663 47.6729 12.7714 47.0446 12.4435L46.607 12.215L46.8871 11.8085C47.3327 11.1618 47.464 10.6588 47.4157 9.78375C47.3625 8.8201 47.0893 8.25047 46.3624 7.58697C45.1427 6.47395 43.3382 6.48052 42.1065 7.60253C41.3967 8.24925 41.1224 8.82554 41.0696 9.78028C41.0209 10.6606 41.179 11.2647 41.608 11.8393L41.8772 12.1998L41.3931 12.4737C40.7186 12.8553 39.5529 14.0613 39.2731 14.6671C39.1481 14.9379 39.0129 15.1594 38.9727 15.1594C38.8685 15.1594 38.3736 14.0887 38.1711 13.4247C37.8962 12.5236 37.9394 10.8329 38.2624 9.85426C38.9794 7.68186 40.8006 6.0866 43.1222 5.59723C43.8549 5.44279 45.3308 5.55044 46.1749 5.81983ZM12.7284 8.57256C13.2165 8.91612 13.4424 9.36208 13.4424 9.98197C13.4424 10.5398 13.3039 10.8673 12.9108 11.2386C12.2608 11.8528 11.2435 11.8528 10.5935 11.2386C10.2029 10.8698 10.0619 10.5404 10.0619 9.99763C10.0619 9.19236 10.5196 8.54433 11.253 8.31123C11.6807 8.17526 12.3264 8.28966 12.7284 8.57256ZM45.2189 8.57256C45.7069 8.91612 45.9328 9.36208 45.9328 9.98197C45.9328 10.5398 45.7943 10.8673 45.4012 11.2386C44.7512 11.8528 43.7339 11.8528 43.0839 11.2386C42.6933 10.8698 42.5523 10.5404 42.5523 9.99763C42.5523 9.19236 43.01 8.54433 43.7435 8.31123C44.1711 8.17526 44.8168 8.28966 45.2189 8.57256ZM12.683 13.3348C13.4799 13.5224 14.1283 13.8829 14.7062 14.4597C15.2104 14.9629 15.6699 15.7667 15.7542 16.2927C15.8037 16.6019 15.7838 16.627 15.17 17.0285C14.8205 17.2571 14.1726 17.5722 13.7302 17.7287C12.9984 17.9878 12.8202 18.0134 11.7521 18.0134C10.6841 18.0134 10.5059 17.9878 9.77407 17.7287C9.3317 17.5722 8.68377 17.2571 8.33426 17.0285C7.72051 16.627 7.7006 16.6019 7.75009 16.2927C7.83019 15.7928 8.28355 14.9795 8.74753 14.5032C9.29282 13.9436 9.95465 13.56 10.7192 13.3604C11.4837 13.1609 11.9198 13.1552 12.683 13.3348ZM45.1734 13.3348C45.9701 13.5223 46.6185 13.8828 47.1967 14.4595C47.6835 14.9452 48.1651 15.7955 48.2486 16.3173C48.2932 16.5956 48.2588 16.6371 47.6604 17.0285C47.3109 17.2571 46.663 17.5722 46.2206 17.7287C45.4888 17.9878 45.3106 18.0134 44.2426 18.0134C43.1745 18.0134 42.9963 17.9878 42.2645 17.7287C41.8221 17.5722 41.1742 17.2571 40.8247 17.0285C40.2109 16.627 40.191 16.6019 40.2405 16.2927C40.3206 15.7928 40.774 14.9795 41.2379 14.5032C41.7832 13.9436 42.4451 13.56 43.2096 13.3604C43.9741 13.1609 44.4103 13.1552 45.1734 13.3348ZM30.8318 20.5412C36.1626 21.8915 39.1643 27.5494 37.2916 32.7173C36.2826 35.5018 33.8245 37.7388 30.9083 38.5263C30.2271 38.7103 29.8832 38.7419 28.5608 38.7419C26.7398 38.7419 25.9717 38.5796 24.5549 37.8954C20.3672 35.8733 18.3142 31.1507 19.7062 26.7419C20.642 23.778 23.0947 21.4077 26.0687 20.593C27.6197 20.1681 29.2872 20.1499 30.8318 20.5412ZM27.4809 21.7273C24.1501 22.243 21.5172 24.7162 20.847 27.9587C20.127 31.4428 21.836 34.941 25.0394 36.5405C26.3877 37.2137 26.927 37.3354 28.5608 37.3354C30.1902 37.3354 30.7258 37.2146 32.0821 36.5416C34.1829 35.4993 35.5766 33.7638 36.2353 31.3698C36.4881 30.4505 36.4615 28.473 36.1831 27.4978C35.2243 24.1399 32.3636 21.855 28.9024 21.6827C28.4304 21.6593 27.7908 21.6792 27.4809 21.7273ZM30.2041 23.376C31.2137 23.6357 32.1927 24.2146 33.0294 25.0467C34.2508 26.2615 34.8226 27.5276 34.9158 29.2245C34.9801 30.3936 34.7934 31.2719 34.248 32.3657C33.5025 33.861 32.3188 34.9172 30.6992 35.532C29.9578 35.8136 29.8604 35.827 28.5608 35.827C27.2611 35.827 27.1638 35.8136 26.4223 35.532C24.8031 34.9173 23.6194 33.8613 22.8732 32.3657C20.9358 28.4825 23.3259 23.9232 27.6687 23.2178C28.2825 23.1181 29.4957 23.1938 30.2041 23.376ZM30.844 25.4745C30.7312 25.5199 30.5939 25.641 30.5388 25.7437C30.4733 25.866 30.4388 27.1212 30.4388 29.3895V32.8487L30.6561 33.0526C30.9264 33.3061 31.3762 33.317 31.6726 33.0772L31.8943 32.898V29.3653V25.8327L31.6308 25.6063C31.3533 25.368 31.1808 25.339 30.844 25.4745ZM27.6241 27.3468C27.5221 27.4487 27.4145 27.6285 27.3848 27.7465C27.3551 27.8644 27.3435 29.0719 27.3589 30.4296C27.387 32.8954 27.3873 32.8985 27.6087 33.0774C27.9164 33.3261 28.3849 33.3088 28.6383 33.0395C28.8378 32.8274 28.8425 32.7629 28.8425 30.2222V27.6219L28.6119 27.3918C28.3286 27.1088 27.8828 27.0885 27.6241 27.3468ZM24.5657 29.3609C24.3386 29.5876 24.3351 29.6155 24.3351 31.2199C24.3351 32.8013 24.3414 32.8547 24.5524 33.0526C24.8226 33.306 25.2724 33.317 25.5689 33.0775C25.7823 32.9052 25.7918 32.8429 25.8209 31.4231C25.8376 30.6117 25.8259 29.8473 25.795 29.7244C25.6477 29.1382 24.9848 28.9423 24.5657 29.3609ZM38.8694 38.2754C38.8839 38.3282 38.7468 38.5156 38.5647 38.6919L38.2336 39.0122L37.2707 38.0815C36.7411 37.5696 36.2894 37.1387 36.2669 37.1241C36.2445 37.1095 36.3894 36.9305 36.589 36.7264L36.9519 36.3552L37.8975 37.2673C38.4176 37.7689 38.855 38.2225 38.8694 38.2754ZM13.6845 38.2633C15.5478 38.8581 17.111 40.4148 17.7307 42.2928C17.9447 42.9412 17.9833 43.2235 17.9887 44.1804C17.9936 45.0174 17.9513 45.4496 17.8236 45.8682C17.6242 46.5219 17.1269 47.6029 17.0254 47.6029C16.9872 47.6029 16.8433 47.3734 16.7055 47.0931C16.3757 46.4217 15.3826 45.3812 14.6833 44.9745L14.1241 44.6492L14.4005 44.2473C14.8425 43.6046 14.9735 43.1001 14.9253 42.2272C14.8721 41.2636 14.5989 40.6939 13.872 40.0304C12.6523 38.9174 10.8478 38.924 9.61613 40.046C8.90632 40.6927 8.63193 41.269 8.57916 42.2237C8.53052 43.104 8.68855 43.7082 9.1176 44.2828L9.38682 44.6433L8.90265 44.9172C8.22815 45.2987 7.06244 46.5048 6.7827 47.1106C6.65772 47.3813 6.5225 47.6029 6.4823 47.6029C6.37807 47.6029 5.8832 46.5322 5.68066 45.8682C5.4058 44.9671 5.449 43.2764 5.77202 42.2977C6.48897 40.1253 8.31022 38.5301 10.6318 38.0407C11.3645 37.8863 12.8404 37.9939 13.6845 38.2633ZM43.6295 41.4497L46.4438 44.1977L45.4136 45.2903C44.847 45.8912 44.3256 46.3831 44.2549 46.3833C44.1107 46.384 38.6084 41.0665 38.6084 40.9266C38.6084 40.8018 40.6061 38.6955 40.7212 38.6988C40.7728 38.7003 42.0816 39.9383 43.6295 41.4497ZM12.7284 41.016C13.2165 41.3596 13.4424 41.8055 13.4424 42.4254C13.4424 43.4157 12.7321 44.1335 11.7521 44.1335C11.0967 44.1335 10.5045 43.77 10.1944 43.1771C10.0157 42.8355 10.0269 42.032 10.216 41.6341C10.3869 41.2744 10.848 40.8834 11.253 40.7547C11.6807 40.6187 12.3264 40.7331 12.7284 41.016ZM12.683 45.7783C13.4797 45.9658 14.1281 46.3262 14.7062 46.9029C15.1931 47.3886 15.6747 48.239 15.7581 48.7607C15.8027 49.039 15.7684 49.0806 15.17 49.472C14.8205 49.7006 14.1726 50.0157 13.7302 50.1722C12.9984 50.4313 12.8202 50.4569 11.7521 50.4569C10.6841 50.4569 10.5059 50.4313 9.77407 50.1722C9.3317 50.0157 8.68377 49.7006 8.33426 49.472C7.72051 49.0704 7.7006 49.0454 7.75009 48.7362C7.83019 48.2363 8.28355 47.4229 8.74753 46.9467C9.29282 46.3871 9.95465 46.0035 10.7192 45.8039C11.4837 45.6043 11.9198 45.5987 12.683 45.7783Z" fill="url(#paint0_linear_982_9870)"/>
<defs>
<linearGradient id="paint0_linear_982_9870" x1="4" y1="52" x2="53.6544" y2="50.2227" gradientUnits="userSpaceOnUse">
<stop stop-color="#0071BC"/>
<stop offset="1" stop-color="#00C0F3"/>
</linearGradient>
</defs>
</svg>
