<svg width="56" height="56" viewBox="0 0 56 56" fill="none" xmlns="http://www.w3.org/2000/svg">
<path fill-rule="evenodd" clip-rule="evenodd" d="M8.33878 4.15767C6.34702 4.59042 4.58602 6.36876 4.16026 8.3774C3.94658 9.38507 3.94658 36.9967 4.16026 38.0044C4.60171 40.0871 6.46105 41.8913 8.55446 42.2683C9.64854 42.4653 9.61046 42.4896 9.61046 41.5961V40.817L8.96103 40.7058C8.60373 40.6446 8.10991 40.4971 7.86355 40.3778C7.27069 40.0908 6.49153 39.3804 6.17211 38.8355C5.59244 37.8467 5.61273 38.3619 5.61273 24.6187V12.0001H27.2005H48.7882V11.2008V10.4014H27.2005H5.61273V9.77295C5.61273 8.23522 6.26846 7.00373 7.51265 6.20459C8.50109 5.56971 7.28208 5.60538 28 5.60538C48.4077 5.60538 47.4708 5.5815 48.3827 6.12426C48.8844 6.42291 49.4493 6.97775 49.7879 7.50482C50.4148 8.48032 50.3873 7.76061 50.3873 23.1909C50.3873 38.6652 50.4174 37.8968 49.7712 38.9036C49.1458 39.8779 48.1894 40.5088 47.039 40.7058L46.3895 40.817V41.5961V42.3751L46.6644 42.3734C47.2597 42.3696 48.3251 42.0671 49.0137 41.7062C50.4064 40.9763 51.5186 39.5194 51.8397 38.0044C52.0534 36.9967 52.0534 9.38507 51.8397 8.3774C51.4089 6.34458 49.6479 4.58402 47.6145 4.15328C46.6365 3.94605 9.29364 3.95035 8.33878 4.15767ZM8.81091 8.00341V8.80275H9.61046H10.41V8.00341V7.20407H9.61046H8.81091V8.00341ZM12.0091 8.00341V8.80275H12.8086H13.6082V8.00341V7.20407H12.8086H12.0091V8.00341ZM15.2073 8.00341V8.80275H16.0068H16.8064V8.00341V7.20407H16.0068H15.2073V8.00341ZM18.4055 8.00341V8.80275H24.0023H29.5991V8.00341V7.20407H24.0023H18.4055V8.00341ZM24.8456 13.6892C24.3632 13.8098 23.5097 14.3109 23.2389 14.6327C23.103 14.7941 22.8706 15.1558 22.7225 15.4366L22.4532 15.9469V32.783V49.6192L22.7225 50.1294C23.1214 50.8855 23.4226 51.1967 24.1221 51.5758L24.7518 51.9173H28H31.2482L31.7696 51.6425C32.4317 51.2936 32.923 50.8024 33.272 50.1404L33.5468 49.6192V32.783V15.9469L33.2775 15.4366C32.8786 14.6805 32.5774 14.3694 31.8779 13.9902L31.2482 13.6488L28.1999 13.6308C26.5233 13.6209 25.0139 13.6472 24.8456 13.6892ZM43.1914 14.5476C41.5566 14.8766 40.3098 15.5762 39.1365 16.8232C37.805 18.2381 36.9578 20.3562 36.8293 22.5914C36.7617 23.7662 36.8986 24.509 37.3451 25.3899L37.6003 25.8934L37.9968 38.3059C38.2149 45.1326 38.3935 50.7515 38.3937 50.7922C38.3945 50.9434 39.4653 51.5621 40.0931 51.7743C40.984 52.0752 42.2005 52.0752 43.0914 51.7743C43.8081 51.5321 44.7899 50.9361 44.7915 50.7422C44.7921 50.6741 44.9701 45.0629 45.1874 38.2729L45.5823 25.9276L45.8854 25.2799C46.2946 24.4059 46.4245 23.6357 46.3561 22.4915C46.2784 21.1944 46.0811 20.3278 45.422 18.3884C44.8023 16.5653 44.7975 16.4666 45.2969 15.8386C45.5536 15.5156 45.5982 15.3862 45.552 15.0976C45.4685 14.5746 45.1849 14.3963 44.4545 14.4075C44.1171 14.4127 43.5487 14.4758 43.1914 14.5476ZM14.7214 15.4723C14.5188 15.6647 13.9488 16.8419 12.8194 19.4008L11.2068 23.0546L11.2331 36.6945L11.2595 50.3343L11.5619 50.8234C11.7494 51.1265 12.0505 51.4275 12.3537 51.6149L12.8429 51.9173H15.2073H17.5716L18.0609 51.6149C18.3641 51.4275 18.6651 51.1265 18.8526 50.8234L19.155 50.3343L19.1814 36.6958L19.2078 23.0573L17.7429 19.7519C15.8023 15.373 15.837 15.4431 15.5472 15.3111C15.177 15.1424 15.0404 15.1691 14.7214 15.4723ZM31.3417 15.5354C31.8088 15.8918 31.9977 16.3259 31.9977 17.0428V17.5955H30.3986H28.7995V18.3949V19.1942H30.3986H31.9977V19.9935V20.7929H31.1982H30.3986V21.5922V22.3916H31.1982H31.9977V23.1909V23.9903H31.1982H30.3986V24.7896V25.5889H31.1982H31.9977V26.3883V27.1876H30.3986H28.7995V27.987V28.7863H30.3986H31.9977V29.5856V30.385H31.1982H30.3986V31.1843V31.9837H31.1982H31.9977V32.783V33.5824H31.1982H30.3986V34.3817V35.181H31.1982H31.9977V35.9804V36.7797H30.3986H28.7995V37.5791V38.3784H30.3986H31.9977V39.1777V39.9771H31.1982H30.3986V40.7764V41.5758H31.1982H31.9977V42.3751V43.1745H31.1982H30.3986V43.9738V44.7731H31.1982H31.9977V45.5725V46.3718H30.3986H28.7995V47.1712V47.9705H30.4099H32.0203L31.9809 48.6667C31.9389 49.4106 31.7841 49.721 31.2598 50.1125C30.9989 50.3075 30.8319 50.3202 28.15 50.348C24.9647 50.3809 24.8335 50.3589 24.3403 49.7125L24.0522 49.335L24.0237 33.0406C24.0079 24.0787 24.021 16.6014 24.0526 16.4244C24.1241 16.0249 24.5433 15.5144 24.9467 15.3358C25.184 15.2307 25.8851 15.206 28.1079 15.2241L30.9643 15.2474L31.3417 15.5354ZM43.3797 16.954C43.4416 17.3706 43.6997 18.3456 43.953 19.1207C44.5059 20.812 44.6824 21.7354 44.687 22.9623C44.6928 24.4941 44.1703 25.4327 42.9624 26.0598C42.5159 26.2917 42.3208 26.3302 41.5923 26.3302C40.8678 26.3302 40.6676 26.2912 40.2323 26.065C39.48 25.6742 39.166 25.3714 38.7856 24.6698C38.4523 24.0554 38.4444 24.0137 38.4571 22.9411C38.4935 19.8589 40.1444 17.2047 42.5404 16.3764C42.816 16.2811 43.0922 16.2018 43.1542 16.2C43.2188 16.1981 43.3152 16.5204 43.3797 16.954ZM16.2164 20.2191L17.1756 22.3416L15.2774 22.3688C14.2335 22.3838 13.365 22.3816 13.3473 22.364C13.3036 22.3202 15.1447 18.0952 15.2073 18.0959C15.2348 18.0962 15.6889 19.0516 16.2164 20.2191ZM17.6059 34.7814V45.5725H16.8064H16.0068V35.5807V25.5889H15.2073H14.4077V35.5807V45.5725H13.6082H12.8086V34.7814V23.9903H15.2073H17.6059V34.7814ZM41.5923 27.928C42.4971 27.928 42.7288 27.8919 43.2746 27.666L43.9075 27.404L43.8441 28.9195C43.8092 29.753 43.6476 34.8125 43.4851 40.1629C43.3226 45.5133 43.1656 49.9297 43.1362 49.9773C43.0455 50.1239 42.0804 50.3685 41.5923 50.3685C41.1045 50.3685 40.139 50.1239 40.0485 49.9775C40.0192 49.9301 39.8621 45.5361 39.6992 40.2131C39.5364 34.8901 39.3743 29.8302 39.3391 28.969L39.2749 27.4031L39.9088 27.6655C40.4558 27.8919 40.687 27.928 41.5923 27.928ZM17.6059 48.5246C17.6059 49.8284 17.5969 49.887 17.3606 50.1232C17.1173 50.3665 17.0998 50.3685 15.2073 50.3685C13.3148 50.3685 13.2973 50.3665 13.054 50.1232C12.8176 49.887 12.8086 49.8284 12.8086 48.5246V47.1712H15.2073H17.6059V48.5246Z" fill="url(#paint0_linear_982_9858)"/>
<defs>
<linearGradient id="paint0_linear_982_9858" x1="4" y1="52" x2="53.6544" y2="50.2227" gradientUnits="userSpaceOnUse">
<stop stop-color="#0071BC"/>
<stop offset="1" stop-color="#00C0F3"/>
</linearGradient>
</defs>
</svg>
