<svg width="56" height="56" viewBox="0 0 56 56" fill="none" xmlns="http://www.w3.org/2000/svg">
<path fill-rule="evenodd" clip-rule="evenodd" d="M5.96947 4.20725C5.25615 4.48105 4.4728 5.27424 4.20275 5.99609L4 6.53788V27.852C4 43.4165 4.02868 49.2904 4.10639 49.6269C4.34091 50.6429 5.34951 51.6515 6.3655 51.886C7.0238 52.038 48.9686 52.038 49.6269 51.886C50.6429 51.6515 51.6515 50.6429 51.886 49.6269C52.038 48.9686 52.038 7.0238 51.886 6.3655C51.6515 5.34951 50.6429 4.34091 49.6269 4.10639C49.2965 4.03009 45.9074 4 37.6541 4C26.5461 4 26.1346 4.00619 25.9257 4.17538C25.6247 4.41909 25.6247 4.98694 25.9257 5.23065C26.1346 5.39984 26.5486 5.40612 37.6848 5.40809C48.6844 5.41006 49.2449 5.41821 49.6022 5.58234C50.0482 5.78716 50.248 5.99619 50.4422 6.46092C50.5605 6.7441 50.5864 7.28579 50.5864 9.48051V12.155H27.9911H5.39572L5.42431 9.36634C5.45224 6.64399 5.45805 6.56947 5.66849 6.2309C5.78716 6.04024 6.04024 5.78716 6.2309 5.66849L6.57772 5.4529L14.4364 5.40603L22.2951 5.35916L22.4742 5.13785C22.7178 4.83696 22.6992 4.50608 22.4232 4.23012L22.1932 4L14.3385 4.00487C6.58231 4.00975 6.47752 4.01228 5.96947 4.20725ZM8.45242 6.81777C8.29776 6.86314 8.01684 7.02802 7.82815 7.18419C6.57697 8.21921 7.0089 10.2592 8.57559 10.7146C10.1287 11.1662 11.5411 9.75375 11.0896 8.20065C10.7667 7.08961 9.60377 6.47986 8.45242 6.81777ZM13.6712 6.82499C13.2442 6.94807 12.5673 7.6463 12.4438 8.09145C12.1161 9.27148 12.7043 10.3889 13.8248 10.7146C15.3779 11.1662 16.7903 9.75375 16.3387 8.20065C16.0121 7.07686 14.8598 6.48258 13.6712 6.82499ZM19.0445 6.78309C18.3317 6.93251 17.5897 7.95066 17.5937 8.77384C17.5999 10.0702 18.828 11.0363 20.1061 10.7503C20.514 10.659 20.7098 10.5455 21.0556 10.1997C22.5718 8.68348 21.1887 6.33382 19.0445 6.78309ZM9.62261 8.37809C10.0965 8.98062 9.35556 9.7216 8.75303 9.24767C8.58047 9.11194 8.49929 8.96037 8.49929 8.77365C8.49929 8.16109 9.24524 7.89835 9.62261 8.37809ZM14.8718 8.37809C15.3457 8.98062 14.6047 9.7216 14.0022 9.24767C13.8296 9.11194 13.7485 8.96037 13.7485 8.77365C13.7485 8.16109 14.4944 7.89835 14.8718 8.37809ZM20.1156 8.37134C20.353 8.67308 20.3614 8.88642 20.1459 9.1411C19.7536 9.60471 18.9976 9.36278 18.9976 8.77365C18.9976 8.16634 19.7433 7.89798 20.1156 8.37134ZM50.5843 31.3941C50.5824 48.4981 50.5752 49.2426 50.4101 49.6022C50.2053 50.0482 49.9962 50.248 49.5315 50.4422C49.2243 50.5706 46.8544 50.5862 27.9758 50.5843C7.59437 50.5824 6.75057 50.5755 6.39025 50.4101C5.94426 50.2053 5.74441 49.9962 5.55019 49.5315C5.42215 49.2251 5.40603 47.1914 5.40603 31.3737V13.561H27.9962H50.5864L50.5843 31.3941ZM10.0365 16.3194C9.58503 16.516 9.47142 17.064 9.81158 17.4041C9.98387 17.5764 10.124 17.5916 11.5457 17.5916C12.9674 17.5916 13.1075 17.5764 13.2798 17.4041C13.6365 17.0474 13.4827 16.4621 12.9866 16.2892C12.5582 16.1398 10.3982 16.1621 10.0365 16.3194ZM15.0045 16.3194C14.5506 16.517 14.4455 17.0239 14.7832 17.3864C14.9649 17.5815 15.0507 17.5916 16.5173 17.5916C17.9353 17.5916 18.0755 17.5764 18.2478 17.4041C18.6045 17.0474 18.4507 16.4621 17.9545 16.2892C17.5262 16.1398 15.3661 16.1621 15.0045 16.3194ZM20.0622 16.2742C19.8239 16.3755 19.56 16.7273 19.56 16.9437C19.56 17.0284 19.6475 17.2088 19.7544 17.3446L19.9486 17.5916H21.5208C22.9773 17.5916 23.1055 17.5777 23.2637 17.4029C23.4977 17.1444 23.4813 16.6907 23.2289 16.4381C23.0382 16.2473 22.9237 16.2309 21.6432 16.2106C20.8841 16.1986 20.1727 16.2272 20.0622 16.2742ZM25.1236 16.2448C24.6392 16.3532 24.4205 17.0264 24.751 17.3917C24.8921 17.5475 25.0908 17.5742 26.3836 17.6113C27.2221 17.6353 27.9436 17.6148 28.0601 17.5635C28.3113 17.4531 28.5038 17.0183 28.4194 16.7524C28.2883 16.3392 27.9698 16.2462 26.6037 16.2222C25.9003 16.2099 25.2342 16.22 25.1236 16.2448ZM35.8093 16.2765C34.7827 16.4334 33.8066 17.1723 33.3561 18.1334L33.1048 18.6696L33.0742 22.8408C33.0409 27.4131 33.0664 27.7157 33.5546 28.5357C33.9089 29.1306 34.4099 29.5497 35.1118 29.8385C35.5786 30.0305 35.7911 30.0542 37.0651 30.0561C38.3713 30.0582 38.5108 30.0422 38.682 29.8709C38.9346 29.6184 38.9297 29.1108 38.6725 28.8778C38.5031 28.7243 38.2799 28.6927 37.0864 28.6524C36.3224 28.6266 35.6722 28.5802 35.6414 28.5492C35.5737 28.4809 40.4629 24.1366 40.5657 24.1738C40.6056 24.1881 41.7358 25.1688 43.0774 26.3528C44.6735 27.7616 45.4775 28.5306 45.4035 28.5776C45.3413 28.6171 44.6366 28.6508 43.8375 28.6523C42.2846 28.6554 42.0052 28.7185 41.8095 29.1112C41.6747 29.3815 41.8063 29.8308 42.0602 29.9666C42.1545 30.0171 42.9499 30.0584 43.8278 30.0584C45.2126 30.0584 45.4926 30.0327 45.9427 29.8643C46.6685 29.5927 47.3944 28.9047 47.7364 28.1641L48.0087 27.5744L48.0366 23.4232C48.0606 19.8748 48.043 19.1874 47.9159 18.6895C47.6564 17.6739 47.0997 17.0155 46.0871 16.5266L45.4778 16.2324L40.8848 16.2175C38.3586 16.2094 36.0747 16.2359 35.8093 16.2765ZM7.62324 17.7088C7.24314 18.2134 7.09326 18.8173 7.09326 19.8445C7.09326 20.9187 7.21681 21.1535 7.78175 21.1535C8.3077 21.1535 8.43677 20.9127 8.50107 19.8119C8.53753 19.1893 8.61215 18.7526 8.71554 18.5571C8.93282 18.1464 8.91454 17.8497 8.65733 17.6079C8.32522 17.296 7.90313 17.3371 7.62324 17.7088ZM45.3554 17.7331C45.4887 17.8124 45.1226 18.174 43.0776 19.9827C41.7374 21.168 40.6083 22.1494 40.5684 22.1635C40.4776 22.1958 35.5696 17.8606 35.6294 17.8009C35.7868 17.6435 36.7947 17.6084 40.7442 17.6225C43.5408 17.6326 45.2557 17.6736 45.3554 17.7331ZM29.3883 17.7912C29.1047 17.895 28.8767 18.3507 28.9847 18.5976C29.0245 18.6887 29.0843 19.2992 29.1175 19.9541C29.1873 21.3305 29.2821 21.5285 29.8709 21.5285C30.4757 21.5285 30.575 21.3168 30.5678 20.0418C30.5604 18.7114 30.3765 18.0389 29.9612 17.8242C29.8136 17.7478 29.6801 17.6887 29.6647 17.6927C29.6492 17.6968 29.5249 17.7411 29.3883 17.7912ZM46.6415 23.1689C46.6445 25.4824 46.6098 27.2578 46.5601 27.3363C46.4848 27.4553 46.4513 27.4537 46.3037 27.3239C44.2503 25.518 41.7 23.2481 41.6717 23.2011C41.6514 23.1674 42.7314 22.1685 44.0718 20.9816C46.0049 19.2699 46.5221 18.8562 46.5727 18.981C46.6077 19.0675 46.6387 20.952 46.6415 23.1689ZM37.0482 21.0178C38.3592 22.1805 39.4319 23.1484 39.4319 23.1689C39.4319 23.1893 38.3522 24.1636 37.0324 25.3339C35.1998 26.9591 34.6133 27.4308 34.5499 27.3306C34.4579 27.1854 34.4302 19.2884 34.5208 19.0522C34.5522 18.9706 34.5972 18.9039 34.6211 18.9039C34.6449 18.9039 35.7372 19.8551 37.0482 21.0178ZM7.34025 22.4727L7.09326 22.6669V24.166C7.09326 24.9906 7.1346 25.7424 7.18503 25.8367C7.42162 26.2787 8.13654 26.2237 8.37893 25.7447C8.55478 25.3971 8.54185 23.0074 8.36216 22.6601C8.13953 22.2295 7.74191 22.1567 7.34025 22.4727ZM29.4309 22.8795L29.1679 23.1058V24.6111C29.1679 26.0357 29.1789 26.1273 29.3736 26.322C29.6431 26.5915 30.0987 26.5915 30.3683 26.322C30.563 26.1273 30.5739 26.0357 30.5739 24.6111V23.1058L30.3109 22.8795C30.1663 22.7551 29.9683 22.6533 29.8709 22.6533C29.7735 22.6533 29.5756 22.7551 29.4309 22.8795ZM7.49773 27.3407C7.38515 27.3861 7.24802 27.5072 7.19309 27.6098C7.0613 27.8561 7.06092 30.5728 7.19272 30.819C7.43333 31.2685 8.17675 31.2262 8.39337 30.7506C8.53257 30.4453 8.53397 27.9874 8.39524 27.6829C8.33797 27.5573 8.18837 27.4077 8.06277 27.3504C7.79918 27.2303 7.77284 27.2299 7.49773 27.3407ZM29.3465 27.9123C29.1967 28.0779 29.1626 28.2897 29.1344 29.2288C29.0808 31.0242 29.2496 31.5582 29.8709 31.5582C30.4922 31.5582 30.661 31.0242 30.6074 29.2288C30.5684 27.9259 30.4659 27.715 29.8709 27.715C29.6384 27.715 29.4665 27.7797 29.3465 27.9123ZM7.49548 32.3567C7.34129 32.4216 7.18765 32.546 7.15419 32.6334C7.12063 32.7207 7.09326 33.4604 7.09326 34.2773V35.7626L7.34025 35.9569C7.65108 36.2014 7.977 36.2048 8.21574 35.9661C8.48626 35.6955 8.5171 35.4703 8.48317 34.0163C8.4572 32.9061 8.42599 32.6729 8.28229 32.5143C8.05227 32.2606 7.83011 32.2161 7.49548 32.3567ZM29.4762 32.7822C29.2253 32.9285 29.1217 33.4826 29.1269 34.6514C29.1325 35.918 29.246 36.3432 29.6131 36.4719C30.0099 36.611 30.365 36.444 30.4984 36.0555C30.6373 35.6504 30.654 33.6966 30.5225 33.2231C30.3859 32.7315 29.9084 32.5302 29.4762 32.7822ZM35.531 33.8464C34.5458 34.0855 33.8034 34.7086 33.3486 35.6782L33.1048 36.198V40.6505V45.1029L33.3541 45.6348C33.704 46.3813 34.259 46.9475 34.9563 47.2696L35.5419 47.54H40.5587H45.5755L46.1961 47.2344C46.9185 46.8789 47.4142 46.3707 47.7617 45.6297L48.0087 45.1029V40.6505V36.198L47.7584 35.6641C47.474 35.0574 46.8403 34.3776 46.3039 34.104C46.1041 34.002 45.6916 33.8726 45.3874 33.8163C44.5781 33.6667 36.1656 33.6924 35.531 33.8464ZM45.4136 35.2607C45.4683 35.3204 44.6016 36.1469 43.0237 37.5398L40.5479 39.725L39.8259 39.0804C39.4287 38.7259 38.3341 37.753 37.3934 36.9184C36.4525 36.0838 35.6803 35.3694 35.6772 35.3308C35.674 35.2923 35.7688 35.2325 35.8879 35.1981C36.2444 35.0949 45.3166 35.1545 45.4136 35.2607ZM37.1289 38.569C38.3698 39.6667 39.3966 40.5977 39.4106 40.6377C39.4248 40.6777 38.3527 41.669 37.0285 42.8404C35.3027 44.3668 34.5987 44.936 34.5436 44.8491C34.4558 44.7105 34.4368 36.8715 34.5236 36.5476C34.5716 36.368 34.6034 36.3533 34.7267 36.4538C34.807 36.5194 35.8881 37.4712 37.1289 38.569ZM46.6363 40.6505C46.6363 42.8415 46.6054 44.713 46.5676 44.8092C46.5094 44.9571 46.1264 44.6548 44.0868 42.851C42.7602 41.6777 41.6874 40.6799 41.7028 40.6335C41.7183 40.5871 42.805 39.6005 44.1177 38.4411C46.0798 36.7082 46.5162 36.3628 46.5704 36.5C46.6067 36.5916 46.6363 38.4594 46.6363 40.6505ZM7.28073 37.4635C7.10854 37.6357 7.09326 37.7759 7.09326 39.1813C7.09326 40.6597 7.10057 40.7184 7.31017 40.9154C7.57797 41.1669 7.93894 41.1765 8.23111 40.9399C8.44745 40.7647 8.45242 40.7264 8.45242 39.2157C8.45242 37.8278 8.43424 37.6506 8.27386 37.4733C8.04083 37.2158 7.53335 37.2109 7.28073 37.4635ZM29.4762 37.7501C29.2253 37.8964 29.1217 38.4506 29.1269 39.6194C29.1325 40.8859 29.246 41.3111 29.6131 41.4399C30.0099 41.579 30.365 41.412 30.4984 41.0234C30.6373 40.6183 30.654 38.6646 30.5225 38.191C30.3859 37.6995 29.9084 37.4982 29.4762 37.7501ZM43.099 43.8548C45.1295 45.6531 45.522 46.0401 45.3746 46.0978C45.1409 46.1895 35.9707 46.1888 35.7367 46.097C35.5863 46.0382 35.9587 45.6676 37.9863 43.8594C39.3227 42.6675 40.4677 41.6898 40.5308 41.6869C40.5939 41.684 41.7496 42.6595 43.099 43.8548ZM7.29704 42.4609C7.11117 42.6587 7.09326 42.7768 7.09326 43.8033C7.09326 44.5887 7.13854 45.0618 7.24305 45.3685C7.48986 46.0929 8.01524 46.2985 8.46648 45.8472C8.66267 45.6511 8.69501 45.5527 8.64374 45.3083C8.60924 45.1438 8.55197 44.4676 8.51644 43.8055C8.45683 42.6938 8.43499 42.5883 8.23083 42.4229C7.93144 42.1805 7.54582 42.1962 7.29704 42.4609ZM29.4393 42.838C29.2016 43.0424 29.1808 43.1216 29.1266 44.0331C29.087 44.6984 29.0153 45.1083 28.9013 45.3206C28.6662 45.7588 28.7669 46.1492 29.1638 46.3383C29.428 46.4644 29.507 46.4668 29.7359 46.3561C30.1152 46.1727 30.4147 45.518 30.5365 44.6056C30.671 43.5995 30.5921 43.0586 30.2747 42.809C29.9605 42.5618 29.7519 42.569 29.4393 42.838ZM9.43233 46.3529C9.15909 46.5742 9.15956 47.0701 9.43317 47.3441C9.6124 47.5236 9.75422 47.5425 11.1241 47.5698C12.6156 47.5996 12.6199 47.5992 12.8558 47.3632C13.1553 47.0637 13.1577 46.7064 12.8622 46.411C12.6372 46.1859 12.5994 46.1808 11.1385 46.1808C9.82892 46.1808 9.61868 46.202 9.43233 46.3529ZM14.4641 46.3752C14.1226 46.6438 14.1226 47.1239 14.4641 47.3926C14.6898 47.5701 14.8362 47.5869 16.1556 47.5869C17.5643 47.5869 17.6059 47.5812 17.8302 47.3568C17.9567 47.2302 18.0603 47.0174 18.0603 46.8839C18.0603 46.7503 17.9567 46.5375 17.8302 46.411C17.6059 46.1866 17.5643 46.1808 16.1556 46.1808C14.8362 46.1808 14.6898 46.1976 14.4641 46.3752ZM19.4321 46.3752C19.253 46.516 19.1851 46.6558 19.1851 46.8839C19.1851 47.1119 19.253 47.2517 19.4321 47.3926C19.6574 47.5698 19.8043 47.5869 21.1067 47.5869C22.409 47.5869 22.5559 47.5698 22.7813 47.3926C23.1228 47.1239 23.1228 46.6438 22.7813 46.3752C22.5559 46.1979 22.409 46.1808 21.1067 46.1808C19.8043 46.1808 19.6574 46.1979 19.4321 46.3752ZM24.3832 46.411C24.2566 46.5375 24.1531 46.7503 24.1531 46.8839C24.1531 47.0174 24.2566 47.2302 24.3832 47.3568C24.6083 47.5819 24.6449 47.5868 26.0939 47.5839C27.6707 47.5807 27.82 47.5432 27.9818 47.1097C28.0802 46.846 27.9695 46.487 27.7348 46.3086C27.6193 46.221 27.1598 46.186 26.0939 46.1838C24.6449 46.1809 24.6083 46.1858 24.3832 46.411Z" fill="url(#paint0_linear_982_9850)"/>
<defs>
<linearGradient id="paint0_linear_982_9850" x1="4" y1="52" x2="53.6544" y2="50.2227" gradientUnits="userSpaceOnUse">
<stop stop-color="#0071BC"/>
<stop offset="1" stop-color="#00C0F3"/>
</linearGradient>
</defs>
</svg>
