<svg width="168" height="48" viewBox="0 0 168 48" fill="none" xmlns="http://www.w3.org/2000/svg">
<path d="M143.773 0C130.401 0 119.546 10.7443 119.546 23.9781C119.546 37.212 130.401 47.9563 143.773 47.9563C157.144 47.9563 168 37.212 168 23.9781C168 10.7443 157.144 0 143.773 0ZM158.203 38.4786L151.275 42.9336C143.862 47.6943 133.932 45.6414 129.123 38.3039L124.621 31.4468C119.811 24.1091 121.885 14.282 129.298 9.52138L136.227 5.06643C143.685 0.262056 153.57 2.35851 158.424 9.69609L162.925 16.5532C167.736 23.8909 165.617 33.718 158.203 38.4786Z" fill="#60C0C9"/>
<path d="M14.7832 34.8702C13.4152 37.0539 10.8117 38.539 6.92829 38.539C3.00079 38.4953 0 36.2679 0 32.8611C0 28.1441 4.6777 26.4843 14.7391 25.4362V24.6937C14.7391 19.9767 11.9149 18.9721 8.91411 18.9721C5.33964 18.9721 3.22143 20.8938 3.04492 23.6454H0.485421C1.10323 19.4962 4.3688 16.832 9.04649 16.832C13.9007 16.832 17.1222 18.8411 17.1222 24.9994C17.1222 27.882 17.078 29.7164 17.078 31.3762C17.078 33.7346 17.2104 35.7437 17.2986 37.9712H14.8716L14.7832 34.8702ZM7.45784 36.3989C11.3412 36.3989 14.8275 34.3898 14.8275 28.5372V27.5326C6.35461 28.4498 2.69189 29.6291 2.69189 32.8174C2.69189 35.0012 4.6777 36.3989 7.45784 36.3989Z" fill="white"/>
<path d="M24.58 10.1055V13.9053H22.1528V10.1055H24.58ZM24.58 17.312V38.0144H22.1528V17.312H24.58Z" fill="white"/>
<path d="M30.0518 38.0147V34.3896H33.4497V38.0147H30.0518Z" fill="white"/>
<path d="M41.2606 38.0144H38.8335V10.1055H41.2606V38.0144Z" fill="white"/>
<path d="M49.5131 10.1055V13.9053H47.0859V10.1055H49.5131ZM49.5131 17.312V38.0144H47.0859V17.312H49.5131Z" fill="white"/>
<path d="M61.6482 34.6946L67.9146 17.3115H70.5183L62.7515 38.0139H60.4127L52.4253 17.3115H55.1613L61.6482 34.6946Z" fill="white"/>
<path d="M71.7983 27.7499C71.7983 21.1111 75.9906 16.9619 81.595 16.9619C87.4643 16.9619 91.2152 21.8973 90.9064 28.3613H74.2696C74.402 33.3841 77.5351 36.3103 81.8156 36.3103C85.0812 36.3103 87.3759 34.6944 88.1703 31.8117H90.6856C89.6266 36.1356 86.2728 38.4942 81.6392 38.4942C75.5935 38.4942 71.7983 34.1703 71.7983 27.7499ZM74.402 26.1338H88.3027C88.3027 22.6398 85.7874 19.102 81.595 19.102C77.6676 19.102 74.8874 21.5478 74.402 26.1338Z" fill="white"/>
<path d="M93.6421 27.7499C93.6421 21.1111 97.8343 16.9619 103.439 16.9619C109.308 16.9619 113.059 21.8973 112.75 28.3613H96.1132C96.2457 33.3841 99.3788 36.3103 103.659 36.3103C106.925 36.3103 109.22 34.6944 110.014 31.8117H112.529C111.47 36.1356 108.116 38.4942 103.483 38.4942C97.4371 38.4942 93.6421 34.1703 93.6421 27.7499ZM96.2457 26.1338H110.146C110.146 22.6398 107.631 19.102 103.439 19.102C99.5112 19.102 96.7311 21.5478 96.2457 26.1338Z" fill="white"/>
</svg>
