<svg width="144" height="40" viewBox="0 0 144 40" fill="none" xmlns="http://www.w3.org/2000/svg">
<g clip-path="url(#clip0_340_706)">
<path d="M0 39.6267L2.99613 18.3682H3.33855L11.8989 35.8007L20.388 18.3682H20.7447L23.7408 39.6267H21.7577L19.6461 24.4092L12.1843 39.6267H11.6564L4.08045 24.2797L2.05449 39.6267H0Z" fill="#373A4A"/>
<path d="M28.8914 31.9316C28.8549 32.7333 28.9792 33.5342 29.2568 34.2864C29.5344 35.0386 29.9596 35.7267 30.507 36.3094C31.0544 36.8922 31.7127 37.3576 32.4427 37.678C33.1726 37.9984 33.9592 38.167 34.7552 38.1739C36.0024 38.185 37.2266 37.8361 38.2834 37.1683C39.3401 36.5006 40.1853 35.5419 40.719 34.4055L42.4025 35.2973C41.7747 36.7437 40.7305 37.9667 39.4051 38.8079C38.0798 39.6491 36.5344 40.0696 34.9692 40.015C33.892 40.0448 32.8201 39.8526 31.8191 39.4503C30.8181 39.0479 29.9091 38.4438 29.1478 37.6749C28.3865 36.9061 27.7889 35.9887 27.3915 34.9788C26.9941 33.969 26.8054 32.888 26.8369 31.8021C26.8083 30.7219 26.9945 29.6468 27.3845 28.6403C27.7744 27.6337 28.3603 26.716 29.1075 25.9413C29.8548 25.1665 30.7483 24.5504 31.7354 24.1291C32.7225 23.7079 33.7832 23.4901 34.8551 23.4885C35.9465 23.4692 37.0301 23.6766 38.0384 24.0981C39.0468 24.5195 39.9582 25.1458 40.7158 25.9379C41.4735 26.7301 42.0611 27.6711 42.4421 28.7023C42.8232 29.7335 42.9894 30.8327 42.9304 31.9316H28.8914ZM40.719 30.148C40.4306 28.8096 39.6966 27.611 38.6389 26.7515C37.5812 25.8919 36.2636 25.4231 34.905 25.4231C33.5465 25.4231 32.2288 25.8919 31.1712 26.7515C30.1135 27.611 29.3794 28.8096 29.0911 30.148H40.719Z" fill="#373A4A"/>
<path d="M60.2795 36.9226C59.5345 37.8881 58.5801 38.6688 57.4895 39.2048C56.3989 39.7408 55.201 40.018 53.9876 40.015C51.8729 39.926 49.8742 39.0166 48.4091 37.4766C46.944 35.9367 46.126 33.8855 46.126 31.7518C46.126 29.618 46.944 27.5669 48.4091 26.0269C49.8742 24.487 51.8729 23.5775 53.9876 23.4886C55.2249 23.4604 56.4493 23.7459 57.5487 24.3189C58.648 24.8919 59.587 25.734 60.2795 26.768V17.8359H62.2769V39.6267H60.2795V36.9226ZM48.0524 31.7734C48.0295 33.4432 48.6637 35.0541 49.8161 36.2537C50.9686 37.4532 52.5454 38.1437 54.2016 38.1739C55.8241 38.0962 57.3546 37.3917 58.4756 36.2066C59.5965 35.0215 60.2219 33.4468 60.2219 31.8093C60.2219 30.1718 59.5965 28.5972 58.4756 27.4121C57.3546 26.227 55.8241 25.5225 54.2016 25.4447C53.3854 25.4522 52.5786 25.622 51.8276 25.9443C51.0765 26.2666 50.3959 26.7351 49.8247 27.323C49.2535 27.9108 48.8029 28.6065 48.4988 29.3702C48.1947 30.1339 48.043 30.9505 48.0524 31.7734Z" fill="#373A4A"/>
<path d="M69.1678 19.1017C69.1893 19.3348 69.1623 19.5698 69.0885 19.7918C69.0147 20.0137 68.8958 20.2177 68.7394 20.3907C68.5829 20.5637 68.3924 20.702 68.18 20.7965C67.9676 20.8911 67.7379 20.9399 67.5057 20.9399C67.2735 20.9399 67.0438 20.8911 66.8314 20.7965C66.619 20.702 66.4285 20.5637 66.272 20.3907C66.1156 20.2177 65.9967 20.0137 65.9229 19.7918C65.8491 19.5698 65.8221 19.3348 65.8436 19.1017C65.882 18.684 66.0737 18.2959 66.3812 18.0134C66.6886 17.7308 67.0897 17.5742 67.5057 17.5742C67.9217 17.5742 68.3228 17.7308 68.6302 18.0134C68.9377 18.2959 69.1294 18.684 69.1678 19.1017ZM66.5284 23.9344H68.5258V39.6266H66.5284V23.9344Z" fill="#373A4A"/>
<path d="M87.8297 36.4619C87.0061 37.6285 85.9031 38.5661 84.6234 39.1872C83.3436 39.8084 81.9288 40.093 80.5106 40.0146C79.4148 40.0709 78.3191 39.9034 77.2891 39.5222C76.2591 39.1411 75.3161 38.5541 74.5166 37.7965C73.7172 37.0389 73.0778 36.1263 72.6368 35.1135C72.1958 34.1007 71.9622 33.0085 71.9502 31.9024C71.9491 30.7653 72.1766 29.6397 72.6191 28.5936C73.0615 27.5476 73.7097 26.6029 74.5245 25.8164C75.3392 25.03 76.3036 24.4182 77.3595 24.0181C78.4153 23.6179 79.5407 23.4376 80.6675 23.4882C82.0701 23.4229 83.4653 23.7267 84.7161 24.3698C85.9669 25.0128 87.0301 25.973 87.8012 27.1559L86.1747 28.1628C85.5179 27.2722 84.6537 26.5584 83.6584 26.0843C82.6631 25.6102 81.5673 25.3904 80.4678 25.4443C79.6135 25.4034 78.7598 25.5376 77.9584 25.839C77.1571 26.1404 76.4248 26.6026 75.8058 27.1976C75.1868 27.7927 74.6941 28.5082 74.3574 29.3008C74.0207 30.0934 73.8472 30.9467 73.8472 31.8089C73.8472 32.6712 74.0207 33.5244 74.3574 34.3171C74.6941 35.1097 75.1868 35.8252 75.8058 36.4202C76.4248 37.0153 77.1571 37.4775 77.9584 37.7789C78.7598 38.0802 79.6135 38.2145 80.4678 38.1735C81.5522 38.1916 82.6255 37.9508 83.5999 37.4708C84.5744 36.9909 85.4225 36.2854 86.0748 35.412L87.8297 36.4619Z" fill="#70BF44"/>
<path d="M91.3682 17.8359H93.3656V39.6267H91.3682V17.8359Z" fill="#70BF44"/>
<path d="M99.9141 19.1014C99.9104 19.5479 99.7338 19.9753 99.422 20.2924C99.1101 20.6095 98.6877 20.7912 98.2448 20.7986C97.8046 20.7911 97.3851 20.6085 97.0778 20.2906C96.7705 19.9727 96.6002 19.5453 96.6041 19.1014C96.6022 18.8837 96.6433 18.6677 96.7251 18.4662C96.8069 18.2646 96.9277 18.0815 97.0804 17.9275C97.2331 17.7735 97.4148 17.6518 97.6147 17.5693C97.8146 17.4869 98.0288 17.4454 98.2448 17.4473C98.4622 17.4454 98.6777 17.4867 98.8792 17.5688C99.0808 17.6509 99.2643 17.7722 99.4193 17.9258C99.5743 18.0794 99.6978 18.2623 99.7827 18.464C99.8676 18.6657 99.9122 18.8823 99.9141 19.1014ZM97.2746 23.9342H99.2721V39.6264H97.2746V23.9342Z" fill="#70BF44"/>
<path d="M101.655 23.9053H104.066L108.218 29.6586L112.355 23.9053H114.724L109.416 31.3558L115.409 39.6262H112.926L108.175 33.0243L103.467 39.6262H101.056L106.962 31.3558L101.655 23.9053Z" fill="#70BF44"/>
<path fill-rule="evenodd" clip-rule="evenodd" d="M137.694 21.5174H138.75C138.871 21.532 138.994 21.5088 139.102 21.4509C139.21 21.3931 139.297 21.3034 139.353 21.1938C139.409 21.0843 139.431 20.9601 139.414 20.838C139.398 20.7159 139.346 20.6016 139.263 20.5106C139.193 20.4308 139.104 20.3695 139.004 20.3319C138.905 20.2943 138.798 20.2816 138.693 20.2949H123.27C123.056 20.3163 122.841 20.3163 122.628 20.2949C122.197 20.2456 121.786 20.088 121.432 19.8367C121.078 19.5853 120.793 19.2483 120.602 18.8565C120.074 17.7059 119.56 16.584 119.061 15.4477L115.166 6.70262L113.739 3.55267C113.572 3.12087 113.307 2.73457 112.965 2.42481C112.623 2.11505 112.214 1.89048 111.77 1.76914C111.306 1.64156 110.825 1.58341 110.343 1.59654C109.93 1.59654 109.487 1.59654 109.102 1.59654C109.037 1.60236 108.975 1.62205 108.918 1.6543C108.862 1.68655 108.812 1.7306 108.774 1.78353C108.663 1.89901 108.6 2.05383 108.6 2.21503C108.6 2.37622 108.663 2.53104 108.774 2.64653C108.894 2.73614 109.039 2.78636 109.188 2.79036H110.886C111.231 2.78513 111.57 2.88353 111.86 3.07306C112.149 3.26259 112.376 3.53468 112.512 3.85472C112.969 4.83279 113.397 5.82524 113.839 6.8033L114.952 9.32038L115.936 11.5066C116.207 12.082 116.464 12.7005 116.735 13.3046L117.406 14.7429C117.62 15.2175 117.834 15.7066 118.034 16.1812C118.476 17.1737 118.932 18.2093 119.46 19.2161C119.749 19.901 120.235 20.4826 120.856 20.8853C121.477 21.288 122.204 21.4932 122.942 21.4743H137.665L137.694 21.5174Z" fill="#373A4A"/>
<path fill-rule="evenodd" clip-rule="evenodd" d="M135.697 27.9326V27.573C136.251 27.528 136.767 27.2744 137.144 26.8626C137.521 26.4508 137.731 25.9111 137.731 25.3508C137.731 24.7904 137.521 24.2507 137.144 23.8389C136.767 23.4271 136.251 23.1735 135.697 23.1285C135.393 23.1213 135.09 23.1791 134.81 23.2981C134.53 23.4171 134.278 23.5946 134.07 23.8189C133.775 24.1361 133.579 24.5332 133.505 24.9615C133.431 25.3897 133.483 25.8304 133.654 26.2293C133.826 26.6282 134.109 26.968 134.469 27.2067C134.829 27.4454 135.251 27.5727 135.682 27.573V27.9326H135.697ZM134.712 25.3579C134.712 25.0958 134.813 24.844 134.995 24.656C135.176 24.468 135.422 24.3586 135.682 24.3511C135.938 24.3577 136.182 24.46 136.367 24.6382C136.551 24.8164 136.663 25.0577 136.681 25.3148C136.682 25.5812 136.582 25.838 136.402 26.0329C136.221 26.2279 135.975 26.3465 135.711 26.3648C135.448 26.3575 135.198 26.2491 135.013 26.0618C134.827 25.8746 134.719 25.6227 134.712 25.3579Z" fill="#373A4A"/>
<path fill-rule="evenodd" clip-rule="evenodd" d="M123.726 27.5725C124.165 27.5697 124.594 27.436 124.957 27.1884C125.321 26.9407 125.604 26.5902 125.771 26.1808C125.938 25.7713 125.981 25.3214 125.894 24.8875C125.808 24.4536 125.596 24.0551 125.286 23.7422C124.975 23.4292 124.58 23.2158 124.15 23.1288C123.719 23.0417 123.273 23.085 122.867 23.253C122.461 23.4211 122.113 23.7064 121.867 24.0732C121.622 24.44 121.489 24.8718 121.486 25.3143C121.484 25.6114 121.541 25.9059 121.653 26.1808C121.765 26.4556 121.93 26.7053 122.138 26.9154C122.347 27.1254 122.594 27.2917 122.867 27.4045C123.14 27.5173 123.432 27.5744 123.726 27.5725V27.9177V27.5725ZM122.713 25.3575C122.71 25.0929 122.809 24.8374 122.991 24.6463C123.172 24.4552 123.421 24.3438 123.684 24.3363C123.952 24.3378 124.208 24.4464 124.397 24.6383C124.58 24.8265 124.682 25.0796 124.682 25.3431C124.682 25.6101 124.577 25.8662 124.39 26.055C124.202 26.2439 123.948 26.3499 123.684 26.3499C123.419 26.3499 123.165 26.2439 122.977 26.055C122.79 25.8662 122.685 25.6101 122.685 25.3431L122.713 25.3575Z" fill="#373A4A"/>
<path fill-rule="evenodd" clip-rule="evenodd" d="M111.199 15.1308H109.359C109.202 15.116 109.045 15.1587 108.916 15.2512C108.788 15.3436 108.697 15.4796 108.66 15.6342C108.624 15.7455 108.616 15.864 108.636 15.9793C108.655 16.0946 108.703 16.2033 108.774 16.2959C108.853 16.3895 108.952 16.4649 109.062 16.517C109.173 16.5691 109.294 16.5967 109.416 16.5979H116.207C116.065 16.3102 115.936 16.0082 115.822 15.7205L115.565 15.1452H111.199V15.1308Z" fill="#373A4A"/>
<path fill-rule="evenodd" clip-rule="evenodd" d="M113.61 10.7871H109.33C109.222 10.7859 109.115 10.8131 109.02 10.8661C108.925 10.919 108.845 10.9959 108.788 11.0892C108.711 11.2037 108.669 11.339 108.669 11.4775C108.669 11.6161 108.711 11.7514 108.788 11.8659C108.841 11.9877 108.929 12.0904 109.041 12.1598C109.153 12.2293 109.284 12.2623 109.416 12.2542H114.352L113.924 11.3337L113.61 10.7871Z" fill="#373A4A"/>
<path fill-rule="evenodd" clip-rule="evenodd" d="M111.642 6.44369H109.302C109.151 6.43872 109.004 6.48993 108.888 6.58752C108.75 6.71223 108.662 6.88488 108.644 7.07133C108.625 7.25777 108.677 7.44443 108.788 7.59436C108.857 7.69176 108.95 7.76948 109.057 7.8199C109.165 7.87033 109.284 7.89173 109.402 7.88202H112.341L112.213 7.59436L111.67 6.44369H111.642Z" fill="#373A4A"/>
<path fill-rule="evenodd" clip-rule="evenodd" d="M127.336 9.56525C128.762 8.12692 130.303 6.58791 131.787 5.09204L134.897 1.97086C135.364 1.50776 135.917 1.14226 136.524 0.89541C137.131 0.648561 137.781 0.525235 138.436 0.532532C139.102 0.534414 139.761 0.66883 140.376 0.928077C140.991 1.18733 141.549 1.56631 142.018 2.04331C142.487 2.52032 142.858 3.08597 143.11 3.70785C143.362 4.32974 143.49 4.99563 143.486 5.66738C143.496 6.33202 143.375 6.99197 143.13 7.60914C142.885 8.22631 142.521 8.78848 142.06 9.2632L134.469 16.8144C133.503 17.797 132.226 18.4076 130.86 18.5404C130.223 18.6118 129.578 18.5533 128.964 18.3683C128.35 18.1834 127.779 17.8757 127.285 17.4638C126.791 17.0518 126.384 16.5439 126.089 15.9703C125.794 15.3966 125.616 14.769 125.567 14.1248C125.499 13.2793 125.624 12.4295 125.93 11.6396C126.237 10.8497 126.717 10.1404 127.336 9.56525Z" fill="#9AC43C" stroke="#373A4A" stroke-width="0.75" stroke-miterlimit="10"/>
<path fill-rule="evenodd" clip-rule="evenodd" d="M123.94 12.9742V13.0749C125.039 14.1536 126.109 15.2612 127.207 16.3399C128.039 17.144 129.137 17.61 130.289 17.6488C131.225 17.6983 132.146 17.3942 132.872 16.7957C133.597 16.1972 134.075 15.3475 134.212 14.4125C134.32 13.6704 134.247 12.913 133.998 12.206C133.75 11.4991 133.333 10.8642 132.786 10.3564C131.901 9.4503 131.002 8.57292 130.118 7.68115C129.946 7.50855 129.761 7.36472 129.576 7.17773L123.94 12.9742Z" fill="white"/>
<path fill-rule="evenodd" clip-rule="evenodd" d="M135.383 14.2678C135.331 14.9127 135.152 15.5406 134.855 16.1143C134.558 16.688 134.151 17.1958 133.656 17.6076C133.161 18.0194 132.589 18.3268 131.974 18.5116C131.359 18.6964 130.713 18.7549 130.075 18.6835C128.709 18.5506 127.432 17.94 126.466 16.9575C123.969 14.4548 121.472 11.9377 119.004 9.42063C118.298 8.70548 117.818 7.79629 117.624 6.8071C117.429 5.81791 117.528 4.79278 117.909 3.86029C118.29 2.9278 118.936 2.12948 119.765 1.56547C120.594 1.00147 121.57 0.696894 122.571 0.689955C123.223 0.680569 123.872 0.802992 124.477 1.05001C125.082 1.29703 125.632 1.66366 126.095 2.12829C127.136 3.1495 128.163 4.19948 129.205 5.23508C130.632 6.67341 132.187 8.21243 133.671 9.72268C134.273 10.3041 134.74 11.0139 135.036 11.8002C135.332 12.5865 135.451 13.4295 135.383 14.2678Z" fill="#CCDF77" stroke="#373A4A" stroke-width="0.75" stroke-miterlimit="10"/>
<path fill-rule="evenodd" clip-rule="evenodd" d="M120.117 3.5957L119.974 3.72515C119.416 4.30256 119.104 5.07668 119.104 5.88265C119.104 6.68862 119.416 7.46274 119.974 8.04015C119.974 8.04015 119.974 8.04015 119.974 8.11206L121.7 9.85244L122.271 10.4278L122.842 9.85244L122.699 9.67985L120.516 7.59426C120.214 7.2907 119.979 6.92617 119.827 6.5246C119.674 6.12302 119.608 5.69348 119.631 5.26417C119.654 4.67619 119.821 4.10301 120.117 3.5957Z" fill="white"/>
<path fill-rule="evenodd" clip-rule="evenodd" d="M141.332 5.06326C141.353 5.49135 141.283 5.91905 141.128 6.31819C140.974 6.71733 140.737 7.07886 140.433 7.37898C139.72 8.11252 139.006 8.81731 138.264 9.56524L138.107 9.73784L138.692 10.3132L139.263 9.73784L140.989 7.99746C141.277 7.70882 141.505 7.36586 141.66 6.98822C141.816 6.61058 141.896 6.20571 141.896 5.79681C141.896 5.38791 141.816 4.98304 141.66 4.6054C141.505 4.22776 141.277 3.8848 140.989 3.59616V3.52425L140.847 3.40918C141.136 3.91404 141.302 4.48096 141.332 5.06326Z" fill="white"/>
<path fill-rule="evenodd" clip-rule="evenodd" d="M123.141 13.7653C124.568 12.327 126.109 10.7736 127.593 9.27769C128.634 8.2421 129.661 7.19211 130.703 6.1709" fill="#2F71B7"/>
<path d="M123.141 13.7653C124.568 12.327 126.109 10.7736 127.593 9.27769C128.634 8.2421 129.661 7.19211 130.703 6.1709" stroke="#373A4A" stroke-width="0.75" stroke-miterlimit="10"/>
<path d="M126.993 17.1016C126.993 17.1016 130.931 19.8057 133.842 16.7996C136.752 13.7935 133.685 10.3415 133.685 10.3415L130.418 6.77441L123.769 13.7216L126.993 17.1016Z" fill="#5DBA47"/>
<path d="M135.411 14.211C135.359 14.8559 135.18 15.4838 134.883 16.0575C134.587 16.6312 134.179 17.139 133.684 17.5508C133.189 17.9626 132.617 18.2701 132.002 18.4549C131.387 18.6397 130.741 18.6981 130.104 18.6267C128.742 18.493 127.469 17.8822 126.508 16.9007C123.997 14.398 121.515 11.8809 119.032 9.36386C118.327 8.64872 117.847 7.73953 117.652 6.75034C117.457 5.76115 117.556 4.73601 117.937 3.80352C118.318 2.87103 118.964 2.07271 119.793 1.50871C120.623 0.944702 121.599 0.640126 122.599 0.633187C123.254 0.625097 123.904 0.748059 124.511 0.994953C125.118 1.24185 125.671 1.60777 126.137 2.07152C127.193 3.10712 128.22 4.1571 129.247 5.1927C130.674 6.63103 132.244 8.15566 133.713 9.68029C134.312 10.2609 134.776 10.9688 135.069 11.7525C135.363 12.5363 135.48 13.3761 135.411 14.211V14.211Z" stroke="#373A4A" stroke-width="0.75" stroke-miterlimit="10"/>
</g>
<defs>
<clipPath id="clip0_340_706">
<rect width="144" height="40" fill="white"/>
</clipPath>
</defs>
</svg>
