<svg width="208" height="48" viewBox="0 0 208 48" fill="none" xmlns="http://www.w3.org/2000/svg">
<path d="M208 0H0V47.5846H208V0Z" fill="#1C49AD"/>
<path d="M204.645 3.39941H123.041V44.1862H204.645V3.39941Z" fill="#F5BF41"/>
<path d="M136.509 27.9138C136.354 27.9138 136.242 27.8832 136.126 27.8832C134.563 27.8832 132.997 27.8832 131.436 27.8832C131.065 27.8832 130.945 28.0449 130.871 28.3814C130.697 29.332 130.629 30.2996 130.669 31.2657C130.645 31.8165 130.749 32.3653 130.974 32.8674C131.198 33.3694 131.538 33.8104 131.962 34.1545C133.205 35.1159 134.71 35.1902 136.156 35.2427C138.774 35.3431 141.41 35.3912 143.98 34.7182C145.951 34.2025 147.738 33.3809 148.535 31.27C149.334 29.1593 150.028 27.0616 149.709 24.7498C149.655 24.2406 149.455 23.7587 149.134 23.3635C148.812 22.9681 148.384 22.6767 147.902 22.5253C145.706 21.7605 143.402 21.7911 141.134 21.5682C140.424 21.5646 139.717 21.4676 139.033 21.2797C138.835 21.2118 138.669 21.074 138.565 20.8916C138.46 20.7093 138.424 20.4949 138.463 20.2878C138.545 19.501 138.593 18.6488 139.404 18.2425C140.828 17.5344 142.371 17.8055 143.868 17.8579C144.938 17.8885 145.257 18.3867 145.124 19.4574C145.092 19.6335 145.049 19.8073 144.994 19.9774H150.601C150.713 19.3962 150.852 18.8236 150.929 18.2294C151.102 17.0101 151.163 15.7427 150.438 14.7025C149.713 13.6625 148.514 13.2473 147.28 13.1162C144.247 12.7393 141.176 12.8026 138.162 13.3041C137.282 13.4466 136.447 13.7893 135.718 14.3063C134.988 14.8234 134.384 15.5012 133.951 16.289C133.125 17.8376 132.631 19.5459 132.502 21.3016C132.191 24.4263 133.472 25.5189 135.772 25.8597C138.07 26.2007 140.439 26.2968 142.772 26.4978C143.493 26.5677 143.932 26.9348 143.795 27.7477C143.752 28.0142 143.696 28.2808 143.636 28.5431C143.415 29.4477 142.932 30.0857 141.958 30.2475C140.589 30.4659 139.198 30.4834 137.825 30.2999C136.617 30.147 136.307 29.6225 136.501 28.4033C136.513 28.2404 136.515 28.077 136.509 27.9138Z" fill="#1C49AD"/>
<path d="M185.098 25.9384C187.777 25.9384 190.348 25.9384 192.922 25.9384C193.786 25.9384 194.505 26.0564 194.57 24.8109C194.687 23.8306 194.876 22.8607 195.135 21.9091H185.913C186.198 20.598 186.457 19.335 186.733 18.0895C186.781 17.8928 186.97 17.8841 187.164 17.8841C189.865 17.8841 192.569 17.8448 195.269 17.8841C196.213 17.9059 196.796 17.8272 196.904 16.6648C197.078 15.4694 197.316 14.2846 197.62 13.1162H181.979C180.452 20.3999 178.92 27.704 177.385 35.0284H193.233C193.549 33.4247 193.868 31.8382 194.204 30.1557H184.145C184.476 28.6742 184.787 27.2932 185.098 25.9034" fill="#1C49AD"/>
<path d="M167.515 18.1986C166.317 23.8799 165.139 29.4432 163.953 35.0633H169.759C170.932 29.4344 172.1 23.8362 173.279 18.2073H179.063C179.438 16.5161 179.801 14.8685 180.175 13.1641H163.029C162.685 14.8247 162.339 16.4723 161.977 18.1986H167.515Z" fill="#1C49AD"/>
<path d="M156.654 35.0803L161.23 13.168H155.432C153.9 20.4517 152.369 27.7558 150.839 35.0803H156.654Z" fill="#1C49AD"/>
<path d="M111.701 35.0499L105.843 23.8839L115.678 13.142H108.587C106.581 15.4014 104.541 17.6564 102.548 19.9595C101.802 20.8336 101.137 21.7076 99.7397 21.192C100.283 18.5494 100.838 15.8617 101.405 13.1289H95.5556C94.0372 20.4126 92.5174 27.6963 90.9961 34.98C91.0779 35.0154 91.1632 35.0417 91.2505 35.0586H96.5606C96.636 35.0613 96.7096 35.0347 96.7665 34.9844C96.8233 34.9341 96.8593 34.8638 96.8669 34.7877C97.2723 32.8735 97.675 30.9579 98.0747 29.0408C98.2559 28.1886 98.4413 27.3364 98.6268 26.4624C99.1617 26.4624 99.6318 26.4624 100.106 26.4624C100.163 26.4729 100.216 26.4961 100.262 26.53C100.308 26.5641 100.347 26.6081 100.374 26.6591C101.237 28.4072 102.099 30.1552 102.962 31.8683L104.523 35.028L111.701 35.0499Z" fill="white"/>
<path d="M85.164 20.9953C85.2373 21.0303 85.2719 21.0609 85.3064 21.0609C87.1871 21.0609 89.0677 21.0609 90.9442 21.0609C91.1642 21.0609 91.2764 20.9035 91.3065 20.6632C91.3799 20.0776 91.4748 19.5007 91.574 18.9151C91.8113 17.556 91.8544 16.175 91.19 14.947C90.2756 13.2732 88.5459 13.0241 86.9153 12.9542C84.7066 12.8122 82.4903 12.8384 80.2854 13.0328C78.6751 13.1441 77.1201 13.6723 75.769 14.5667C73.4052 16.2493 72.5382 18.8058 71.9558 21.5023C71.6583 22.892 71.4598 24.3036 71.0932 25.6803C70.6148 27.4763 70.4212 29.3379 70.5195 31.1955C70.5795 32.154 70.9994 33.0532 71.6927 33.7083C72.6676 34.6523 73.9272 34.9539 75.2256 35.0719C77.5649 35.2903 79.9181 35.3122 82.2609 35.1374C84.1268 35.0692 85.9073 34.3284 87.2819 33.0484C88.3649 31.9716 89.1285 30.6091 89.4862 29.1152C89.6976 28.3417 89.8184 27.5463 89.9909 26.7115H83.9519C83.8699 27.0481 83.7966 27.3584 83.7189 27.6643C83.5119 28.4685 83.2272 29.2201 82.4551 29.6528C81.3724 30.2558 80.1904 30.0898 79.0388 30.0898C78.3572 30.0898 77.6325 30.0155 77.158 29.4473C76.2953 28.4509 76.8302 27.3103 77.0071 26.2571C77.2961 24.5527 77.7145 22.8745 78.0984 21.192C78.327 20.1825 78.616 19.1467 79.6039 18.6354C81.0877 17.8707 82.701 18.0542 84.2668 18.3163C85.026 18.4388 85.3625 19.0769 85.2719 19.8766C85.233 20.2655 85.1683 20.6501 85.1166 21.0259" fill="white"/>
<path d="M65.2183 13.1416C65.1407 13.5 65.0588 13.8276 64.9898 14.1554C64.5153 16.4309 64.0436 18.7078 63.5749 20.9861C63.1435 23.0969 62.7122 25.2077 62.242 27.3055C62.0005 28.3543 61.8106 29.4906 60.5511 29.8752C59.2915 30.2598 58.1139 30.1199 56.8802 30.0543C55.31 29.9669 54.7579 29.1454 55.1332 27.6114C55.6164 25.6404 55.996 23.6388 56.4273 21.6504C56.8587 19.5395 57.29 17.4288 57.7213 15.318C57.8724 14.6013 58.0147 13.8845 58.1527 13.1328H52.4157C52.3739 13.2125 52.3392 13.2959 52.3122 13.3819C51.9498 15.0601 51.5831 16.7339 51.2338 18.4164C50.8844 20.099 50.5738 21.7204 50.2244 23.3679C49.6775 25.5854 49.2456 27.8304 48.9303 30.0937C48.7793 31.4966 48.8268 32.9212 50.1036 33.8826C51.1734 34.6868 52.4501 34.914 53.727 35.0407C56.1803 35.314 58.6573 35.2832 61.1032 34.949C64.0278 34.512 66.1717 33.0305 67.2673 30.2029C68.074 28.114 68.3543 25.8765 68.8332 23.7001C69.3507 21.3489 69.8296 18.9977 70.3213 16.6421C70.5585 15.4928 70.7872 14.339 71.0287 13.1459L65.2183 13.1416Z" fill="white"/>
<path d="M29.2392 13.1504H12.0582C11.7002 14.8111 11.3465 16.4674 10.9712 18.2242H16.5056C15.3235 23.9056 14.159 29.4426 12.9899 35.0452H18.8305C20.0124 29.4397 21.1915 23.8312 22.3677 18.2199H28.1866C28.5361 16.5373 28.8768 14.881 29.2392 13.1504Z" fill="white"/>
<path d="M42.2621 26.589L42.8229 26.4536C44.4578 26.0995 45.9718 25.4572 46.7698 23.8839C47.9097 21.6146 48.4352 19.0797 48.2925 16.5376C48.2765 15.9403 48.0882 15.361 47.7509 14.8709C47.4137 14.3809 46.9421 14.0016 46.3946 13.7799C45.498 13.3769 44.5285 13.1671 43.5475 13.1638C39.4151 13.1157 35.2785 13.12 31.146 13.1113C31.0257 13.1212 30.9061 13.1386 30.788 13.1638C29.2696 20.4663 27.7685 27.7428 26.2329 35.0498H32.0217C32.43 33.1241 32.8413 31.2142 33.2553 29.3205C33.3116 29.2937 33.371 29.2746 33.4323 29.2637C34.998 29.2637 36.5595 29.233 38.121 29.2637C38.3364 29.2685 38.548 29.3225 38.74 29.4215C38.9319 29.5207 39.0993 29.6624 39.2297 29.8362C39.9458 30.7757 39.4841 31.7503 39.316 32.7117C39.1779 33.4897 39.0011 34.2588 38.8371 35.0586H44.626C44.9279 33.2624 45.5491 31.5362 45.6267 29.7094C45.6914 28.1886 45.1522 27.4106 43.8323 26.9387C43.3155 26.7945 42.7913 26.6792 42.2621 26.5935V26.589ZM35.4854 18.762C35.52 18.5829 35.5588 18.4036 35.5976 18.2245H40.1226C40.2779 18.2245 41.2009 18.0934 41.6841 18.6614C41.9559 18.9892 42.0119 19.4 41.9128 20.1954C41.7798 21.0696 41.5734 21.9308 41.2959 22.7695C41.1786 23.1578 40.9347 23.4943 40.604 23.7238C40.2733 23.9532 39.8753 24.0621 39.4756 24.0325C37.7932 24.0762 36.1067 24.0325 34.3726 24.0325C34.7061 22.4854 35.0355 20.9237 35.3604 19.3476C35.3992 19.1509 35.4423 18.9499 35.4854 18.7532" fill="white"/>
</svg>
